M48
; Volt Excellon NC drill
;TYPE=PLATED
METRIC,TZ
FMAT,2
T01C0.300000
T02C0.450000
T03C1.000000
T04C3.200000
%
T01
X0006000000Y0040500000
X0006000000Y0037500000
X0006000000Y0035000000
X0006500000Y0050000000
X0006500000Y0009000000
X0007500000Y0030500000
X0018000000Y0033000000
X0020500000Y0040500000
X0032000000Y0033000000
X0033000000Y0025000000
X0033750000Y0022000000
X0035500000Y0040500000
X0036450000Y0024250000
X0038550000Y0025750000
X0038750000Y0036000000
X0041000000Y0026250000
X0041750000Y0019000000
X0042000000Y0014250000
X0043000000Y0020000000
X0044500000Y0025500000
X0045500000Y0018000000
X0047000000Y0033000000
X0047000000Y0030000000
X0047000000Y0025000000
X0047250000Y0013000000
X0048500000Y0033000000
X0049750000Y0016000000
X0051000000Y0033000000
X0052750000Y0018500000
X0054000000Y0014250000
X0055000000Y0020000000
X0060000000Y0032250000
X0062500000Y0024250000
X0068100000Y0033500000
X0071750000Y0020500000
X0075500000Y0039500000
X0075500000Y0038000000
X0075500000Y0035500000
X0077500000Y0046500000
X0080000000Y0024000000
X0082000000Y0029000000
X0082700000Y0017300000
X0083000000Y0050000000
X0083000000Y0009000000
X0084000000Y0020700000
X0085600000Y0043540000
X0086500000Y0042270000
X0087400000Y0041000000
X0088300000Y0039730000
X0089200000Y0038460000
T02
X0077365000Y0043540000
X0077365000Y0042270000
X0077365000Y0041000000
X0077365000Y0039730000
X0077365000Y0038460000
X0078635000Y0043540000
X0078635000Y0042270000
X0078635000Y0041000000
X0078635000Y0039730000
X0078635000Y0038460000
T03
X0006000000Y0044810000
X0006000000Y0042270000
X0006000000Y0039730000
X0006000000Y0037190000
X0006000000Y0029270000
X0006000000Y0026730000
X0084000000Y0031810000
X0084000000Y0029270000
X0084000000Y0026730000
X0084000000Y0024190000
T04
X0005000000Y0053000000
X0005000000Y0005000000
X0085000000Y0053000000
X0085000000Y0005000000
M30
