<svg xmlns="http://www.w3.org/2000/svg" viewBox="0 0 594 420" width="594" height="420">
  <style>.document-background,.sheet{fill:#fff;stroke:none}.sheet-border{fill:none;stroke:#111;stroke-width:0.45}.drawing-frame{fill:none;stroke:#111;stroke-width:0.35}.sheet-grid{stroke:none}.sheet-grid-dot{fill:#d7d7d7;stroke:none}.coordinate-zone-label{font:3px sans-serif;fill:#444;text-anchor:middle;dominant-baseline:middle}.sheet-title{font-weight:600}.title-block-outline,.title-block-rule{fill:none;stroke:#111;stroke-width:0.3}.title-block-label{font:2.5px sans-serif;fill:#444;text-anchor:start}.title-block-value{font:2.5px sans-serif;fill:#111;text-anchor:start}.sheet-region-frame{fill:#fff;fill-opacity:0;stroke:#78716c;stroke-width:0.35}.sheet-region-frame.dashed{stroke-dasharray:3 2}.sheet-region-title{font:3.2px sans-serif;fill:#57534e;text-anchor:start;font-weight:600}.wire-run{fill:none;stroke:#111;stroke-width:0.75}.net-label{font:2.5px sans-serif;fill:#111;text-anchor:start}.junction{fill:#111;stroke:none}.power-port-line,.ground-bar{stroke:#111;stroke-width:0.55}.no-connect-line{stroke:#111;stroke-width:0.65}.power-port-shape,.sheet-port-shape{fill:#fff;stroke:#111;stroke-width:0.55}.power-port-label,.sheet-port-label{font:2.45px sans-serif;fill:#111;text-anchor:middle}.symbol-field{font:2.5px sans-serif;fill:#111;text-anchor:middle}.symbol-line,.symbol-rectangle,.symbol-circle,.symbol-arc{fill:none;stroke:#111;stroke-width:0.7}.symbol-text,.reference{font:2.7px sans-serif;fill:#111;text-anchor:middle}</style>
  <rect class="document-background" x="0" y="0" width="594" height="420"/>
  <g class="schematic-sheet" data-sheet="sheet:0" transform="translate(0 0)">
    <defs>
      <clipPath id="title-block-clip-sheet-0">
        <rect x="0" y="0" width="82" height="42"/>
      </clipPath>
      <clipPath id="region-title-clip-sheet-0-0">
        <rect x="18" y="18" width="158" height="10"/>
      </clipPath>
      <clipPath id="region-title-clip-sheet-0-1">
        <rect x="190" y="18" width="210" height="10"/>
      </clipPath>
      <clipPath id="region-title-clip-sheet-0-2">
        <rect x="414" y="18" width="162" height="10"/>
      </clipPath>
    </defs>
    <rect class="sheet" x="0" y="0" width="594" height="420"/>
    <rect class="sheet-border" x="0" y="0" width="594" height="420"/>
    <rect class="drawing-frame" x="16" y="14" width="562" height="392"/>
    <g class="coordinate-zones">
      <text class="coordinate-zone-label column" x="33.5625" y="7">1</text>
      <text class="coordinate-zone-label column" x="33.5625" y="413">1</text>
      <text class="coordinate-zone-label column" x="68.6875" y="7">2</text>
      <text class="coordinate-zone-label column" x="68.6875" y="413">2</text>
      <text class="coordinate-zone-label column" x="103.8125" y="7">3</text>
      <text class="coordinate-zone-label column" x="103.8125" y="413">3</text>
      <text class="coordinate-zone-label column" x="138.9375" y="7">4</text>
      <text class="coordinate-zone-label column" x="138.9375" y="413">4</text>
      <text class="coordinate-zone-label column" x="174.0625" y="7">5</text>
      <text class="coordinate-zone-label column" x="174.0625" y="413">5</text>
      <text class="coordinate-zone-label column" x="209.1875" y="7">6</text>
      <text class="coordinate-zone-label column" x="209.1875" y="413">6</text>
      <text class="coordinate-zone-label column" x="244.3125" y="7">7</text>
      <text class="coordinate-zone-label column" x="244.3125" y="413">7</text>
      <text class="coordinate-zone-label column" x="279.4375" y="7">8</text>
      <text class="coordinate-zone-label column" x="279.4375" y="413">8</text>
      <text class="coordinate-zone-label column" x="314.5625" y="7">9</text>
      <text class="coordinate-zone-label column" x="314.5625" y="413">9</text>
      <text class="coordinate-zone-label column" x="349.6875" y="7">10</text>
      <text class="coordinate-zone-label column" x="349.6875" y="413">10</text>
      <text class="coordinate-zone-label column" x="384.8125" y="7">11</text>
      <text class="coordinate-zone-label column" x="384.8125" y="413">11</text>
      <text class="coordinate-zone-label column" x="419.9375" y="7">12</text>
      <text class="coordinate-zone-label column" x="419.9375" y="413">12</text>
      <text class="coordinate-zone-label column" x="455.0625" y="7">13</text>
      <text class="coordinate-zone-label column" x="455.0625" y="413">13</text>
      <text class="coordinate-zone-label column" x="490.1875" y="7">14</text>
      <text class="coordinate-zone-label column" x="490.1875" y="413">14</text>
      <text class="coordinate-zone-label column" x="525.3125" y="7">15</text>
      <text class="coordinate-zone-label column" x="525.3125" y="413">15</text>
      <text class="coordinate-zone-label column" x="560.4375" y="7">16</text>
      <text class="coordinate-zone-label column" x="560.4375" y="413">16</text>
      <text class="coordinate-zone-label row" x="8" y="33.6">A</text>
      <text class="coordinate-zone-label row" x="586" y="33.6">A</text>
      <text class="coordinate-zone-label row" x="8" y="72.8">B</text>
      <text class="coordinate-zone-label row" x="586" y="72.8">B</text>
      <text class="coordinate-zone-label row" x="8" y="112">C</text>
      <text class="coordinate-zone-label row" x="586" y="112">C</text>
      <text class="coordinate-zone-label row" x="8" y="151.2">D</text>
      <text class="coordinate-zone-label row" x="586" y="151.2">D</text>
      <text class="coordinate-zone-label row" x="8" y="190.4">E</text>
      <text class="coordinate-zone-label row" x="586" y="190.4">E</text>
      <text class="coordinate-zone-label row" x="8" y="229.6">F</text>
      <text class="coordinate-zone-label row" x="586" y="229.6">F</text>
      <text class="coordinate-zone-label row" x="8" y="268.8">G</text>
      <text class="coordinate-zone-label row" x="586" y="268.8">G</text>
      <text class="coordinate-zone-label row" x="8" y="308">H</text>
      <text class="coordinate-zone-label row" x="586" y="308">H</text>
      <text class="coordinate-zone-label row" x="8" y="347.2">I</text>
      <text class="coordinate-zone-label row" x="586" y="347.2">I</text>
      <text class="coordinate-zone-label row" x="8" y="386.4">J</text>
      <text class="coordinate-zone-label row" x="586" y="386.4">J</text>
    </g>
    <g class="title-block" transform="translate(496 364)" clip-path="url(#title-block-clip-sheet-0)">
      <rect class="title-block-outline" x="0" y="0" width="82" height="42"/>
      <line class="title-block-rule" x1="22" y1="0" x2="22" y2="42"/>
      <line class="title-block-rule" x1="0" y1="6" x2="82" y2="6"/>
      <line class="title-block-rule" x1="0" y1="12" x2="82" y2="12"/>
      <line class="title-block-rule" x1="0" y1="18" x2="82" y2="18"/>
      <line class="title-block-rule" x1="0" y1="24" x2="82" y2="24"/>
      <line class="title-block-rule" x1="0" y1="30" x2="82" y2="30"/>
      <line class="title-block-rule" x1="0" y1="36" x2="82" y2="36"/>
      <text class="title-block-label" x="2" y="4.2">Title</text>
      <text class="title-block-value sheet-title" x="24" y="4.2">STM32 USB Buck Reference Schematic</text>
      <text class="title-block-label" x="2" y="10.2">Number</text>
      <text class="title-block-value" x="24" y="10.2">1</text>
      <text class="title-block-label" x="2" y="16.2">Page Count</text>
      <text class="title-block-value" x="24" y="16.2">1</text>
      <text class="title-block-label" x="2" y="22.2">Revision</text>
      <text class="title-block-value" x="24" y="22.2">A</text>
      <text class="title-block-label" x="2" y="28.2">Date</text>
      <text class="title-block-value" x="24" y="28.2">2026-05-18</text>
      <text class="title-block-label" x="2" y="34.2">Project</text>
      <text class="title-block-value" x="24" y="34.2">Volt STM32 USB Buck</text>
      <text class="title-block-label" x="2" y="40.2">File</text>
      <text class="title-block-value" x="24" y="40.2">examples/stm32_usb_buck/schematic_output.py</text>
    </g>
    <g class="layer layer-regions">
    <g class="sheet-region" data-region="Power Circuitry">
      <rect class="sheet-region-frame dashed" data-region="Power Circuitry" x="18" y="18" width="158" height="350"/>
      <text class="sheet-region-title" x="21" y="24" clip-path="url(#region-title-clip-sheet-0-0)">Power Circuitry</text>
    </g>
    <g class="sheet-region" data-region="STM32 Microcontroller">
      <rect class="sheet-region-frame dashed" data-region="STM32 Microcontroller" x="190" y="18" width="210" height="350"/>
      <text class="sheet-region-title" x="193" y="24" clip-path="url(#region-title-clip-sheet-0-1)">STM32 MCU</text>
    </g>
    <g class="sheet-region" data-region="Connectors and USB">
      <rect class="sheet-region-frame dashed" data-region="Connectors and USB" x="414" y="18" width="162" height="284"/>
      <text class="sheet-region-title" x="417" y="24" clip-path="url(#region-title-clip-sheet-0-2)">Connectors and USB</text>
    </g>
    </g>
    <g class="layer layer-symbols">
    <g class="symbol-instance" data-component="component:0" data-symbol-definition="symbol_def:3" transform="translate(24 60) rotate(0)">
      <text class="reference" x="0" y="-12">VIN_SRC</text>
      <rect class="symbol-rectangle" x="0" y="0" width="34" height="32"/>
      <line class="symbol-line" x1="34" y1="8" x2="44" y2="8"/>
      <line class="symbol-line" x1="34" y1="24" x2="44" y2="24"/>
      <text class="symbol-text" x="17" y="17" transform="rotate(0 17 17)">VIN</text>
    </g>
    <g class="symbol-instance" data-component="component:1" data-symbol-definition="symbol_def:4" transform="translate(24 156) rotate(0)">
      <text class="reference" x="0" y="-12">J</text>
      <rect class="symbol-rectangle" x="8" y="-5" width="20" height="31"/>
      <text class="symbol-text" x="18" y="-10" transform="rotate(0 18 -10)">CONN</text>
      <line class="symbol-line" x1="0" y1="0" x2="8" y2="0"/>
      <line class="symbol-line" x1="0" y1="7" x2="8" y2="7"/>
      <line class="symbol-line" x1="0" y1="14" x2="8" y2="14"/>
      <line class="symbol-line" x1="0" y1="21" x2="8" y2="21"/>
    </g>
    <g class="symbol-instance" data-component="component:2" data-symbol-definition="symbol_def:5" transform="translate(78 66) rotate(0)">
      <text class="reference" x="0" y="-12">U5</text>
      <rect class="symbol-rectangle" x="10" y="0" width="30" height="25"/>
      <line class="symbol-line" x1="0" y1="10" x2="10" y2="10"/>
      <line class="symbol-line" x1="40" y1="10" x2="50" y2="10"/>
      <line class="symbol-line" x1="25" y1="25" x2="25" y2="30"/>
      <text class="symbol-text" x="25" y="14" transform="rotate(0 25 14)">LDO</text>
    </g>
    <g class="symbol-instance" data-component="component:3" data-symbol-definition="symbol_def:5" transform="translate(78 136) rotate(0)">
      <text class="reference" x="0" y="-12">U3V3</text>
      <rect class="symbol-rectangle" x="10" y="0" width="30" height="25"/>
      <line class="symbol-line" x1="0" y1="10" x2="10" y2="10"/>
      <line class="symbol-line" x1="40" y1="10" x2="50" y2="10"/>
      <line class="symbol-line" x1="25" y1="25" x2="25" y2="30"/>
      <text class="symbol-text" x="25" y="14" transform="rotate(0 25 14)">LDO</text>
    </g>
    <g class="symbol-instance" data-component="component:5" data-symbol-definition="symbol_def:6" transform="translate(124 104) rotate(90)">
      <text class="reference" x="0" y="-12" transform="rotate(-90 0 -12)">C5V</text>
      <line class="symbol-line" x1="0" y1="0" x2="8" y2="0"/>
      <line class="symbol-line" x1="8" y1="-5" x2="8" y2="5"/>
      <line class="symbol-line" x1="12" y1="-5" x2="12" y2="5"/>
      <line class="symbol-line" x1="12" y1="0" x2="20" y2="0"/>
      <text class="symbol-text" x="10" y="-10" transform="rotate(0 10 -10)">C</text>
    </g>
    <g class="symbol-instance" data-component="component:4" data-symbol-definition="symbol_def:6" transform="translate(114 182) rotate(90)">
      <text class="reference" x="0" y="-12" transform="rotate(-90 0 -12)">CIN</text>
      <line class="symbol-line" x1="0" y1="0" x2="8" y2="0"/>
      <line class="symbol-line" x1="8" y1="-5" x2="8" y2="5"/>
      <line class="symbol-line" x1="12" y1="-5" x2="12" y2="5"/>
      <line class="symbol-line" x1="12" y1="0" x2="20" y2="0"/>
      <text class="symbol-text" x="10" y="-10" transform="rotate(0 10 -10)">C</text>
    </g>
    <g class="symbol-instance" data-component="component:6" data-symbol-definition="symbol_def:6" transform="translate(126 174) rotate(90)">
      <text class="reference" x="0" y="-12" transform="rotate(-90 0 -12)">C3V3</text>
      <line class="symbol-line" x1="0" y1="0" x2="8" y2="0"/>
      <line class="symbol-line" x1="8" y1="-5" x2="8" y2="5"/>
      <line class="symbol-line" x1="12" y1="-5" x2="12" y2="5"/>
      <line class="symbol-line" x1="12" y1="0" x2="20" y2="0"/>
      <text class="symbol-text" x="10" y="-10" transform="rotate(0 10 -10)">C</text>
    </g>
    <g class="symbol-instance" data-component="component:7" data-symbol-definition="symbol_def:6" transform="translate(144 174) rotate(90)">
      <text class="reference" x="0" y="-12" transform="rotate(-90 0 -12)">CVDDA</text>
      <line class="symbol-line" x1="0" y1="0" x2="8" y2="0"/>
      <line class="symbol-line" x1="8" y1="-5" x2="8" y2="5"/>
      <line class="symbol-line" x1="12" y1="-5" x2="12" y2="5"/>
      <line class="symbol-line" x1="12" y1="0" x2="20" y2="0"/>
      <text class="symbol-text" x="10" y="-10" transform="rotate(0 10 -10)">C</text>
    </g>
    <g class="symbol-instance" data-component="component:23" data-symbol-definition="symbol_def:7" transform="translate(246 104) rotate(0)">
      <text class="reference" x="0" y="-12">U1</text>
      <rect class="symbol-rectangle" x="12" y="8" width="60" height="96"/>
      <text class="symbol-text" x="42" y="52" transform="rotate(0 42 52)">STM32F405</text>
      <line class="symbol-line" x1="0" y1="12" x2="12" y2="12"/>
      <line class="symbol-line" x1="0" y1="24" x2="12" y2="24"/>
      <line class="symbol-line" x1="0" y1="42" x2="12" y2="42"/>
      <line class="symbol-line" x1="0" y1="50" x2="12" y2="50"/>
      <line class="symbol-line" x1="0" y1="62" x2="12" y2="62"/>
      <line class="symbol-line" x1="0" y1="76" x2="12" y2="76"/>
      <line class="symbol-line" x1="0" y1="90" x2="12" y2="90"/>
      <line class="symbol-line" x1="22" y1="0" x2="22" y2="8"/>
      <line class="symbol-line" x1="34" y1="0" x2="34" y2="8"/>
      <line class="symbol-line" x1="46" y1="0" x2="46" y2="8"/>
      <line class="symbol-line" x1="58" y1="0" x2="58" y2="8"/>
      <line class="symbol-line" x1="28" y1="104" x2="28" y2="112"/>
      <line class="symbol-line" x1="42" y1="104" x2="42" y2="112"/>
      <line class="symbol-line" x1="56" y1="104" x2="56" y2="112"/>
      <line class="symbol-line" x1="72" y1="34" x2="84" y2="34"/>
      <line class="symbol-line" x1="72" y1="42" x2="84" y2="42"/>
      <line class="symbol-line" x1="72" y1="54" x2="84" y2="54"/>
      <line class="symbol-line" x1="72" y1="62" x2="84" y2="62"/>
      <line class="symbol-line" x1="72" y1="74" x2="84" y2="74"/>
      <line class="symbol-line" x1="72" y1="86" x2="84" y2="86"/>
      <line class="symbol-line" x1="72" y1="98" x2="84" y2="98"/>
    </g>
    <g class="symbol-instance" data-component="component:10" data-symbol-definition="symbol_def:6" transform="translate(220 36) rotate(90)">
      <text class="reference" x="0" y="-12" transform="rotate(-90 0 -12)">CVDD</text>
      <line class="symbol-line" x1="0" y1="0" x2="8" y2="0"/>
      <line class="symbol-line" x1="8" y1="-5" x2="8" y2="5"/>
      <line class="symbol-line" x1="12" y1="-5" x2="12" y2="5"/>
      <line class="symbol-line" x1="12" y1="0" x2="20" y2="0"/>
      <text class="symbol-text" x="10" y="-10" transform="rotate(0 10 -10)">C</text>
    </g>
    <g class="symbol-instance" data-component="component:11" data-symbol-definition="symbol_def:6" transform="translate(248 36) rotate(90)">
      <text class="reference" x="0" y="-12" transform="rotate(-90 0 -12)">CVCAP1</text>
      <line class="symbol-line" x1="0" y1="0" x2="8" y2="0"/>
      <line class="symbol-line" x1="8" y1="-5" x2="8" y2="5"/>
      <line class="symbol-line" x1="12" y1="-5" x2="12" y2="5"/>
      <line class="symbol-line" x1="12" y1="0" x2="20" y2="0"/>
      <text class="symbol-text" x="10" y="-10" transform="rotate(0 10 -10)">C</text>
    </g>
    <g class="symbol-instance" data-component="component:12" data-symbol-definition="symbol_def:6" transform="translate(276 36) rotate(90)">
      <text class="reference" x="0" y="-12" transform="rotate(-90 0 -12)">CVCAP2</text>
      <line class="symbol-line" x1="0" y1="0" x2="8" y2="0"/>
      <line class="symbol-line" x1="8" y1="-5" x2="8" y2="5"/>
      <line class="symbol-line" x1="12" y1="-5" x2="12" y2="5"/>
      <line class="symbol-line" x1="12" y1="0" x2="20" y2="0"/>
      <text class="symbol-text" x="10" y="-10" transform="rotate(0 10 -10)">C</text>
    </g>
    <g class="symbol-instance" data-component="component:13" data-symbol-definition="symbol_def:8" transform="translate(218 312) rotate(0)">
      <text class="reference" x="0" y="-12">RRESET</text>
      <line class="symbol-line" x1="0" y1="0" x2="4" y2="0"/>
      <rect class="symbol-rectangle" x="4" y="-3" width="12" height="6"/>
      <line class="symbol-line" x1="16" y1="0" x2="20" y2="0"/>
      <text class="symbol-text" x="10" y="-8" transform="rotate(0 10 -8)">R</text>
    </g>
    <g class="symbol-instance" data-component="component:14" data-symbol-definition="symbol_def:8" transform="translate(218 342) rotate(0)">
      <text class="reference" x="0" y="-12">RBOOT</text>
      <line class="symbol-line" x1="0" y1="0" x2="4" y2="0"/>
      <rect class="symbol-rectangle" x="4" y="-3" width="12" height="6"/>
      <line class="symbol-line" x1="16" y1="0" x2="20" y2="0"/>
      <text class="symbol-text" x="10" y="-8" transform="rotate(0 10 -8)">R</text>
    </g>
    <g class="symbol-instance" data-component="component:15" data-symbol-definition="symbol_def:9" transform="translate(272 324) rotate(0)">
      <text class="reference" x="0" y="-12">SWBOOT</text>
      <line class="symbol-line" x1="0" y1="0" x2="14" y2="0"/>
      <line class="symbol-line" x1="0" y1="20" x2="14" y2="20"/>
      <line class="symbol-line" x1="30" y1="10" x2="44" y2="10"/>
      <line class="symbol-line" x1="14" y1="0" x2="30" y2="10"/>
      <text class="symbol-text" x="22" y="-8" transform="rotate(0 22 -8)">SW</text>
    </g>
    <g class="symbol-instance" data-component="component:16" data-symbol-definition="symbol_def:10" transform="translate(226 254) rotate(0)">
      <text class="reference" x="0" y="-12">Y1</text>
      <line class="symbol-line" x1="0" y1="10" x2="12" y2="10"/>
      <line class="symbol-line" x1="32" y1="10" x2="44" y2="10"/>
      <line class="symbol-line" x1="18" y1="0" x2="18" y2="20"/>
      <line class="symbol-line" x1="26" y1="0" x2="26" y2="20"/>
      <rect class="symbol-rectangle" x="12" y="4" width="20" height="12"/>
      <line class="symbol-line" x1="14" y1="16" x2="14" y2="28"/>
      <line class="symbol-line" x1="30" y1="16" x2="30" y2="28"/>
      <text class="symbol-text" x="22" y="-6" transform="rotate(0 22 -6)">XTAL</text>
    </g>
    <g class="symbol-instance" data-component="component:17" data-symbol-definition="symbol_def:6" transform="translate(282 250) rotate(90)">
      <text class="reference" x="0" y="-12" transform="rotate(-90 0 -12)">CHSEIN</text>
      <line class="symbol-line" x1="0" y1="0" x2="8" y2="0"/>
      <line class="symbol-line" x1="8" y1="-5" x2="8" y2="5"/>
      <line class="symbol-line" x1="12" y1="-5" x2="12" y2="5"/>
      <line class="symbol-line" x1="12" y1="0" x2="20" y2="0"/>
      <text class="symbol-text" x="10" y="-10" transform="rotate(0 10 -10)">C</text>
    </g>
    <g class="symbol-instance" data-component="component:18" data-symbol-definition="symbol_def:6" transform="translate(312 250) rotate(90)">
      <text class="reference" x="0" y="-12" transform="rotate(-90 0 -12)">CHSEOUT</text>
      <line class="symbol-line" x1="0" y1="0" x2="8" y2="0"/>
      <line class="symbol-line" x1="8" y1="-5" x2="8" y2="5"/>
      <line class="symbol-line" x1="12" y1="-5" x2="12" y2="5"/>
      <line class="symbol-line" x1="12" y1="0" x2="20" y2="0"/>
      <text class="symbol-text" x="10" y="-10" transform="rotate(0 10 -10)">C</text>
    </g>
    <g class="symbol-instance" data-component="component:21" data-symbol-definition="symbol_def:8" transform="translate(316 64) rotate(0)">
      <text class="reference" x="0" y="-12">R</text>
      <line class="symbol-line" x1="0" y1="0" x2="4" y2="0"/>
      <rect class="symbol-rectangle" x="4" y="-3" width="12" height="6"/>
      <line class="symbol-line" x1="16" y1="0" x2="20" y2="0"/>
      <text class="symbol-text" x="10" y="-8" transform="rotate(0 10 -8)">R</text>
    </g>
    <g class="symbol-instance" data-component="component:22" data-symbol-definition="symbol_def:11" transform="translate(342 64) rotate(0)">
      <text class="reference" x="0" y="-12">D</text>
      <line class="symbol-line" x1="0" y1="0" x2="8" y2="0"/>
      <line class="symbol-line" x1="16" y1="0" x2="24" y2="0"/>
      <line class="symbol-line" x1="8" y1="-6" x2="8" y2="6"/>
      <line class="symbol-line" x1="8" y1="-6" x2="16" y2="0"/>
      <line class="symbol-line" x1="8" y1="6" x2="16" y2="0"/>
      <line class="symbol-line" x1="16" y1="-6" x2="16" y2="6"/>
      <text class="symbol-text" x="12" y="-10" transform="rotate(0 12 -10)">LED</text>
    </g>
    <g class="symbol-instance" data-component="component:8" data-symbol-definition="symbol_def:12" transform="translate(434 62) rotate(0)">
      <text class="reference" x="0" y="-12">J1</text>
      <rect class="symbol-rectangle" x="10" y="-5" width="24" height="50"/>
      <text class="symbol-text" x="22" y="-10" transform="rotate(0 22 -10)">USB</text>
      <line class="symbol-line" x1="0" y1="0" x2="10" y2="0"/>
      <line class="symbol-line" x1="0" y1="8" x2="10" y2="8"/>
      <line class="symbol-line" x1="0" y1="16" x2="10" y2="16"/>
      <line class="symbol-line" x1="0" y1="24" x2="10" y2="24"/>
      <line class="symbol-line" x1="0" y1="32" x2="10" y2="32"/>
      <line class="symbol-line" x1="0" y1="40" x2="10" y2="40"/>
    </g>
    <g class="symbol-instance" data-component="component:9" data-symbol-definition="symbol_def:13" transform="translate(470 64) rotate(0)">
      <text class="reference" x="0" y="-12">U1</text>
      <rect class="symbol-rectangle" x="10" y="0" width="34" height="30"/>
      <line class="symbol-line" x1="0" y1="8" x2="10" y2="8"/>
      <line class="symbol-line" x1="0" y1="20" x2="10" y2="20"/>
      <line class="symbol-line" x1="44" y1="8" x2="54" y2="8"/>
      <line class="symbol-line" x1="44" y1="20" x2="54" y2="20"/>
      <line class="symbol-line" x1="27" y1="-10" x2="27" y2="0"/>
      <line class="symbol-line" x1="27" y1="30" x2="27" y2="38"/>
      <text class="symbol-text" x="27" y="16" transform="rotate(0 27 16)">ESD</text>
    </g>
    <g class="symbol-instance" data-component="component:19" data-symbol-definition="symbol_def:14" transform="translate(466 156) rotate(0)">
      <text class="reference" x="0" y="-12">J2</text>
      <rect class="symbol-rectangle" x="8" y="-4" width="22" height="53"/>
      <text class="symbol-text" x="19" y="-9" transform="rotate(0 19 -9)">SWD</text>
      <line class="symbol-line" x1="0" y1="0" x2="8" y2="0"/>
      <line class="symbol-line" x1="0" y1="5" x2="8" y2="5"/>
      <line class="symbol-line" x1="0" y1="10" x2="8" y2="10"/>
      <line class="symbol-line" x1="0" y1="15" x2="8" y2="15"/>
      <line class="symbol-line" x1="0" y1="20" x2="8" y2="20"/>
      <line class="symbol-line" x1="0" y1="25" x2="8" y2="25"/>
      <line class="symbol-line" x1="0" y1="30" x2="8" y2="30"/>
      <line class="symbol-line" x1="0" y1="35" x2="8" y2="35"/>
      <line class="symbol-line" x1="0" y1="40" x2="8" y2="40"/>
      <line class="symbol-line" x1="0" y1="45" x2="8" y2="45"/>
    </g>
    <g class="symbol-instance" data-component="component:20" data-symbol-definition="symbol_def:4" transform="translate(526 188) rotate(0)">
      <text class="reference" x="0" y="-12">J3</text>
      <rect class="symbol-rectangle" x="8" y="-5" width="20" height="31"/>
      <text class="symbol-text" x="18" y="-10" transform="rotate(0 18 -10)">CONN</text>
      <line class="symbol-line" x1="0" y1="0" x2="8" y2="0"/>
      <line class="symbol-line" x1="0" y1="7" x2="8" y2="7"/>
      <line class="symbol-line" x1="0" y1="14" x2="8" y2="14"/>
      <line class="symbol-line" x1="0" y1="21" x2="8" y2="21"/>
    </g>
    </g>
    <g class="layer layer-wires">
    <polyline class="wire-run" data-net="net:0" points="68,68 68,40"/>
    <polyline class="wire-run" data-net="net:4" points="68,84 68,114"/>
    <polyline class="wire-run" data-net="net:5" points="24,156 48,156 48,76 78,76"/>
    <polyline class="wire-run" data-net="net:5" points="114,182 114,76 78,76"/>
    <polyline class="wire-run" data-net="net:6" points="128,76 156,76 156,66"/>
    <polyline class="wire-run" data-net="net:6" points="124,104 124,76 128,76"/>
    <polyline class="wire-run" data-net="net:6" points="78,146 60,146"/>
    <polyline class="wire-run" data-net="net:7" points="128,146 126,146 126,174"/>
    <polyline class="wire-run" data-net="net:8" points="144,174 144,158"/>
    <polyline class="wire-run" data-net="net:9" points="24,163 24,202 72,202"/>
    <polyline class="wire-run" data-net="net:9" points="24,170 24,202 72,202"/>
    <polyline class="wire-run" data-net="net:9" points="24,177 24,202 72,202"/>
    <polyline class="wire-run" data-net="net:9" points="103,96 103,112"/>
    <polyline class="wire-run" data-net="net:9" points="124,124 124,112 103,112"/>
    <polyline class="wire-run" data-net="net:9" points="103,166 103,182"/>
    <polyline class="wire-run" data-net="net:9" points="114,202 114,218"/>
    <polyline class="wire-run" data-net="net:9" points="126,194 126,210 135,210"/>
    <polyline class="wire-run" data-net="net:9" points="144,194 144,210 135,210"/>
    <polyline class="wire-run" data-net="net:2" points="268,104 268,70 288,70"/>
    <polyline class="wire-run" data-net="net:2" points="280,104 280,70 288,70"/>
    <polyline class="wire-run" data-net="net:2" points="292,104 292,70 288,70"/>
    <polyline class="wire-run" data-net="net:2" points="304,104 304,70 288,70"/>
    <polyline class="wire-run" data-net="net:2" points="246,116 246,70 288,70"/>
    <polyline class="wire-run" data-net="net:3" points="246,180 230,180"/>
    <polyline class="wire-run" data-net="net:4" points="274,216 274,240 288,240"/>
    <polyline class="wire-run" data-net="net:4" points="302,216 302,240 288,240"/>
    <polyline class="wire-run" data-net="net:4" points="288,216 288,240"/>
    <polyline class="wire-run" data-net="net:13" points="330,138 344,138"/>
    <polyline class="wire-run" data-net="net:12" points="330,146 344,146"/>
    <polyline class="wire-run" data-net="net:34" points="330,158 344,158"/>
    <polyline class="wire-run" data-net="net:35" points="330,166 344,166"/>
    <polyline class="wire-run" data-net="net:36" points="330,178 344,178"/>
    <polyline class="wire-run" data-net="net:29" points="330,190 344,190"/>
    <polyline class="wire-run" data-net="net:28" points="246,166 232,166"/>
    <polyline class="wire-run" data-net="net:30" points="246,146 232,146"/>
    <polyline class="wire-run" data-net="net:31" points="246,154 232,154"/>
    <polyline class="wire-run" data-net="net:32" points="246,194 232,194"/>
    <polyline class="wire-run" data-net="net:33" points="330,202 344,202"/>
    <polyline class="wire-run" data-net="net:37" points="246,128 232,128"/>
    <polyline class="wire-run" data-net="net:20" points="220,36 220,24"/>
    <polyline class="wire-run" data-net="net:20" points="220,24 232,24"/>
    <polyline class="wire-run" data-net="net:20" points="218,312 218,286"/>
    <polyline class="wire-run" data-net="net:20" points="272,324 272,298"/>
    <polyline class="wire-run" data-net="net:21" points="220,56 220,80 248,80"/>
    <polyline class="wire-run" data-net="net:21" points="248,56 248,80"/>
    <polyline class="wire-run" data-net="net:21" points="276,56 276,80 248,80"/>
    <polyline class="wire-run" data-net="net:21" points="240,282 240,300 290,300"/>
    <polyline class="wire-run" data-net="net:21" points="256,282 256,300 290,300"/>
    <polyline class="wire-run" data-net="net:21" points="282,270 282,288 297,288"/>
    <polyline class="wire-run" data-net="net:21" points="312,270 312,288 297,288"/>
    <polyline class="wire-run" data-net="net:21" points="238,342 238,364"/>
    <polyline class="wire-run" data-net="net:21" points="272,344 238,344 238,364"/>
    <polyline class="wire-run" data-net="net:22" points="238,312 250,312"/>
    <polyline class="wire-run" data-net="net:23" points="218,342 206,342"/>
    <polyline class="wire-run" data-net="net:23" points="316,334 328,334"/>
    <polyline class="wire-run" data-net="net:24" points="226,264 250,264 250,250 282,250"/>
    <polyline class="wire-run" data-net="net:25" points="270,264 312,264 312,250"/>
    <polyline class="wire-run" data-net="net:24" points="282,250 282,232"/>
    <polyline class="wire-run" data-net="net:24" points="282,232 294,232"/>
    <polyline class="wire-run" data-net="net:25" points="312,250 312,232"/>
    <polyline class="wire-run" data-net="net:25" points="312,232 324,232"/>
    <polyline class="wire-run" data-net="net:26" points="248,36 248,24"/>
    <polyline class="wire-run" data-net="net:26" points="248,24 260,24"/>
    <polyline class="wire-run" data-net="net:27" points="276,36 276,24"/>
    <polyline class="wire-run" data-net="net:27" points="276,24 288,24"/>
    <polyline class="wire-run" data-net="net:38" points="316,64 316,36"/>
    <polyline class="wire-run" data-net="net:39" points="336,64 342,64"/>
    <polyline class="wire-run" data-net="net:40" points="366,64 366,92"/>
    <polyline class="wire-run" data-net="net:14" points="434,62 452,62 452,54 497,54"/>
    <polyline class="wire-run" data-net="net:15" points="434,78 452,78 452,84 470,84"/>
    <polyline class="wire-run" data-net="net:16" points="434,70 462,76 470,72"/>
    <polyline class="wire-run" data-net="net:17" points="524,84 534,84"/>
    <polyline class="wire-run" data-net="net:18" points="524,72 534,72"/>
    <polyline class="wire-run" data-net="net:19" points="434,94 434,112 490,112"/>
    <polyline class="wire-run" data-net="net:19" points="434,102 434,112 490,112"/>
    <polyline class="wire-run" data-net="net:19" points="497,102 497,112 490,112"/>
    <polyline class="wire-run" data-net="net:2" points="466,156 466,128"/>
    <polyline class="wire-run" data-net="net:2" points="526,188 526,160"/>
    <polyline class="wire-run" data-net="net:4" points="466,166 490,166 490,230"/>
    <polyline class="wire-run" data-net="net:4" points="466,176 490,176 490,230"/>
    <polyline class="wire-run" data-net="net:4" points="466,196 490,196 490,230"/>
    <polyline class="wire-run" data-net="net:4" points="526,209 526,227"/>
    <polyline class="wire-run" data-net="net:34" points="466,161 454,161"/>
    <polyline class="wire-run" data-net="net:35" points="466,171 454,171"/>
    <polyline class="wire-run" data-net="net:36" points="466,181 454,181"/>
    <polyline class="wire-run" data-net="net:28" points="466,201 454,201"/>
    <polyline class="wire-run" data-net="net:29" points="466,191 454,191"/>
    <polyline class="wire-run" data-net="net:29" points="526,195 514,195"/>
    </g>
    <g class="layer layer-junctions">
    <circle class="junction" data-net="net:5" cx="78" cy="72" r="1.15"/>
    <circle class="junction" data-net="net:4" cx="288" cy="240" r="1.15"/>
    <circle class="junction" data-net="net:19" cx="490" cy="112" r="1.15"/>
    </g>
    <g class="layer layer-ports">
    <g class="power-port power" data-net="net:0" transform="translate(68 40) rotate(270)">
      <line class="power-port-line" x1="0" y1="0" x2="0" y2="-4.2"/>
      <path class="power-port-shape" d="M -3 -4.2 L 0 -7.6 L 3 -4.2 Z"/>
      <text class="power-port-label" x="0" y="-9.4" transform="rotate(-270 0 -9.4)">+12V</text>
    </g>
    <g class="power-port ground" data-net="net:4" transform="translate(68 114) rotate(90)">
      <line class="power-port-line" x1="0" y1="0" x2="0" y2="3"/>
      <line class="ground-bar" x1="-3.6" y1="3" x2="3.6" y2="3"/>
      <line class="ground-bar" x1="-2.2" y1="4.6" x2="2.2" y2="4.6"/>
      <line class="ground-bar" x1="-0.9" y1="6" x2="0.9" y2="6"/>
      <text class="power-port-label" x="0" y="8.2" transform="rotate(-90 0 8.2)">GND</text>
    </g>
    <g class="power-port power" data-net="net:6" transform="translate(156 66) rotate(270)">
      <line class="power-port-line" x1="0" y1="0" x2="0" y2="-4.2"/>
      <path class="power-port-shape" d="M -3 -4.2 L 0 -7.6 L 3 -4.2 Z"/>
      <text class="power-port-label" x="0" y="-9.4" transform="rotate(-270 0 -9.4)">+5V</text>
    </g>
    <g class="power-port power" data-net="net:6" transform="translate(60 146) rotate(180)">
      <line class="power-port-line" x1="0" y1="0" x2="0" y2="-4.2"/>
      <path class="power-port-shape" d="M -3 -4.2 L 0 -7.6 L 3 -4.2 Z"/>
      <text class="power-port-label" x="0" y="-9.4" transform="rotate(-180 0 -9.4)">+5V</text>
    </g>
    <g class="power-port power" data-net="net:7" transform="translate(142 146) rotate(0)">
      <line class="power-port-line" x1="0" y1="0" x2="0" y2="-4.2"/>
      <path class="power-port-shape" d="M -3 -4.2 L 0 -7.6 L 3 -4.2 Z"/>
      <text class="power-port-label" x="0" y="-9.4">+3V3</text>
    </g>
    <g class="power-port power" data-net="net:8" transform="translate(170 174) rotate(0)">
      <line class="power-port-line" x1="0" y1="0" x2="0" y2="-4.2"/>
      <path class="power-port-shape" d="M -3 -4.2 L 0 -7.6 L 3 -4.2 Z"/>
      <text class="power-port-label" x="0" y="-9.4">VDDA</text>
    </g>
    <g class="power-port ground" data-net="net:9" transform="translate(72 202) rotate(90)">
      <line class="power-port-line" x1="0" y1="0" x2="0" y2="3"/>
      <line class="ground-bar" x1="-3.6" y1="3" x2="3.6" y2="3"/>
      <line class="ground-bar" x1="-2.2" y1="4.6" x2="2.2" y2="4.6"/>
      <line class="ground-bar" x1="-0.9" y1="6" x2="0.9" y2="6"/>
      <text class="power-port-label" x="0" y="8.2" transform="rotate(-90 0 8.2)">GND</text>
    </g>
    <g class="power-port ground" data-net="net:9" transform="translate(103 112) rotate(90)">
      <line class="power-port-line" x1="0" y1="0" x2="0" y2="3"/>
      <line class="ground-bar" x1="-3.6" y1="3" x2="3.6" y2="3"/>
      <line class="ground-bar" x1="-2.2" y1="4.6" x2="2.2" y2="4.6"/>
      <line class="ground-bar" x1="-0.9" y1="6" x2="0.9" y2="6"/>
      <text class="power-port-label" x="0" y="8.2" transform="rotate(-90 0 8.2)">GND</text>
    </g>
    <g class="power-port ground" data-net="net:9" transform="translate(103 182) rotate(90)">
      <line class="power-port-line" x1="0" y1="0" x2="0" y2="3"/>
      <line class="ground-bar" x1="-3.6" y1="3" x2="3.6" y2="3"/>
      <line class="ground-bar" x1="-2.2" y1="4.6" x2="2.2" y2="4.6"/>
      <line class="ground-bar" x1="-0.9" y1="6" x2="0.9" y2="6"/>
      <text class="power-port-label" x="0" y="8.2" transform="rotate(-90 0 8.2)">GND</text>
    </g>
    <g class="power-port ground" data-net="net:9" transform="translate(114 218) rotate(90)">
      <line class="power-port-line" x1="0" y1="0" x2="0" y2="3"/>
      <line class="ground-bar" x1="-3.6" y1="3" x2="3.6" y2="3"/>
      <line class="ground-bar" x1="-2.2" y1="4.6" x2="2.2" y2="4.6"/>
      <line class="ground-bar" x1="-0.9" y1="6" x2="0.9" y2="6"/>
      <text class="power-port-label" x="0" y="8.2" transform="rotate(-90 0 8.2)">GND</text>
    </g>
    <g class="power-port ground" data-net="net:9" transform="translate(135 210) rotate(90)">
      <line class="power-port-line" x1="0" y1="0" x2="0" y2="3"/>
      <line class="ground-bar" x1="-3.6" y1="3" x2="3.6" y2="3"/>
      <line class="ground-bar" x1="-2.2" y1="4.6" x2="2.2" y2="4.6"/>
      <line class="ground-bar" x1="-0.9" y1="6" x2="0.9" y2="6"/>
      <text class="power-port-label" x="0" y="8.2" transform="rotate(-90 0 8.2)">GND</text>
    </g>
    <g class="power-port power" data-net="net:2" transform="translate(288 70) rotate(270)">
      <line class="power-port-line" x1="0" y1="0" x2="0" y2="-4.2"/>
      <path class="power-port-shape" d="M -3 -4.2 L 0 -7.6 L 3 -4.2 Z"/>
      <text class="power-port-label" x="0" y="-9.4" transform="rotate(-270 0 -9.4)">+3V3</text>
    </g>
    <g class="power-port power" data-net="net:3" transform="translate(230 180) rotate(180)">
      <line class="power-port-line" x1="0" y1="0" x2="0" y2="-4.2"/>
      <path class="power-port-shape" d="M -3 -4.2 L 0 -7.6 L 3 -4.2 Z"/>
      <text class="power-port-label" x="0" y="-9.4" transform="rotate(-180 0 -9.4)">VDDA</text>
    </g>
    <g class="power-port ground" data-net="net:4" transform="translate(288 240) rotate(90)">
      <line class="power-port-line" x1="0" y1="0" x2="0" y2="3"/>
      <line class="ground-bar" x1="-3.6" y1="3" x2="3.6" y2="3"/>
      <line class="ground-bar" x1="-2.2" y1="4.6" x2="2.2" y2="4.6"/>
      <line class="ground-bar" x1="-0.9" y1="6" x2="0.9" y2="6"/>
      <text class="power-port-label" x="0" y="8.2" transform="rotate(-90 0 8.2)">GND</text>
    </g>
    <g class="power-port power" data-net="net:20" transform="translate(218 286) rotate(270)">
      <line class="power-port-line" x1="0" y1="0" x2="0" y2="-4.2"/>
      <path class="power-port-shape" d="M -3 -4.2 L 0 -7.6 L 3 -4.2 Z"/>
      <text class="power-port-label" x="0" y="-9.4" transform="rotate(-270 0 -9.4)">+3V3</text>
    </g>
    <g class="power-port power" data-net="net:20" transform="translate(272 298) rotate(270)">
      <line class="power-port-line" x1="0" y1="0" x2="0" y2="-4.2"/>
      <path class="power-port-shape" d="M -3 -4.2 L 0 -7.6 L 3 -4.2 Z"/>
      <text class="power-port-label" x="0" y="-9.4" transform="rotate(-270 0 -9.4)">+3V3</text>
    </g>
    <g class="power-port ground" data-net="net:21" transform="translate(248 80) rotate(90)">
      <line class="power-port-line" x1="0" y1="0" x2="0" y2="3"/>
      <line class="ground-bar" x1="-3.6" y1="3" x2="3.6" y2="3"/>
      <line class="ground-bar" x1="-2.2" y1="4.6" x2="2.2" y2="4.6"/>
      <line class="ground-bar" x1="-0.9" y1="6" x2="0.9" y2="6"/>
      <text class="power-port-label" x="0" y="8.2" transform="rotate(-90 0 8.2)">GND</text>
    </g>
    <g class="power-port ground" data-net="net:21" transform="translate(290 300) rotate(90)">
      <line class="power-port-line" x1="0" y1="0" x2="0" y2="3"/>
      <line class="ground-bar" x1="-3.6" y1="3" x2="3.6" y2="3"/>
      <line class="ground-bar" x1="-2.2" y1="4.6" x2="2.2" y2="4.6"/>
      <line class="ground-bar" x1="-0.9" y1="6" x2="0.9" y2="6"/>
      <text class="power-port-label" x="0" y="8.2" transform="rotate(-90 0 8.2)">GND</text>
    </g>
    <g class="power-port ground" data-net="net:21" transform="translate(297 288) rotate(90)">
      <line class="power-port-line" x1="0" y1="0" x2="0" y2="3"/>
      <line class="ground-bar" x1="-3.6" y1="3" x2="3.6" y2="3"/>
      <line class="ground-bar" x1="-2.2" y1="4.6" x2="2.2" y2="4.6"/>
      <line class="ground-bar" x1="-0.9" y1="6" x2="0.9" y2="6"/>
      <text class="power-port-label" x="0" y="8.2" transform="rotate(-90 0 8.2)">GND</text>
    </g>
    <g class="power-port ground" data-net="net:21" transform="translate(238 364) rotate(90)">
      <line class="power-port-line" x1="0" y1="0" x2="0" y2="3"/>
      <line class="ground-bar" x1="-3.6" y1="3" x2="3.6" y2="3"/>
      <line class="ground-bar" x1="-2.2" y1="4.6" x2="2.2" y2="4.6"/>
      <line class="ground-bar" x1="-0.9" y1="6" x2="0.9" y2="6"/>
      <text class="power-port-label" x="0" y="8.2" transform="rotate(-90 0 8.2)">GND</text>
    </g>
    <g class="power-port power" data-net="net:38" transform="translate(316 36) rotate(270)">
      <line class="power-port-line" x1="0" y1="0" x2="0" y2="-4.2"/>
      <path class="power-port-shape" d="M -3 -4.2 L 0 -7.6 L 3 -4.2 Z"/>
      <text class="power-port-label" x="0" y="-9.4" transform="rotate(-270 0 -9.4)">+3V3</text>
    </g>
    <g class="power-port ground" data-net="net:40" transform="translate(366 92) rotate(90)">
      <line class="power-port-line" x1="0" y1="0" x2="0" y2="3"/>
      <line class="ground-bar" x1="-3.6" y1="3" x2="3.6" y2="3"/>
      <line class="ground-bar" x1="-2.2" y1="4.6" x2="2.2" y2="4.6"/>
      <line class="ground-bar" x1="-0.9" y1="6" x2="0.9" y2="6"/>
      <text class="power-port-label" x="0" y="8.2" transform="rotate(-90 0 8.2)">GND</text>
    </g>
    <g class="power-port ground" data-net="net:19" transform="translate(490 112) rotate(90)">
      <line class="power-port-line" x1="0" y1="0" x2="0" y2="3"/>
      <line class="ground-bar" x1="-3.6" y1="3" x2="3.6" y2="3"/>
      <line class="ground-bar" x1="-2.2" y1="4.6" x2="2.2" y2="4.6"/>
      <line class="ground-bar" x1="-0.9" y1="6" x2="0.9" y2="6"/>
      <text class="power-port-label" x="0" y="8.2" transform="rotate(-90 0 8.2)">GND</text>
    </g>
    <g class="power-port power" data-net="net:2" transform="translate(466 128) rotate(270)">
      <line class="power-port-line" x1="0" y1="0" x2="0" y2="-4.2"/>
      <path class="power-port-shape" d="M -3 -4.2 L 0 -7.6 L 3 -4.2 Z"/>
      <text class="power-port-label" x="0" y="-9.4" transform="rotate(-270 0 -9.4)">+3V3</text>
    </g>
    <g class="power-port power" data-net="net:2" transform="translate(526 160) rotate(270)">
      <line class="power-port-line" x1="0" y1="0" x2="0" y2="-4.2"/>
      <path class="power-port-shape" d="M -3 -4.2 L 0 -7.6 L 3 -4.2 Z"/>
      <text class="power-port-label" x="0" y="-9.4" transform="rotate(-270 0 -9.4)">+3V3</text>
    </g>
    <g class="power-port ground" data-net="net:4" transform="translate(490 230) rotate(90)">
      <line class="power-port-line" x1="0" y1="0" x2="0" y2="3"/>
      <line class="ground-bar" x1="-3.6" y1="3" x2="3.6" y2="3"/>
      <line class="ground-bar" x1="-2.2" y1="4.6" x2="2.2" y2="4.6"/>
      <line class="ground-bar" x1="-0.9" y1="6" x2="0.9" y2="6"/>
      <text class="power-port-label" x="0" y="8.2" transform="rotate(-90 0 8.2)">GND</text>
    </g>
    <g class="power-port ground" data-net="net:4" transform="translate(526 227) rotate(90)">
      <line class="power-port-line" x1="0" y1="0" x2="0" y2="3"/>
      <line class="ground-bar" x1="-3.6" y1="3" x2="3.6" y2="3"/>
      <line class="ground-bar" x1="-2.2" y1="4.6" x2="2.2" y2="4.6"/>
      <line class="ground-bar" x1="-0.9" y1="6" x2="0.9" y2="6"/>
      <text class="power-port-label" x="0" y="8.2" transform="rotate(-90 0 8.2)">GND</text>
    </g>
    <g class="no-connect-marker" data-pin="pin:23" transform="translate(434 86) rotate(0)">
      <line class="no-connect-line" x1="-3" y1="-3" x2="3" y2="3"/>
      <line class="no-connect-line" x1="-3" y1="3" x2="3" y2="-3"/>
    </g>
    <g class="no-connect-marker" data-pin="pin:59" transform="translate(466 186) rotate(0)">
      <line class="no-connect-line" x1="-3" y1="-3" x2="3" y2="3"/>
      <line class="no-connect-line" x1="-3" y1="3" x2="3" y2="-3"/>
    </g>
    <g class="no-connect-marker" data-pin="pin:65" transform="translate(526 202) rotate(0)">
      <line class="no-connect-line" x1="-3" y1="-3" x2="3" y2="3"/>
      <line class="no-connect-line" x1="-3" y1="3" x2="3" y2="-3"/>
    </g>
    </g>
    <g class="layer layer-labels">
    <text class="net-label" data-net="net:0" x="36" y="240" transform="rotate(0 36 240)">+12V</text>
    <text class="net-label" data-net="net:13" x="346" y="138" transform="rotate(0 346 138)">USB D-</text>
    <text class="net-label" data-net="net:12" x="346" y="146" transform="rotate(0 346 146)">USB D+</text>
    <text class="net-label" data-net="net:34" x="346" y="158" transform="rotate(0 346 158)">SWDIO</text>
    <text class="net-label" data-net="net:35" x="346" y="166" transform="rotate(0 346 166)">SWCLK</text>
    <text class="net-label" data-net="net:36" x="346" y="178" transform="rotate(0 346 178)">SWO</text>
    <text class="net-label" data-net="net:29" x="346" y="190" transform="rotate(0 346 190)">BOOT0</text>
    <text class="net-label" data-net="net:28" x="230" y="166" transform="rotate(0 230 166)">NRST</text>
    <text class="net-label" data-net="net:30" x="230" y="146" transform="rotate(0 230 146)">HSE IN</text>
    <text class="net-label" data-net="net:31" x="230" y="154" transform="rotate(0 230 154)">HSE OUT</text>
    <text class="net-label" data-net="net:32" x="230" y="194" transform="rotate(0 230 194)">VCAP1</text>
    <text class="net-label" data-net="net:33" x="346" y="202" transform="rotate(0 346 202)">VCAP2</text>
    <text class="net-label" data-net="net:37" x="230" y="128" transform="rotate(0 230 128)">LED</text>
    <text class="net-label" data-net="net:20" x="234" y="24" transform="rotate(0 234 24)">+3V3</text>
    <text class="net-label" data-net="net:22" x="252" y="312" transform="rotate(0 252 312)">NRST</text>
    <text class="net-label" data-net="net:23" x="204" y="342" transform="rotate(0 204 342)">BOOT0</text>
    <text class="net-label" data-net="net:23" x="330" y="334" transform="rotate(0 330 334)">BOOT0</text>
    <text class="net-label" data-net="net:24" x="296" y="232" transform="rotate(0 296 232)">HSE IN</text>
    <text class="net-label" data-net="net:25" x="326" y="232" transform="rotate(0 326 232)">HSE OUT</text>
    <text class="net-label" data-net="net:26" x="262" y="24" transform="rotate(0 262 24)">VCAP1</text>
    <text class="net-label" data-net="net:27" x="290" y="24" transform="rotate(0 290 24)">VCAP2</text>
    <text class="net-label" data-net="net:17" x="536" y="84" transform="rotate(0 536 84)">USB D+</text>
    <text class="net-label" data-net="net:18" x="536" y="72" transform="rotate(0 536 72)">USB D-</text>
    <text class="net-label" data-net="net:34" x="452" y="161" transform="rotate(0 452 161)">SWDIO</text>
    <text class="net-label" data-net="net:35" x="452" y="171" transform="rotate(0 452 171)">SWCLK</text>
    <text class="net-label" data-net="net:36" x="452" y="181" transform="rotate(0 452 181)">SWO</text>
    <text class="net-label" data-net="net:28" x="452" y="201" transform="rotate(0 452 201)">NRST</text>
    <text class="net-label" data-net="net:29" x="452" y="191" transform="rotate(0 452 191)">BOOT0</text>
    <text class="net-label" data-net="net:29" x="512" y="195" transform="rotate(0 512 195)">BOOT0</text>
    </g>
    <g class="layer layer-fields">
    <text class="symbol-field" data-symbol-instance="symbol_instance:2" data-field="value" x="103" y="106" transform="rotate(0 103 106)">AP1117-5.0</text>
    <text class="symbol-field" data-symbol-instance="symbol_instance:3" data-field="value" x="103" y="182" transform="rotate(0 103 182)">AP1117-3.3</text>
    <text class="symbol-field" data-symbol-instance="symbol_instance:5" data-field="value" x="114" y="218" transform="rotate(0 114 218)">4.7 uF</text>
    <text class="symbol-field" data-symbol-instance="symbol_instance:7" data-field="value" x="134" y="184" transform="rotate(0 134 184)">100 nF</text>
    <text class="symbol-field" data-symbol-instance="symbol_instance:8" data-field="value" x="288" y="224" transform="rotate(0 288 224)">STM32F405RGT6</text>
    <text class="symbol-field" data-symbol-instance="symbol_instance:12" data-field="value" x="228" y="304" transform="rotate(0 228 304)">10 kOhm</text>
    <text class="symbol-field" data-symbol-instance="symbol_instance:15" data-field="value" x="248" y="304" transform="rotate(0 248 304)">8 MHz</text>
    <text class="symbol-field" data-symbol-instance="symbol_instance:20" data-field="value" x="434" y="114" transform="rotate(0 434 114)">USB Micro-B</text>
    </g>
  </g>
</svg>
