<svg xmlns="http://www.w3.org/2000/svg" viewBox="0 0 297 210" width="297" height="210">
  <style>.sheet{fill:#fff;stroke:#c7c7c7;stroke-width:0.5}.sheet-title{font:6px sans-serif;fill:#333}.wire-run{fill:none;stroke:#111;stroke-width:1.2}.net-label{font:5px sans-serif;fill:#0645ad;text-anchor:start}.symbol-line,.symbol-rectangle,.symbol-circle,.symbol-arc{fill:none;stroke:#111;stroke-width:1.2}.symbol-text,.reference,.pin-label{font:5px sans-serif;fill:#111;text-anchor:middle}.pin-anchor{fill:#fff;stroke:#111;stroke-width:0.8}</style>
  <g class="schematic-sheet" data-sheet="sheet:0" transform="translate(0 0)">
    <rect class="sheet" x="0" y="0" width="297" height="210"/>
    <text class="sheet-title" x="10" y="16">Main</text>
    <polyline class="wire-run" data-net="net:0" points="8,18 44,18"/>
    <polyline class="wire-run" data-net="net:1" points="52,18 88,18"/>
    <polyline class="wire-run" data-net="net:2" points="96,18 132,18"/>
    <polyline class="wire-run" data-net="net:3" points="8,202 44,202"/>
    <polyline class="wire-run" data-net="net:4" points="52,202 88,202"/>
    <polyline class="wire-run" data-net="net:10" points="180,18 216,18"/>
    <polyline class="wire-run" data-net="net:11" points="224,18 260,18"/>
    <polyline class="wire-run" data-net="net:12" points="180,126 216,126"/>
    <polyline class="wire-run" data-net="net:13" points="224,126 260,126"/>
    <polyline class="wire-run" data-net="net:28" points="8,164 44,164"/>
    <polyline class="wire-run" data-net="net:29" points="52,164 88,164"/>
    <polyline class="wire-run" data-net="net:30" points="180,166 216,166"/>
    <polyline class="wire-run" data-net="net:31" points="224,166 260,166"/>
    <polyline class="wire-run" data-net="net:32" points="8,194 44,194"/>
    <polyline class="wire-run" data-net="net:33" points="96,194 132,194"/>
    <polyline class="wire-run" data-net="net:34" points="252,96 288,96"/>
    <polyline class="wire-run" data-net="net:35" points="252,104 288,104"/>
    <polyline class="wire-run" data-net="net:36" points="252,136 288,136"/>
    <polyline class="wire-run" data-net="net:37" points="8,156 44,156"/>
    <g class="symbol-instance" data-component="component:0" data-symbol-definition="symbol_def:0" transform="translate(12 34) rotate(0)">
      <text class="reference" x="0" y="-12">VIN_SRC</text>
      <rect class="symbol-rectangle" x="0" y="0" width="34" height="32"/>
      <line class="symbol-line" x1="34" y1="8" x2="44" y2="8"/>
      <line class="symbol-line" x1="34" y1="24" x2="44" y2="24"/>
      <text class="symbol-text" x="17" y="17" transform="rotate(0 17 17)">VIN</text>
      <circle class="pin-anchor" cx="44" cy="8" r="1.5"/>
      <text class="pin-label" x="44" y="12">OUT</text>
      <circle class="pin-anchor" cx="44" cy="24" r="1.5"/>
      <text class="pin-label" x="44" y="28">GND</text>
    </g>
    <g class="symbol-instance" data-component="component:1" data-symbol-definition="symbol_def:1" transform="translate(12 82) rotate(0)">
      <text class="reference" x="0" y="-12">PWR/J</text>
      <rect class="symbol-rectangle" x="10" y="-5" width="24" height="34"/>
      <text class="symbol-text" x="22" y="-10" transform="rotate(0 22 -10)">HDR</text>
      <line class="symbol-line" x1="0" y1="0" x2="10" y2="0"/>
      <line class="symbol-line" x1="0" y1="8" x2="10" y2="8"/>
      <line class="symbol-line" x1="0" y1="16" x2="10" y2="16"/>
      <line class="symbol-line" x1="0" y1="24" x2="10" y2="24"/>
      <circle class="pin-anchor" cx="0" cy="0" r="1.5"/>
      <text class="pin-label" x="0" y="4">1</text>
      <circle class="pin-anchor" cx="0" cy="8" r="1.5"/>
      <text class="pin-label" x="0" y="12">2</text>
      <circle class="pin-anchor" cx="0" cy="16" r="1.5"/>
      <text class="pin-label" x="0" y="20">3</text>
      <circle class="pin-anchor" cx="0" cy="24" r="1.5"/>
      <text class="pin-label" x="0" y="28">4</text>
    </g>
    <g class="symbol-instance" data-component="component:2" data-symbol-definition="symbol_def:2" transform="translate(68 42) rotate(0)">
      <text class="reference" x="0" y="-12">PWR/U5</text>
      <rect class="symbol-rectangle" x="10" y="0" width="30" height="25"/>
      <line class="symbol-line" x1="0" y1="10" x2="10" y2="10"/>
      <line class="symbol-line" x1="40" y1="10" x2="50" y2="10"/>
      <line class="symbol-line" x1="25" y1="25" x2="25" y2="30"/>
      <text class="symbol-text" x="25" y="14" transform="rotate(0 25 14)">LDO</text>
      <circle class="pin-anchor" cx="0" cy="10" r="1.5"/>
      <text class="pin-label" x="0" y="14">VI</text>
      <circle class="pin-anchor" cx="50" cy="10" r="1.5"/>
      <text class="pin-label" x="50" y="14">VO</text>
      <circle class="pin-anchor" cx="25" cy="30" r="1.5"/>
      <text class="pin-label" x="25" y="34">GND</text>
    </g>
    <g class="symbol-instance" data-component="component:3" data-symbol-definition="symbol_def:2" transform="translate(68 86) rotate(0)">
      <text class="reference" x="0" y="-12">PWR/U3V3</text>
      <rect class="symbol-rectangle" x="10" y="0" width="30" height="25"/>
      <line class="symbol-line" x1="0" y1="10" x2="10" y2="10"/>
      <line class="symbol-line" x1="40" y1="10" x2="50" y2="10"/>
      <line class="symbol-line" x1="25" y1="25" x2="25" y2="30"/>
      <text class="symbol-text" x="25" y="14" transform="rotate(0 25 14)">LDO</text>
      <circle class="pin-anchor" cx="0" cy="10" r="1.5"/>
      <text class="pin-label" x="0" y="14">VI</text>
      <circle class="pin-anchor" cx="50" cy="10" r="1.5"/>
      <text class="pin-label" x="50" y="14">VO</text>
      <circle class="pin-anchor" cx="25" cy="30" r="1.5"/>
      <text class="pin-label" x="25" y="34">GND</text>
    </g>
    <g class="symbol-instance" data-component="component:4" data-symbol-definition="symbol_def:3" transform="translate(24 130) rotate(0)">
      <text class="reference" x="0" y="-12">PWR/CIN</text>
      <line class="symbol-line" x1="0" y1="0" x2="0" y2="4"/>
      <rect class="symbol-rectangle" x="-3" y="4" width="6" height="12"/>
      <line class="symbol-line" x1="0" y1="16" x2="0" y2="20"/>
      <text class="symbol-text" x="8" y="10" transform="rotate(0 8 10)">C</text>
      <circle class="pin-anchor" cx="0" cy="0" r="1.5"/>
      <text class="pin-label" x="0" y="4">1</text>
      <circle class="pin-anchor" cx="0" cy="20" r="1.5"/>
      <text class="pin-label" x="0" y="24">2</text>
    </g>
    <g class="symbol-instance" data-component="component:5" data-symbol-definition="symbol_def:3" transform="translate(52 130) rotate(0)">
      <text class="reference" x="0" y="-12">PWR/C5V</text>
      <line class="symbol-line" x1="0" y1="0" x2="0" y2="4"/>
      <rect class="symbol-rectangle" x="-3" y="4" width="6" height="12"/>
      <line class="symbol-line" x1="0" y1="16" x2="0" y2="20"/>
      <text class="symbol-text" x="8" y="10" transform="rotate(0 8 10)">C</text>
      <circle class="pin-anchor" cx="0" cy="0" r="1.5"/>
      <text class="pin-label" x="0" y="4">1</text>
      <circle class="pin-anchor" cx="0" cy="20" r="1.5"/>
      <text class="pin-label" x="0" y="24">2</text>
    </g>
    <g class="symbol-instance" data-component="component:6" data-symbol-definition="symbol_def:3" transform="translate(80 130) rotate(0)">
      <text class="reference" x="0" y="-12">PWR/C3V3</text>
      <line class="symbol-line" x1="0" y1="0" x2="0" y2="4"/>
      <rect class="symbol-rectangle" x="-3" y="4" width="6" height="12"/>
      <line class="symbol-line" x1="0" y1="16" x2="0" y2="20"/>
      <text class="symbol-text" x="8" y="10" transform="rotate(0 8 10)">C</text>
      <circle class="pin-anchor" cx="0" cy="0" r="1.5"/>
      <text class="pin-label" x="0" y="4">1</text>
      <circle class="pin-anchor" cx="0" cy="20" r="1.5"/>
      <text class="pin-label" x="0" y="24">2</text>
    </g>
    <g class="symbol-instance" data-component="component:7" data-symbol-definition="symbol_def:3" transform="translate(108 130) rotate(0)">
      <text class="reference" x="0" y="-12">PWR/CVDDA</text>
      <line class="symbol-line" x1="0" y1="0" x2="0" y2="4"/>
      <rect class="symbol-rectangle" x="-3" y="4" width="6" height="12"/>
      <line class="symbol-line" x1="0" y1="16" x2="0" y2="20"/>
      <text class="symbol-text" x="8" y="10" transform="rotate(0 8 10)">C</text>
      <circle class="pin-anchor" cx="0" cy="0" r="1.5"/>
      <text class="pin-label" x="0" y="4">1</text>
      <circle class="pin-anchor" cx="0" cy="20" r="1.5"/>
      <text class="pin-label" x="0" y="24">2</text>
    </g>
    <g class="symbol-instance" data-component="component:8" data-symbol-definition="symbol_def:4" transform="translate(198 30) rotate(0)">
      <text class="reference" x="0" y="-12">USB/J1</text>
      <rect class="symbol-rectangle" x="10" y="-5" width="24" height="50"/>
      <text class="symbol-text" x="22" y="-10" transform="rotate(0 22 -10)">USB</text>
      <line class="symbol-line" x1="0" y1="0" x2="10" y2="0"/>
      <line class="symbol-line" x1="0" y1="8" x2="10" y2="8"/>
      <line class="symbol-line" x1="0" y1="16" x2="10" y2="16"/>
      <line class="symbol-line" x1="0" y1="24" x2="10" y2="24"/>
      <line class="symbol-line" x1="0" y1="32" x2="10" y2="32"/>
      <line class="symbol-line" x1="0" y1="40" x2="10" y2="40"/>
      <circle class="pin-anchor" cx="0" cy="0" r="1.5"/>
      <text class="pin-label" x="0" y="4">VBUS</text>
      <circle class="pin-anchor" cx="0" cy="8" r="1.5"/>
      <text class="pin-label" x="0" y="12">D-</text>
      <circle class="pin-anchor" cx="0" cy="16" r="1.5"/>
      <text class="pin-label" x="0" y="20">D+</text>
      <circle class="pin-anchor" cx="0" cy="24" r="1.5"/>
      <text class="pin-label" x="0" y="28">ID</text>
      <circle class="pin-anchor" cx="0" cy="32" r="1.5"/>
      <text class="pin-label" x="0" y="36">GND</text>
      <circle class="pin-anchor" cx="0" cy="40" r="1.5"/>
      <text class="pin-label" x="0" y="44">Shield</text>
    </g>
    <g class="symbol-instance" data-component="component:9" data-symbol-definition="symbol_def:5" transform="translate(226 74) rotate(0)">
      <text class="reference" x="0" y="-12">USB/U1</text>
      <rect class="symbol-rectangle" x="10" y="0" width="34" height="30"/>
      <line class="symbol-line" x1="0" y1="8" x2="10" y2="8"/>
      <line class="symbol-line" x1="0" y1="20" x2="10" y2="20"/>
      <line class="symbol-line" x1="44" y1="8" x2="54" y2="8"/>
      <line class="symbol-line" x1="44" y1="20" x2="54" y2="20"/>
      <line class="symbol-line" x1="27" y1="-10" x2="27" y2="0"/>
      <line class="symbol-line" x1="27" y1="30" x2="27" y2="38"/>
      <text class="symbol-text" x="27" y="16" transform="rotate(0 27 16)">ESD</text>
      <circle class="pin-anchor" cx="0" cy="8" r="1.5"/>
      <text class="pin-label" x="0" y="12">I/O1</text>
      <circle class="pin-anchor" cx="0" cy="20" r="1.5"/>
      <text class="pin-label" x="0" y="24">I/O2</text>
      <circle class="pin-anchor" cx="54" cy="8" r="1.5"/>
      <text class="pin-label" x="54" y="12">I/O4</text>
      <circle class="pin-anchor" cx="54" cy="20" r="1.5"/>
      <text class="pin-label" x="54" y="24">I/O3</text>
      <circle class="pin-anchor" cx="27" cy="-10" r="1.5"/>
      <text class="pin-label" x="27" y="-6">VBUS</text>
      <circle class="pin-anchor" cx="27" cy="38" r="1.5"/>
      <text class="pin-label" x="27" y="42">GND</text>
    </g>
    <g class="symbol-instance" data-component="component:23" data-symbol-definition="symbol_def:6" transform="translate(132 24) rotate(0)">
      <text class="reference" x="0" y="-12">U1</text>
      <rect class="symbol-rectangle" x="20" y="-10" width="60" height="175"/>
      <text class="symbol-text" x="50" y="70" transform="rotate(0 50 70)">STM32F405</text>
      <line class="symbol-line" x1="0" y1="0" x2="20" y2="0"/>
      <line class="symbol-line" x1="0" y1="5" x2="20" y2="5"/>
      <line class="symbol-line" x1="0" y1="10" x2="20" y2="10"/>
      <line class="symbol-line" x1="0" y1="15" x2="20" y2="15"/>
      <line class="symbol-line" x1="0" y1="20" x2="20" y2="20"/>
      <line class="symbol-line" x1="0" y1="25" x2="20" y2="25"/>
      <line class="symbol-line" x1="0" y1="30" x2="20" y2="30"/>
      <line class="symbol-line" x1="0" y1="35" x2="20" y2="35"/>
      <line class="symbol-line" x1="0" y1="40" x2="20" y2="40"/>
      <line class="symbol-line" x1="0" y1="45" x2="20" y2="45"/>
      <line class="symbol-line" x1="0" y1="50" x2="20" y2="50"/>
      <line class="symbol-line" x1="0" y1="55" x2="20" y2="55"/>
      <line class="symbol-line" x1="0" y1="60" x2="20" y2="60"/>
      <line class="symbol-line" x1="0" y1="65" x2="20" y2="65"/>
      <line class="symbol-line" x1="0" y1="70" x2="20" y2="70"/>
      <line class="symbol-line" x1="0" y1="75" x2="20" y2="75"/>
      <line class="symbol-line" x1="0" y1="80" x2="20" y2="80"/>
      <line class="symbol-line" x1="0" y1="85" x2="20" y2="85"/>
      <line class="symbol-line" x1="0" y1="90" x2="20" y2="90"/>
      <line class="symbol-line" x1="0" y1="95" x2="20" y2="95"/>
      <line class="symbol-line" x1="0" y1="100" x2="20" y2="100"/>
      <line class="symbol-line" x1="0" y1="105" x2="20" y2="105"/>
      <line class="symbol-line" x1="0" y1="110" x2="20" y2="110"/>
      <line class="symbol-line" x1="0" y1="115" x2="20" y2="115"/>
      <line class="symbol-line" x1="0" y1="120" x2="20" y2="120"/>
      <line class="symbol-line" x1="0" y1="125" x2="20" y2="125"/>
      <line class="symbol-line" x1="0" y1="130" x2="20" y2="130"/>
      <line class="symbol-line" x1="0" y1="135" x2="20" y2="135"/>
      <line class="symbol-line" x1="0" y1="140" x2="20" y2="140"/>
      <line class="symbol-line" x1="0" y1="145" x2="20" y2="145"/>
      <line class="symbol-line" x1="0" y1="150" x2="20" y2="150"/>
      <line class="symbol-line" x1="0" y1="155" x2="20" y2="155"/>
      <line class="symbol-line" x1="80" y1="155" x2="100" y2="155"/>
      <line class="symbol-line" x1="80" y1="150" x2="100" y2="150"/>
      <line class="symbol-line" x1="80" y1="145" x2="100" y2="145"/>
      <line class="symbol-line" x1="80" y1="140" x2="100" y2="140"/>
      <line class="symbol-line" x1="80" y1="135" x2="100" y2="135"/>
      <line class="symbol-line" x1="80" y1="130" x2="100" y2="130"/>
      <line class="symbol-line" x1="80" y1="125" x2="100" y2="125"/>
      <line class="symbol-line" x1="80" y1="120" x2="100" y2="120"/>
      <line class="symbol-line" x1="80" y1="115" x2="100" y2="115"/>
      <line class="symbol-line" x1="80" y1="110" x2="100" y2="110"/>
      <line class="symbol-line" x1="80" y1="105" x2="100" y2="105"/>
      <line class="symbol-line" x1="80" y1="100" x2="100" y2="100"/>
      <line class="symbol-line" x1="80" y1="95" x2="100" y2="95"/>
      <line class="symbol-line" x1="80" y1="90" x2="100" y2="90"/>
      <line class="symbol-line" x1="80" y1="85" x2="100" y2="85"/>
      <line class="symbol-line" x1="80" y1="80" x2="100" y2="80"/>
      <line class="symbol-line" x1="80" y1="75" x2="100" y2="75"/>
      <line class="symbol-line" x1="80" y1="70" x2="100" y2="70"/>
      <line class="symbol-line" x1="80" y1="65" x2="100" y2="65"/>
      <line class="symbol-line" x1="80" y1="60" x2="100" y2="60"/>
      <line class="symbol-line" x1="80" y1="55" x2="100" y2="55"/>
      <line class="symbol-line" x1="80" y1="50" x2="100" y2="50"/>
      <line class="symbol-line" x1="80" y1="45" x2="100" y2="45"/>
      <line class="symbol-line" x1="80" y1="40" x2="100" y2="40"/>
      <line class="symbol-line" x1="80" y1="35" x2="100" y2="35"/>
      <line class="symbol-line" x1="80" y1="30" x2="100" y2="30"/>
      <line class="symbol-line" x1="80" y1="25" x2="100" y2="25"/>
      <line class="symbol-line" x1="80" y1="20" x2="100" y2="20"/>
      <line class="symbol-line" x1="80" y1="15" x2="100" y2="15"/>
      <line class="symbol-line" x1="80" y1="10" x2="100" y2="10"/>
      <line class="symbol-line" x1="80" y1="5" x2="100" y2="5"/>
      <line class="symbol-line" x1="80" y1="0" x2="100" y2="0"/>
      <circle class="pin-anchor" cx="0" cy="0" r="1.5"/>
      <text class="pin-label" x="0" y="4">VBAT</text>
      <circle class="pin-anchor" cx="0" cy="5" r="1.5"/>
      <text class="pin-label" x="0" y="9">PC13</text>
      <circle class="pin-anchor" cx="0" cy="10" r="1.5"/>
      <text class="pin-label" x="0" y="14">PC14</text>
      <circle class="pin-anchor" cx="0" cy="15" r="1.5"/>
      <text class="pin-label" x="0" y="19">PC15</text>
      <circle class="pin-anchor" cx="0" cy="20" r="1.5"/>
      <text class="pin-label" x="0" y="24">PH0</text>
      <circle class="pin-anchor" cx="0" cy="25" r="1.5"/>
      <text class="pin-label" x="0" y="29">PH1</text>
      <circle class="pin-anchor" cx="0" cy="30" r="1.5"/>
      <text class="pin-label" x="0" y="34">NRST</text>
      <circle class="pin-anchor" cx="0" cy="35" r="1.5"/>
      <text class="pin-label" x="0" y="39">PC0</text>
      <circle class="pin-anchor" cx="0" cy="40" r="1.5"/>
      <text class="pin-label" x="0" y="44">PC1</text>
      <circle class="pin-anchor" cx="0" cy="45" r="1.5"/>
      <text class="pin-label" x="0" y="49">PC2</text>
      <circle class="pin-anchor" cx="0" cy="50" r="1.5"/>
      <text class="pin-label" x="0" y="54">PC3</text>
      <circle class="pin-anchor" cx="0" cy="55" r="1.5"/>
      <text class="pin-label" x="0" y="59">VSSA</text>
      <circle class="pin-anchor" cx="0" cy="60" r="1.5"/>
      <text class="pin-label" x="0" y="64">VDDA</text>
      <circle class="pin-anchor" cx="0" cy="65" r="1.5"/>
      <text class="pin-label" x="0" y="69">PA0</text>
      <circle class="pin-anchor" cx="0" cy="70" r="1.5"/>
      <text class="pin-label" x="0" y="74">PA1</text>
      <circle class="pin-anchor" cx="0" cy="75" r="1.5"/>
      <text class="pin-label" x="0" y="79">PA2</text>
      <circle class="pin-anchor" cx="0" cy="80" r="1.5"/>
      <text class="pin-label" x="0" y="84">PA3</text>
      <circle class="pin-anchor" cx="0" cy="85" r="1.5"/>
      <text class="pin-label" x="0" y="89">VSS</text>
      <circle class="pin-anchor" cx="0" cy="90" r="1.5"/>
      <text class="pin-label" x="0" y="94">VDD</text>
      <circle class="pin-anchor" cx="0" cy="95" r="1.5"/>
      <text class="pin-label" x="0" y="99">PA4</text>
      <circle class="pin-anchor" cx="0" cy="100" r="1.5"/>
      <text class="pin-label" x="0" y="104">PA5</text>
      <circle class="pin-anchor" cx="0" cy="105" r="1.5"/>
      <text class="pin-label" x="0" y="109">PA6</text>
      <circle class="pin-anchor" cx="0" cy="110" r="1.5"/>
      <text class="pin-label" x="0" y="114">PA7</text>
      <circle class="pin-anchor" cx="0" cy="115" r="1.5"/>
      <text class="pin-label" x="0" y="119">PC4</text>
      <circle class="pin-anchor" cx="0" cy="120" r="1.5"/>
      <text class="pin-label" x="0" y="124">PC5</text>
      <circle class="pin-anchor" cx="0" cy="125" r="1.5"/>
      <text class="pin-label" x="0" y="129">PB0</text>
      <circle class="pin-anchor" cx="0" cy="130" r="1.5"/>
      <text class="pin-label" x="0" y="134">PB1</text>
      <circle class="pin-anchor" cx="0" cy="135" r="1.5"/>
      <text class="pin-label" x="0" y="139">PB2</text>
      <circle class="pin-anchor" cx="0" cy="140" r="1.5"/>
      <text class="pin-label" x="0" y="144">PB10</text>
      <circle class="pin-anchor" cx="0" cy="145" r="1.5"/>
      <text class="pin-label" x="0" y="149">PB11</text>
      <circle class="pin-anchor" cx="0" cy="150" r="1.5"/>
      <text class="pin-label" x="0" y="154">VCAP_1</text>
      <circle class="pin-anchor" cx="0" cy="155" r="1.5"/>
      <text class="pin-label" x="0" y="159">VDD</text>
      <circle class="pin-anchor" cx="100" cy="155" r="1.5"/>
      <text class="pin-label" x="100" y="159">PB12</text>
      <circle class="pin-anchor" cx="100" cy="150" r="1.5"/>
      <text class="pin-label" x="100" y="154">PB13</text>
      <circle class="pin-anchor" cx="100" cy="145" r="1.5"/>
      <text class="pin-label" x="100" y="149">PB14</text>
      <circle class="pin-anchor" cx="100" cy="140" r="1.5"/>
      <text class="pin-label" x="100" y="144">PB15</text>
      <circle class="pin-anchor" cx="100" cy="135" r="1.5"/>
      <text class="pin-label" x="100" y="139">PC6</text>
      <circle class="pin-anchor" cx="100" cy="130" r="1.5"/>
      <text class="pin-label" x="100" y="134">PC7</text>
      <circle class="pin-anchor" cx="100" cy="125" r="1.5"/>
      <text class="pin-label" x="100" y="129">PC8</text>
      <circle class="pin-anchor" cx="100" cy="120" r="1.5"/>
      <text class="pin-label" x="100" y="124">PC9</text>
      <circle class="pin-anchor" cx="100" cy="115" r="1.5"/>
      <text class="pin-label" x="100" y="119">PA8</text>
      <circle class="pin-anchor" cx="100" cy="110" r="1.5"/>
      <text class="pin-label" x="100" y="114">PA9</text>
      <circle class="pin-anchor" cx="100" cy="105" r="1.5"/>
      <text class="pin-label" x="100" y="109">PA10</text>
      <circle class="pin-anchor" cx="100" cy="100" r="1.5"/>
      <text class="pin-label" x="100" y="104">PA11</text>
      <circle class="pin-anchor" cx="100" cy="95" r="1.5"/>
      <text class="pin-label" x="100" y="99">PA12</text>
      <circle class="pin-anchor" cx="100" cy="90" r="1.5"/>
      <text class="pin-label" x="100" y="94">PA13</text>
      <circle class="pin-anchor" cx="100" cy="85" r="1.5"/>
      <text class="pin-label" x="100" y="89">VCAP_2</text>
      <circle class="pin-anchor" cx="100" cy="80" r="1.5"/>
      <text class="pin-label" x="100" y="84">VDD</text>
      <circle class="pin-anchor" cx="100" cy="75" r="1.5"/>
      <text class="pin-label" x="100" y="79">PA14</text>
      <circle class="pin-anchor" cx="100" cy="70" r="1.5"/>
      <text class="pin-label" x="100" y="74">PA15</text>
      <circle class="pin-anchor" cx="100" cy="65" r="1.5"/>
      <text class="pin-label" x="100" y="69">PC10</text>
      <circle class="pin-anchor" cx="100" cy="60" r="1.5"/>
      <text class="pin-label" x="100" y="64">PC11</text>
      <circle class="pin-anchor" cx="100" cy="55" r="1.5"/>
      <text class="pin-label" x="100" y="59">PC12</text>
      <circle class="pin-anchor" cx="100" cy="50" r="1.5"/>
      <text class="pin-label" x="100" y="54">PD2</text>
      <circle class="pin-anchor" cx="100" cy="45" r="1.5"/>
      <text class="pin-label" x="100" y="49">PB3</text>
      <circle class="pin-anchor" cx="100" cy="40" r="1.5"/>
      <text class="pin-label" x="100" y="44">PB4</text>
      <circle class="pin-anchor" cx="100" cy="35" r="1.5"/>
      <text class="pin-label" x="100" y="39">PB5</text>
      <circle class="pin-anchor" cx="100" cy="30" r="1.5"/>
      <text class="pin-label" x="100" y="34">PB6</text>
      <circle class="pin-anchor" cx="100" cy="25" r="1.5"/>
      <text class="pin-label" x="100" y="29">PB7</text>
      <circle class="pin-anchor" cx="100" cy="20" r="1.5"/>
      <text class="pin-label" x="100" y="24">BOOT0</text>
      <circle class="pin-anchor" cx="100" cy="15" r="1.5"/>
      <text class="pin-label" x="100" y="19">PB8</text>
      <circle class="pin-anchor" cx="100" cy="10" r="1.5"/>
      <text class="pin-label" x="100" y="14">PB9</text>
      <circle class="pin-anchor" cx="100" cy="5" r="1.5"/>
      <text class="pin-label" x="100" y="9">VSS</text>
      <circle class="pin-anchor" cx="100" cy="0" r="1.5"/>
      <text class="pin-label" x="100" y="4">VDD</text>
    </g>
    <g class="symbol-instance" data-component="component:10" data-symbol-definition="symbol_def:3" transform="translate(104 28) rotate(0)">
      <text class="reference" x="0" y="-12">SUPPORT/CVDD</text>
      <line class="symbol-line" x1="0" y1="0" x2="0" y2="4"/>
      <rect class="symbol-rectangle" x="-3" y="4" width="6" height="12"/>
      <line class="symbol-line" x1="0" y1="16" x2="0" y2="20"/>
      <text class="symbol-text" x="8" y="10" transform="rotate(0 8 10)">C</text>
      <circle class="pin-anchor" cx="0" cy="0" r="1.5"/>
      <text class="pin-label" x="0" y="4">1</text>
      <circle class="pin-anchor" cx="0" cy="20" r="1.5"/>
      <text class="pin-label" x="0" y="24">2</text>
    </g>
    <g class="symbol-instance" data-component="component:11" data-symbol-definition="symbol_def:3" transform="translate(104 58) rotate(0)">
      <text class="reference" x="0" y="-12">SUPPORT/CVCAP1</text>
      <line class="symbol-line" x1="0" y1="0" x2="0" y2="4"/>
      <rect class="symbol-rectangle" x="-3" y="4" width="6" height="12"/>
      <line class="symbol-line" x1="0" y1="16" x2="0" y2="20"/>
      <text class="symbol-text" x="8" y="10" transform="rotate(0 8 10)">C</text>
      <circle class="pin-anchor" cx="0" cy="0" r="1.5"/>
      <text class="pin-label" x="0" y="4">1</text>
      <circle class="pin-anchor" cx="0" cy="20" r="1.5"/>
      <text class="pin-label" x="0" y="24">2</text>
    </g>
    <g class="symbol-instance" data-component="component:12" data-symbol-definition="symbol_def:3" transform="translate(104 88) rotate(0)">
      <text class="reference" x="0" y="-12">SUPPORT/CVCAP2</text>
      <line class="symbol-line" x1="0" y1="0" x2="0" y2="4"/>
      <rect class="symbol-rectangle" x="-3" y="4" width="6" height="12"/>
      <line class="symbol-line" x1="0" y1="16" x2="0" y2="20"/>
      <text class="symbol-text" x="8" y="10" transform="rotate(0 8 10)">C</text>
      <circle class="pin-anchor" cx="0" cy="0" r="1.5"/>
      <text class="pin-label" x="0" y="4">1</text>
      <circle class="pin-anchor" cx="0" cy="20" r="1.5"/>
      <text class="pin-label" x="0" y="24">2</text>
    </g>
    <g class="symbol-instance" data-component="component:13" data-symbol-definition="symbol_def:7" transform="translate(104 120) rotate(0)">
      <text class="reference" x="0" y="-12">SUPPORT/RRESET</text>
      <line class="symbol-line" x1="0" y1="0" x2="4" y2="0"/>
      <rect class="symbol-rectangle" x="4" y="-3" width="12" height="6"/>
      <line class="symbol-line" x1="16" y1="0" x2="20" y2="0"/>
      <text class="symbol-text" x="10" y="-8" transform="rotate(0 10 -8)">R</text>
      <circle class="pin-anchor" cx="0" cy="0" r="1.5"/>
      <text class="pin-label" x="0" y="4">1</text>
      <circle class="pin-anchor" cx="20" cy="0" r="1.5"/>
      <text class="pin-label" x="20" y="4">2</text>
    </g>
    <g class="symbol-instance" data-component="component:14" data-symbol-definition="symbol_def:7" transform="translate(104 148) rotate(0)">
      <text class="reference" x="0" y="-12">SUPPORT/RBOOT</text>
      <line class="symbol-line" x1="0" y1="0" x2="4" y2="0"/>
      <rect class="symbol-rectangle" x="4" y="-3" width="12" height="6"/>
      <line class="symbol-line" x1="16" y1="0" x2="20" y2="0"/>
      <text class="symbol-text" x="10" y="-8" transform="rotate(0 10 -8)">R</text>
      <circle class="pin-anchor" cx="0" cy="0" r="1.5"/>
      <text class="pin-label" x="0" y="4">1</text>
      <circle class="pin-anchor" cx="20" cy="0" r="1.5"/>
      <text class="pin-label" x="20" y="4">2</text>
    </g>
    <g class="symbol-instance" data-component="component:15" data-symbol-definition="symbol_def:8" transform="translate(160 176) rotate(0)">
      <text class="reference" x="0" y="-12">SUPPORT/SWBOOT</text>
      <line class="symbol-line" x1="0" y1="0" x2="14" y2="0"/>
      <line class="symbol-line" x1="0" y1="20" x2="14" y2="20"/>
      <line class="symbol-line" x1="30" y1="10" x2="44" y2="10"/>
      <line class="symbol-line" x1="14" y1="0" x2="30" y2="10"/>
      <text class="symbol-text" x="22" y="-8" transform="rotate(0 22 -8)">SW</text>
      <circle class="pin-anchor" cx="0" cy="0" r="1.5"/>
      <text class="pin-label" x="0" y="4">A</text>
      <circle class="pin-anchor" cx="44" cy="10" r="1.5"/>
      <text class="pin-label" x="44" y="14">C</text>
      <circle class="pin-anchor" cx="0" cy="20" r="1.5"/>
      <text class="pin-label" x="0" y="24">B</text>
    </g>
    <g class="symbol-instance" data-component="component:16" data-symbol-definition="symbol_def:9" transform="translate(206 142) rotate(0)">
      <text class="reference" x="0" y="-12">SUPPORT/Y1</text>
      <line class="symbol-line" x1="0" y1="10" x2="12" y2="10"/>
      <line class="symbol-line" x1="32" y1="10" x2="44" y2="10"/>
      <line class="symbol-line" x1="18" y1="0" x2="18" y2="20"/>
      <line class="symbol-line" x1="26" y1="0" x2="26" y2="20"/>
      <rect class="symbol-rectangle" x="12" y="4" width="20" height="12"/>
      <line class="symbol-line" x1="14" y1="16" x2="14" y2="28"/>
      <line class="symbol-line" x1="30" y1="16" x2="30" y2="28"/>
      <text class="symbol-text" x="22" y="-6" transform="rotate(0 22 -6)">XTAL</text>
      <circle class="pin-anchor" cx="0" cy="10" r="1.5"/>
      <text class="pin-label" x="0" y="14">1</text>
      <circle class="pin-anchor" cx="44" cy="10" r="1.5"/>
      <text class="pin-label" x="44" y="14">3</text>
      <circle class="pin-anchor" cx="14" cy="28" r="1.5"/>
      <text class="pin-label" x="14" y="32">GND</text>
      <circle class="pin-anchor" cx="30" cy="28" r="1.5"/>
      <text class="pin-label" x="30" y="32">GND</text>
    </g>
    <g class="symbol-instance" data-component="component:17" data-symbol-definition="symbol_def:3" transform="translate(208 176) rotate(0)">
      <text class="reference" x="0" y="-12">SUPPORT/CHSEIN</text>
      <line class="symbol-line" x1="0" y1="0" x2="0" y2="4"/>
      <rect class="symbol-rectangle" x="-3" y="4" width="6" height="12"/>
      <line class="symbol-line" x1="0" y1="16" x2="0" y2="20"/>
      <text class="symbol-text" x="8" y="10" transform="rotate(0 8 10)">C</text>
      <circle class="pin-anchor" cx="0" cy="0" r="1.5"/>
      <text class="pin-label" x="0" y="4">1</text>
      <circle class="pin-anchor" cx="0" cy="20" r="1.5"/>
      <text class="pin-label" x="0" y="24">2</text>
    </g>
    <g class="symbol-instance" data-component="component:18" data-symbol-definition="symbol_def:3" transform="translate(236 176) rotate(0)">
      <text class="reference" x="0" y="-12">SUPPORT/CHSEOUT</text>
      <line class="symbol-line" x1="0" y1="0" x2="0" y2="4"/>
      <rect class="symbol-rectangle" x="-3" y="4" width="6" height="12"/>
      <line class="symbol-line" x1="0" y1="16" x2="0" y2="20"/>
      <text class="symbol-text" x="8" y="10" transform="rotate(0 8 10)">C</text>
      <circle class="pin-anchor" cx="0" cy="0" r="1.5"/>
      <text class="pin-label" x="0" y="4">1</text>
      <circle class="pin-anchor" cx="0" cy="20" r="1.5"/>
      <text class="pin-label" x="0" y="24">2</text>
    </g>
    <g class="symbol-instance" data-component="component:19" data-symbol-definition="symbol_def:10" transform="translate(252 18) rotate(0)">
      <text class="reference" x="0" y="-12">J2</text>
      <rect class="symbol-rectangle" x="10" y="-5" width="24" height="82"/>
      <text class="symbol-text" x="22" y="-10" transform="rotate(0 22 -10)">SWD</text>
      <line class="symbol-line" x1="0" y1="0" x2="10" y2="0"/>
      <line class="symbol-line" x1="0" y1="8" x2="10" y2="8"/>
      <line class="symbol-line" x1="0" y1="16" x2="10" y2="16"/>
      <line class="symbol-line" x1="0" y1="24" x2="10" y2="24"/>
      <line class="symbol-line" x1="0" y1="32" x2="10" y2="32"/>
      <line class="symbol-line" x1="0" y1="40" x2="10" y2="40"/>
      <line class="symbol-line" x1="0" y1="48" x2="10" y2="48"/>
      <line class="symbol-line" x1="0" y1="56" x2="10" y2="56"/>
      <line class="symbol-line" x1="0" y1="64" x2="10" y2="64"/>
      <line class="symbol-line" x1="0" y1="72" x2="10" y2="72"/>
      <circle class="pin-anchor" cx="0" cy="0" r="1.5"/>
      <text class="pin-label" x="0" y="4">VTref</text>
      <circle class="pin-anchor" cx="0" cy="8" r="1.5"/>
      <text class="pin-label" x="0" y="12">SWDIO</text>
      <circle class="pin-anchor" cx="0" cy="16" r="1.5"/>
      <text class="pin-label" x="0" y="20">GND</text>
      <circle class="pin-anchor" cx="0" cy="24" r="1.5"/>
      <text class="pin-label" x="0" y="28">SWCLK</text>
      <circle class="pin-anchor" cx="0" cy="32" r="1.5"/>
      <text class="pin-label" x="0" y="36">GND</text>
      <circle class="pin-anchor" cx="0" cy="40" r="1.5"/>
      <text class="pin-label" x="0" y="44">SWO</text>
      <circle class="pin-anchor" cx="0" cy="48" r="1.5"/>
      <text class="pin-label" x="0" y="52">NC</text>
      <circle class="pin-anchor" cx="0" cy="56" r="1.5"/>
      <text class="pin-label" x="0" y="60">TDI</text>
      <circle class="pin-anchor" cx="0" cy="64" r="1.5"/>
      <text class="pin-label" x="0" y="68">GNDDetect</text>
      <circle class="pin-anchor" cx="0" cy="72" r="1.5"/>
      <text class="pin-label" x="0" y="76">nRESET</text>
    </g>
    <g class="symbol-instance" data-component="component:20" data-symbol-definition="symbol_def:1" transform="translate(252 110) rotate(0)">
      <text class="reference" x="0" y="-12">J3</text>
      <rect class="symbol-rectangle" x="10" y="-5" width="24" height="34"/>
      <text class="symbol-text" x="22" y="-10" transform="rotate(0 22 -10)">HDR</text>
      <line class="symbol-line" x1="0" y1="0" x2="10" y2="0"/>
      <line class="symbol-line" x1="0" y1="8" x2="10" y2="8"/>
      <line class="symbol-line" x1="0" y1="16" x2="10" y2="16"/>
      <line class="symbol-line" x1="0" y1="24" x2="10" y2="24"/>
      <circle class="pin-anchor" cx="0" cy="0" r="1.5"/>
      <text class="pin-label" x="0" y="4">1</text>
      <circle class="pin-anchor" cx="0" cy="8" r="1.5"/>
      <text class="pin-label" x="0" y="12">2</text>
      <circle class="pin-anchor" cx="0" cy="16" r="1.5"/>
      <text class="pin-label" x="0" y="20">3</text>
      <circle class="pin-anchor" cx="0" cy="24" r="1.5"/>
      <text class="pin-label" x="0" y="28">4</text>
    </g>
    <g class="symbol-instance" data-component="component:21" data-symbol-definition="symbol_def:7" transform="translate(18 176) rotate(0)">
      <text class="reference" x="0" y="-12">LED_STATUS/R</text>
      <line class="symbol-line" x1="0" y1="0" x2="4" y2="0"/>
      <rect class="symbol-rectangle" x="4" y="-3" width="12" height="6"/>
      <line class="symbol-line" x1="16" y1="0" x2="20" y2="0"/>
      <text class="symbol-text" x="10" y="-8" transform="rotate(0 10 -8)">R</text>
      <circle class="pin-anchor" cx="0" cy="0" r="1.5"/>
      <text class="pin-label" x="0" y="4">1</text>
      <circle class="pin-anchor" cx="20" cy="0" r="1.5"/>
      <text class="pin-label" x="20" y="4">2</text>
    </g>
    <g class="symbol-instance" data-component="component:22" data-symbol-definition="symbol_def:11" transform="translate(54 176) rotate(0)">
      <text class="reference" x="0" y="-12">LED_STATUS/D</text>
      <line class="symbol-line" x1="0" y1="0" x2="8" y2="0"/>
      <line class="symbol-line" x1="16" y1="0" x2="24" y2="0"/>
      <line class="symbol-line" x1="8" y1="-6" x2="8" y2="6"/>
      <line class="symbol-line" x1="8" y1="-6" x2="16" y2="0"/>
      <line class="symbol-line" x1="8" y1="6" x2="16" y2="0"/>
      <line class="symbol-line" x1="16" y1="-6" x2="16" y2="6"/>
      <text class="symbol-text" x="12" y="-10" transform="rotate(0 12 -10)">LED</text>
      <circle class="pin-anchor" cx="0" cy="0" r="1.5"/>
      <text class="pin-label" x="0" y="4">A</text>
      <circle class="pin-anchor" cx="24" cy="0" r="1.5"/>
      <text class="pin-label" x="24" y="4">K</text>
    </g>
    <text class="net-label" data-net="net:0" x="8" y="16" transform="rotate(0 8 16)">+12V</text>
    <text class="net-label" data-net="net:1" x="52" y="16" transform="rotate(0 52 16)">+5V</text>
    <text class="net-label" data-net="net:2" x="96" y="16" transform="rotate(0 96 16)">+3V3</text>
    <text class="net-label" data-net="net:3" x="8" y="200" transform="rotate(0 8 200)">VDDA</text>
    <text class="net-label" data-net="net:4" x="52" y="200" transform="rotate(0 52 200)">GND</text>
    <text class="net-label" data-net="net:10" x="180" y="16" transform="rotate(0 180 16)">USB_DP</text>
    <text class="net-label" data-net="net:11" x="224" y="16" transform="rotate(0 224 16)">USB_DM</text>
    <text class="net-label" data-net="net:12" x="180" y="124" transform="rotate(0 180 124)">MCU_USB_DP</text>
    <text class="net-label" data-net="net:13" x="224" y="124" transform="rotate(0 224 124)">MCU_USB_DM</text>
    <text class="net-label" data-net="net:28" x="8" y="162" transform="rotate(0 8 162)">NRST</text>
    <text class="net-label" data-net="net:29" x="52" y="162" transform="rotate(0 52 162)">BOOT0</text>
    <text class="net-label" data-net="net:30" x="180" y="164" transform="rotate(0 180 164)">HSE_IN</text>
    <text class="net-label" data-net="net:31" x="224" y="164" transform="rotate(0 224 164)">HSE_OUT</text>
    <text class="net-label" data-net="net:32" x="8" y="192" transform="rotate(0 8 192)">VCAP_1</text>
    <text class="net-label" data-net="net:33" x="96" y="192" transform="rotate(0 96 192)">VCAP_2</text>
    <text class="net-label" data-net="net:34" x="252" y="94" transform="rotate(0 252 94)">SWDIO</text>
    <text class="net-label" data-net="net:35" x="252" y="102" transform="rotate(0 252 102)">SWCLK</text>
    <text class="net-label" data-net="net:36" x="252" y="134" transform="rotate(0 252 134)">SWO</text>
    <text class="net-label" data-net="net:37" x="8" y="154" transform="rotate(0 8 154)">STATUS_LED</text>
    <text class="net-label" data-net="net:0" x="56" y="42" transform="rotate(0 56 42)">+12V</text>
    <text class="net-label" data-net="net:4" x="56" y="58" transform="rotate(0 56 58)">GND</text>
    <text class="net-label" data-net="net:5" x="12" y="82" transform="rotate(0 12 82)">PWR/IN_12V</text>
    <text class="net-label" data-net="net:9" x="12" y="90" transform="rotate(0 12 90)">PWR/GND</text>
    <text class="net-label" data-net="net:9" x="12" y="98" transform="rotate(0 12 98)">PWR/GND</text>
    <text class="net-label" data-net="net:9" x="12" y="106" transform="rotate(0 12 106)">PWR/GND</text>
    <text class="net-label" data-net="net:5" x="68" y="52" transform="rotate(0 68 52)">PWR/IN_12V</text>
    <text class="net-label" data-net="net:6" x="118" y="52" transform="rotate(0 118 52)">PWR/OUT_5V</text>
    <text class="net-label" data-net="net:9" x="93" y="72" transform="rotate(0 93 72)">PWR/GND</text>
    <text class="net-label" data-net="net:6" x="68" y="96" transform="rotate(0 68 96)">PWR/OUT_5V</text>
    <text class="net-label" data-net="net:7" x="118" y="96" transform="rotate(0 118 96)">PWR/OUT_3V3</text>
    <text class="net-label" data-net="net:9" x="93" y="116" transform="rotate(0 93 116)">PWR/GND</text>
    <text class="net-label" data-net="net:5" x="24" y="130" transform="rotate(0 24 130)">PWR/IN_12V</text>
    <text class="net-label" data-net="net:9" x="24" y="150" transform="rotate(0 24 150)">PWR/GND</text>
    <text class="net-label" data-net="net:6" x="52" y="130" transform="rotate(0 52 130)">PWR/OUT_5V</text>
    <text class="net-label" data-net="net:9" x="52" y="150" transform="rotate(0 52 150)">PWR/GND</text>
    <text class="net-label" data-net="net:7" x="80" y="130" transform="rotate(0 80 130)">PWR/OUT_3V3</text>
    <text class="net-label" data-net="net:9" x="80" y="150" transform="rotate(0 80 150)">PWR/GND</text>
    <text class="net-label" data-net="net:8" x="108" y="130" transform="rotate(0 108 130)">PWR/VDDA</text>
    <text class="net-label" data-net="net:9" x="108" y="150" transform="rotate(0 108 150)">PWR/GND</text>
    <text class="net-label" data-net="net:14" x="198" y="30" transform="rotate(0 198 30)">USB/VBUS</text>
    <text class="net-label" data-net="net:16" x="198" y="38" transform="rotate(0 198 38)">USB/USB_DM</text>
    <text class="net-label" data-net="net:15" x="198" y="46" transform="rotate(0 198 46)">USB/USB_DP</text>
    <text class="net-label" data-net="net:19" x="198" y="62" transform="rotate(0 198 62)">USB/GND</text>
    <text class="net-label" data-net="net:19" x="198" y="70" transform="rotate(0 198 70)">USB/GND</text>
    <text class="net-label" data-net="net:15" x="226" y="82" transform="rotate(0 226 82)">USB/USB_DP</text>
    <text class="net-label" data-net="net:16" x="226" y="94" transform="rotate(0 226 94)">USB/USB_DM</text>
    <text class="net-label" data-net="net:17" x="280" y="82" transform="rotate(0 280 82)">USB/MCU_USB_DP</text>
    <text class="net-label" data-net="net:18" x="280" y="94" transform="rotate(0 280 94)">USB/MCU_USB_DM</text>
    <text class="net-label" data-net="net:14" x="253" y="64" transform="rotate(0 253 64)">USB/VBUS</text>
    <text class="net-label" data-net="net:19" x="253" y="112" transform="rotate(0 253 112)">USB/GND</text>
    <text class="net-label" data-net="net:2" x="132" y="24" transform="rotate(0 132 24)">+3V3</text>
    <text class="net-label" data-net="net:37" x="132" y="29" transform="rotate(0 132 29)">STATUS_LED</text>
    <text class="net-label" data-net="net:30" x="132" y="44" transform="rotate(0 132 44)">HSE_IN</text>
    <text class="net-label" data-net="net:31" x="132" y="49" transform="rotate(0 132 49)">HSE_OUT</text>
    <text class="net-label" data-net="net:28" x="132" y="54" transform="rotate(0 132 54)">NRST</text>
    <text class="net-label" data-net="net:4" x="132" y="79" transform="rotate(0 132 79)">GND</text>
    <text class="net-label" data-net="net:3" x="132" y="84" transform="rotate(0 132 84)">VDDA</text>
    <text class="net-label" data-net="net:4" x="132" y="109" transform="rotate(0 132 109)">GND</text>
    <text class="net-label" data-net="net:2" x="132" y="114" transform="rotate(0 132 114)">+3V3</text>
    <text class="net-label" data-net="net:32" x="132" y="174" transform="rotate(0 132 174)">VCAP_1</text>
    <text class="net-label" data-net="net:2" x="132" y="179" transform="rotate(0 132 179)">+3V3</text>
    <text class="net-label" data-net="net:13" x="232" y="124" transform="rotate(0 232 124)">MCU_USB_DM</text>
    <text class="net-label" data-net="net:12" x="232" y="119" transform="rotate(0 232 119)">MCU_USB_DP</text>
    <text class="net-label" data-net="net:34" x="232" y="114" transform="rotate(0 232 114)">SWDIO</text>
    <text class="net-label" data-net="net:33" x="232" y="109" transform="rotate(0 232 109)">VCAP_2</text>
    <text class="net-label" data-net="net:2" x="232" y="104" transform="rotate(0 232 104)">+3V3</text>
    <text class="net-label" data-net="net:35" x="232" y="99" transform="rotate(0 232 99)">SWCLK</text>
    <text class="net-label" data-net="net:36" x="232" y="69" transform="rotate(0 232 69)">SWO</text>
    <text class="net-label" data-net="net:29" x="232" y="44" transform="rotate(0 232 44)">BOOT0</text>
    <text class="net-label" data-net="net:4" x="232" y="29" transform="rotate(0 232 29)">GND</text>
    <text class="net-label" data-net="net:2" x="232" y="24" transform="rotate(0 232 24)">+3V3</text>
    <text class="net-label" data-net="net:20" x="104" y="28" transform="rotate(0 104 28)">SUPPORT/VDD</text>
    <text class="net-label" data-net="net:21" x="104" y="48" transform="rotate(0 104 48)">SUPPORT/GND</text>
    <text class="net-label" data-net="net:26" x="104" y="58" transform="rotate(0 104 58)">SUPPORT/VCAP_1</text>
    <text class="net-label" data-net="net:21" x="104" y="78" transform="rotate(0 104 78)">SUPPORT/GND</text>
    <text class="net-label" data-net="net:27" x="104" y="88" transform="rotate(0 104 88)">SUPPORT/VCAP_2</text>
    <text class="net-label" data-net="net:21" x="104" y="108" transform="rotate(0 104 108)">SUPPORT/GND</text>
    <text class="net-label" data-net="net:20" x="104" y="120" transform="rotate(0 104 120)">SUPPORT/VDD</text>
    <text class="net-label" data-net="net:22" x="124" y="120" transform="rotate(0 124 120)">SUPPORT/NRST</text>
    <text class="net-label" data-net="net:23" x="104" y="148" transform="rotate(0 104 148)">SUPPORT/BOOT0</text>
    <text class="net-label" data-net="net:21" x="124" y="148" transform="rotate(0 124 148)">SUPPORT/GND</text>
    <text class="net-label" data-net="net:20" x="160" y="176" transform="rotate(0 160 176)">SUPPORT/VDD</text>
    <text class="net-label" data-net="net:23" x="204" y="186" transform="rotate(0 204 186)">SUPPORT/BOOT0</text>
    <text class="net-label" data-net="net:21" x="160" y="196" transform="rotate(0 160 196)">SUPPORT/GND</text>
    <text class="net-label" data-net="net:24" x="206" y="152" transform="rotate(0 206 152)">SUPPORT/HSE_IN</text>
    <text class="net-label" data-net="net:25" x="250" y="152" transform="rotate(0 250 152)">SUPPORT/HSE_OUT</text>
    <text class="net-label" data-net="net:21" x="220" y="170" transform="rotate(0 220 170)">SUPPORT/GND</text>
    <text class="net-label" data-net="net:21" x="236" y="170" transform="rotate(0 236 170)">SUPPORT/GND</text>
    <text class="net-label" data-net="net:24" x="208" y="176" transform="rotate(0 208 176)">SUPPORT/HSE_IN</text>
    <text class="net-label" data-net="net:21" x="208" y="196" transform="rotate(0 208 196)">SUPPORT/GND</text>
    <text class="net-label" data-net="net:25" x="236" y="176" transform="rotate(0 236 176)">SUPPORT/HSE_OUT</text>
    <text class="net-label" data-net="net:21" x="236" y="196" transform="rotate(0 236 196)">SUPPORT/GND</text>
    <text class="net-label" data-net="net:2" x="252" y="18" transform="rotate(0 252 18)">+3V3</text>
    <text class="net-label" data-net="net:34" x="252" y="26" transform="rotate(0 252 26)">SWDIO</text>
    <text class="net-label" data-net="net:4" x="252" y="34" transform="rotate(0 252 34)">GND</text>
    <text class="net-label" data-net="net:35" x="252" y="42" transform="rotate(0 252 42)">SWCLK</text>
    <text class="net-label" data-net="net:4" x="252" y="50" transform="rotate(0 252 50)">GND</text>
    <text class="net-label" data-net="net:36" x="252" y="58" transform="rotate(0 252 58)">SWO</text>
    <text class="net-label" data-net="net:29" x="252" y="74" transform="rotate(0 252 74)">BOOT0</text>
    <text class="net-label" data-net="net:4" x="252" y="82" transform="rotate(0 252 82)">GND</text>
    <text class="net-label" data-net="net:28" x="252" y="90" transform="rotate(0 252 90)">NRST</text>
    <text class="net-label" data-net="net:2" x="252" y="110" transform="rotate(0 252 110)">+3V3</text>
    <text class="net-label" data-net="net:29" x="252" y="118" transform="rotate(0 252 118)">BOOT0</text>
    <text class="net-label" data-net="net:4" x="252" y="134" transform="rotate(0 252 134)">GND</text>
    <text class="net-label" data-net="net:38" x="18" y="176" transform="rotate(0 18 176)">LED_STATUS/SUPPLY</text>
    <text class="net-label" data-net="net:39" x="38" y="176" transform="rotate(0 38 176)">LED_STATUS/SIGNAL</text>
    <text class="net-label" data-net="net:39" x="54" y="176" transform="rotate(0 54 176)">LED_STATUS/SIGNAL</text>
    <text class="net-label" data-net="net:40" x="78" y="176" transform="rotate(0 78 176)">LED_STATUS/GND</text>
  </g>
</svg>
