<svg xmlns="http://www.w3.org/2000/svg" viewBox="0 0 297 210" width="297" height="210">
  <style>.document-background,.sheet{fill:#fff;stroke:none}.sheet-border{fill:none;stroke:#111;stroke-width:0.6}.drawing-frame{fill:none;stroke:#111;stroke-width:0.45}.sheet-grid{stroke:none}.sheet-grid-dot{fill:#d7d7d7;stroke:none}.coordinate-zone-label{font:3.5px sans-serif;fill:#444;text-anchor:middle;dominant-baseline:middle}.sheet-title{font-weight:600}.title-block-outline,.title-block-rule{fill:none;stroke:#111;stroke-width:0.35}.title-block-label{font:3.2px sans-serif;fill:#444;text-anchor:start}.title-block-value{font:3.6px sans-serif;fill:#111;text-anchor:start}.sheet-region-frame{fill:#fff;fill-opacity:0;stroke:#78716c;stroke-width:0.45}.sheet-region-frame.dashed{stroke-dasharray:3 2}.sheet-region-title{font:4px sans-serif;fill:#57534e;text-anchor:start;font-weight:600}.wire-run{fill:none;stroke:#111;stroke-width:1}.net-label{font:5px sans-serif;fill:#111;text-anchor:start}.junction{fill:#111;stroke:none}.power-port-line,.ground-bar,.no-connect-line{stroke:#111;stroke-width:1}.power-port-shape,.sheet-port-shape{fill:#fff;stroke:#111;stroke-width:1}.power-port-label,.sheet-port-label,.symbol-field{font:5px sans-serif;fill:#111;text-anchor:middle}.symbol-line,.symbol-rectangle,.symbol-circle,.symbol-arc{fill:none;stroke:#111;stroke-width:1}.symbol-text,.reference{font:5px sans-serif;fill:#111;text-anchor:middle}</style>
  <rect class="document-background" x="0" y="0" width="297" height="210"/>
  <g class="schematic-sheet" data-sheet="sheet:2" transform="translate(0 0)">
    <defs>
      <clipPath id="title-block-clip-sheet-2">
        <rect x="0" y="0" width="82" height="30"/>
      </clipPath>
      <clipPath id="region-title-clip-sheet-2-0">
        <rect x="14" y="28" width="150" height="10"/>
      </clipPath>
      <clipPath id="region-title-clip-sheet-2-1">
        <rect x="196" y="12" width="86" height="10"/>
      </clipPath>
      <clipPath id="region-title-clip-sheet-2-2">
        <rect x="196" y="116" width="86" height="10"/>
      </clipPath>
      <pattern id="grid-sheet-2" x="12" y="10" width="5" height="5" patternUnits="userSpaceOnUse">
        <circle class="sheet-grid-dot" cx="0" cy="0" r="0.25"/>
      </pattern>
    </defs>
    <rect class="sheet" x="0" y="0" width="297" height="210"/>
    <rect class="sheet-grid" x="12" y="10" width="273" height="190" fill="url(#grid-sheet-2)"/>
    <rect class="sheet-border" x="0" y="0" width="297" height="210"/>
    <rect class="drawing-frame" x="12" y="10" width="273" height="190"/>
    <g class="coordinate-zones">
      <text class="coordinate-zone-label column" x="25.65" y="5">1</text>
      <text class="coordinate-zone-label column" x="25.65" y="205">1</text>
      <text class="coordinate-zone-label column" x="52.95" y="5">2</text>
      <text class="coordinate-zone-label column" x="52.95" y="205">2</text>
      <text class="coordinate-zone-label column" x="80.25" y="5">3</text>
      <text class="coordinate-zone-label column" x="80.25" y="205">3</text>
      <text class="coordinate-zone-label column" x="107.55" y="5">4</text>
      <text class="coordinate-zone-label column" x="107.55" y="205">4</text>
      <text class="coordinate-zone-label column" x="134.85" y="5">5</text>
      <text class="coordinate-zone-label column" x="134.85" y="205">5</text>
      <text class="coordinate-zone-label column" x="162.15" y="5">6</text>
      <text class="coordinate-zone-label column" x="162.15" y="205">6</text>
      <text class="coordinate-zone-label column" x="189.45" y="5">7</text>
      <text class="coordinate-zone-label column" x="189.45" y="205">7</text>
      <text class="coordinate-zone-label column" x="216.75" y="5">8</text>
      <text class="coordinate-zone-label column" x="216.75" y="205">8</text>
      <text class="coordinate-zone-label column" x="244.05" y="5">9</text>
      <text class="coordinate-zone-label column" x="244.05" y="205">9</text>
      <text class="coordinate-zone-label column" x="271.35" y="5">10</text>
      <text class="coordinate-zone-label column" x="271.35" y="205">10</text>
      <text class="coordinate-zone-label row" x="6" y="25.8333333333333">A</text>
      <text class="coordinate-zone-label row" x="291" y="25.8333333333333">A</text>
      <text class="coordinate-zone-label row" x="6" y="57.5">B</text>
      <text class="coordinate-zone-label row" x="291" y="57.5">B</text>
      <text class="coordinate-zone-label row" x="6" y="89.1666666666667">C</text>
      <text class="coordinate-zone-label row" x="291" y="89.1666666666667">C</text>
      <text class="coordinate-zone-label row" x="6" y="120.833333333333">D</text>
      <text class="coordinate-zone-label row" x="291" y="120.833333333333">D</text>
      <text class="coordinate-zone-label row" x="6" y="152.5">E</text>
      <text class="coordinate-zone-label row" x="291" y="152.5">E</text>
      <text class="coordinate-zone-label row" x="6" y="184.166666666667">F</text>
      <text class="coordinate-zone-label row" x="291" y="184.166666666667">F</text>
    </g>
    <g class="title-block" transform="translate(203 170)" clip-path="url(#title-block-clip-sheet-2)">
      <rect class="title-block-outline" x="0" y="0" width="82" height="30"/>
      <line class="title-block-rule" x1="22" y1="0" x2="22" y2="30"/>
      <line class="title-block-rule" x1="0" y1="6" x2="82" y2="6"/>
      <line class="title-block-rule" x1="0" y1="12" x2="82" y2="12"/>
      <line class="title-block-rule" x1="0" y1="18" x2="82" y2="18"/>
      <line class="title-block-rule" x1="0" y1="24" x2="82" y2="24"/>
      <text class="title-block-label" x="2" y="4.2">Title</text>
      <text class="title-block-value sheet-title" x="24" y="4.2">USB, Debug, and External Connectors</text>
      <text class="title-block-label" x="2" y="10.2">Number</text>
      <text class="title-block-value" x="24" y="10.2">3/3</text>
      <text class="title-block-label" x="2" y="16.2">Revision</text>
      <text class="title-block-value" x="24" y="16.2">A</text>
      <text class="title-block-label" x="2" y="22.2">Project</text>
      <text class="title-block-value" x="24" y="22.2">STM32 USB Buck</text>
      <text class="title-block-label" x="2" y="28.2">File</text>
      <text class="title-block-value" x="24" y="28.2">connection_blocks.py</text>
    </g>
    <g class="layer layer-regions">
    <g class="sheet-region" data-region="USB Data Path">
      <rect class="sheet-region-frame dashed" data-region="USB Data Path" x="14" y="28" width="150" height="118"/>
      <text class="sheet-region-title" x="17" y="34" clip-path="url(#region-title-clip-sheet-2-0)">USB Data Path</text>
    </g>
    <g class="sheet-region" data-region="Debug Header">
      <rect class="sheet-region-frame dashed" data-region="Debug Header" x="196" y="12" width="86" height="96"/>
      <text class="sheet-region-title" x="199" y="18" clip-path="url(#region-title-clip-sheet-2-1)">Debug Header</text>
    </g>
    <g class="sheet-region" data-region="GPIO Header">
      <rect class="sheet-region-frame dashed" data-region="GPIO Header" x="196" y="116" width="86" height="70"/>
      <text class="sheet-region-title" x="199" y="122" clip-path="url(#region-title-clip-sheet-2-2)">GPIO Header</text>
    </g>
    </g>
    <g class="layer layer-symbols">
    <g class="symbol-instance" data-component="component:8" data-symbol-definition="symbol_def:6" transform="translate(24 44) rotate(0)">
      <text class="reference" x="0" y="-12">USB/J1</text>
      <rect class="symbol-rectangle" x="10" y="-5" width="24" height="50"/>
      <text class="symbol-text" x="22" y="-10" transform="rotate(0 22 -10)">USB</text>
      <line class="symbol-line" x1="0" y1="0" x2="10" y2="0"/>
      <line class="symbol-line" x1="0" y1="8" x2="10" y2="8"/>
      <line class="symbol-line" x1="0" y1="16" x2="10" y2="16"/>
      <line class="symbol-line" x1="0" y1="24" x2="10" y2="24"/>
      <line class="symbol-line" x1="0" y1="32" x2="10" y2="32"/>
      <line class="symbol-line" x1="0" y1="40" x2="10" y2="40"/>
    </g>
    <g class="symbol-instance" data-component="component:9" data-symbol-definition="symbol_def:7" transform="translate(98 58) rotate(0)">
      <text class="reference" x="0" y="-12">USB/U1</text>
      <rect class="symbol-rectangle" x="10" y="0" width="34" height="30"/>
      <line class="symbol-line" x1="0" y1="8" x2="10" y2="8"/>
      <line class="symbol-line" x1="0" y1="20" x2="10" y2="20"/>
      <line class="symbol-line" x1="44" y1="8" x2="54" y2="8"/>
      <line class="symbol-line" x1="44" y1="20" x2="54" y2="20"/>
      <line class="symbol-line" x1="27" y1="-10" x2="27" y2="0"/>
      <line class="symbol-line" x1="27" y1="30" x2="27" y2="38"/>
      <text class="symbol-text" x="27" y="16" transform="rotate(0 27 16)">ESD</text>
    </g>
    <g class="symbol-instance" data-component="component:19" data-symbol-definition="symbol_def:0" transform="translate(218 22) rotate(0)">
      <text class="reference" x="0" y="-12">J2</text>
      <rect class="symbol-rectangle" x="10" y="-5" width="24" height="82"/>
      <text class="symbol-text" x="22" y="-10" transform="rotate(0 22 -10)">SWD</text>
      <line class="symbol-line" x1="0" y1="0" x2="10" y2="0"/>
      <line class="symbol-line" x1="0" y1="8" x2="10" y2="8"/>
      <line class="symbol-line" x1="0" y1="16" x2="10" y2="16"/>
      <line class="symbol-line" x1="0" y1="24" x2="10" y2="24"/>
      <line class="symbol-line" x1="0" y1="32" x2="10" y2="32"/>
      <line class="symbol-line" x1="0" y1="40" x2="10" y2="40"/>
      <line class="symbol-line" x1="0" y1="48" x2="10" y2="48"/>
      <line class="symbol-line" x1="0" y1="56" x2="10" y2="56"/>
      <line class="symbol-line" x1="0" y1="64" x2="10" y2="64"/>
      <line class="symbol-line" x1="0" y1="72" x2="10" y2="72"/>
    </g>
    <g class="symbol-instance" data-component="component:20" data-symbol-definition="symbol_def:1" transform="translate(218 126) rotate(0)">
      <text class="reference" x="0" y="-12">J3</text>
      <rect class="symbol-rectangle" x="10" y="-5" width="24" height="34"/>
      <text class="symbol-text" x="22" y="-10" transform="rotate(0 22 -10)">HDR</text>
      <line class="symbol-line" x1="0" y1="0" x2="10" y2="0"/>
      <line class="symbol-line" x1="0" y1="8" x2="10" y2="8"/>
      <line class="symbol-line" x1="0" y1="16" x2="10" y2="16"/>
      <line class="symbol-line" x1="0" y1="24" x2="10" y2="24"/>
    </g>
    </g>
    <g class="layer layer-wires">
    <polyline class="wire-run" data-net="net:14" points="24,44 70,44 70,48 125,48"/>
    <polyline class="wire-run" data-net="net:15" points="24,60 70,60 70,66 98,66"/>
    <polyline class="wire-run" data-net="net:16" points="24,52 74,54 98,78"/>
    <polyline class="wire-run" data-net="net:17" points="152,66 176,66"/>
    <polyline class="wire-run" data-net="net:18" points="152,78 176,78"/>
    <polyline class="wire-run" data-net="net:19" points="24,76 24,124 72,124"/>
    <polyline class="wire-run" data-net="net:19" points="24,84 24,124 72,124"/>
    <polyline class="wire-run" data-net="net:19" points="125,96 125,124 72,124"/>
    <polyline class="wire-run" data-net="net:34" points="218,30 194,30"/>
    <polyline class="wire-run" data-net="net:35" points="218,46 194,46"/>
    <polyline class="wire-run" data-net="net:36" points="218,62 194,62"/>
    <polyline class="wire-run" data-net="net:28" points="218,94 194,94"/>
    <polyline class="wire-run" data-net="net:29" points="218,78 194,78"/>
    <polyline class="wire-run" data-net="net:29" points="218,134 194,134"/>
    </g>
    <g class="layer layer-junctions">
    <circle class="junction" data-net="net:19" cx="24" cy="124" r="1.8"/>
    <circle class="junction" data-net="net:19" cx="24" cy="124" r="1.8"/>
    <circle class="junction" data-net="net:19" cx="125" cy="124" r="1.8"/>
    </g>
    <g class="layer layer-ports">
    <g class="power-port power" data-net="net:1" transform="translate(24 18) rotate(270)">
      <line class="power-port-line" x1="0" y1="0" x2="0" y2="-7"/>
      <path class="power-port-shape" d="M -4 -7 L 0 -12 L 4 -7 Z"/>
      <text class="power-port-label" x="0" y="-14">+5V</text>
    </g>
    <g class="power-port power" data-net="net:2" transform="translate(38 18) rotate(270)">
      <line class="power-port-line" x1="0" y1="0" x2="0" y2="-7"/>
      <path class="power-port-shape" d="M -4 -7 L 0 -12 L 4 -7 Z"/>
      <text class="power-port-label" x="0" y="-14">+3V3</text>
    </g>
    <g class="power-port ground" data-net="net:4" transform="translate(52 18) rotate(90)">
      <line class="power-port-line" x1="0" y1="0" x2="0" y2="4"/>
      <line class="ground-bar" x1="-5" y1="4" x2="5" y2="4"/>
      <line class="ground-bar" x1="-3" y1="6" x2="3" y2="6"/>
      <line class="ground-bar" x1="-1" y1="8" x2="1" y2="8"/>
      <text class="power-port-label" x="0" y="-14">GND</text>
    </g>
    <g class="power-port power" data-net="net:2" transform="translate(218 22) rotate(270)">
      <line class="power-port-line" x1="0" y1="0" x2="0" y2="-7"/>
      <path class="power-port-shape" d="M -4 -7 L 0 -12 L 4 -7 Z"/>
      <text class="power-port-label" x="0" y="-14">+3V3</text>
    </g>
    <g class="power-port power" data-net="net:2" transform="translate(218 126) rotate(270)">
      <line class="power-port-line" x1="0" y1="0" x2="0" y2="-7"/>
      <path class="power-port-shape" d="M -4 -7 L 0 -12 L 4 -7 Z"/>
      <text class="power-port-label" x="0" y="-14">+3V3</text>
    </g>
    <g class="power-port ground" data-net="net:4" transform="translate(218 38) rotate(90)">
      <line class="power-port-line" x1="0" y1="0" x2="0" y2="4"/>
      <line class="ground-bar" x1="-5" y1="4" x2="5" y2="4"/>
      <line class="ground-bar" x1="-3" y1="6" x2="3" y2="6"/>
      <line class="ground-bar" x1="-1" y1="8" x2="1" y2="8"/>
      <text class="power-port-label" x="0" y="-14">GND</text>
    </g>
    <g class="power-port ground" data-net="net:4" transform="translate(218 54) rotate(90)">
      <line class="power-port-line" x1="0" y1="0" x2="0" y2="4"/>
      <line class="ground-bar" x1="-5" y1="4" x2="5" y2="4"/>
      <line class="ground-bar" x1="-3" y1="6" x2="3" y2="6"/>
      <line class="ground-bar" x1="-1" y1="8" x2="1" y2="8"/>
      <text class="power-port-label" x="0" y="-14">GND</text>
    </g>
    <g class="power-port ground" data-net="net:4" transform="translate(218 86) rotate(90)">
      <line class="power-port-line" x1="0" y1="0" x2="0" y2="4"/>
      <line class="ground-bar" x1="-5" y1="4" x2="5" y2="4"/>
      <line class="ground-bar" x1="-3" y1="6" x2="3" y2="6"/>
      <line class="ground-bar" x1="-1" y1="8" x2="1" y2="8"/>
      <text class="power-port-label" x="0" y="-14">GND</text>
    </g>
    <g class="power-port ground" data-net="net:4" transform="translate(218 150) rotate(90)">
      <line class="power-port-line" x1="0" y1="0" x2="0" y2="4"/>
      <line class="ground-bar" x1="-5" y1="4" x2="5" y2="4"/>
      <line class="ground-bar" x1="-3" y1="6" x2="3" y2="6"/>
      <line class="ground-bar" x1="-1" y1="8" x2="1" y2="8"/>
      <text class="power-port-label" x="0" y="-14">GND</text>
    </g>
    <g class="no-connect-marker" data-pin="pin:23" transform="translate(24 68) rotate(0)">
      <line class="no-connect-line" x1="-3" y1="-3" x2="3" y2="3"/>
      <line class="no-connect-line" x1="-3" y1="3" x2="3" y2="-3"/>
    </g>
    <g class="no-connect-marker" data-pin="pin:59" transform="translate(218 70) rotate(0)">
      <line class="no-connect-line" x1="-3" y1="-3" x2="3" y2="3"/>
      <line class="no-connect-line" x1="-3" y1="3" x2="3" y2="-3"/>
    </g>
    <g class="no-connect-marker" data-pin="pin:65" transform="translate(218 142) rotate(0)">
      <line class="no-connect-line" x1="-3" y1="-3" x2="3" y2="3"/>
      <line class="no-connect-line" x1="-3" y1="3" x2="3" y2="-3"/>
    </g>
    <g class="sheet-port off-page" data-net="net:17" transform="translate(176 66) rotate(0)">
      <path class="sheet-port-shape" d="M 0 -4 L 14 -4 L 20 0 L 14 4 L 0 4 Z"/>
      <text class="sheet-port-label" x="4" y="2">MCU_USB_DP</text>
    </g>
    <g class="sheet-port off-page" data-net="net:18" transform="translate(176 78) rotate(0)">
      <path class="sheet-port-shape" d="M 0 -4 L 14 -4 L 20 0 L 14 4 L 0 4 Z"/>
      <text class="sheet-port-label" x="4" y="2">MCU_USB_DM</text>
    </g>
    <g class="sheet-port off-page" data-net="net:19" transform="translate(72 124) rotate(90)">
      <path class="sheet-port-shape" d="M 0 -4 L 14 -4 L 20 0 L 14 4 L 0 4 Z"/>
      <text class="sheet-port-label" x="4" y="2">GND</text>
    </g>
    <g class="sheet-port off-page" data-net="net:34" transform="translate(194 30) rotate(180)">
      <path class="sheet-port-shape" d="M 0 -4 L 14 -4 L 20 0 L 14 4 L 0 4 Z"/>
      <text class="sheet-port-label" x="4" y="2">SWDIO</text>
    </g>
    <g class="sheet-port off-page" data-net="net:35" transform="translate(194 46) rotate(180)">
      <path class="sheet-port-shape" d="M 0 -4 L 14 -4 L 20 0 L 14 4 L 0 4 Z"/>
      <text class="sheet-port-label" x="4" y="2">SWCLK</text>
    </g>
    <g class="sheet-port off-page" data-net="net:36" transform="translate(194 62) rotate(180)">
      <path class="sheet-port-shape" d="M 0 -4 L 14 -4 L 20 0 L 14 4 L 0 4 Z"/>
      <text class="sheet-port-label" x="4" y="2">SWO</text>
    </g>
    <g class="sheet-port off-page" data-net="net:28" transform="translate(194 94) rotate(180)">
      <path class="sheet-port-shape" d="M 0 -4 L 14 -4 L 20 0 L 14 4 L 0 4 Z"/>
      <text class="sheet-port-label" x="4" y="2">NRST</text>
    </g>
    <g class="sheet-port off-page" data-net="net:29" transform="translate(194 78) rotate(180)">
      <path class="sheet-port-shape" d="M 0 -4 L 14 -4 L 20 0 L 14 4 L 0 4 Z"/>
      <text class="sheet-port-label" x="4" y="2">BOOT0</text>
    </g>
    <g class="sheet-port off-page" data-net="net:29" transform="translate(194 134) rotate(180)">
      <path class="sheet-port-shape" d="M 0 -4 L 14 -4 L 20 0 L 14 4 L 0 4 Z"/>
      <text class="sheet-port-label" x="4" y="2">BOOT0</text>
    </g>
    </g>
    <g class="layer layer-labels">
    <text class="net-label" data-net="net:14" x="66" y="38" transform="rotate(0 66 38)">USB/VBUS</text>
    <text class="net-label" data-net="net:15" x="66" y="56" transform="rotate(0 66 56)">USB/USB_DP</text>
    <text class="net-label" data-net="net:16" x="66" y="50" transform="rotate(0 66 50)">USB/USB_DM</text>
    <text class="net-label" data-net="net:17" x="158" y="66" transform="rotate(0 158 66)">USB/MCU_USB_DP</text>
    <text class="net-label" data-net="net:18" x="158" y="78" transform="rotate(0 158 78)">USB/MCU_USB_DM</text>
    <text class="net-label" data-net="net:34" x="224" y="30" transform="rotate(0 224 30)">SWDIO</text>
    <text class="net-label" data-net="net:35" x="224" y="46" transform="rotate(0 224 46)">SWCLK</text>
    </g>
    <g class="layer layer-fields">
    </g>
  </g>
</svg>
