<svg xmlns="http://www.w3.org/2000/svg" viewBox="0 0 297 210" width="297" height="210">
  <style>.document-background,.sheet{fill:#fff;stroke:none}.sheet-border{fill:none;stroke:#111;stroke-width:0.6}.drawing-frame{fill:none;stroke:#111;stroke-width:0.45}.sheet-grid{stroke:none}.sheet-grid-dot{fill:#d7d7d7;stroke:none}.coordinate-zone-label{font:3.5px sans-serif;fill:#444;text-anchor:middle;dominant-baseline:middle}.sheet-title{font-weight:600}.title-block-outline,.title-block-rule{fill:none;stroke:#111;stroke-width:0.35}.title-block-label{font:3.2px sans-serif;fill:#444;text-anchor:start}.title-block-value{font:3.6px sans-serif;fill:#111;text-anchor:start}.sheet-region-frame{fill:#fff;fill-opacity:0;stroke:#78716c;stroke-width:0.45}.sheet-region-frame.dashed{stroke-dasharray:3 2}.sheet-region-title{font:4px sans-serif;fill:#57534e;text-anchor:start;font-weight:600}.wire-run{fill:none;stroke:#111;stroke-width:1}.net-label{font:5px sans-serif;fill:#111;text-anchor:start}.junction{fill:#111;stroke:none}.power-port-line,.ground-bar,.no-connect-line{stroke:#111;stroke-width:1}.power-port-shape,.sheet-port-shape{fill:#fff;stroke:#111;stroke-width:1}.power-port-label,.sheet-port-label,.symbol-field{font:5px sans-serif;fill:#111;text-anchor:middle}.symbol-line,.symbol-rectangle,.symbol-circle,.symbol-arc{fill:none;stroke:#111;stroke-width:1}.symbol-text,.reference{font:5px sans-serif;fill:#111;text-anchor:middle}</style>
  <rect class="document-background" x="0" y="0" width="297" height="210"/>
  <g class="schematic-sheet" data-sheet="sheet:1" transform="translate(0 0)">
    <defs>
      <clipPath id="title-block-clip-sheet-1">
        <rect x="0" y="0" width="82" height="30"/>
      </clipPath>
      <clipPath id="region-title-clip-sheet-1-0">
        <rect x="10" y="14" width="74" height="10"/>
      </clipPath>
      <clipPath id="region-title-clip-sheet-1-1">
        <rect x="10" y="112" width="84" height="10"/>
      </clipPath>
      <clipPath id="region-title-clip-sheet-1-2">
        <rect x="94" y="12" width="116" height="10"/>
      </clipPath>
      <clipPath id="region-title-clip-sheet-1-3">
        <rect x="210" y="154" width="70" height="10"/>
      </clipPath>
      <pattern id="grid-sheet-1" x="12" y="10" width="5" height="5" patternUnits="userSpaceOnUse">
        <circle class="sheet-grid-dot" cx="0" cy="0" r="0.25"/>
      </pattern>
    </defs>
    <rect class="sheet" x="0" y="0" width="297" height="210"/>
    <rect class="sheet-grid" x="12" y="10" width="273" height="190" fill="url(#grid-sheet-1)"/>
    <rect class="sheet-border" x="0" y="0" width="297" height="210"/>
    <rect class="drawing-frame" x="12" y="10" width="273" height="190"/>
    <g class="coordinate-zones">
      <text class="coordinate-zone-label column" x="25.65" y="5">1</text>
      <text class="coordinate-zone-label column" x="25.65" y="205">1</text>
      <text class="coordinate-zone-label column" x="52.95" y="5">2</text>
      <text class="coordinate-zone-label column" x="52.95" y="205">2</text>
      <text class="coordinate-zone-label column" x="80.25" y="5">3</text>
      <text class="coordinate-zone-label column" x="80.25" y="205">3</text>
      <text class="coordinate-zone-label column" x="107.55" y="5">4</text>
      <text class="coordinate-zone-label column" x="107.55" y="205">4</text>
      <text class="coordinate-zone-label column" x="134.85" y="5">5</text>
      <text class="coordinate-zone-label column" x="134.85" y="205">5</text>
      <text class="coordinate-zone-label column" x="162.15" y="5">6</text>
      <text class="coordinate-zone-label column" x="162.15" y="205">6</text>
      <text class="coordinate-zone-label column" x="189.45" y="5">7</text>
      <text class="coordinate-zone-label column" x="189.45" y="205">7</text>
      <text class="coordinate-zone-label column" x="216.75" y="5">8</text>
      <text class="coordinate-zone-label column" x="216.75" y="205">8</text>
      <text class="coordinate-zone-label column" x="244.05" y="5">9</text>
      <text class="coordinate-zone-label column" x="244.05" y="205">9</text>
      <text class="coordinate-zone-label column" x="271.35" y="5">10</text>
      <text class="coordinate-zone-label column" x="271.35" y="205">10</text>
      <text class="coordinate-zone-label row" x="6" y="25.8333333333333">A</text>
      <text class="coordinate-zone-label row" x="291" y="25.8333333333333">A</text>
      <text class="coordinate-zone-label row" x="6" y="57.5">B</text>
      <text class="coordinate-zone-label row" x="291" y="57.5">B</text>
      <text class="coordinate-zone-label row" x="6" y="89.1666666666667">C</text>
      <text class="coordinate-zone-label row" x="291" y="89.1666666666667">C</text>
      <text class="coordinate-zone-label row" x="6" y="120.833333333333">D</text>
      <text class="coordinate-zone-label row" x="291" y="120.833333333333">D</text>
      <text class="coordinate-zone-label row" x="6" y="152.5">E</text>
      <text class="coordinate-zone-label row" x="291" y="152.5">E</text>
      <text class="coordinate-zone-label row" x="6" y="184.166666666667">F</text>
      <text class="coordinate-zone-label row" x="291" y="184.166666666667">F</text>
    </g>
    <g class="title-block" transform="translate(203 170)" clip-path="url(#title-block-clip-sheet-1)">
      <rect class="title-block-outline" x="0" y="0" width="82" height="30"/>
      <line class="title-block-rule" x1="22" y1="0" x2="22" y2="30"/>
      <line class="title-block-rule" x1="0" y1="6" x2="82" y2="6"/>
      <line class="title-block-rule" x1="0" y1="12" x2="82" y2="12"/>
      <line class="title-block-rule" x1="0" y1="18" x2="82" y2="18"/>
      <line class="title-block-rule" x1="0" y1="24" x2="82" y2="24"/>
      <text class="title-block-label" x="2" y="4.2">Title</text>
      <text class="title-block-value sheet-title" x="24" y="4.2">MCU, Clock, Boot, and Status</text>
      <text class="title-block-label" x="2" y="10.2">Number</text>
      <text class="title-block-value" x="24" y="10.2">2/3</text>
      <text class="title-block-label" x="2" y="16.2">Revision</text>
      <text class="title-block-value" x="24" y="16.2">A</text>
      <text class="title-block-label" x="2" y="22.2">Project</text>
      <text class="title-block-value" x="24" y="22.2">STM32 USB Buck</text>
      <text class="title-block-label" x="2" y="28.2">File</text>
      <text class="title-block-value" x="24" y="28.2">stm32_board.py</text>
    </g>
    <g class="layer layer-regions">
    <g class="sheet-region" data-region="Power Decoupling">
      <rect class="sheet-region-frame dashed" data-region="Power Decoupling" x="10" y="14" width="74" height="98"/>
      <text class="sheet-region-title" x="13" y="20" clip-path="url(#region-title-clip-sheet-1-0)">Power Decoupling</text>
    </g>
    <g class="sheet-region" data-region="Boot and Clock">
      <rect class="sheet-region-frame dashed" data-region="Boot and Clock" x="10" y="112" width="84" height="94"/>
      <text class="sheet-region-title" x="13" y="118" clip-path="url(#region-title-clip-sheet-1-1)">Boot and Clock</text>
    </g>
    <g class="sheet-region" data-region="MCU Core">
      <rect class="sheet-region-frame dashed" data-region="MCU Core" x="94" y="12" width="116" height="156"/>
      <text class="sheet-region-title" x="97" y="18" clip-path="url(#region-title-clip-sheet-1-2)">MCU Core</text>
    </g>
    <g class="sheet-region" data-region="Status LED">
      <rect class="sheet-region-frame dashed" data-region="Status LED" x="210" y="154" width="70" height="54"/>
      <text class="sheet-region-title" x="213" y="160" clip-path="url(#region-title-clip-sheet-1-3)">Status LED</text>
    </g>
    </g>
    <g class="layer layer-symbols">
    <g class="symbol-instance" data-component="component:23" data-symbol-definition="symbol_def:2" transform="translate(102 18) rotate(0)">
      <text class="reference" x="0" y="-12">U1</text>
      <rect class="symbol-rectangle" x="20" y="-10" width="60" height="175"/>
      <text class="symbol-text" x="50" y="70" transform="rotate(0 50 70)">STM32F405</text>
      <line class="symbol-line" x1="0" y1="0" x2="20" y2="0"/>
      <line class="symbol-line" x1="0" y1="5" x2="20" y2="5"/>
      <line class="symbol-line" x1="0" y1="10" x2="20" y2="10"/>
      <line class="symbol-line" x1="0" y1="15" x2="20" y2="15"/>
      <line class="symbol-line" x1="0" y1="20" x2="20" y2="20"/>
      <line class="symbol-line" x1="0" y1="25" x2="20" y2="25"/>
      <line class="symbol-line" x1="0" y1="30" x2="20" y2="30"/>
      <line class="symbol-line" x1="0" y1="35" x2="20" y2="35"/>
      <line class="symbol-line" x1="0" y1="40" x2="20" y2="40"/>
      <line class="symbol-line" x1="0" y1="45" x2="20" y2="45"/>
      <line class="symbol-line" x1="0" y1="50" x2="20" y2="50"/>
      <line class="symbol-line" x1="0" y1="55" x2="20" y2="55"/>
      <line class="symbol-line" x1="0" y1="60" x2="20" y2="60"/>
      <line class="symbol-line" x1="0" y1="65" x2="20" y2="65"/>
      <line class="symbol-line" x1="0" y1="70" x2="20" y2="70"/>
      <line class="symbol-line" x1="0" y1="75" x2="20" y2="75"/>
      <line class="symbol-line" x1="0" y1="80" x2="20" y2="80"/>
      <line class="symbol-line" x1="0" y1="85" x2="20" y2="85"/>
      <line class="symbol-line" x1="0" y1="90" x2="20" y2="90"/>
      <line class="symbol-line" x1="0" y1="95" x2="20" y2="95"/>
      <line class="symbol-line" x1="0" y1="100" x2="20" y2="100"/>
      <line class="symbol-line" x1="0" y1="105" x2="20" y2="105"/>
      <line class="symbol-line" x1="0" y1="110" x2="20" y2="110"/>
      <line class="symbol-line" x1="0" y1="115" x2="20" y2="115"/>
      <line class="symbol-line" x1="0" y1="120" x2="20" y2="120"/>
      <line class="symbol-line" x1="0" y1="125" x2="20" y2="125"/>
      <line class="symbol-line" x1="0" y1="130" x2="20" y2="130"/>
      <line class="symbol-line" x1="0" y1="135" x2="20" y2="135"/>
      <line class="symbol-line" x1="0" y1="140" x2="20" y2="140"/>
      <line class="symbol-line" x1="0" y1="145" x2="20" y2="145"/>
      <line class="symbol-line" x1="0" y1="150" x2="20" y2="150"/>
      <line class="symbol-line" x1="0" y1="155" x2="20" y2="155"/>
      <line class="symbol-line" x1="80" y1="155" x2="100" y2="155"/>
      <line class="symbol-line" x1="80" y1="150" x2="100" y2="150"/>
      <line class="symbol-line" x1="80" y1="145" x2="100" y2="145"/>
      <line class="symbol-line" x1="80" y1="140" x2="100" y2="140"/>
      <line class="symbol-line" x1="80" y1="135" x2="100" y2="135"/>
      <line class="symbol-line" x1="80" y1="130" x2="100" y2="130"/>
      <line class="symbol-line" x1="80" y1="125" x2="100" y2="125"/>
      <line class="symbol-line" x1="80" y1="120" x2="100" y2="120"/>
      <line class="symbol-line" x1="80" y1="115" x2="100" y2="115"/>
      <line class="symbol-line" x1="80" y1="110" x2="100" y2="110"/>
      <line class="symbol-line" x1="80" y1="105" x2="100" y2="105"/>
      <line class="symbol-line" x1="80" y1="100" x2="100" y2="100"/>
      <line class="symbol-line" x1="80" y1="95" x2="100" y2="95"/>
      <line class="symbol-line" x1="80" y1="90" x2="100" y2="90"/>
      <line class="symbol-line" x1="80" y1="85" x2="100" y2="85"/>
      <line class="symbol-line" x1="80" y1="80" x2="100" y2="80"/>
      <line class="symbol-line" x1="80" y1="75" x2="100" y2="75"/>
      <line class="symbol-line" x1="80" y1="70" x2="100" y2="70"/>
      <line class="symbol-line" x1="80" y1="65" x2="100" y2="65"/>
      <line class="symbol-line" x1="80" y1="60" x2="100" y2="60"/>
      <line class="symbol-line" x1="80" y1="55" x2="100" y2="55"/>
      <line class="symbol-line" x1="80" y1="50" x2="100" y2="50"/>
      <line class="symbol-line" x1="80" y1="45" x2="100" y2="45"/>
      <line class="symbol-line" x1="80" y1="40" x2="100" y2="40"/>
      <line class="symbol-line" x1="80" y1="35" x2="100" y2="35"/>
      <line class="symbol-line" x1="80" y1="30" x2="100" y2="30"/>
      <line class="symbol-line" x1="80" y1="25" x2="100" y2="25"/>
      <line class="symbol-line" x1="80" y1="20" x2="100" y2="20"/>
      <line class="symbol-line" x1="80" y1="15" x2="100" y2="15"/>
      <line class="symbol-line" x1="80" y1="10" x2="100" y2="10"/>
      <line class="symbol-line" x1="80" y1="5" x2="100" y2="5"/>
      <line class="symbol-line" x1="80" y1="0" x2="100" y2="0"/>
    </g>
    <g class="symbol-instance" data-component="component:10" data-symbol-definition="symbol_def:5" transform="translate(24 26) rotate(90)">
      <text class="reference" x="0" y="-12">SUPPORT/CVDD</text>
      <line class="symbol-line" x1="0" y1="0" x2="8" y2="0"/>
      <line class="symbol-line" x1="8" y1="-5" x2="8" y2="5"/>
      <line class="symbol-line" x1="12" y1="-5" x2="12" y2="5"/>
      <line class="symbol-line" x1="12" y1="0" x2="20" y2="0"/>
      <text class="symbol-text" x="10" y="-10" transform="rotate(0 10 -10)">C</text>
    </g>
    <g class="symbol-instance" data-component="component:11" data-symbol-definition="symbol_def:5" transform="translate(24 58) rotate(90)">
      <text class="reference" x="0" y="-12">SUPPORT/CVCAP1</text>
      <line class="symbol-line" x1="0" y1="0" x2="8" y2="0"/>
      <line class="symbol-line" x1="8" y1="-5" x2="8" y2="5"/>
      <line class="symbol-line" x1="12" y1="-5" x2="12" y2="5"/>
      <line class="symbol-line" x1="12" y1="0" x2="20" y2="0"/>
      <text class="symbol-text" x="10" y="-10" transform="rotate(0 10 -10)">C</text>
    </g>
    <g class="symbol-instance" data-component="component:12" data-symbol-definition="symbol_def:5" transform="translate(24 90) rotate(90)">
      <text class="reference" x="0" y="-12">SUPPORT/CVCAP2</text>
      <line class="symbol-line" x1="0" y1="0" x2="8" y2="0"/>
      <line class="symbol-line" x1="8" y1="-5" x2="8" y2="5"/>
      <line class="symbol-line" x1="12" y1="-5" x2="12" y2="5"/>
      <line class="symbol-line" x1="12" y1="0" x2="20" y2="0"/>
      <text class="symbol-text" x="10" y="-10" transform="rotate(0 10 -10)">C</text>
    </g>
    <g class="symbol-instance" data-component="component:13" data-symbol-definition="symbol_def:8" transform="translate(24 122) rotate(0)">
      <text class="reference" x="0" y="-12">SUPPORT/RRESET</text>
      <line class="symbol-line" x1="0" y1="0" x2="4" y2="0"/>
      <rect class="symbol-rectangle" x="4" y="-3" width="12" height="6"/>
      <line class="symbol-line" x1="16" y1="0" x2="20" y2="0"/>
      <text class="symbol-text" x="10" y="-8" transform="rotate(0 10 -8)">R</text>
    </g>
    <g class="symbol-instance" data-component="component:14" data-symbol-definition="symbol_def:8" transform="translate(24 150) rotate(0)">
      <text class="reference" x="0" y="-12">SUPPORT/RBOOT</text>
      <line class="symbol-line" x1="0" y1="0" x2="4" y2="0"/>
      <rect class="symbol-rectangle" x="4" y="-3" width="12" height="6"/>
      <line class="symbol-line" x1="16" y1="0" x2="20" y2="0"/>
      <text class="symbol-text" x="10" y="-8" transform="rotate(0 10 -8)">R</text>
    </g>
    <g class="symbol-instance" data-component="component:15" data-symbol-definition="symbol_def:9" transform="translate(70 140) rotate(0)">
      <text class="reference" x="0" y="-12">SUPPORT/SWBOOT</text>
      <line class="symbol-line" x1="0" y1="0" x2="14" y2="0"/>
      <line class="symbol-line" x1="0" y1="20" x2="14" y2="20"/>
      <line class="symbol-line" x1="30" y1="10" x2="44" y2="10"/>
      <line class="symbol-line" x1="14" y1="0" x2="30" y2="10"/>
      <text class="symbol-text" x="22" y="-8" transform="rotate(0 22 -8)">SW</text>
    </g>
    <g class="symbol-instance" data-component="component:16" data-symbol-definition="symbol_def:10" transform="translate(26 174) rotate(0)">
      <text class="reference" x="0" y="-12">SUPPORT/Y1</text>
      <line class="symbol-line" x1="0" y1="10" x2="12" y2="10"/>
      <line class="symbol-line" x1="32" y1="10" x2="44" y2="10"/>
      <line class="symbol-line" x1="18" y1="0" x2="18" y2="20"/>
      <line class="symbol-line" x1="26" y1="0" x2="26" y2="20"/>
      <rect class="symbol-rectangle" x="12" y="4" width="20" height="12"/>
      <line class="symbol-line" x1="14" y1="16" x2="14" y2="28"/>
      <line class="symbol-line" x1="30" y1="16" x2="30" y2="28"/>
      <text class="symbol-text" x="22" y="-6" transform="rotate(0 22 -6)">XTAL</text>
    </g>
    <g class="symbol-instance" data-component="component:17" data-symbol-definition="symbol_def:5" transform="translate(74 172) rotate(90)">
      <text class="reference" x="0" y="-12">SUPPORT/CHSEIN</text>
      <line class="symbol-line" x1="0" y1="0" x2="8" y2="0"/>
      <line class="symbol-line" x1="8" y1="-5" x2="8" y2="5"/>
      <line class="symbol-line" x1="12" y1="-5" x2="12" y2="5"/>
      <line class="symbol-line" x1="12" y1="0" x2="20" y2="0"/>
      <text class="symbol-text" x="10" y="-10" transform="rotate(0 10 -10)">C</text>
    </g>
    <g class="symbol-instance" data-component="component:18" data-symbol-definition="symbol_def:5" transform="translate(74 188) rotate(90)">
      <text class="reference" x="0" y="-12">SUPPORT/CHSEOUT</text>
      <line class="symbol-line" x1="0" y1="0" x2="8" y2="0"/>
      <line class="symbol-line" x1="8" y1="-5" x2="8" y2="5"/>
      <line class="symbol-line" x1="12" y1="-5" x2="12" y2="5"/>
      <line class="symbol-line" x1="12" y1="0" x2="20" y2="0"/>
      <text class="symbol-text" x="10" y="-10" transform="rotate(0 10 -10)">C</text>
    </g>
    <g class="symbol-instance" data-component="component:21" data-symbol-definition="symbol_def:8" transform="translate(218 184) rotate(0)">
      <text class="reference" x="0" y="-12">LED_STATUS/R</text>
      <line class="symbol-line" x1="0" y1="0" x2="4" y2="0"/>
      <rect class="symbol-rectangle" x="4" y="-3" width="12" height="6"/>
      <line class="symbol-line" x1="16" y1="0" x2="20" y2="0"/>
      <text class="symbol-text" x="10" y="-8" transform="rotate(0 10 -8)">R</text>
    </g>
    <g class="symbol-instance" data-component="component:22" data-symbol-definition="symbol_def:11" transform="translate(254 184) rotate(0)">
      <text class="reference" x="0" y="-12">LED_STATUS/D</text>
      <line class="symbol-line" x1="0" y1="0" x2="8" y2="0"/>
      <line class="symbol-line" x1="16" y1="0" x2="24" y2="0"/>
      <line class="symbol-line" x1="8" y1="-6" x2="8" y2="6"/>
      <line class="symbol-line" x1="8" y1="-6" x2="16" y2="0"/>
      <line class="symbol-line" x1="8" y1="6" x2="16" y2="0"/>
      <line class="symbol-line" x1="16" y1="-6" x2="16" y2="6"/>
      <text class="symbol-text" x="12" y="-10" transform="rotate(0 12 -10)">LED</text>
    </g>
    </g>
    <g class="layer layer-wires">
    <polyline class="wire-run" data-net="net:13" points="202,118 226,118"/>
    <polyline class="wire-run" data-net="net:12" points="202,113 226,113"/>
    <polyline class="wire-run" data-net="net:34" points="202,108 226,108"/>
    <polyline class="wire-run" data-net="net:35" points="202,93 226,93"/>
    <polyline class="wire-run" data-net="net:36" points="202,63 226,63"/>
    <polyline class="wire-run" data-net="net:29" points="202,38 226,38"/>
    <polyline class="wire-run" data-net="net:28" points="102,48 78,48"/>
    <polyline class="wire-run" data-net="net:30" points="102,38 78,38"/>
    <polyline class="wire-run" data-net="net:31" points="102,43 78,43"/>
    <polyline class="wire-run" data-net="net:32" points="102,168 78,168"/>
    <polyline class="wire-run" data-net="net:33" points="202,103 226,103"/>
    <polyline class="wire-run" data-net="net:37" points="102,23 78,23"/>
    <polyline class="wire-run" data-net="net:20" points="24,26 64,26 64,22"/>
    <polyline class="wire-run" data-net="net:20" points="24,122 64,122 64,22"/>
    <polyline class="wire-run" data-net="net:20" points="70,140 64,140 64,22"/>
    <polyline class="wire-run" data-net="net:23" points="24,150 114,150"/>
    <polyline class="wire-run" data-net="net:38" points="218,184 218,168"/>
    <polyline class="wire-run" data-net="net:39" points="238,184 254,184"/>
    <polyline class="wire-run" data-net="net:40" points="278,184 278,200"/>
    </g>
    <g class="layer layer-junctions">
    <circle class="junction" data-net="net:20" cx="64" cy="26" r="1.8"/>
    <circle class="junction" data-net="net:20" cx="64" cy="122" r="1.8"/>
    <circle class="junction" data-net="net:20" cx="64" cy="140" r="1.8"/>
    </g>
    <g class="layer layer-ports">
    <g class="power-port power" data-net="net:2" transform="translate(236 18) rotate(270)">
      <line class="power-port-line" x1="0" y1="0" x2="0" y2="-7"/>
      <path class="power-port-shape" d="M -4 -7 L 0 -12 L 4 -7 Z"/>
      <text class="power-port-label" x="0" y="-14">+3V3</text>
    </g>
    <g class="power-port power" data-net="net:3" transform="translate(250 18) rotate(270)">
      <line class="power-port-line" x1="0" y1="0" x2="0" y2="-7"/>
      <path class="power-port-shape" d="M -4 -7 L 0 -12 L 4 -7 Z"/>
      <text class="power-port-label" x="0" y="-14">VDDA</text>
    </g>
    <g class="power-port ground" data-net="net:4" transform="translate(264 18) rotate(90)">
      <line class="power-port-line" x1="0" y1="0" x2="0" y2="4"/>
      <line class="ground-bar" x1="-5" y1="4" x2="5" y2="4"/>
      <line class="ground-bar" x1="-3" y1="6" x2="3" y2="6"/>
      <line class="ground-bar" x1="-1" y1="8" x2="1" y2="8"/>
      <text class="power-port-label" x="0" y="-14">GND</text>
    </g>
    <g class="power-port power" data-net="net:2" transform="translate(102 108) rotate(270)">
      <line class="power-port-line" x1="0" y1="0" x2="0" y2="-7"/>
      <path class="power-port-shape" d="M -4 -7 L 0 -12 L 4 -7 Z"/>
      <text class="power-port-label" x="0" y="-14">+3V3</text>
    </g>
    <g class="power-port power" data-net="net:2" transform="translate(102 173) rotate(270)">
      <line class="power-port-line" x1="0" y1="0" x2="0" y2="-7"/>
      <path class="power-port-shape" d="M -4 -7 L 0 -12 L 4 -7 Z"/>
      <text class="power-port-label" x="0" y="-14">+3V3</text>
    </g>
    <g class="power-port power" data-net="net:2" transform="translate(202 98) rotate(270)">
      <line class="power-port-line" x1="0" y1="0" x2="0" y2="-7"/>
      <path class="power-port-shape" d="M -4 -7 L 0 -12 L 4 -7 Z"/>
      <text class="power-port-label" x="0" y="-14">+3V3</text>
    </g>
    <g class="power-port power" data-net="net:2" transform="translate(202 18) rotate(270)">
      <line class="power-port-line" x1="0" y1="0" x2="0" y2="-7"/>
      <path class="power-port-shape" d="M -4 -7 L 0 -12 L 4 -7 Z"/>
      <text class="power-port-label" x="0" y="-14">+3V3</text>
    </g>
    <g class="power-port power" data-net="net:2" transform="translate(102 18) rotate(270)">
      <line class="power-port-line" x1="0" y1="0" x2="0" y2="-7"/>
      <path class="power-port-shape" d="M -4 -7 L 0 -12 L 4 -7 Z"/>
      <text class="power-port-label" x="0" y="-14">+3V3</text>
    </g>
    <g class="power-port power" data-net="net:3" transform="translate(102 78) rotate(270)">
      <line class="power-port-line" x1="0" y1="0" x2="0" y2="-7"/>
      <path class="power-port-shape" d="M -4 -7 L 0 -12 L 4 -7 Z"/>
      <text class="power-port-label" x="0" y="-14">VDDA</text>
    </g>
    <g class="power-port ground" data-net="net:4" transform="translate(102 103) rotate(90)">
      <line class="power-port-line" x1="0" y1="0" x2="0" y2="4"/>
      <line class="ground-bar" x1="-5" y1="4" x2="5" y2="4"/>
      <line class="ground-bar" x1="-3" y1="6" x2="3" y2="6"/>
      <line class="ground-bar" x1="-1" y1="8" x2="1" y2="8"/>
      <text class="power-port-label" x="0" y="-14">GND</text>
    </g>
    <g class="power-port ground" data-net="net:4" transform="translate(202 23) rotate(90)">
      <line class="power-port-line" x1="0" y1="0" x2="0" y2="4"/>
      <line class="ground-bar" x1="-5" y1="4" x2="5" y2="4"/>
      <line class="ground-bar" x1="-3" y1="6" x2="3" y2="6"/>
      <line class="ground-bar" x1="-1" y1="8" x2="1" y2="8"/>
      <text class="power-port-label" x="0" y="-14">GND</text>
    </g>
    <g class="power-port ground" data-net="net:4" transform="translate(102 73) rotate(90)">
      <line class="power-port-line" x1="0" y1="0" x2="0" y2="4"/>
      <line class="ground-bar" x1="-5" y1="4" x2="5" y2="4"/>
      <line class="ground-bar" x1="-3" y1="6" x2="3" y2="6"/>
      <line class="ground-bar" x1="-1" y1="8" x2="1" y2="8"/>
      <text class="power-port-label" x="0" y="-14">GND</text>
    </g>
    <g class="no-connect-marker" data-pin="pin:73" transform="translate(102 28) rotate(0)">
      <line class="no-connect-line" x1="-3" y1="-3" x2="3" y2="3"/>
      <line class="no-connect-line" x1="-3" y1="3" x2="3" y2="-3"/>
    </g>
    <g class="no-connect-marker" data-pin="pin:74" transform="translate(102 33) rotate(0)">
      <line class="no-connect-line" x1="-3" y1="-3" x2="3" y2="3"/>
      <line class="no-connect-line" x1="-3" y1="3" x2="3" y2="-3"/>
    </g>
    <g class="no-connect-marker" data-pin="pin:78" transform="translate(102 53) rotate(0)">
      <line class="no-connect-line" x1="-3" y1="-3" x2="3" y2="3"/>
      <line class="no-connect-line" x1="-3" y1="3" x2="3" y2="-3"/>
    </g>
    <g class="no-connect-marker" data-pin="pin:79" transform="translate(102 58) rotate(0)">
      <line class="no-connect-line" x1="-3" y1="-3" x2="3" y2="3"/>
      <line class="no-connect-line" x1="-3" y1="3" x2="3" y2="-3"/>
    </g>
    <g class="no-connect-marker" data-pin="pin:80" transform="translate(102 63) rotate(0)">
      <line class="no-connect-line" x1="-3" y1="-3" x2="3" y2="3"/>
      <line class="no-connect-line" x1="-3" y1="3" x2="3" y2="-3"/>
    </g>
    <g class="no-connect-marker" data-pin="pin:81" transform="translate(102 68) rotate(0)">
      <line class="no-connect-line" x1="-3" y1="-3" x2="3" y2="3"/>
      <line class="no-connect-line" x1="-3" y1="3" x2="3" y2="-3"/>
    </g>
    <g class="no-connect-marker" data-pin="pin:84" transform="translate(102 83) rotate(0)">
      <line class="no-connect-line" x1="-3" y1="-3" x2="3" y2="3"/>
      <line class="no-connect-line" x1="-3" y1="3" x2="3" y2="-3"/>
    </g>
    <g class="no-connect-marker" data-pin="pin:85" transform="translate(102 88) rotate(0)">
      <line class="no-connect-line" x1="-3" y1="-3" x2="3" y2="3"/>
      <line class="no-connect-line" x1="-3" y1="3" x2="3" y2="-3"/>
    </g>
    <g class="no-connect-marker" data-pin="pin:86" transform="translate(102 93) rotate(0)">
      <line class="no-connect-line" x1="-3" y1="-3" x2="3" y2="3"/>
      <line class="no-connect-line" x1="-3" y1="3" x2="3" y2="-3"/>
    </g>
    <g class="no-connect-marker" data-pin="pin:87" transform="translate(102 98) rotate(0)">
      <line class="no-connect-line" x1="-3" y1="-3" x2="3" y2="3"/>
      <line class="no-connect-line" x1="-3" y1="3" x2="3" y2="-3"/>
    </g>
    <g class="no-connect-marker" data-pin="pin:90" transform="translate(102 113) rotate(0)">
      <line class="no-connect-line" x1="-3" y1="-3" x2="3" y2="3"/>
      <line class="no-connect-line" x1="-3" y1="3" x2="3" y2="-3"/>
    </g>
    <g class="no-connect-marker" data-pin="pin:91" transform="translate(102 118) rotate(0)">
      <line class="no-connect-line" x1="-3" y1="-3" x2="3" y2="3"/>
      <line class="no-connect-line" x1="-3" y1="3" x2="3" y2="-3"/>
    </g>
    <g class="no-connect-marker" data-pin="pin:92" transform="translate(102 123) rotate(0)">
      <line class="no-connect-line" x1="-3" y1="-3" x2="3" y2="3"/>
      <line class="no-connect-line" x1="-3" y1="3" x2="3" y2="-3"/>
    </g>
    <g class="no-connect-marker" data-pin="pin:93" transform="translate(102 128) rotate(0)">
      <line class="no-connect-line" x1="-3" y1="-3" x2="3" y2="3"/>
      <line class="no-connect-line" x1="-3" y1="3" x2="3" y2="-3"/>
    </g>
    <g class="no-connect-marker" data-pin="pin:94" transform="translate(102 133) rotate(0)">
      <line class="no-connect-line" x1="-3" y1="-3" x2="3" y2="3"/>
      <line class="no-connect-line" x1="-3" y1="3" x2="3" y2="-3"/>
    </g>
    <g class="no-connect-marker" data-pin="pin:95" transform="translate(102 138) rotate(0)">
      <line class="no-connect-line" x1="-3" y1="-3" x2="3" y2="3"/>
      <line class="no-connect-line" x1="-3" y1="3" x2="3" y2="-3"/>
    </g>
    <g class="no-connect-marker" data-pin="pin:96" transform="translate(102 143) rotate(0)">
      <line class="no-connect-line" x1="-3" y1="-3" x2="3" y2="3"/>
      <line class="no-connect-line" x1="-3" y1="3" x2="3" y2="-3"/>
    </g>
    <g class="no-connect-marker" data-pin="pin:97" transform="translate(102 148) rotate(0)">
      <line class="no-connect-line" x1="-3" y1="-3" x2="3" y2="3"/>
      <line class="no-connect-line" x1="-3" y1="3" x2="3" y2="-3"/>
    </g>
    <g class="no-connect-marker" data-pin="pin:98" transform="translate(102 153) rotate(0)">
      <line class="no-connect-line" x1="-3" y1="-3" x2="3" y2="3"/>
      <line class="no-connect-line" x1="-3" y1="3" x2="3" y2="-3"/>
    </g>
    <g class="no-connect-marker" data-pin="pin:99" transform="translate(102 158) rotate(0)">
      <line class="no-connect-line" x1="-3" y1="-3" x2="3" y2="3"/>
      <line class="no-connect-line" x1="-3" y1="3" x2="3" y2="-3"/>
    </g>
    <g class="no-connect-marker" data-pin="pin:100" transform="translate(102 163) rotate(0)">
      <line class="no-connect-line" x1="-3" y1="-3" x2="3" y2="3"/>
      <line class="no-connect-line" x1="-3" y1="3" x2="3" y2="-3"/>
    </g>
    <g class="no-connect-marker" data-pin="pin:103" transform="translate(202 173) rotate(0)">
      <line class="no-connect-line" x1="-3" y1="-3" x2="3" y2="3"/>
      <line class="no-connect-line" x1="-3" y1="3" x2="3" y2="-3"/>
    </g>
    <g class="no-connect-marker" data-pin="pin:104" transform="translate(202 168) rotate(0)">
      <line class="no-connect-line" x1="-3" y1="-3" x2="3" y2="3"/>
      <line class="no-connect-line" x1="-3" y1="3" x2="3" y2="-3"/>
    </g>
    <g class="no-connect-marker" data-pin="pin:105" transform="translate(202 163) rotate(0)">
      <line class="no-connect-line" x1="-3" y1="-3" x2="3" y2="3"/>
      <line class="no-connect-line" x1="-3" y1="3" x2="3" y2="-3"/>
    </g>
    <g class="no-connect-marker" data-pin="pin:106" transform="translate(202 158) rotate(0)">
      <line class="no-connect-line" x1="-3" y1="-3" x2="3" y2="3"/>
      <line class="no-connect-line" x1="-3" y1="3" x2="3" y2="-3"/>
    </g>
    <g class="no-connect-marker" data-pin="pin:107" transform="translate(202 153) rotate(0)">
      <line class="no-connect-line" x1="-3" y1="-3" x2="3" y2="3"/>
      <line class="no-connect-line" x1="-3" y1="3" x2="3" y2="-3"/>
    </g>
    <g class="no-connect-marker" data-pin="pin:108" transform="translate(202 148) rotate(0)">
      <line class="no-connect-line" x1="-3" y1="-3" x2="3" y2="3"/>
      <line class="no-connect-line" x1="-3" y1="3" x2="3" y2="-3"/>
    </g>
    <g class="no-connect-marker" data-pin="pin:109" transform="translate(202 143) rotate(0)">
      <line class="no-connect-line" x1="-3" y1="-3" x2="3" y2="3"/>
      <line class="no-connect-line" x1="-3" y1="3" x2="3" y2="-3"/>
    </g>
    <g class="no-connect-marker" data-pin="pin:110" transform="translate(202 138) rotate(0)">
      <line class="no-connect-line" x1="-3" y1="-3" x2="3" y2="3"/>
      <line class="no-connect-line" x1="-3" y1="3" x2="3" y2="-3"/>
    </g>
    <g class="no-connect-marker" data-pin="pin:111" transform="translate(202 133) rotate(0)">
      <line class="no-connect-line" x1="-3" y1="-3" x2="3" y2="3"/>
      <line class="no-connect-line" x1="-3" y1="3" x2="3" y2="-3"/>
    </g>
    <g class="no-connect-marker" data-pin="pin:112" transform="translate(202 128) rotate(0)">
      <line class="no-connect-line" x1="-3" y1="-3" x2="3" y2="3"/>
      <line class="no-connect-line" x1="-3" y1="3" x2="3" y2="-3"/>
    </g>
    <g class="no-connect-marker" data-pin="pin:113" transform="translate(202 123) rotate(0)">
      <line class="no-connect-line" x1="-3" y1="-3" x2="3" y2="3"/>
      <line class="no-connect-line" x1="-3" y1="3" x2="3" y2="-3"/>
    </g>
    <g class="no-connect-marker" data-pin="pin:120" transform="translate(202 88) rotate(0)">
      <line class="no-connect-line" x1="-3" y1="-3" x2="3" y2="3"/>
      <line class="no-connect-line" x1="-3" y1="3" x2="3" y2="-3"/>
    </g>
    <g class="no-connect-marker" data-pin="pin:121" transform="translate(202 83) rotate(0)">
      <line class="no-connect-line" x1="-3" y1="-3" x2="3" y2="3"/>
      <line class="no-connect-line" x1="-3" y1="3" x2="3" y2="-3"/>
    </g>
    <g class="no-connect-marker" data-pin="pin:122" transform="translate(202 78) rotate(0)">
      <line class="no-connect-line" x1="-3" y1="-3" x2="3" y2="3"/>
      <line class="no-connect-line" x1="-3" y1="3" x2="3" y2="-3"/>
    </g>
    <g class="no-connect-marker" data-pin="pin:123" transform="translate(202 73) rotate(0)">
      <line class="no-connect-line" x1="-3" y1="-3" x2="3" y2="3"/>
      <line class="no-connect-line" x1="-3" y1="3" x2="3" y2="-3"/>
    </g>
    <g class="no-connect-marker" data-pin="pin:124" transform="translate(202 68) rotate(0)">
      <line class="no-connect-line" x1="-3" y1="-3" x2="3" y2="3"/>
      <line class="no-connect-line" x1="-3" y1="3" x2="3" y2="-3"/>
    </g>
    <g class="no-connect-marker" data-pin="pin:126" transform="translate(202 58) rotate(0)">
      <line class="no-connect-line" x1="-3" y1="-3" x2="3" y2="3"/>
      <line class="no-connect-line" x1="-3" y1="3" x2="3" y2="-3"/>
    </g>
    <g class="no-connect-marker" data-pin="pin:127" transform="translate(202 53) rotate(0)">
      <line class="no-connect-line" x1="-3" y1="-3" x2="3" y2="3"/>
      <line class="no-connect-line" x1="-3" y1="3" x2="3" y2="-3"/>
    </g>
    <g class="no-connect-marker" data-pin="pin:128" transform="translate(202 48) rotate(0)">
      <line class="no-connect-line" x1="-3" y1="-3" x2="3" y2="3"/>
      <line class="no-connect-line" x1="-3" y1="3" x2="3" y2="-3"/>
    </g>
    <g class="no-connect-marker" data-pin="pin:129" transform="translate(202 43) rotate(0)">
      <line class="no-connect-line" x1="-3" y1="-3" x2="3" y2="3"/>
      <line class="no-connect-line" x1="-3" y1="3" x2="3" y2="-3"/>
    </g>
    <g class="no-connect-marker" data-pin="pin:131" transform="translate(202 33) rotate(0)">
      <line class="no-connect-line" x1="-3" y1="-3" x2="3" y2="3"/>
      <line class="no-connect-line" x1="-3" y1="3" x2="3" y2="-3"/>
    </g>
    <g class="no-connect-marker" data-pin="pin:132" transform="translate(202 28) rotate(0)">
      <line class="no-connect-line" x1="-3" y1="-3" x2="3" y2="3"/>
      <line class="no-connect-line" x1="-3" y1="3" x2="3" y2="-3"/>
    </g>
    <g class="sheet-port off-page" data-net="net:13" transform="translate(226 118) rotate(0)">
      <path class="sheet-port-shape" d="M 0 -4 L 14 -4 L 20 0 L 14 4 L 0 4 Z"/>
      <text class="sheet-port-label" x="4" y="2">MCU_USB_DM</text>
    </g>
    <g class="sheet-port off-page" data-net="net:12" transform="translate(226 113) rotate(0)">
      <path class="sheet-port-shape" d="M 0 -4 L 14 -4 L 20 0 L 14 4 L 0 4 Z"/>
      <text class="sheet-port-label" x="4" y="2">MCU_USB_DP</text>
    </g>
    <g class="sheet-port off-page" data-net="net:34" transform="translate(226 108) rotate(0)">
      <path class="sheet-port-shape" d="M 0 -4 L 14 -4 L 20 0 L 14 4 L 0 4 Z"/>
      <text class="sheet-port-label" x="4" y="2">SWDIO</text>
    </g>
    <g class="sheet-port off-page" data-net="net:35" transform="translate(226 93) rotate(0)">
      <path class="sheet-port-shape" d="M 0 -4 L 14 -4 L 20 0 L 14 4 L 0 4 Z"/>
      <text class="sheet-port-label" x="4" y="2">SWCLK</text>
    </g>
    <g class="sheet-port off-page" data-net="net:36" transform="translate(226 63) rotate(0)">
      <path class="sheet-port-shape" d="M 0 -4 L 14 -4 L 20 0 L 14 4 L 0 4 Z"/>
      <text class="sheet-port-label" x="4" y="2">SWO</text>
    </g>
    <g class="sheet-port off-page" data-net="net:29" transform="translate(226 38) rotate(0)">
      <path class="sheet-port-shape" d="M 0 -4 L 14 -4 L 20 0 L 14 4 L 0 4 Z"/>
      <text class="sheet-port-label" x="4" y="2">BOOT0</text>
    </g>
    <g class="sheet-port off-page" data-net="net:28" transform="translate(78 48) rotate(180)">
      <path class="sheet-port-shape" d="M 0 -4 L 14 -4 L 20 0 L 14 4 L 0 4 Z"/>
      <text class="sheet-port-label" x="4" y="2">NRST</text>
    </g>
    <g class="sheet-port off-page" data-net="net:30" transform="translate(78 38) rotate(180)">
      <path class="sheet-port-shape" d="M 0 -4 L 14 -4 L 20 0 L 14 4 L 0 4 Z"/>
      <text class="sheet-port-label" x="4" y="2">HSE_IN</text>
    </g>
    <g class="sheet-port off-page" data-net="net:31" transform="translate(78 43) rotate(180)">
      <path class="sheet-port-shape" d="M 0 -4 L 14 -4 L 20 0 L 14 4 L 0 4 Z"/>
      <text class="sheet-port-label" x="4" y="2">HSE_OUT</text>
    </g>
    <g class="sheet-port off-page" data-net="net:32" transform="translate(78 168) rotate(180)">
      <path class="sheet-port-shape" d="M 0 -4 L 14 -4 L 20 0 L 14 4 L 0 4 Z"/>
      <text class="sheet-port-label" x="4" y="2">VCAP_1</text>
    </g>
    <g class="sheet-port off-page" data-net="net:33" transform="translate(226 103) rotate(0)">
      <path class="sheet-port-shape" d="M 0 -4 L 14 -4 L 20 0 L 14 4 L 0 4 Z"/>
      <text class="sheet-port-label" x="4" y="2">VCAP_2</text>
    </g>
    <g class="sheet-port off-page" data-net="net:37" transform="translate(78 23) rotate(180)">
      <path class="sheet-port-shape" d="M 0 -4 L 14 -4 L 20 0 L 14 4 L 0 4 Z"/>
      <text class="sheet-port-label" x="4" y="2">STATUS_LED</text>
    </g>
    <g class="sheet-port off-page" data-net="net:20" transform="translate(64 22) rotate(270)">
      <path class="sheet-port-shape" d="M 0 -4 L 14 -4 L 20 0 L 14 4 L 0 4 Z"/>
      <text class="sheet-port-label" x="4" y="2">+3V3</text>
    </g>
    <g class="sheet-port off-page" data-net="net:21" transform="translate(24 46) rotate(90)">
      <path class="sheet-port-shape" d="M 0 -4 L 14 -4 L 20 0 L 14 4 L 0 4 Z"/>
      <text class="sheet-port-label" x="4" y="2">GND</text>
    </g>
    <g class="sheet-port off-page" data-net="net:21" transform="translate(24 78) rotate(90)">
      <path class="sheet-port-shape" d="M 0 -4 L 14 -4 L 20 0 L 14 4 L 0 4 Z"/>
      <text class="sheet-port-label" x="4" y="2">GND</text>
    </g>
    <g class="sheet-port off-page" data-net="net:21" transform="translate(24 110) rotate(90)">
      <path class="sheet-port-shape" d="M 0 -4 L 14 -4 L 20 0 L 14 4 L 0 4 Z"/>
      <text class="sheet-port-label" x="4" y="2">GND</text>
    </g>
    <g class="sheet-port off-page" data-net="net:21" transform="translate(44 150) rotate(90)">
      <path class="sheet-port-shape" d="M 0 -4 L 14 -4 L 20 0 L 14 4 L 0 4 Z"/>
      <text class="sheet-port-label" x="4" y="2">GND</text>
    </g>
    <g class="sheet-port off-page" data-net="net:21" transform="translate(70 160) rotate(90)">
      <path class="sheet-port-shape" d="M 0 -4 L 14 -4 L 20 0 L 14 4 L 0 4 Z"/>
      <text class="sheet-port-label" x="4" y="2">GND</text>
    </g>
    <g class="sheet-port off-page" data-net="net:21" transform="translate(40 202) rotate(90)">
      <path class="sheet-port-shape" d="M 0 -4 L 14 -4 L 20 0 L 14 4 L 0 4 Z"/>
      <text class="sheet-port-label" x="4" y="2">GND</text>
    </g>
    <g class="sheet-port off-page" data-net="net:21" transform="translate(56 202) rotate(90)">
      <path class="sheet-port-shape" d="M 0 -4 L 14 -4 L 20 0 L 14 4 L 0 4 Z"/>
      <text class="sheet-port-label" x="4" y="2">GND</text>
    </g>
    <g class="sheet-port off-page" data-net="net:21" transform="translate(74 192) rotate(90)">
      <path class="sheet-port-shape" d="M 0 -4 L 14 -4 L 20 0 L 14 4 L 0 4 Z"/>
      <text class="sheet-port-label" x="4" y="2">GND</text>
    </g>
    <g class="sheet-port off-page" data-net="net:21" transform="translate(74 208) rotate(90)">
      <path class="sheet-port-shape" d="M 0 -4 L 14 -4 L 20 0 L 14 4 L 0 4 Z"/>
      <text class="sheet-port-label" x="4" y="2">GND</text>
    </g>
    <g class="sheet-port off-page" data-net="net:22" transform="translate(44 122) rotate(0)">
      <path class="sheet-port-shape" d="M 0 -4 L 14 -4 L 20 0 L 14 4 L 0 4 Z"/>
      <text class="sheet-port-label" x="4" y="2">NRST</text>
    </g>
    <g class="sheet-port off-page" data-net="net:23" transform="translate(92 150) rotate(0)">
      <path class="sheet-port-shape" d="M 0 -4 L 14 -4 L 20 0 L 14 4 L 0 4 Z"/>
      <text class="sheet-port-label" x="4" y="2">BOOT0</text>
    </g>
    <g class="sheet-port off-page" data-net="net:24" transform="translate(26 184) rotate(0)">
      <path class="sheet-port-shape" d="M 0 -4 L 14 -4 L 20 0 L 14 4 L 0 4 Z"/>
      <text class="sheet-port-label" x="4" y="2">HSE_IN</text>
    </g>
    <g class="sheet-port off-page" data-net="net:24" transform="translate(74 172) rotate(0)">
      <path class="sheet-port-shape" d="M 0 -4 L 14 -4 L 20 0 L 14 4 L 0 4 Z"/>
      <text class="sheet-port-label" x="4" y="2">HSE_IN</text>
    </g>
    <g class="sheet-port off-page" data-net="net:25" transform="translate(70 184) rotate(0)">
      <path class="sheet-port-shape" d="M 0 -4 L 14 -4 L 20 0 L 14 4 L 0 4 Z"/>
      <text class="sheet-port-label" x="4" y="2">HSE_OUT</text>
    </g>
    <g class="sheet-port off-page" data-net="net:25" transform="translate(74 188) rotate(0)">
      <path class="sheet-port-shape" d="M 0 -4 L 14 -4 L 20 0 L 14 4 L 0 4 Z"/>
      <text class="sheet-port-label" x="4" y="2">HSE_OUT</text>
    </g>
    <g class="sheet-port off-page" data-net="net:26" transform="translate(24 58) rotate(270)">
      <path class="sheet-port-shape" d="M 0 -4 L 14 -4 L 20 0 L 14 4 L 0 4 Z"/>
      <text class="sheet-port-label" x="4" y="2">VCAP_1</text>
    </g>
    <g class="sheet-port off-page" data-net="net:27" transform="translate(24 90) rotate(270)">
      <path class="sheet-port-shape" d="M 0 -4 L 14 -4 L 20 0 L 14 4 L 0 4 Z"/>
      <text class="sheet-port-label" x="4" y="2">VCAP_2</text>
    </g>
    <g class="sheet-port off-page" data-net="net:38" transform="translate(218 168) rotate(270)">
      <path class="sheet-port-shape" d="M 0 -4 L 14 -4 L 20 0 L 14 4 L 0 4 Z"/>
      <text class="sheet-port-label" x="4" y="2">+3V3</text>
    </g>
    <g class="sheet-port off-page" data-net="net:39" transform="translate(246 170) rotate(270)">
      <path class="sheet-port-shape" d="M 0 -4 L 14 -4 L 20 0 L 14 4 L 0 4 Z"/>
      <text class="sheet-port-label" x="4" y="2">STATUS_LED</text>
    </g>
    <g class="sheet-port off-page" data-net="net:40" transform="translate(278 200) rotate(90)">
      <path class="sheet-port-shape" d="M 0 -4 L 14 -4 L 20 0 L 14 4 L 0 4 Z"/>
      <text class="sheet-port-label" x="4" y="2">GND</text>
    </g>
    </g>
    <g class="layer layer-labels">
    <text class="net-label" data-net="net:13" x="208" y="118" transform="rotate(0 208 118)">MCU_USB_DM</text>
    <text class="net-label" data-net="net:12" x="208" y="113" transform="rotate(0 208 113)">MCU_USB_DP</text>
    <text class="net-label" data-net="net:23" x="62" y="145" transform="rotate(0 62 145)">SUPPORT/BOOT0</text>
    <text class="net-label" data-net="net:39" x="238" y="178" transform="rotate(0 238 178)">LED_STATUS/SIGNAL</text>
    </g>
    <g class="layer layer-fields">
    </g>
  </g>
</svg>
