G04 Volt Gerber RS-274X*
%FSLAX46Y46*%
%MOMM*%
%TF.GenerationSoftware,Volt,Volt Native Fabrication Exporter,0.1*%
%TF.FileFunction,Legend,Top*%
%TF.FilePolarity,Positive*%
%LPD*%
%ADD10C,0.120000*%
D10*
X0016200000Y0035400000D02*
X0017800000Y0035400000D01*
X0017800000Y0034600000D01*
X0016200000Y0034600000D01*
X0016200000Y0035400000D01*
X0030200000Y0035400000D02*
X0031800000Y0035400000D01*
X0031800000Y0034600000D01*
X0030200000Y0034600000D01*
X0030200000Y0035400000D01*
X0045200000Y0035400000D02*
X0046800000Y0035400000D01*
X0046800000Y0034600000D01*
X0045200000Y0034600000D01*
X0045200000Y0035400000D01*
X0033400000Y0028800000D02*
X0033400000Y0027200000D01*
X0032600000Y0027200000D01*
X0032600000Y0028800000D01*
X0033400000Y0028800000D01*
X0037200000Y0036400000D02*
X0038800000Y0036400000D01*
X0038800000Y0035600000D01*
X0037200000Y0035600000D01*
X0037200000Y0036400000D01*
X0042400000Y0015800000D02*
X0042400000Y0014200000D01*
X0041600000Y0014200000D01*
X0041600000Y0015800000D01*
X0042400000Y0015800000D01*
X0054400000Y0015800000D02*
X0054400000Y0014200000D01*
X0053600000Y0014200000D01*
X0053600000Y0015800000D01*
X0054400000Y0015800000D01*
X0035700000Y0031400000D02*
X0037300000Y0031400000D01*
X0037300000Y0030600000D01*
X0035700000Y0030600000D01*
X0035700000Y0031400000D01*
X0060400000Y0033800000D02*
X0060400000Y0032200000D01*
X0059600000Y0032200000D01*
X0059600000Y0033800000D01*
X0060400000Y0033800000D01*
X0064250000Y0034800000D02*
X0068750000Y0034800000D01*
X0068750000Y0032200000D01*
X0064250000Y0032200000D01*
X0064250000Y0034800000D01*
X0035900000Y0026250000D02*
X0039100000Y0026250000D01*
X0039100000Y0023750000D01*
X0035900000Y0023750000D01*
X0035900000Y0026250000D01*
X0032200000Y0022400000D02*
X0033800000Y0022400000D01*
X0033800000Y0021600000D01*
X0032200000Y0021600000D01*
X0032200000Y0022400000D01*
X0040200000Y0019400000D02*
X0041800000Y0019400000D01*
X0041800000Y0018600000D01*
X0040200000Y0018600000D01*
X0040200000Y0019400000D01*
X0061200000Y0008400000D02*
X0062800000Y0008400000D01*
X0062800000Y0007600000D01*
X0061200000Y0007600000D01*
X0061200000Y0008400000D01*
X0069200000Y0008400000D02*
X0070800000Y0008400000D01*
X0070800000Y0007600000D01*
X0069200000Y0007600000D01*
X0069200000Y0008400000D01*
G04 TEXT STM32 USB BUCK*
G36*
X0030144000Y0004700000D02*
X0030288000Y0004700000D01*
X0030288000Y0004528571D01*
X0030144000Y0004528571D01*
X0030144000Y0004700000D01*
G37*
G36*
X0030288000Y0004700000D02*
X0030432000Y0004700000D01*
X0030432000Y0004528571D01*
X0030288000Y0004528571D01*
X0030288000Y0004700000D01*
G37*
G36*
X0030432000Y0004700000D02*
X0030576000Y0004700000D01*
X0030576000Y0004528571D01*
X0030432000Y0004528571D01*
X0030432000Y0004700000D01*
G37*
G36*
X0030576000Y0004700000D02*
X0030720000Y0004700000D01*
X0030720000Y0004528571D01*
X0030576000Y0004528571D01*
X0030576000Y0004700000D01*
G37*
G36*
X0030000000Y0004528571D02*
X0030144000Y0004528571D01*
X0030144000Y0004357143D01*
X0030000000Y0004357143D01*
X0030000000Y0004528571D01*
G37*
G36*
X0030000000Y0004357143D02*
X0030144000Y0004357143D01*
X0030144000Y0004185714D01*
X0030000000Y0004185714D01*
X0030000000Y0004357143D01*
G37*
G36*
X0030144000Y0004185714D02*
X0030288000Y0004185714D01*
X0030288000Y0004014286D01*
X0030144000Y0004014286D01*
X0030144000Y0004185714D01*
G37*
G36*
X0030288000Y0004185714D02*
X0030432000Y0004185714D01*
X0030432000Y0004014286D01*
X0030288000Y0004014286D01*
X0030288000Y0004185714D01*
G37*
G36*
X0030432000Y0004185714D02*
X0030576000Y0004185714D01*
X0030576000Y0004014286D01*
X0030432000Y0004014286D01*
X0030432000Y0004185714D01*
G37*
G36*
X0030576000Y0004014286D02*
X0030720000Y0004014286D01*
X0030720000Y0003842857D01*
X0030576000Y0003842857D01*
X0030576000Y0004014286D01*
G37*
G36*
X0030576000Y0003842857D02*
X0030720000Y0003842857D01*
X0030720000Y0003671429D01*
X0030576000Y0003671429D01*
X0030576000Y0003842857D01*
G37*
G36*
X0030000000Y0003671429D02*
X0030144000Y0003671429D01*
X0030144000Y0003500000D01*
X0030000000Y0003500000D01*
X0030000000Y0003671429D01*
G37*
G36*
X0030144000Y0003671429D02*
X0030288000Y0003671429D01*
X0030288000Y0003500000D01*
X0030144000Y0003500000D01*
X0030144000Y0003671429D01*
G37*
G36*
X0030288000Y0003671429D02*
X0030432000Y0003671429D01*
X0030432000Y0003500000D01*
X0030288000Y0003500000D01*
X0030288000Y0003671429D01*
G37*
G36*
X0030432000Y0003671429D02*
X0030576000Y0003671429D01*
X0030576000Y0003500000D01*
X0030432000Y0003500000D01*
X0030432000Y0003671429D01*
G37*
G36*
X0030720000Y0004700000D02*
X0030864000Y0004700000D01*
X0030864000Y0004528571D01*
X0030720000Y0004528571D01*
X0030720000Y0004700000D01*
G37*
G36*
X0030864000Y0004700000D02*
X0031008000Y0004700000D01*
X0031008000Y0004528571D01*
X0030864000Y0004528571D01*
X0030864000Y0004700000D01*
G37*
G36*
X0031008000Y0004700000D02*
X0031152000Y0004700000D01*
X0031152000Y0004528571D01*
X0031008000Y0004528571D01*
X0031008000Y0004700000D01*
G37*
G36*
X0031152000Y0004700000D02*
X0031296000Y0004700000D01*
X0031296000Y0004528571D01*
X0031152000Y0004528571D01*
X0031152000Y0004700000D01*
G37*
G36*
X0031296000Y0004700000D02*
X0031440000Y0004700000D01*
X0031440000Y0004528571D01*
X0031296000Y0004528571D01*
X0031296000Y0004700000D01*
G37*
G36*
X0031008000Y0004528571D02*
X0031152000Y0004528571D01*
X0031152000Y0004357143D01*
X0031008000Y0004357143D01*
X0031008000Y0004528571D01*
G37*
G36*
X0031008000Y0004357143D02*
X0031152000Y0004357143D01*
X0031152000Y0004185714D01*
X0031008000Y0004185714D01*
X0031008000Y0004357143D01*
G37*
G36*
X0031008000Y0004185714D02*
X0031152000Y0004185714D01*
X0031152000Y0004014286D01*
X0031008000Y0004014286D01*
X0031008000Y0004185714D01*
G37*
G36*
X0031008000Y0004014286D02*
X0031152000Y0004014286D01*
X0031152000Y0003842857D01*
X0031008000Y0003842857D01*
X0031008000Y0004014286D01*
G37*
G36*
X0031008000Y0003842857D02*
X0031152000Y0003842857D01*
X0031152000Y0003671429D01*
X0031008000Y0003671429D01*
X0031008000Y0003842857D01*
G37*
G36*
X0031008000Y0003671429D02*
X0031152000Y0003671429D01*
X0031152000Y0003500000D01*
X0031008000Y0003500000D01*
X0031008000Y0003671429D01*
G37*
G36*
X0031440000Y0004700000D02*
X0031584000Y0004700000D01*
X0031584000Y0004528571D01*
X0031440000Y0004528571D01*
X0031440000Y0004700000D01*
G37*
G36*
X0032016000Y0004700000D02*
X0032160000Y0004700000D01*
X0032160000Y0004528571D01*
X0032016000Y0004528571D01*
X0032016000Y0004700000D01*
G37*
G36*
X0031440000Y0004528571D02*
X0031584000Y0004528571D01*
X0031584000Y0004357143D01*
X0031440000Y0004357143D01*
X0031440000Y0004528571D01*
G37*
G36*
X0031584000Y0004528571D02*
X0031728000Y0004528571D01*
X0031728000Y0004357143D01*
X0031584000Y0004357143D01*
X0031584000Y0004528571D01*
G37*
G36*
X0031872000Y0004528571D02*
X0032016000Y0004528571D01*
X0032016000Y0004357143D01*
X0031872000Y0004357143D01*
X0031872000Y0004528571D01*
G37*
G36*
X0032016000Y0004528571D02*
X0032160000Y0004528571D01*
X0032160000Y0004357143D01*
X0032016000Y0004357143D01*
X0032016000Y0004528571D01*
G37*
G36*
X0031440000Y0004357143D02*
X0031584000Y0004357143D01*
X0031584000Y0004185714D01*
X0031440000Y0004185714D01*
X0031440000Y0004357143D01*
G37*
G36*
X0031728000Y0004357143D02*
X0031872000Y0004357143D01*
X0031872000Y0004185714D01*
X0031728000Y0004185714D01*
X0031728000Y0004357143D01*
G37*
G36*
X0032016000Y0004357143D02*
X0032160000Y0004357143D01*
X0032160000Y0004185714D01*
X0032016000Y0004185714D01*
X0032016000Y0004357143D01*
G37*
G36*
X0031440000Y0004185714D02*
X0031584000Y0004185714D01*
X0031584000Y0004014286D01*
X0031440000Y0004014286D01*
X0031440000Y0004185714D01*
G37*
G36*
X0031728000Y0004185714D02*
X0031872000Y0004185714D01*
X0031872000Y0004014286D01*
X0031728000Y0004014286D01*
X0031728000Y0004185714D01*
G37*
G36*
X0032016000Y0004185714D02*
X0032160000Y0004185714D01*
X0032160000Y0004014286D01*
X0032016000Y0004014286D01*
X0032016000Y0004185714D01*
G37*
G36*
X0031440000Y0004014286D02*
X0031584000Y0004014286D01*
X0031584000Y0003842857D01*
X0031440000Y0003842857D01*
X0031440000Y0004014286D01*
G37*
G36*
X0032016000Y0004014286D02*
X0032160000Y0004014286D01*
X0032160000Y0003842857D01*
X0032016000Y0003842857D01*
X0032016000Y0004014286D01*
G37*
G36*
X0031440000Y0003842857D02*
X0031584000Y0003842857D01*
X0031584000Y0003671429D01*
X0031440000Y0003671429D01*
X0031440000Y0003842857D01*
G37*
G36*
X0032016000Y0003842857D02*
X0032160000Y0003842857D01*
X0032160000Y0003671429D01*
X0032016000Y0003671429D01*
X0032016000Y0003842857D01*
G37*
G36*
X0031440000Y0003671429D02*
X0031584000Y0003671429D01*
X0031584000Y0003500000D01*
X0031440000Y0003500000D01*
X0031440000Y0003671429D01*
G37*
G36*
X0032016000Y0003671429D02*
X0032160000Y0003671429D01*
X0032160000Y0003500000D01*
X0032016000Y0003500000D01*
X0032016000Y0003671429D01*
G37*
G36*
X0032160000Y0004700000D02*
X0032304000Y0004700000D01*
X0032304000Y0004528571D01*
X0032160000Y0004528571D01*
X0032160000Y0004700000D01*
G37*
G36*
X0032304000Y0004700000D02*
X0032448000Y0004700000D01*
X0032448000Y0004528571D01*
X0032304000Y0004528571D01*
X0032304000Y0004700000D01*
G37*
G36*
X0032448000Y0004700000D02*
X0032592000Y0004700000D01*
X0032592000Y0004528571D01*
X0032448000Y0004528571D01*
X0032448000Y0004700000D01*
G37*
G36*
X0032592000Y0004700000D02*
X0032736000Y0004700000D01*
X0032736000Y0004528571D01*
X0032592000Y0004528571D01*
X0032592000Y0004700000D01*
G37*
G36*
X0032736000Y0004528571D02*
X0032880000Y0004528571D01*
X0032880000Y0004357143D01*
X0032736000Y0004357143D01*
X0032736000Y0004528571D01*
G37*
G36*
X0032736000Y0004357143D02*
X0032880000Y0004357143D01*
X0032880000Y0004185714D01*
X0032736000Y0004185714D01*
X0032736000Y0004357143D01*
G37*
G36*
X0032304000Y0004185714D02*
X0032448000Y0004185714D01*
X0032448000Y0004014286D01*
X0032304000Y0004014286D01*
X0032304000Y0004185714D01*
G37*
G36*
X0032448000Y0004185714D02*
X0032592000Y0004185714D01*
X0032592000Y0004014286D01*
X0032448000Y0004014286D01*
X0032448000Y0004185714D01*
G37*
G36*
X0032592000Y0004185714D02*
X0032736000Y0004185714D01*
X0032736000Y0004014286D01*
X0032592000Y0004014286D01*
X0032592000Y0004185714D01*
G37*
G36*
X0032736000Y0004014286D02*
X0032880000Y0004014286D01*
X0032880000Y0003842857D01*
X0032736000Y0003842857D01*
X0032736000Y0004014286D01*
G37*
G36*
X0032736000Y0003842857D02*
X0032880000Y0003842857D01*
X0032880000Y0003671429D01*
X0032736000Y0003671429D01*
X0032736000Y0003842857D01*
G37*
G36*
X0032160000Y0003671429D02*
X0032304000Y0003671429D01*
X0032304000Y0003500000D01*
X0032160000Y0003500000D01*
X0032160000Y0003671429D01*
G37*
G36*
X0032304000Y0003671429D02*
X0032448000Y0003671429D01*
X0032448000Y0003500000D01*
X0032304000Y0003500000D01*
X0032304000Y0003671429D01*
G37*
G36*
X0032448000Y0003671429D02*
X0032592000Y0003671429D01*
X0032592000Y0003500000D01*
X0032448000Y0003500000D01*
X0032448000Y0003671429D01*
G37*
G36*
X0032592000Y0003671429D02*
X0032736000Y0003671429D01*
X0032736000Y0003500000D01*
X0032592000Y0003500000D01*
X0032592000Y0003671429D01*
G37*
G36*
X0033024000Y0004700000D02*
X0033168000Y0004700000D01*
X0033168000Y0004528571D01*
X0033024000Y0004528571D01*
X0033024000Y0004700000D01*
G37*
G36*
X0033168000Y0004700000D02*
X0033312000Y0004700000D01*
X0033312000Y0004528571D01*
X0033168000Y0004528571D01*
X0033168000Y0004700000D01*
G37*
G36*
X0033312000Y0004700000D02*
X0033456000Y0004700000D01*
X0033456000Y0004528571D01*
X0033312000Y0004528571D01*
X0033312000Y0004700000D01*
G37*
G36*
X0032880000Y0004528571D02*
X0033024000Y0004528571D01*
X0033024000Y0004357143D01*
X0032880000Y0004357143D01*
X0032880000Y0004528571D01*
G37*
G36*
X0033456000Y0004528571D02*
X0033600000Y0004528571D01*
X0033600000Y0004357143D01*
X0033456000Y0004357143D01*
X0033456000Y0004528571D01*
G37*
G36*
X0033456000Y0004357143D02*
X0033600000Y0004357143D01*
X0033600000Y0004185714D01*
X0033456000Y0004185714D01*
X0033456000Y0004357143D01*
G37*
G36*
X0033312000Y0004185714D02*
X0033456000Y0004185714D01*
X0033456000Y0004014286D01*
X0033312000Y0004014286D01*
X0033312000Y0004185714D01*
G37*
G36*
X0033168000Y0004014286D02*
X0033312000Y0004014286D01*
X0033312000Y0003842857D01*
X0033168000Y0003842857D01*
X0033168000Y0004014286D01*
G37*
G36*
X0033024000Y0003842857D02*
X0033168000Y0003842857D01*
X0033168000Y0003671429D01*
X0033024000Y0003671429D01*
X0033024000Y0003842857D01*
G37*
G36*
X0032880000Y0003671429D02*
X0033024000Y0003671429D01*
X0033024000Y0003500000D01*
X0032880000Y0003500000D01*
X0032880000Y0003671429D01*
G37*
G36*
X0033024000Y0003671429D02*
X0033168000Y0003671429D01*
X0033168000Y0003500000D01*
X0033024000Y0003500000D01*
X0033024000Y0003671429D01*
G37*
G36*
X0033168000Y0003671429D02*
X0033312000Y0003671429D01*
X0033312000Y0003500000D01*
X0033168000Y0003500000D01*
X0033168000Y0003671429D01*
G37*
G36*
X0033312000Y0003671429D02*
X0033456000Y0003671429D01*
X0033456000Y0003500000D01*
X0033312000Y0003500000D01*
X0033312000Y0003671429D01*
G37*
G36*
X0033456000Y0003671429D02*
X0033600000Y0003671429D01*
X0033600000Y0003500000D01*
X0033456000Y0003500000D01*
X0033456000Y0003671429D01*
G37*
G36*
X0034320000Y0004700000D02*
X0034464000Y0004700000D01*
X0034464000Y0004528571D01*
X0034320000Y0004528571D01*
X0034320000Y0004700000D01*
G37*
G36*
X0034896000Y0004700000D02*
X0035040000Y0004700000D01*
X0035040000Y0004528571D01*
X0034896000Y0004528571D01*
X0034896000Y0004700000D01*
G37*
G36*
X0034320000Y0004528571D02*
X0034464000Y0004528571D01*
X0034464000Y0004357143D01*
X0034320000Y0004357143D01*
X0034320000Y0004528571D01*
G37*
G36*
X0034896000Y0004528571D02*
X0035040000Y0004528571D01*
X0035040000Y0004357143D01*
X0034896000Y0004357143D01*
X0034896000Y0004528571D01*
G37*
G36*
X0034320000Y0004357143D02*
X0034464000Y0004357143D01*
X0034464000Y0004185714D01*
X0034320000Y0004185714D01*
X0034320000Y0004357143D01*
G37*
G36*
X0034896000Y0004357143D02*
X0035040000Y0004357143D01*
X0035040000Y0004185714D01*
X0034896000Y0004185714D01*
X0034896000Y0004357143D01*
G37*
G36*
X0034320000Y0004185714D02*
X0034464000Y0004185714D01*
X0034464000Y0004014286D01*
X0034320000Y0004014286D01*
X0034320000Y0004185714D01*
G37*
G36*
X0034896000Y0004185714D02*
X0035040000Y0004185714D01*
X0035040000Y0004014286D01*
X0034896000Y0004014286D01*
X0034896000Y0004185714D01*
G37*
G36*
X0034320000Y0004014286D02*
X0034464000Y0004014286D01*
X0034464000Y0003842857D01*
X0034320000Y0003842857D01*
X0034320000Y0004014286D01*
G37*
G36*
X0034896000Y0004014286D02*
X0035040000Y0004014286D01*
X0035040000Y0003842857D01*
X0034896000Y0003842857D01*
X0034896000Y0004014286D01*
G37*
G36*
X0034320000Y0003842857D02*
X0034464000Y0003842857D01*
X0034464000Y0003671429D01*
X0034320000Y0003671429D01*
X0034320000Y0003842857D01*
G37*
G36*
X0034896000Y0003842857D02*
X0035040000Y0003842857D01*
X0035040000Y0003671429D01*
X0034896000Y0003671429D01*
X0034896000Y0003842857D01*
G37*
G36*
X0034464000Y0003671429D02*
X0034608000Y0003671429D01*
X0034608000Y0003500000D01*
X0034464000Y0003500000D01*
X0034464000Y0003671429D01*
G37*
G36*
X0034608000Y0003671429D02*
X0034752000Y0003671429D01*
X0034752000Y0003500000D01*
X0034608000Y0003500000D01*
X0034608000Y0003671429D01*
G37*
G36*
X0034752000Y0003671429D02*
X0034896000Y0003671429D01*
X0034896000Y0003500000D01*
X0034752000Y0003500000D01*
X0034752000Y0003671429D01*
G37*
G36*
X0035184000Y0004700000D02*
X0035328000Y0004700000D01*
X0035328000Y0004528571D01*
X0035184000Y0004528571D01*
X0035184000Y0004700000D01*
G37*
G36*
X0035328000Y0004700000D02*
X0035472000Y0004700000D01*
X0035472000Y0004528571D01*
X0035328000Y0004528571D01*
X0035328000Y0004700000D01*
G37*
G36*
X0035472000Y0004700000D02*
X0035616000Y0004700000D01*
X0035616000Y0004528571D01*
X0035472000Y0004528571D01*
X0035472000Y0004700000D01*
G37*
G36*
X0035616000Y0004700000D02*
X0035760000Y0004700000D01*
X0035760000Y0004528571D01*
X0035616000Y0004528571D01*
X0035616000Y0004700000D01*
G37*
G36*
X0035040000Y0004528571D02*
X0035184000Y0004528571D01*
X0035184000Y0004357143D01*
X0035040000Y0004357143D01*
X0035040000Y0004528571D01*
G37*
G36*
X0035040000Y0004357143D02*
X0035184000Y0004357143D01*
X0035184000Y0004185714D01*
X0035040000Y0004185714D01*
X0035040000Y0004357143D01*
G37*
G36*
X0035184000Y0004185714D02*
X0035328000Y0004185714D01*
X0035328000Y0004014286D01*
X0035184000Y0004014286D01*
X0035184000Y0004185714D01*
G37*
G36*
X0035328000Y0004185714D02*
X0035472000Y0004185714D01*
X0035472000Y0004014286D01*
X0035328000Y0004014286D01*
X0035328000Y0004185714D01*
G37*
G36*
X0035472000Y0004185714D02*
X0035616000Y0004185714D01*
X0035616000Y0004014286D01*
X0035472000Y0004014286D01*
X0035472000Y0004185714D01*
G37*
G36*
X0035616000Y0004014286D02*
X0035760000Y0004014286D01*
X0035760000Y0003842857D01*
X0035616000Y0003842857D01*
X0035616000Y0004014286D01*
G37*
G36*
X0035616000Y0003842857D02*
X0035760000Y0003842857D01*
X0035760000Y0003671429D01*
X0035616000Y0003671429D01*
X0035616000Y0003842857D01*
G37*
G36*
X0035040000Y0003671429D02*
X0035184000Y0003671429D01*
X0035184000Y0003500000D01*
X0035040000Y0003500000D01*
X0035040000Y0003671429D01*
G37*
G36*
X0035184000Y0003671429D02*
X0035328000Y0003671429D01*
X0035328000Y0003500000D01*
X0035184000Y0003500000D01*
X0035184000Y0003671429D01*
G37*
G36*
X0035328000Y0003671429D02*
X0035472000Y0003671429D01*
X0035472000Y0003500000D01*
X0035328000Y0003500000D01*
X0035328000Y0003671429D01*
G37*
G36*
X0035472000Y0003671429D02*
X0035616000Y0003671429D01*
X0035616000Y0003500000D01*
X0035472000Y0003500000D01*
X0035472000Y0003671429D01*
G37*
G36*
X0035760000Y0004700000D02*
X0035904000Y0004700000D01*
X0035904000Y0004528571D01*
X0035760000Y0004528571D01*
X0035760000Y0004700000D01*
G37*
G36*
X0035904000Y0004700000D02*
X0036048000Y0004700000D01*
X0036048000Y0004528571D01*
X0035904000Y0004528571D01*
X0035904000Y0004700000D01*
G37*
G36*
X0036048000Y0004700000D02*
X0036192000Y0004700000D01*
X0036192000Y0004528571D01*
X0036048000Y0004528571D01*
X0036048000Y0004700000D01*
G37*
G36*
X0036192000Y0004700000D02*
X0036336000Y0004700000D01*
X0036336000Y0004528571D01*
X0036192000Y0004528571D01*
X0036192000Y0004700000D01*
G37*
G36*
X0035760000Y0004528571D02*
X0035904000Y0004528571D01*
X0035904000Y0004357143D01*
X0035760000Y0004357143D01*
X0035760000Y0004528571D01*
G37*
G36*
X0036336000Y0004528571D02*
X0036480000Y0004528571D01*
X0036480000Y0004357143D01*
X0036336000Y0004357143D01*
X0036336000Y0004528571D01*
G37*
G36*
X0035760000Y0004357143D02*
X0035904000Y0004357143D01*
X0035904000Y0004185714D01*
X0035760000Y0004185714D01*
X0035760000Y0004357143D01*
G37*
G36*
X0036336000Y0004357143D02*
X0036480000Y0004357143D01*
X0036480000Y0004185714D01*
X0036336000Y0004185714D01*
X0036336000Y0004357143D01*
G37*
G36*
X0035760000Y0004185714D02*
X0035904000Y0004185714D01*
X0035904000Y0004014286D01*
X0035760000Y0004014286D01*
X0035760000Y0004185714D01*
G37*
G36*
X0035904000Y0004185714D02*
X0036048000Y0004185714D01*
X0036048000Y0004014286D01*
X0035904000Y0004014286D01*
X0035904000Y0004185714D01*
G37*
G36*
X0036048000Y0004185714D02*
X0036192000Y0004185714D01*
X0036192000Y0004014286D01*
X0036048000Y0004014286D01*
X0036048000Y0004185714D01*
G37*
G36*
X0036192000Y0004185714D02*
X0036336000Y0004185714D01*
X0036336000Y0004014286D01*
X0036192000Y0004014286D01*
X0036192000Y0004185714D01*
G37*
G36*
X0035760000Y0004014286D02*
X0035904000Y0004014286D01*
X0035904000Y0003842857D01*
X0035760000Y0003842857D01*
X0035760000Y0004014286D01*
G37*
G36*
X0036336000Y0004014286D02*
X0036480000Y0004014286D01*
X0036480000Y0003842857D01*
X0036336000Y0003842857D01*
X0036336000Y0004014286D01*
G37*
G36*
X0035760000Y0003842857D02*
X0035904000Y0003842857D01*
X0035904000Y0003671429D01*
X0035760000Y0003671429D01*
X0035760000Y0003842857D01*
G37*
G36*
X0036336000Y0003842857D02*
X0036480000Y0003842857D01*
X0036480000Y0003671429D01*
X0036336000Y0003671429D01*
X0036336000Y0003842857D01*
G37*
G36*
X0035760000Y0003671429D02*
X0035904000Y0003671429D01*
X0035904000Y0003500000D01*
X0035760000Y0003500000D01*
X0035760000Y0003671429D01*
G37*
G36*
X0035904000Y0003671429D02*
X0036048000Y0003671429D01*
X0036048000Y0003500000D01*
X0035904000Y0003500000D01*
X0035904000Y0003671429D01*
G37*
G36*
X0036048000Y0003671429D02*
X0036192000Y0003671429D01*
X0036192000Y0003500000D01*
X0036048000Y0003500000D01*
X0036048000Y0003671429D01*
G37*
G36*
X0036192000Y0003671429D02*
X0036336000Y0003671429D01*
X0036336000Y0003500000D01*
X0036192000Y0003500000D01*
X0036192000Y0003671429D01*
G37*
G36*
X0037200000Y0004700000D02*
X0037344000Y0004700000D01*
X0037344000Y0004528571D01*
X0037200000Y0004528571D01*
X0037200000Y0004700000D01*
G37*
G36*
X0037344000Y0004700000D02*
X0037488000Y0004700000D01*
X0037488000Y0004528571D01*
X0037344000Y0004528571D01*
X0037344000Y0004700000D01*
G37*
G36*
X0037488000Y0004700000D02*
X0037632000Y0004700000D01*
X0037632000Y0004528571D01*
X0037488000Y0004528571D01*
X0037488000Y0004700000D01*
G37*
G36*
X0037632000Y0004700000D02*
X0037776000Y0004700000D01*
X0037776000Y0004528571D01*
X0037632000Y0004528571D01*
X0037632000Y0004700000D01*
G37*
G36*
X0037200000Y0004528571D02*
X0037344000Y0004528571D01*
X0037344000Y0004357143D01*
X0037200000Y0004357143D01*
X0037200000Y0004528571D01*
G37*
G36*
X0037776000Y0004528571D02*
X0037920000Y0004528571D01*
X0037920000Y0004357143D01*
X0037776000Y0004357143D01*
X0037776000Y0004528571D01*
G37*
G36*
X0037200000Y0004357143D02*
X0037344000Y0004357143D01*
X0037344000Y0004185714D01*
X0037200000Y0004185714D01*
X0037200000Y0004357143D01*
G37*
G36*
X0037776000Y0004357143D02*
X0037920000Y0004357143D01*
X0037920000Y0004185714D01*
X0037776000Y0004185714D01*
X0037776000Y0004357143D01*
G37*
G36*
X0037200000Y0004185714D02*
X0037344000Y0004185714D01*
X0037344000Y0004014286D01*
X0037200000Y0004014286D01*
X0037200000Y0004185714D01*
G37*
G36*
X0037344000Y0004185714D02*
X0037488000Y0004185714D01*
X0037488000Y0004014286D01*
X0037344000Y0004014286D01*
X0037344000Y0004185714D01*
G37*
G36*
X0037488000Y0004185714D02*
X0037632000Y0004185714D01*
X0037632000Y0004014286D01*
X0037488000Y0004014286D01*
X0037488000Y0004185714D01*
G37*
G36*
X0037632000Y0004185714D02*
X0037776000Y0004185714D01*
X0037776000Y0004014286D01*
X0037632000Y0004014286D01*
X0037632000Y0004185714D01*
G37*
G36*
X0037200000Y0004014286D02*
X0037344000Y0004014286D01*
X0037344000Y0003842857D01*
X0037200000Y0003842857D01*
X0037200000Y0004014286D01*
G37*
G36*
X0037776000Y0004014286D02*
X0037920000Y0004014286D01*
X0037920000Y0003842857D01*
X0037776000Y0003842857D01*
X0037776000Y0004014286D01*
G37*
G36*
X0037200000Y0003842857D02*
X0037344000Y0003842857D01*
X0037344000Y0003671429D01*
X0037200000Y0003671429D01*
X0037200000Y0003842857D01*
G37*
G36*
X0037776000Y0003842857D02*
X0037920000Y0003842857D01*
X0037920000Y0003671429D01*
X0037776000Y0003671429D01*
X0037776000Y0003842857D01*
G37*
G36*
X0037200000Y0003671429D02*
X0037344000Y0003671429D01*
X0037344000Y0003500000D01*
X0037200000Y0003500000D01*
X0037200000Y0003671429D01*
G37*
G36*
X0037344000Y0003671429D02*
X0037488000Y0003671429D01*
X0037488000Y0003500000D01*
X0037344000Y0003500000D01*
X0037344000Y0003671429D01*
G37*
G36*
X0037488000Y0003671429D02*
X0037632000Y0003671429D01*
X0037632000Y0003500000D01*
X0037488000Y0003500000D01*
X0037488000Y0003671429D01*
G37*
G36*
X0037632000Y0003671429D02*
X0037776000Y0003671429D01*
X0037776000Y0003500000D01*
X0037632000Y0003500000D01*
X0037632000Y0003671429D01*
G37*
G36*
X0037920000Y0004700000D02*
X0038064000Y0004700000D01*
X0038064000Y0004528571D01*
X0037920000Y0004528571D01*
X0037920000Y0004700000D01*
G37*
G36*
X0038496000Y0004700000D02*
X0038640000Y0004700000D01*
X0038640000Y0004528571D01*
X0038496000Y0004528571D01*
X0038496000Y0004700000D01*
G37*
G36*
X0037920000Y0004528571D02*
X0038064000Y0004528571D01*
X0038064000Y0004357143D01*
X0037920000Y0004357143D01*
X0037920000Y0004528571D01*
G37*
G36*
X0038496000Y0004528571D02*
X0038640000Y0004528571D01*
X0038640000Y0004357143D01*
X0038496000Y0004357143D01*
X0038496000Y0004528571D01*
G37*
G36*
X0037920000Y0004357143D02*
X0038064000Y0004357143D01*
X0038064000Y0004185714D01*
X0037920000Y0004185714D01*
X0037920000Y0004357143D01*
G37*
G36*
X0038496000Y0004357143D02*
X0038640000Y0004357143D01*
X0038640000Y0004185714D01*
X0038496000Y0004185714D01*
X0038496000Y0004357143D01*
G37*
G36*
X0037920000Y0004185714D02*
X0038064000Y0004185714D01*
X0038064000Y0004014286D01*
X0037920000Y0004014286D01*
X0037920000Y0004185714D01*
G37*
G36*
X0038496000Y0004185714D02*
X0038640000Y0004185714D01*
X0038640000Y0004014286D01*
X0038496000Y0004014286D01*
X0038496000Y0004185714D01*
G37*
G36*
X0037920000Y0004014286D02*
X0038064000Y0004014286D01*
X0038064000Y0003842857D01*
X0037920000Y0003842857D01*
X0037920000Y0004014286D01*
G37*
G36*
X0038496000Y0004014286D02*
X0038640000Y0004014286D01*
X0038640000Y0003842857D01*
X0038496000Y0003842857D01*
X0038496000Y0004014286D01*
G37*
G36*
X0037920000Y0003842857D02*
X0038064000Y0003842857D01*
X0038064000Y0003671429D01*
X0037920000Y0003671429D01*
X0037920000Y0003842857D01*
G37*
G36*
X0038496000Y0003842857D02*
X0038640000Y0003842857D01*
X0038640000Y0003671429D01*
X0038496000Y0003671429D01*
X0038496000Y0003842857D01*
G37*
G36*
X0038064000Y0003671429D02*
X0038208000Y0003671429D01*
X0038208000Y0003500000D01*
X0038064000Y0003500000D01*
X0038064000Y0003671429D01*
G37*
G36*
X0038208000Y0003671429D02*
X0038352000Y0003671429D01*
X0038352000Y0003500000D01*
X0038208000Y0003500000D01*
X0038208000Y0003671429D01*
G37*
G36*
X0038352000Y0003671429D02*
X0038496000Y0003671429D01*
X0038496000Y0003500000D01*
X0038352000Y0003500000D01*
X0038352000Y0003671429D01*
G37*
G36*
X0038784000Y0004700000D02*
X0038928000Y0004700000D01*
X0038928000Y0004528571D01*
X0038784000Y0004528571D01*
X0038784000Y0004700000D01*
G37*
G36*
X0038928000Y0004700000D02*
X0039072000Y0004700000D01*
X0039072000Y0004528571D01*
X0038928000Y0004528571D01*
X0038928000Y0004700000D01*
G37*
G36*
X0039072000Y0004700000D02*
X0039216000Y0004700000D01*
X0039216000Y0004528571D01*
X0039072000Y0004528571D01*
X0039072000Y0004700000D01*
G37*
G36*
X0038640000Y0004528571D02*
X0038784000Y0004528571D01*
X0038784000Y0004357143D01*
X0038640000Y0004357143D01*
X0038640000Y0004528571D01*
G37*
G36*
X0039216000Y0004528571D02*
X0039360000Y0004528571D01*
X0039360000Y0004357143D01*
X0039216000Y0004357143D01*
X0039216000Y0004528571D01*
G37*
G36*
X0038640000Y0004357143D02*
X0038784000Y0004357143D01*
X0038784000Y0004185714D01*
X0038640000Y0004185714D01*
X0038640000Y0004357143D01*
G37*
G36*
X0038640000Y0004185714D02*
X0038784000Y0004185714D01*
X0038784000Y0004014286D01*
X0038640000Y0004014286D01*
X0038640000Y0004185714D01*
G37*
G36*
X0038640000Y0004014286D02*
X0038784000Y0004014286D01*
X0038784000Y0003842857D01*
X0038640000Y0003842857D01*
X0038640000Y0004014286D01*
G37*
G36*
X0038640000Y0003842857D02*
X0038784000Y0003842857D01*
X0038784000Y0003671429D01*
X0038640000Y0003671429D01*
X0038640000Y0003842857D01*
G37*
G36*
X0039216000Y0003842857D02*
X0039360000Y0003842857D01*
X0039360000Y0003671429D01*
X0039216000Y0003671429D01*
X0039216000Y0003842857D01*
G37*
G36*
X0038784000Y0003671429D02*
X0038928000Y0003671429D01*
X0038928000Y0003500000D01*
X0038784000Y0003500000D01*
X0038784000Y0003671429D01*
G37*
G36*
X0038928000Y0003671429D02*
X0039072000Y0003671429D01*
X0039072000Y0003500000D01*
X0038928000Y0003500000D01*
X0038928000Y0003671429D01*
G37*
G36*
X0039072000Y0003671429D02*
X0039216000Y0003671429D01*
X0039216000Y0003500000D01*
X0039072000Y0003500000D01*
X0039072000Y0003671429D01*
G37*
G36*
X0039360000Y0004700000D02*
X0039504000Y0004700000D01*
X0039504000Y0004528571D01*
X0039360000Y0004528571D01*
X0039360000Y0004700000D01*
G37*
G36*
X0039936000Y0004700000D02*
X0040080000Y0004700000D01*
X0040080000Y0004528571D01*
X0039936000Y0004528571D01*
X0039936000Y0004700000D01*
G37*
G36*
X0039360000Y0004528571D02*
X0039504000Y0004528571D01*
X0039504000Y0004357143D01*
X0039360000Y0004357143D01*
X0039360000Y0004528571D01*
G37*
G36*
X0039792000Y0004528571D02*
X0039936000Y0004528571D01*
X0039936000Y0004357143D01*
X0039792000Y0004357143D01*
X0039792000Y0004528571D01*
G37*
G36*
X0039360000Y0004357143D02*
X0039504000Y0004357143D01*
X0039504000Y0004185714D01*
X0039360000Y0004185714D01*
X0039360000Y0004357143D01*
G37*
G36*
X0039648000Y0004357143D02*
X0039792000Y0004357143D01*
X0039792000Y0004185714D01*
X0039648000Y0004185714D01*
X0039648000Y0004357143D01*
G37*
G36*
X0039360000Y0004185714D02*
X0039504000Y0004185714D01*
X0039504000Y0004014286D01*
X0039360000Y0004014286D01*
X0039360000Y0004185714D01*
G37*
G36*
X0039504000Y0004185714D02*
X0039648000Y0004185714D01*
X0039648000Y0004014286D01*
X0039504000Y0004014286D01*
X0039504000Y0004185714D01*
G37*
G36*
X0039360000Y0004014286D02*
X0039504000Y0004014286D01*
X0039504000Y0003842857D01*
X0039360000Y0003842857D01*
X0039360000Y0004014286D01*
G37*
G36*
X0039648000Y0004014286D02*
X0039792000Y0004014286D01*
X0039792000Y0003842857D01*
X0039648000Y0003842857D01*
X0039648000Y0004014286D01*
G37*
G36*
X0039360000Y0003842857D02*
X0039504000Y0003842857D01*
X0039504000Y0003671429D01*
X0039360000Y0003671429D01*
X0039360000Y0003842857D01*
G37*
G36*
X0039792000Y0003842857D02*
X0039936000Y0003842857D01*
X0039936000Y0003671429D01*
X0039792000Y0003671429D01*
X0039792000Y0003842857D01*
G37*
G36*
X0039360000Y0003671429D02*
X0039504000Y0003671429D01*
X0039504000Y0003500000D01*
X0039360000Y0003500000D01*
X0039360000Y0003671429D01*
G37*
G36*
X0039936000Y0003671429D02*
X0040080000Y0003671429D01*
X0040080000Y0003500000D01*
X0039936000Y0003500000D01*
X0039936000Y0003671429D01*
G37*
G04 TEXT 12V IN*
G36*
X0003300000Y0040808000D02*
X0003300000Y0040712000D01*
X0003185714Y0040712000D01*
X0003185714Y0040808000D01*
X0003300000Y0040808000D01*
G37*
G36*
X0003185714Y0040904000D02*
X0003185714Y0040808000D01*
X0003071429Y0040808000D01*
X0003071429Y0040904000D01*
X0003185714Y0040904000D01*
G37*
G36*
X0003185714Y0040808000D02*
X0003185714Y0040712000D01*
X0003071429Y0040712000D01*
X0003071429Y0040808000D01*
X0003185714Y0040808000D01*
G37*
G36*
X0003071429Y0040808000D02*
X0003071429Y0040712000D01*
X0002957143Y0040712000D01*
X0002957143Y0040808000D01*
X0003071429Y0040808000D01*
G37*
G36*
X0002957143Y0040808000D02*
X0002957143Y0040712000D01*
X0002842857Y0040712000D01*
X0002842857Y0040808000D01*
X0002957143Y0040808000D01*
G37*
G36*
X0002842857Y0040808000D02*
X0002842857Y0040712000D01*
X0002728571Y0040712000D01*
X0002728571Y0040808000D01*
X0002842857Y0040808000D01*
G37*
G36*
X0002728571Y0040808000D02*
X0002728571Y0040712000D01*
X0002614286Y0040712000D01*
X0002614286Y0040808000D01*
X0002728571Y0040808000D01*
G37*
G36*
X0002614286Y0040904000D02*
X0002614286Y0040808000D01*
X0002500000Y0040808000D01*
X0002500000Y0040904000D01*
X0002614286Y0040904000D01*
G37*
G36*
X0002614286Y0040808000D02*
X0002614286Y0040712000D01*
X0002500000Y0040712000D01*
X0002500000Y0040808000D01*
X0002614286Y0040808000D01*
G37*
G36*
X0002614286Y0040712000D02*
X0002614286Y0040616000D01*
X0002500000Y0040616000D01*
X0002500000Y0040712000D01*
X0002614286Y0040712000D01*
G37*
G36*
X0003300000Y0040424000D02*
X0003300000Y0040328000D01*
X0003185714Y0040328000D01*
X0003185714Y0040424000D01*
X0003300000Y0040424000D01*
G37*
G36*
X0003300000Y0040328000D02*
X0003300000Y0040232000D01*
X0003185714Y0040232000D01*
X0003185714Y0040328000D01*
X0003300000Y0040328000D01*
G37*
G36*
X0003300000Y0040232000D02*
X0003300000Y0040136000D01*
X0003185714Y0040136000D01*
X0003185714Y0040232000D01*
X0003300000Y0040232000D01*
G37*
G36*
X0003185714Y0040520000D02*
X0003185714Y0040424000D01*
X0003071429Y0040424000D01*
X0003071429Y0040520000D01*
X0003185714Y0040520000D01*
G37*
G36*
X0003185714Y0040136000D02*
X0003185714Y0040040000D01*
X0003071429Y0040040000D01*
X0003071429Y0040136000D01*
X0003185714Y0040136000D01*
G37*
G36*
X0003071429Y0040136000D02*
X0003071429Y0040040000D01*
X0002957143Y0040040000D01*
X0002957143Y0040136000D01*
X0003071429Y0040136000D01*
G37*
G36*
X0002957143Y0040232000D02*
X0002957143Y0040136000D01*
X0002842857Y0040136000D01*
X0002842857Y0040232000D01*
X0002957143Y0040232000D01*
G37*
G36*
X0002842857Y0040328000D02*
X0002842857Y0040232000D01*
X0002728571Y0040232000D01*
X0002728571Y0040328000D01*
X0002842857Y0040328000D01*
G37*
G36*
X0002728571Y0040424000D02*
X0002728571Y0040328000D01*
X0002614286Y0040328000D01*
X0002614286Y0040424000D01*
X0002728571Y0040424000D01*
G37*
G36*
X0002614286Y0040520000D02*
X0002614286Y0040424000D01*
X0002500000Y0040424000D01*
X0002500000Y0040520000D01*
X0002614286Y0040520000D01*
G37*
G36*
X0002614286Y0040424000D02*
X0002614286Y0040328000D01*
X0002500000Y0040328000D01*
X0002500000Y0040424000D01*
X0002614286Y0040424000D01*
G37*
G36*
X0002614286Y0040328000D02*
X0002614286Y0040232000D01*
X0002500000Y0040232000D01*
X0002500000Y0040328000D01*
X0002614286Y0040328000D01*
G37*
G36*
X0002614286Y0040232000D02*
X0002614286Y0040136000D01*
X0002500000Y0040136000D01*
X0002500000Y0040232000D01*
X0002614286Y0040232000D01*
G37*
G36*
X0002614286Y0040136000D02*
X0002614286Y0040040000D01*
X0002500000Y0040040000D01*
X0002500000Y0040136000D01*
X0002614286Y0040136000D01*
G37*
G36*
X0003300000Y0040040000D02*
X0003300000Y0039944000D01*
X0003185714Y0039944000D01*
X0003185714Y0040040000D01*
X0003300000Y0040040000D01*
G37*
G36*
X0003300000Y0039656000D02*
X0003300000Y0039560000D01*
X0003185714Y0039560000D01*
X0003185714Y0039656000D01*
X0003300000Y0039656000D01*
G37*
G36*
X0003185714Y0040040000D02*
X0003185714Y0039944000D01*
X0003071429Y0039944000D01*
X0003071429Y0040040000D01*
X0003185714Y0040040000D01*
G37*
G36*
X0003185714Y0039656000D02*
X0003185714Y0039560000D01*
X0003071429Y0039560000D01*
X0003071429Y0039656000D01*
X0003185714Y0039656000D01*
G37*
G36*
X0003071429Y0040040000D02*
X0003071429Y0039944000D01*
X0002957143Y0039944000D01*
X0002957143Y0040040000D01*
X0003071429Y0040040000D01*
G37*
G36*
X0003071429Y0039656000D02*
X0003071429Y0039560000D01*
X0002957143Y0039560000D01*
X0002957143Y0039656000D01*
X0003071429Y0039656000D01*
G37*
G36*
X0002957143Y0040040000D02*
X0002957143Y0039944000D01*
X0002842857Y0039944000D01*
X0002842857Y0040040000D01*
X0002957143Y0040040000D01*
G37*
G36*
X0002957143Y0039656000D02*
X0002957143Y0039560000D01*
X0002842857Y0039560000D01*
X0002842857Y0039656000D01*
X0002957143Y0039656000D01*
G37*
G36*
X0002842857Y0040040000D02*
X0002842857Y0039944000D01*
X0002728571Y0039944000D01*
X0002728571Y0040040000D01*
X0002842857Y0040040000D01*
G37*
G36*
X0002842857Y0039656000D02*
X0002842857Y0039560000D01*
X0002728571Y0039560000D01*
X0002728571Y0039656000D01*
X0002842857Y0039656000D01*
G37*
G36*
X0002728571Y0039944000D02*
X0002728571Y0039848000D01*
X0002614286Y0039848000D01*
X0002614286Y0039944000D01*
X0002728571Y0039944000D01*
G37*
G36*
X0002728571Y0039752000D02*
X0002728571Y0039656000D01*
X0002614286Y0039656000D01*
X0002614286Y0039752000D01*
X0002728571Y0039752000D01*
G37*
G36*
X0002614286Y0039848000D02*
X0002614286Y0039752000D01*
X0002500000Y0039752000D01*
X0002500000Y0039848000D01*
X0002614286Y0039848000D01*
G37*
G36*
X0003300000Y0038984000D02*
X0003300000Y0038888000D01*
X0003185714Y0038888000D01*
X0003185714Y0038984000D01*
X0003300000Y0038984000D01*
G37*
G36*
X0003300000Y0038888000D02*
X0003300000Y0038792000D01*
X0003185714Y0038792000D01*
X0003185714Y0038888000D01*
X0003300000Y0038888000D01*
G37*
G36*
X0003300000Y0038792000D02*
X0003300000Y0038696000D01*
X0003185714Y0038696000D01*
X0003185714Y0038792000D01*
X0003300000Y0038792000D01*
G37*
G36*
X0003185714Y0038888000D02*
X0003185714Y0038792000D01*
X0003071429Y0038792000D01*
X0003071429Y0038888000D01*
X0003185714Y0038888000D01*
G37*
G36*
X0003071429Y0038888000D02*
X0003071429Y0038792000D01*
X0002957143Y0038792000D01*
X0002957143Y0038888000D01*
X0003071429Y0038888000D01*
G37*
G36*
X0002957143Y0038888000D02*
X0002957143Y0038792000D01*
X0002842857Y0038792000D01*
X0002842857Y0038888000D01*
X0002957143Y0038888000D01*
G37*
G36*
X0002842857Y0038888000D02*
X0002842857Y0038792000D01*
X0002728571Y0038792000D01*
X0002728571Y0038888000D01*
X0002842857Y0038888000D01*
G37*
G36*
X0002728571Y0038888000D02*
X0002728571Y0038792000D01*
X0002614286Y0038792000D01*
X0002614286Y0038888000D01*
X0002728571Y0038888000D01*
G37*
G36*
X0002614286Y0038984000D02*
X0002614286Y0038888000D01*
X0002500000Y0038888000D01*
X0002500000Y0038984000D01*
X0002614286Y0038984000D01*
G37*
G36*
X0002614286Y0038888000D02*
X0002614286Y0038792000D01*
X0002500000Y0038792000D01*
X0002500000Y0038888000D01*
X0002614286Y0038888000D01*
G37*
G36*
X0002614286Y0038792000D02*
X0002614286Y0038696000D01*
X0002500000Y0038696000D01*
X0002500000Y0038792000D01*
X0002614286Y0038792000D01*
G37*
G36*
X0003300000Y0038600000D02*
X0003300000Y0038504000D01*
X0003185714Y0038504000D01*
X0003185714Y0038600000D01*
X0003300000Y0038600000D01*
G37*
G36*
X0003300000Y0038216000D02*
X0003300000Y0038120000D01*
X0003185714Y0038120000D01*
X0003185714Y0038216000D01*
X0003300000Y0038216000D01*
G37*
G36*
X0003185714Y0038600000D02*
X0003185714Y0038504000D01*
X0003071429Y0038504000D01*
X0003071429Y0038600000D01*
X0003185714Y0038600000D01*
G37*
G36*
X0003185714Y0038504000D02*
X0003185714Y0038408000D01*
X0003071429Y0038408000D01*
X0003071429Y0038504000D01*
X0003185714Y0038504000D01*
G37*
G36*
X0003185714Y0038216000D02*
X0003185714Y0038120000D01*
X0003071429Y0038120000D01*
X0003071429Y0038216000D01*
X0003185714Y0038216000D01*
G37*
G36*
X0003071429Y0038600000D02*
X0003071429Y0038504000D01*
X0002957143Y0038504000D01*
X0002957143Y0038600000D01*
X0003071429Y0038600000D01*
G37*
G36*
X0003071429Y0038408000D02*
X0003071429Y0038312000D01*
X0002957143Y0038312000D01*
X0002957143Y0038408000D01*
X0003071429Y0038408000D01*
G37*
G36*
X0003071429Y0038216000D02*
X0003071429Y0038120000D01*
X0002957143Y0038120000D01*
X0002957143Y0038216000D01*
X0003071429Y0038216000D01*
G37*
G36*
X0002957143Y0038600000D02*
X0002957143Y0038504000D01*
X0002842857Y0038504000D01*
X0002842857Y0038600000D01*
X0002957143Y0038600000D01*
G37*
G36*
X0002957143Y0038312000D02*
X0002957143Y0038216000D01*
X0002842857Y0038216000D01*
X0002842857Y0038312000D01*
X0002957143Y0038312000D01*
G37*
G36*
X0002957143Y0038216000D02*
X0002957143Y0038120000D01*
X0002842857Y0038120000D01*
X0002842857Y0038216000D01*
X0002957143Y0038216000D01*
G37*
G36*
X0002842857Y0038600000D02*
X0002842857Y0038504000D01*
X0002728571Y0038504000D01*
X0002728571Y0038600000D01*
X0002842857Y0038600000D01*
G37*
G36*
X0002842857Y0038216000D02*
X0002842857Y0038120000D01*
X0002728571Y0038120000D01*
X0002728571Y0038216000D01*
X0002842857Y0038216000D01*
G37*
G36*
X0002728571Y0038600000D02*
X0002728571Y0038504000D01*
X0002614286Y0038504000D01*
X0002614286Y0038600000D01*
X0002728571Y0038600000D01*
G37*
G36*
X0002728571Y0038216000D02*
X0002728571Y0038120000D01*
X0002614286Y0038120000D01*
X0002614286Y0038216000D01*
X0002728571Y0038216000D01*
G37*
G36*
X0002614286Y0038600000D02*
X0002614286Y0038504000D01*
X0002500000Y0038504000D01*
X0002500000Y0038600000D01*
X0002614286Y0038600000D01*
G37*
G36*
X0002614286Y0038216000D02*
X0002614286Y0038120000D01*
X0002500000Y0038120000D01*
X0002500000Y0038216000D01*
X0002614286Y0038216000D01*
G37*
G04 TEXT USB*
G36*
X0081000000Y0013300000D02*
X0081096000Y0013300000D01*
X0081096000Y0013185714D01*
X0081000000Y0013185714D01*
X0081000000Y0013300000D01*
G37*
G36*
X0081384000Y0013300000D02*
X0081480000Y0013300000D01*
X0081480000Y0013185714D01*
X0081384000Y0013185714D01*
X0081384000Y0013300000D01*
G37*
G36*
X0081000000Y0013185714D02*
X0081096000Y0013185714D01*
X0081096000Y0013071429D01*
X0081000000Y0013071429D01*
X0081000000Y0013185714D01*
G37*
G36*
X0081384000Y0013185714D02*
X0081480000Y0013185714D01*
X0081480000Y0013071429D01*
X0081384000Y0013071429D01*
X0081384000Y0013185714D01*
G37*
G36*
X0081000000Y0013071429D02*
X0081096000Y0013071429D01*
X0081096000Y0012957143D01*
X0081000000Y0012957143D01*
X0081000000Y0013071429D01*
G37*
G36*
X0081384000Y0013071429D02*
X0081480000Y0013071429D01*
X0081480000Y0012957143D01*
X0081384000Y0012957143D01*
X0081384000Y0013071429D01*
G37*
G36*
X0081000000Y0012957143D02*
X0081096000Y0012957143D01*
X0081096000Y0012842857D01*
X0081000000Y0012842857D01*
X0081000000Y0012957143D01*
G37*
G36*
X0081384000Y0012957143D02*
X0081480000Y0012957143D01*
X0081480000Y0012842857D01*
X0081384000Y0012842857D01*
X0081384000Y0012957143D01*
G37*
G36*
X0081000000Y0012842857D02*
X0081096000Y0012842857D01*
X0081096000Y0012728571D01*
X0081000000Y0012728571D01*
X0081000000Y0012842857D01*
G37*
G36*
X0081384000Y0012842857D02*
X0081480000Y0012842857D01*
X0081480000Y0012728571D01*
X0081384000Y0012728571D01*
X0081384000Y0012842857D01*
G37*
G36*
X0081000000Y0012728571D02*
X0081096000Y0012728571D01*
X0081096000Y0012614286D01*
X0081000000Y0012614286D01*
X0081000000Y0012728571D01*
G37*
G36*
X0081384000Y0012728571D02*
X0081480000Y0012728571D01*
X0081480000Y0012614286D01*
X0081384000Y0012614286D01*
X0081384000Y0012728571D01*
G37*
G36*
X0081096000Y0012614286D02*
X0081192000Y0012614286D01*
X0081192000Y0012500000D01*
X0081096000Y0012500000D01*
X0081096000Y0012614286D01*
G37*
G36*
X0081192000Y0012614286D02*
X0081288000Y0012614286D01*
X0081288000Y0012500000D01*
X0081192000Y0012500000D01*
X0081192000Y0012614286D01*
G37*
G36*
X0081288000Y0012614286D02*
X0081384000Y0012614286D01*
X0081384000Y0012500000D01*
X0081288000Y0012500000D01*
X0081288000Y0012614286D01*
G37*
G36*
X0081576000Y0013300000D02*
X0081672000Y0013300000D01*
X0081672000Y0013185714D01*
X0081576000Y0013185714D01*
X0081576000Y0013300000D01*
G37*
G36*
X0081672000Y0013300000D02*
X0081768000Y0013300000D01*
X0081768000Y0013185714D01*
X0081672000Y0013185714D01*
X0081672000Y0013300000D01*
G37*
G36*
X0081768000Y0013300000D02*
X0081864000Y0013300000D01*
X0081864000Y0013185714D01*
X0081768000Y0013185714D01*
X0081768000Y0013300000D01*
G37*
G36*
X0081864000Y0013300000D02*
X0081960000Y0013300000D01*
X0081960000Y0013185714D01*
X0081864000Y0013185714D01*
X0081864000Y0013300000D01*
G37*
G36*
X0081480000Y0013185714D02*
X0081576000Y0013185714D01*
X0081576000Y0013071429D01*
X0081480000Y0013071429D01*
X0081480000Y0013185714D01*
G37*
G36*
X0081480000Y0013071429D02*
X0081576000Y0013071429D01*
X0081576000Y0012957143D01*
X0081480000Y0012957143D01*
X0081480000Y0013071429D01*
G37*
G36*
X0081576000Y0012957143D02*
X0081672000Y0012957143D01*
X0081672000Y0012842857D01*
X0081576000Y0012842857D01*
X0081576000Y0012957143D01*
G37*
G36*
X0081672000Y0012957143D02*
X0081768000Y0012957143D01*
X0081768000Y0012842857D01*
X0081672000Y0012842857D01*
X0081672000Y0012957143D01*
G37*
G36*
X0081768000Y0012957143D02*
X0081864000Y0012957143D01*
X0081864000Y0012842857D01*
X0081768000Y0012842857D01*
X0081768000Y0012957143D01*
G37*
G36*
X0081864000Y0012842857D02*
X0081960000Y0012842857D01*
X0081960000Y0012728571D01*
X0081864000Y0012728571D01*
X0081864000Y0012842857D01*
G37*
G36*
X0081864000Y0012728571D02*
X0081960000Y0012728571D01*
X0081960000Y0012614286D01*
X0081864000Y0012614286D01*
X0081864000Y0012728571D01*
G37*
G36*
X0081480000Y0012614286D02*
X0081576000Y0012614286D01*
X0081576000Y0012500000D01*
X0081480000Y0012500000D01*
X0081480000Y0012614286D01*
G37*
G36*
X0081576000Y0012614286D02*
X0081672000Y0012614286D01*
X0081672000Y0012500000D01*
X0081576000Y0012500000D01*
X0081576000Y0012614286D01*
G37*
G36*
X0081672000Y0012614286D02*
X0081768000Y0012614286D01*
X0081768000Y0012500000D01*
X0081672000Y0012500000D01*
X0081672000Y0012614286D01*
G37*
G36*
X0081768000Y0012614286D02*
X0081864000Y0012614286D01*
X0081864000Y0012500000D01*
X0081768000Y0012500000D01*
X0081768000Y0012614286D01*
G37*
G36*
X0081960000Y0013300000D02*
X0082056000Y0013300000D01*
X0082056000Y0013185714D01*
X0081960000Y0013185714D01*
X0081960000Y0013300000D01*
G37*
G36*
X0082056000Y0013300000D02*
X0082152000Y0013300000D01*
X0082152000Y0013185714D01*
X0082056000Y0013185714D01*
X0082056000Y0013300000D01*
G37*
G36*
X0082152000Y0013300000D02*
X0082248000Y0013300000D01*
X0082248000Y0013185714D01*
X0082152000Y0013185714D01*
X0082152000Y0013300000D01*
G37*
G36*
X0082248000Y0013300000D02*
X0082344000Y0013300000D01*
X0082344000Y0013185714D01*
X0082248000Y0013185714D01*
X0082248000Y0013300000D01*
G37*
G36*
X0081960000Y0013185714D02*
X0082056000Y0013185714D01*
X0082056000Y0013071429D01*
X0081960000Y0013071429D01*
X0081960000Y0013185714D01*
G37*
G36*
X0082344000Y0013185714D02*
X0082440000Y0013185714D01*
X0082440000Y0013071429D01*
X0082344000Y0013071429D01*
X0082344000Y0013185714D01*
G37*
G36*
X0081960000Y0013071429D02*
X0082056000Y0013071429D01*
X0082056000Y0012957143D01*
X0081960000Y0012957143D01*
X0081960000Y0013071429D01*
G37*
G36*
X0082344000Y0013071429D02*
X0082440000Y0013071429D01*
X0082440000Y0012957143D01*
X0082344000Y0012957143D01*
X0082344000Y0013071429D01*
G37*
G36*
X0081960000Y0012957143D02*
X0082056000Y0012957143D01*
X0082056000Y0012842857D01*
X0081960000Y0012842857D01*
X0081960000Y0012957143D01*
G37*
G36*
X0082056000Y0012957143D02*
X0082152000Y0012957143D01*
X0082152000Y0012842857D01*
X0082056000Y0012842857D01*
X0082056000Y0012957143D01*
G37*
G36*
X0082152000Y0012957143D02*
X0082248000Y0012957143D01*
X0082248000Y0012842857D01*
X0082152000Y0012842857D01*
X0082152000Y0012957143D01*
G37*
G36*
X0082248000Y0012957143D02*
X0082344000Y0012957143D01*
X0082344000Y0012842857D01*
X0082248000Y0012842857D01*
X0082248000Y0012957143D01*
G37*
G36*
X0081960000Y0012842857D02*
X0082056000Y0012842857D01*
X0082056000Y0012728571D01*
X0081960000Y0012728571D01*
X0081960000Y0012842857D01*
G37*
G36*
X0082344000Y0012842857D02*
X0082440000Y0012842857D01*
X0082440000Y0012728571D01*
X0082344000Y0012728571D01*
X0082344000Y0012842857D01*
G37*
G36*
X0081960000Y0012728571D02*
X0082056000Y0012728571D01*
X0082056000Y0012614286D01*
X0081960000Y0012614286D01*
X0081960000Y0012728571D01*
G37*
G36*
X0082344000Y0012728571D02*
X0082440000Y0012728571D01*
X0082440000Y0012614286D01*
X0082344000Y0012614286D01*
X0082344000Y0012728571D01*
G37*
G36*
X0081960000Y0012614286D02*
X0082056000Y0012614286D01*
X0082056000Y0012500000D01*
X0081960000Y0012500000D01*
X0081960000Y0012614286D01*
G37*
G36*
X0082056000Y0012614286D02*
X0082152000Y0012614286D01*
X0082152000Y0012500000D01*
X0082056000Y0012500000D01*
X0082056000Y0012614286D01*
G37*
G36*
X0082152000Y0012614286D02*
X0082248000Y0012614286D01*
X0082248000Y0012500000D01*
X0082152000Y0012500000D01*
X0082152000Y0012614286D01*
G37*
G36*
X0082248000Y0012614286D02*
X0082344000Y0012614286D01*
X0082344000Y0012500000D01*
X0082248000Y0012500000D01*
X0082248000Y0012614286D01*
G37*
G04 TEXT SWD*
G36*
X0071096000Y0049300000D02*
X0071192000Y0049300000D01*
X0071192000Y0049185714D01*
X0071096000Y0049185714D01*
X0071096000Y0049300000D01*
G37*
G36*
X0071192000Y0049300000D02*
X0071288000Y0049300000D01*
X0071288000Y0049185714D01*
X0071192000Y0049185714D01*
X0071192000Y0049300000D01*
G37*
G36*
X0071288000Y0049300000D02*
X0071384000Y0049300000D01*
X0071384000Y0049185714D01*
X0071288000Y0049185714D01*
X0071288000Y0049300000D01*
G37*
G36*
X0071384000Y0049300000D02*
X0071480000Y0049300000D01*
X0071480000Y0049185714D01*
X0071384000Y0049185714D01*
X0071384000Y0049300000D01*
G37*
G36*
X0071000000Y0049185714D02*
X0071096000Y0049185714D01*
X0071096000Y0049071429D01*
X0071000000Y0049071429D01*
X0071000000Y0049185714D01*
G37*
G36*
X0071000000Y0049071429D02*
X0071096000Y0049071429D01*
X0071096000Y0048957143D01*
X0071000000Y0048957143D01*
X0071000000Y0049071429D01*
G37*
G36*
X0071096000Y0048957143D02*
X0071192000Y0048957143D01*
X0071192000Y0048842857D01*
X0071096000Y0048842857D01*
X0071096000Y0048957143D01*
G37*
G36*
X0071192000Y0048957143D02*
X0071288000Y0048957143D01*
X0071288000Y0048842857D01*
X0071192000Y0048842857D01*
X0071192000Y0048957143D01*
G37*
G36*
X0071288000Y0048957143D02*
X0071384000Y0048957143D01*
X0071384000Y0048842857D01*
X0071288000Y0048842857D01*
X0071288000Y0048957143D01*
G37*
G36*
X0071384000Y0048842857D02*
X0071480000Y0048842857D01*
X0071480000Y0048728571D01*
X0071384000Y0048728571D01*
X0071384000Y0048842857D01*
G37*
G36*
X0071384000Y0048728571D02*
X0071480000Y0048728571D01*
X0071480000Y0048614286D01*
X0071384000Y0048614286D01*
X0071384000Y0048728571D01*
G37*
G36*
X0071000000Y0048614286D02*
X0071096000Y0048614286D01*
X0071096000Y0048500000D01*
X0071000000Y0048500000D01*
X0071000000Y0048614286D01*
G37*
G36*
X0071096000Y0048614286D02*
X0071192000Y0048614286D01*
X0071192000Y0048500000D01*
X0071096000Y0048500000D01*
X0071096000Y0048614286D01*
G37*
G36*
X0071192000Y0048614286D02*
X0071288000Y0048614286D01*
X0071288000Y0048500000D01*
X0071192000Y0048500000D01*
X0071192000Y0048614286D01*
G37*
G36*
X0071288000Y0048614286D02*
X0071384000Y0048614286D01*
X0071384000Y0048500000D01*
X0071288000Y0048500000D01*
X0071288000Y0048614286D01*
G37*
G36*
X0071480000Y0049300000D02*
X0071576000Y0049300000D01*
X0071576000Y0049185714D01*
X0071480000Y0049185714D01*
X0071480000Y0049300000D01*
G37*
G36*
X0071864000Y0049300000D02*
X0071960000Y0049300000D01*
X0071960000Y0049185714D01*
X0071864000Y0049185714D01*
X0071864000Y0049300000D01*
G37*
G36*
X0071480000Y0049185714D02*
X0071576000Y0049185714D01*
X0071576000Y0049071429D01*
X0071480000Y0049071429D01*
X0071480000Y0049185714D01*
G37*
G36*
X0071864000Y0049185714D02*
X0071960000Y0049185714D01*
X0071960000Y0049071429D01*
X0071864000Y0049071429D01*
X0071864000Y0049185714D01*
G37*
G36*
X0071480000Y0049071429D02*
X0071576000Y0049071429D01*
X0071576000Y0048957143D01*
X0071480000Y0048957143D01*
X0071480000Y0049071429D01*
G37*
G36*
X0071864000Y0049071429D02*
X0071960000Y0049071429D01*
X0071960000Y0048957143D01*
X0071864000Y0048957143D01*
X0071864000Y0049071429D01*
G37*
G36*
X0071480000Y0048957143D02*
X0071576000Y0048957143D01*
X0071576000Y0048842857D01*
X0071480000Y0048842857D01*
X0071480000Y0048957143D01*
G37*
G36*
X0071672000Y0048957143D02*
X0071768000Y0048957143D01*
X0071768000Y0048842857D01*
X0071672000Y0048842857D01*
X0071672000Y0048957143D01*
G37*
G36*
X0071864000Y0048957143D02*
X0071960000Y0048957143D01*
X0071960000Y0048842857D01*
X0071864000Y0048842857D01*
X0071864000Y0048957143D01*
G37*
G36*
X0071480000Y0048842857D02*
X0071576000Y0048842857D01*
X0071576000Y0048728571D01*
X0071480000Y0048728571D01*
X0071480000Y0048842857D01*
G37*
G36*
X0071672000Y0048842857D02*
X0071768000Y0048842857D01*
X0071768000Y0048728571D01*
X0071672000Y0048728571D01*
X0071672000Y0048842857D01*
G37*
G36*
X0071864000Y0048842857D02*
X0071960000Y0048842857D01*
X0071960000Y0048728571D01*
X0071864000Y0048728571D01*
X0071864000Y0048842857D01*
G37*
G36*
X0071480000Y0048728571D02*
X0071576000Y0048728571D01*
X0071576000Y0048614286D01*
X0071480000Y0048614286D01*
X0071480000Y0048728571D01*
G37*
G36*
X0071672000Y0048728571D02*
X0071768000Y0048728571D01*
X0071768000Y0048614286D01*
X0071672000Y0048614286D01*
X0071672000Y0048728571D01*
G37*
G36*
X0071864000Y0048728571D02*
X0071960000Y0048728571D01*
X0071960000Y0048614286D01*
X0071864000Y0048614286D01*
X0071864000Y0048728571D01*
G37*
G36*
X0071576000Y0048614286D02*
X0071672000Y0048614286D01*
X0071672000Y0048500000D01*
X0071576000Y0048500000D01*
X0071576000Y0048614286D01*
G37*
G36*
X0071768000Y0048614286D02*
X0071864000Y0048614286D01*
X0071864000Y0048500000D01*
X0071768000Y0048500000D01*
X0071768000Y0048614286D01*
G37*
G36*
X0071960000Y0049300000D02*
X0072056000Y0049300000D01*
X0072056000Y0049185714D01*
X0071960000Y0049185714D01*
X0071960000Y0049300000D01*
G37*
G36*
X0072056000Y0049300000D02*
X0072152000Y0049300000D01*
X0072152000Y0049185714D01*
X0072056000Y0049185714D01*
X0072056000Y0049300000D01*
G37*
G36*
X0072152000Y0049300000D02*
X0072248000Y0049300000D01*
X0072248000Y0049185714D01*
X0072152000Y0049185714D01*
X0072152000Y0049300000D01*
G37*
G36*
X0072248000Y0049300000D02*
X0072344000Y0049300000D01*
X0072344000Y0049185714D01*
X0072248000Y0049185714D01*
X0072248000Y0049300000D01*
G37*
G36*
X0071960000Y0049185714D02*
X0072056000Y0049185714D01*
X0072056000Y0049071429D01*
X0071960000Y0049071429D01*
X0071960000Y0049185714D01*
G37*
G36*
X0072344000Y0049185714D02*
X0072440000Y0049185714D01*
X0072440000Y0049071429D01*
X0072344000Y0049071429D01*
X0072344000Y0049185714D01*
G37*
G36*
X0071960000Y0049071429D02*
X0072056000Y0049071429D01*
X0072056000Y0048957143D01*
X0071960000Y0048957143D01*
X0071960000Y0049071429D01*
G37*
G36*
X0072344000Y0049071429D02*
X0072440000Y0049071429D01*
X0072440000Y0048957143D01*
X0072344000Y0048957143D01*
X0072344000Y0049071429D01*
G37*
G36*
X0071960000Y0048957143D02*
X0072056000Y0048957143D01*
X0072056000Y0048842857D01*
X0071960000Y0048842857D01*
X0071960000Y0048957143D01*
G37*
G36*
X0072344000Y0048957143D02*
X0072440000Y0048957143D01*
X0072440000Y0048842857D01*
X0072344000Y0048842857D01*
X0072344000Y0048957143D01*
G37*
G36*
X0071960000Y0048842857D02*
X0072056000Y0048842857D01*
X0072056000Y0048728571D01*
X0071960000Y0048728571D01*
X0071960000Y0048842857D01*
G37*
G36*
X0072344000Y0048842857D02*
X0072440000Y0048842857D01*
X0072440000Y0048728571D01*
X0072344000Y0048728571D01*
X0072344000Y0048842857D01*
G37*
G36*
X0071960000Y0048728571D02*
X0072056000Y0048728571D01*
X0072056000Y0048614286D01*
X0071960000Y0048614286D01*
X0071960000Y0048728571D01*
G37*
G36*
X0072344000Y0048728571D02*
X0072440000Y0048728571D01*
X0072440000Y0048614286D01*
X0072344000Y0048614286D01*
X0072344000Y0048728571D01*
G37*
G36*
X0071960000Y0048614286D02*
X0072056000Y0048614286D01*
X0072056000Y0048500000D01*
X0071960000Y0048500000D01*
X0071960000Y0048614286D01*
G37*
G36*
X0072056000Y0048614286D02*
X0072152000Y0048614286D01*
X0072152000Y0048500000D01*
X0072056000Y0048500000D01*
X0072056000Y0048614286D01*
G37*
G36*
X0072152000Y0048614286D02*
X0072248000Y0048614286D01*
X0072248000Y0048500000D01*
X0072152000Y0048500000D01*
X0072152000Y0048614286D01*
G37*
G36*
X0072248000Y0048614286D02*
X0072344000Y0048614286D01*
X0072344000Y0048500000D01*
X0072248000Y0048500000D01*
X0072248000Y0048614286D01*
G37*
G04 TEXT GPIO*
G36*
X0080096000Y0029800000D02*
X0080192000Y0029800000D01*
X0080192000Y0029685714D01*
X0080096000Y0029685714D01*
X0080096000Y0029800000D01*
G37*
G36*
X0080192000Y0029800000D02*
X0080288000Y0029800000D01*
X0080288000Y0029685714D01*
X0080192000Y0029685714D01*
X0080192000Y0029800000D01*
G37*
G36*
X0080288000Y0029800000D02*
X0080384000Y0029800000D01*
X0080384000Y0029685714D01*
X0080288000Y0029685714D01*
X0080288000Y0029800000D01*
G37*
G36*
X0080000000Y0029685714D02*
X0080096000Y0029685714D01*
X0080096000Y0029571429D01*
X0080000000Y0029571429D01*
X0080000000Y0029685714D01*
G37*
G36*
X0080384000Y0029685714D02*
X0080480000Y0029685714D01*
X0080480000Y0029571429D01*
X0080384000Y0029571429D01*
X0080384000Y0029685714D01*
G37*
G36*
X0080000000Y0029571429D02*
X0080096000Y0029571429D01*
X0080096000Y0029457143D01*
X0080000000Y0029457143D01*
X0080000000Y0029571429D01*
G37*
G36*
X0080000000Y0029457143D02*
X0080096000Y0029457143D01*
X0080096000Y0029342857D01*
X0080000000Y0029342857D01*
X0080000000Y0029457143D01*
G37*
G36*
X0080192000Y0029457143D02*
X0080288000Y0029457143D01*
X0080288000Y0029342857D01*
X0080192000Y0029342857D01*
X0080192000Y0029457143D01*
G37*
G36*
X0080288000Y0029457143D02*
X0080384000Y0029457143D01*
X0080384000Y0029342857D01*
X0080288000Y0029342857D01*
X0080288000Y0029457143D01*
G37*
G36*
X0080384000Y0029457143D02*
X0080480000Y0029457143D01*
X0080480000Y0029342857D01*
X0080384000Y0029342857D01*
X0080384000Y0029457143D01*
G37*
G36*
X0080000000Y0029342857D02*
X0080096000Y0029342857D01*
X0080096000Y0029228571D01*
X0080000000Y0029228571D01*
X0080000000Y0029342857D01*
G37*
G36*
X0080384000Y0029342857D02*
X0080480000Y0029342857D01*
X0080480000Y0029228571D01*
X0080384000Y0029228571D01*
X0080384000Y0029342857D01*
G37*
G36*
X0080000000Y0029228571D02*
X0080096000Y0029228571D01*
X0080096000Y0029114286D01*
X0080000000Y0029114286D01*
X0080000000Y0029228571D01*
G37*
G36*
X0080384000Y0029228571D02*
X0080480000Y0029228571D01*
X0080480000Y0029114286D01*
X0080384000Y0029114286D01*
X0080384000Y0029228571D01*
G37*
G36*
X0080096000Y0029114286D02*
X0080192000Y0029114286D01*
X0080192000Y0029000000D01*
X0080096000Y0029000000D01*
X0080096000Y0029114286D01*
G37*
G36*
X0080192000Y0029114286D02*
X0080288000Y0029114286D01*
X0080288000Y0029000000D01*
X0080192000Y0029000000D01*
X0080192000Y0029114286D01*
G37*
G36*
X0080288000Y0029114286D02*
X0080384000Y0029114286D01*
X0080384000Y0029000000D01*
X0080288000Y0029000000D01*
X0080288000Y0029114286D01*
G37*
G36*
X0080480000Y0029800000D02*
X0080576000Y0029800000D01*
X0080576000Y0029685714D01*
X0080480000Y0029685714D01*
X0080480000Y0029800000D01*
G37*
G36*
X0080576000Y0029800000D02*
X0080672000Y0029800000D01*
X0080672000Y0029685714D01*
X0080576000Y0029685714D01*
X0080576000Y0029800000D01*
G37*
G36*
X0080672000Y0029800000D02*
X0080768000Y0029800000D01*
X0080768000Y0029685714D01*
X0080672000Y0029685714D01*
X0080672000Y0029800000D01*
G37*
G36*
X0080768000Y0029800000D02*
X0080864000Y0029800000D01*
X0080864000Y0029685714D01*
X0080768000Y0029685714D01*
X0080768000Y0029800000D01*
G37*
G36*
X0080480000Y0029685714D02*
X0080576000Y0029685714D01*
X0080576000Y0029571429D01*
X0080480000Y0029571429D01*
X0080480000Y0029685714D01*
G37*
G36*
X0080864000Y0029685714D02*
X0080960000Y0029685714D01*
X0080960000Y0029571429D01*
X0080864000Y0029571429D01*
X0080864000Y0029685714D01*
G37*
G36*
X0080480000Y0029571429D02*
X0080576000Y0029571429D01*
X0080576000Y0029457143D01*
X0080480000Y0029457143D01*
X0080480000Y0029571429D01*
G37*
G36*
X0080864000Y0029571429D02*
X0080960000Y0029571429D01*
X0080960000Y0029457143D01*
X0080864000Y0029457143D01*
X0080864000Y0029571429D01*
G37*
G36*
X0080480000Y0029457143D02*
X0080576000Y0029457143D01*
X0080576000Y0029342857D01*
X0080480000Y0029342857D01*
X0080480000Y0029457143D01*
G37*
G36*
X0080576000Y0029457143D02*
X0080672000Y0029457143D01*
X0080672000Y0029342857D01*
X0080576000Y0029342857D01*
X0080576000Y0029457143D01*
G37*
G36*
X0080672000Y0029457143D02*
X0080768000Y0029457143D01*
X0080768000Y0029342857D01*
X0080672000Y0029342857D01*
X0080672000Y0029457143D01*
G37*
G36*
X0080768000Y0029457143D02*
X0080864000Y0029457143D01*
X0080864000Y0029342857D01*
X0080768000Y0029342857D01*
X0080768000Y0029457143D01*
G37*
G36*
X0080480000Y0029342857D02*
X0080576000Y0029342857D01*
X0080576000Y0029228571D01*
X0080480000Y0029228571D01*
X0080480000Y0029342857D01*
G37*
G36*
X0080480000Y0029228571D02*
X0080576000Y0029228571D01*
X0080576000Y0029114286D01*
X0080480000Y0029114286D01*
X0080480000Y0029228571D01*
G37*
G36*
X0080480000Y0029114286D02*
X0080576000Y0029114286D01*
X0080576000Y0029000000D01*
X0080480000Y0029000000D01*
X0080480000Y0029114286D01*
G37*
G36*
X0081056000Y0029800000D02*
X0081152000Y0029800000D01*
X0081152000Y0029685714D01*
X0081056000Y0029685714D01*
X0081056000Y0029800000D01*
G37*
G36*
X0081152000Y0029800000D02*
X0081248000Y0029800000D01*
X0081248000Y0029685714D01*
X0081152000Y0029685714D01*
X0081152000Y0029800000D01*
G37*
G36*
X0081248000Y0029800000D02*
X0081344000Y0029800000D01*
X0081344000Y0029685714D01*
X0081248000Y0029685714D01*
X0081248000Y0029800000D01*
G37*
G36*
X0081152000Y0029685714D02*
X0081248000Y0029685714D01*
X0081248000Y0029571429D01*
X0081152000Y0029571429D01*
X0081152000Y0029685714D01*
G37*
G36*
X0081152000Y0029571429D02*
X0081248000Y0029571429D01*
X0081248000Y0029457143D01*
X0081152000Y0029457143D01*
X0081152000Y0029571429D01*
G37*
G36*
X0081152000Y0029457143D02*
X0081248000Y0029457143D01*
X0081248000Y0029342857D01*
X0081152000Y0029342857D01*
X0081152000Y0029457143D01*
G37*
G36*
X0081152000Y0029342857D02*
X0081248000Y0029342857D01*
X0081248000Y0029228571D01*
X0081152000Y0029228571D01*
X0081152000Y0029342857D01*
G37*
G36*
X0081152000Y0029228571D02*
X0081248000Y0029228571D01*
X0081248000Y0029114286D01*
X0081152000Y0029114286D01*
X0081152000Y0029228571D01*
G37*
G36*
X0081056000Y0029114286D02*
X0081152000Y0029114286D01*
X0081152000Y0029000000D01*
X0081056000Y0029000000D01*
X0081056000Y0029114286D01*
G37*
G36*
X0081152000Y0029114286D02*
X0081248000Y0029114286D01*
X0081248000Y0029000000D01*
X0081152000Y0029000000D01*
X0081152000Y0029114286D01*
G37*
G36*
X0081248000Y0029114286D02*
X0081344000Y0029114286D01*
X0081344000Y0029000000D01*
X0081248000Y0029000000D01*
X0081248000Y0029114286D01*
G37*
G36*
X0081536000Y0029800000D02*
X0081632000Y0029800000D01*
X0081632000Y0029685714D01*
X0081536000Y0029685714D01*
X0081536000Y0029800000D01*
G37*
G36*
X0081632000Y0029800000D02*
X0081728000Y0029800000D01*
X0081728000Y0029685714D01*
X0081632000Y0029685714D01*
X0081632000Y0029800000D01*
G37*
G36*
X0081728000Y0029800000D02*
X0081824000Y0029800000D01*
X0081824000Y0029685714D01*
X0081728000Y0029685714D01*
X0081728000Y0029800000D01*
G37*
G36*
X0081440000Y0029685714D02*
X0081536000Y0029685714D01*
X0081536000Y0029571429D01*
X0081440000Y0029571429D01*
X0081440000Y0029685714D01*
G37*
G36*
X0081824000Y0029685714D02*
X0081920000Y0029685714D01*
X0081920000Y0029571429D01*
X0081824000Y0029571429D01*
X0081824000Y0029685714D01*
G37*
G36*
X0081440000Y0029571429D02*
X0081536000Y0029571429D01*
X0081536000Y0029457143D01*
X0081440000Y0029457143D01*
X0081440000Y0029571429D01*
G37*
G36*
X0081824000Y0029571429D02*
X0081920000Y0029571429D01*
X0081920000Y0029457143D01*
X0081824000Y0029457143D01*
X0081824000Y0029571429D01*
G37*
G36*
X0081440000Y0029457143D02*
X0081536000Y0029457143D01*
X0081536000Y0029342857D01*
X0081440000Y0029342857D01*
X0081440000Y0029457143D01*
G37*
G36*
X0081824000Y0029457143D02*
X0081920000Y0029457143D01*
X0081920000Y0029342857D01*
X0081824000Y0029342857D01*
X0081824000Y0029457143D01*
G37*
G36*
X0081440000Y0029342857D02*
X0081536000Y0029342857D01*
X0081536000Y0029228571D01*
X0081440000Y0029228571D01*
X0081440000Y0029342857D01*
G37*
G36*
X0081824000Y0029342857D02*
X0081920000Y0029342857D01*
X0081920000Y0029228571D01*
X0081824000Y0029228571D01*
X0081824000Y0029342857D01*
G37*
G36*
X0081440000Y0029228571D02*
X0081536000Y0029228571D01*
X0081536000Y0029114286D01*
X0081440000Y0029114286D01*
X0081440000Y0029228571D01*
G37*
G36*
X0081824000Y0029228571D02*
X0081920000Y0029228571D01*
X0081920000Y0029114286D01*
X0081824000Y0029114286D01*
X0081824000Y0029228571D01*
G37*
G36*
X0081536000Y0029114286D02*
X0081632000Y0029114286D01*
X0081632000Y0029000000D01*
X0081536000Y0029000000D01*
X0081536000Y0029114286D01*
G37*
G36*
X0081632000Y0029114286D02*
X0081728000Y0029114286D01*
X0081728000Y0029000000D01*
X0081632000Y0029000000D01*
X0081632000Y0029114286D01*
G37*
G36*
X0081728000Y0029114286D02*
X0081824000Y0029114286D01*
X0081824000Y0029000000D01*
X0081728000Y0029000000D01*
X0081728000Y0029114286D01*
G37*
G04 TEXT +3V3*
G36*
X0047168000Y0039600000D02*
X0047252000Y0039600000D01*
X0047252000Y0039500000D01*
X0047168000Y0039500000D01*
X0047168000Y0039600000D01*
G37*
G36*
X0047168000Y0039500000D02*
X0047252000Y0039500000D01*
X0047252000Y0039400000D01*
X0047168000Y0039400000D01*
X0047168000Y0039500000D01*
G37*
G36*
X0047000000Y0039400000D02*
X0047084000Y0039400000D01*
X0047084000Y0039300000D01*
X0047000000Y0039300000D01*
X0047000000Y0039400000D01*
G37*
G36*
X0047084000Y0039400000D02*
X0047168000Y0039400000D01*
X0047168000Y0039300000D01*
X0047084000Y0039300000D01*
X0047084000Y0039400000D01*
G37*
G36*
X0047168000Y0039400000D02*
X0047252000Y0039400000D01*
X0047252000Y0039300000D01*
X0047168000Y0039300000D01*
X0047168000Y0039400000D01*
G37*
G36*
X0047252000Y0039400000D02*
X0047336000Y0039400000D01*
X0047336000Y0039300000D01*
X0047252000Y0039300000D01*
X0047252000Y0039400000D01*
G37*
G36*
X0047336000Y0039400000D02*
X0047420000Y0039400000D01*
X0047420000Y0039300000D01*
X0047336000Y0039300000D01*
X0047336000Y0039400000D01*
G37*
G36*
X0047168000Y0039300000D02*
X0047252000Y0039300000D01*
X0047252000Y0039200000D01*
X0047168000Y0039200000D01*
X0047168000Y0039300000D01*
G37*
G36*
X0047168000Y0039200000D02*
X0047252000Y0039200000D01*
X0047252000Y0039100000D01*
X0047168000Y0039100000D01*
X0047168000Y0039200000D01*
G37*
G36*
X0047420000Y0039700000D02*
X0047504000Y0039700000D01*
X0047504000Y0039600000D01*
X0047420000Y0039600000D01*
X0047420000Y0039700000D01*
G37*
G36*
X0047504000Y0039700000D02*
X0047588000Y0039700000D01*
X0047588000Y0039600000D01*
X0047504000Y0039600000D01*
X0047504000Y0039700000D01*
G37*
G36*
X0047588000Y0039700000D02*
X0047672000Y0039700000D01*
X0047672000Y0039600000D01*
X0047588000Y0039600000D01*
X0047588000Y0039700000D01*
G37*
G36*
X0047672000Y0039700000D02*
X0047756000Y0039700000D01*
X0047756000Y0039600000D01*
X0047672000Y0039600000D01*
X0047672000Y0039700000D01*
G37*
G36*
X0047756000Y0039600000D02*
X0047840000Y0039600000D01*
X0047840000Y0039500000D01*
X0047756000Y0039500000D01*
X0047756000Y0039600000D01*
G37*
G36*
X0047756000Y0039500000D02*
X0047840000Y0039500000D01*
X0047840000Y0039400000D01*
X0047756000Y0039400000D01*
X0047756000Y0039500000D01*
G37*
G36*
X0047504000Y0039400000D02*
X0047588000Y0039400000D01*
X0047588000Y0039300000D01*
X0047504000Y0039300000D01*
X0047504000Y0039400000D01*
G37*
G36*
X0047588000Y0039400000D02*
X0047672000Y0039400000D01*
X0047672000Y0039300000D01*
X0047588000Y0039300000D01*
X0047588000Y0039400000D01*
G37*
G36*
X0047672000Y0039400000D02*
X0047756000Y0039400000D01*
X0047756000Y0039300000D01*
X0047672000Y0039300000D01*
X0047672000Y0039400000D01*
G37*
G36*
X0047756000Y0039300000D02*
X0047840000Y0039300000D01*
X0047840000Y0039200000D01*
X0047756000Y0039200000D01*
X0047756000Y0039300000D01*
G37*
G36*
X0047756000Y0039200000D02*
X0047840000Y0039200000D01*
X0047840000Y0039100000D01*
X0047756000Y0039100000D01*
X0047756000Y0039200000D01*
G37*
G36*
X0047420000Y0039100000D02*
X0047504000Y0039100000D01*
X0047504000Y0039000000D01*
X0047420000Y0039000000D01*
X0047420000Y0039100000D01*
G37*
G36*
X0047504000Y0039100000D02*
X0047588000Y0039100000D01*
X0047588000Y0039000000D01*
X0047504000Y0039000000D01*
X0047504000Y0039100000D01*
G37*
G36*
X0047588000Y0039100000D02*
X0047672000Y0039100000D01*
X0047672000Y0039000000D01*
X0047588000Y0039000000D01*
X0047588000Y0039100000D01*
G37*
G36*
X0047672000Y0039100000D02*
X0047756000Y0039100000D01*
X0047756000Y0039000000D01*
X0047672000Y0039000000D01*
X0047672000Y0039100000D01*
G37*
G36*
X0047840000Y0039700000D02*
X0047924000Y0039700000D01*
X0047924000Y0039600000D01*
X0047840000Y0039600000D01*
X0047840000Y0039700000D01*
G37*
G36*
X0048176000Y0039700000D02*
X0048260000Y0039700000D01*
X0048260000Y0039600000D01*
X0048176000Y0039600000D01*
X0048176000Y0039700000D01*
G37*
G36*
X0047840000Y0039600000D02*
X0047924000Y0039600000D01*
X0047924000Y0039500000D01*
X0047840000Y0039500000D01*
X0047840000Y0039600000D01*
G37*
G36*
X0048176000Y0039600000D02*
X0048260000Y0039600000D01*
X0048260000Y0039500000D01*
X0048176000Y0039500000D01*
X0048176000Y0039600000D01*
G37*
G36*
X0047840000Y0039500000D02*
X0047924000Y0039500000D01*
X0047924000Y0039400000D01*
X0047840000Y0039400000D01*
X0047840000Y0039500000D01*
G37*
G36*
X0048176000Y0039500000D02*
X0048260000Y0039500000D01*
X0048260000Y0039400000D01*
X0048176000Y0039400000D01*
X0048176000Y0039500000D01*
G37*
G36*
X0047840000Y0039400000D02*
X0047924000Y0039400000D01*
X0047924000Y0039300000D01*
X0047840000Y0039300000D01*
X0047840000Y0039400000D01*
G37*
G36*
X0048176000Y0039400000D02*
X0048260000Y0039400000D01*
X0048260000Y0039300000D01*
X0048176000Y0039300000D01*
X0048176000Y0039400000D01*
G37*
G36*
X0047840000Y0039300000D02*
X0047924000Y0039300000D01*
X0047924000Y0039200000D01*
X0047840000Y0039200000D01*
X0047840000Y0039300000D01*
G37*
G36*
X0048176000Y0039300000D02*
X0048260000Y0039300000D01*
X0048260000Y0039200000D01*
X0048176000Y0039200000D01*
X0048176000Y0039300000D01*
G37*
G36*
X0047924000Y0039200000D02*
X0048008000Y0039200000D01*
X0048008000Y0039100000D01*
X0047924000Y0039100000D01*
X0047924000Y0039200000D01*
G37*
G36*
X0048092000Y0039200000D02*
X0048176000Y0039200000D01*
X0048176000Y0039100000D01*
X0048092000Y0039100000D01*
X0048092000Y0039200000D01*
G37*
G36*
X0048008000Y0039100000D02*
X0048092000Y0039100000D01*
X0048092000Y0039000000D01*
X0048008000Y0039000000D01*
X0048008000Y0039100000D01*
G37*
G36*
X0048260000Y0039700000D02*
X0048344000Y0039700000D01*
X0048344000Y0039600000D01*
X0048260000Y0039600000D01*
X0048260000Y0039700000D01*
G37*
G36*
X0048344000Y0039700000D02*
X0048428000Y0039700000D01*
X0048428000Y0039600000D01*
X0048344000Y0039600000D01*
X0048344000Y0039700000D01*
G37*
G36*
X0048428000Y0039700000D02*
X0048512000Y0039700000D01*
X0048512000Y0039600000D01*
X0048428000Y0039600000D01*
X0048428000Y0039700000D01*
G37*
G36*
X0048512000Y0039700000D02*
X0048596000Y0039700000D01*
X0048596000Y0039600000D01*
X0048512000Y0039600000D01*
X0048512000Y0039700000D01*
G37*
G36*
X0048596000Y0039600000D02*
X0048680000Y0039600000D01*
X0048680000Y0039500000D01*
X0048596000Y0039500000D01*
X0048596000Y0039600000D01*
G37*
G36*
X0048596000Y0039500000D02*
X0048680000Y0039500000D01*
X0048680000Y0039400000D01*
X0048596000Y0039400000D01*
X0048596000Y0039500000D01*
G37*
G36*
X0048344000Y0039400000D02*
X0048428000Y0039400000D01*
X0048428000Y0039300000D01*
X0048344000Y0039300000D01*
X0048344000Y0039400000D01*
G37*
G36*
X0048428000Y0039400000D02*
X0048512000Y0039400000D01*
X0048512000Y0039300000D01*
X0048428000Y0039300000D01*
X0048428000Y0039400000D01*
G37*
G36*
X0048512000Y0039400000D02*
X0048596000Y0039400000D01*
X0048596000Y0039300000D01*
X0048512000Y0039300000D01*
X0048512000Y0039400000D01*
G37*
G36*
X0048596000Y0039300000D02*
X0048680000Y0039300000D01*
X0048680000Y0039200000D01*
X0048596000Y0039200000D01*
X0048596000Y0039300000D01*
G37*
G36*
X0048596000Y0039200000D02*
X0048680000Y0039200000D01*
X0048680000Y0039100000D01*
X0048596000Y0039100000D01*
X0048596000Y0039200000D01*
G37*
G36*
X0048260000Y0039100000D02*
X0048344000Y0039100000D01*
X0048344000Y0039000000D01*
X0048260000Y0039000000D01*
X0048260000Y0039100000D01*
G37*
G36*
X0048344000Y0039100000D02*
X0048428000Y0039100000D01*
X0048428000Y0039000000D01*
X0048344000Y0039000000D01*
X0048344000Y0039100000D01*
G37*
G36*
X0048428000Y0039100000D02*
X0048512000Y0039100000D01*
X0048512000Y0039000000D01*
X0048428000Y0039000000D01*
X0048428000Y0039100000D01*
G37*
G36*
X0048512000Y0039100000D02*
X0048596000Y0039100000D01*
X0048596000Y0039000000D01*
X0048512000Y0039000000D01*
X0048512000Y0039100000D01*
G37*
G04 TEXT VDDA*
G36*
X0032000000Y0033200000D02*
X0032084000Y0033200000D01*
X0032084000Y0033100000D01*
X0032000000Y0033100000D01*
X0032000000Y0033200000D01*
G37*
G36*
X0032336000Y0033200000D02*
X0032420000Y0033200000D01*
X0032420000Y0033100000D01*
X0032336000Y0033100000D01*
X0032336000Y0033200000D01*
G37*
G36*
X0032000000Y0033100000D02*
X0032084000Y0033100000D01*
X0032084000Y0033000000D01*
X0032000000Y0033000000D01*
X0032000000Y0033100000D01*
G37*
G36*
X0032336000Y0033100000D02*
X0032420000Y0033100000D01*
X0032420000Y0033000000D01*
X0032336000Y0033000000D01*
X0032336000Y0033100000D01*
G37*
G36*
X0032000000Y0033000000D02*
X0032084000Y0033000000D01*
X0032084000Y0032900000D01*
X0032000000Y0032900000D01*
X0032000000Y0033000000D01*
G37*
G36*
X0032336000Y0033000000D02*
X0032420000Y0033000000D01*
X0032420000Y0032900000D01*
X0032336000Y0032900000D01*
X0032336000Y0033000000D01*
G37*
G36*
X0032000000Y0032900000D02*
X0032084000Y0032900000D01*
X0032084000Y0032800000D01*
X0032000000Y0032800000D01*
X0032000000Y0032900000D01*
G37*
G36*
X0032336000Y0032900000D02*
X0032420000Y0032900000D01*
X0032420000Y0032800000D01*
X0032336000Y0032800000D01*
X0032336000Y0032900000D01*
G37*
G36*
X0032000000Y0032800000D02*
X0032084000Y0032800000D01*
X0032084000Y0032700000D01*
X0032000000Y0032700000D01*
X0032000000Y0032800000D01*
G37*
G36*
X0032336000Y0032800000D02*
X0032420000Y0032800000D01*
X0032420000Y0032700000D01*
X0032336000Y0032700000D01*
X0032336000Y0032800000D01*
G37*
G36*
X0032084000Y0032700000D02*
X0032168000Y0032700000D01*
X0032168000Y0032600000D01*
X0032084000Y0032600000D01*
X0032084000Y0032700000D01*
G37*
G36*
X0032252000Y0032700000D02*
X0032336000Y0032700000D01*
X0032336000Y0032600000D01*
X0032252000Y0032600000D01*
X0032252000Y0032700000D01*
G37*
G36*
X0032168000Y0032600000D02*
X0032252000Y0032600000D01*
X0032252000Y0032500000D01*
X0032168000Y0032500000D01*
X0032168000Y0032600000D01*
G37*
G36*
X0032420000Y0033200000D02*
X0032504000Y0033200000D01*
X0032504000Y0033100000D01*
X0032420000Y0033100000D01*
X0032420000Y0033200000D01*
G37*
G36*
X0032504000Y0033200000D02*
X0032588000Y0033200000D01*
X0032588000Y0033100000D01*
X0032504000Y0033100000D01*
X0032504000Y0033200000D01*
G37*
G36*
X0032588000Y0033200000D02*
X0032672000Y0033200000D01*
X0032672000Y0033100000D01*
X0032588000Y0033100000D01*
X0032588000Y0033200000D01*
G37*
G36*
X0032672000Y0033200000D02*
X0032756000Y0033200000D01*
X0032756000Y0033100000D01*
X0032672000Y0033100000D01*
X0032672000Y0033200000D01*
G37*
G36*
X0032420000Y0033100000D02*
X0032504000Y0033100000D01*
X0032504000Y0033000000D01*
X0032420000Y0033000000D01*
X0032420000Y0033100000D01*
G37*
G36*
X0032756000Y0033100000D02*
X0032840000Y0033100000D01*
X0032840000Y0033000000D01*
X0032756000Y0033000000D01*
X0032756000Y0033100000D01*
G37*
G36*
X0032420000Y0033000000D02*
X0032504000Y0033000000D01*
X0032504000Y0032900000D01*
X0032420000Y0032900000D01*
X0032420000Y0033000000D01*
G37*
G36*
X0032756000Y0033000000D02*
X0032840000Y0033000000D01*
X0032840000Y0032900000D01*
X0032756000Y0032900000D01*
X0032756000Y0033000000D01*
G37*
G36*
X0032420000Y0032900000D02*
X0032504000Y0032900000D01*
X0032504000Y0032800000D01*
X0032420000Y0032800000D01*
X0032420000Y0032900000D01*
G37*
G36*
X0032756000Y0032900000D02*
X0032840000Y0032900000D01*
X0032840000Y0032800000D01*
X0032756000Y0032800000D01*
X0032756000Y0032900000D01*
G37*
G36*
X0032420000Y0032800000D02*
X0032504000Y0032800000D01*
X0032504000Y0032700000D01*
X0032420000Y0032700000D01*
X0032420000Y0032800000D01*
G37*
G36*
X0032756000Y0032800000D02*
X0032840000Y0032800000D01*
X0032840000Y0032700000D01*
X0032756000Y0032700000D01*
X0032756000Y0032800000D01*
G37*
G36*
X0032420000Y0032700000D02*
X0032504000Y0032700000D01*
X0032504000Y0032600000D01*
X0032420000Y0032600000D01*
X0032420000Y0032700000D01*
G37*
G36*
X0032756000Y0032700000D02*
X0032840000Y0032700000D01*
X0032840000Y0032600000D01*
X0032756000Y0032600000D01*
X0032756000Y0032700000D01*
G37*
G36*
X0032420000Y0032600000D02*
X0032504000Y0032600000D01*
X0032504000Y0032500000D01*
X0032420000Y0032500000D01*
X0032420000Y0032600000D01*
G37*
G36*
X0032504000Y0032600000D02*
X0032588000Y0032600000D01*
X0032588000Y0032500000D01*
X0032504000Y0032500000D01*
X0032504000Y0032600000D01*
G37*
G36*
X0032588000Y0032600000D02*
X0032672000Y0032600000D01*
X0032672000Y0032500000D01*
X0032588000Y0032500000D01*
X0032588000Y0032600000D01*
G37*
G36*
X0032672000Y0032600000D02*
X0032756000Y0032600000D01*
X0032756000Y0032500000D01*
X0032672000Y0032500000D01*
X0032672000Y0032600000D01*
G37*
G36*
X0032840000Y0033200000D02*
X0032924000Y0033200000D01*
X0032924000Y0033100000D01*
X0032840000Y0033100000D01*
X0032840000Y0033200000D01*
G37*
G36*
X0032924000Y0033200000D02*
X0033008000Y0033200000D01*
X0033008000Y0033100000D01*
X0032924000Y0033100000D01*
X0032924000Y0033200000D01*
G37*
G36*
X0033008000Y0033200000D02*
X0033092000Y0033200000D01*
X0033092000Y0033100000D01*
X0033008000Y0033100000D01*
X0033008000Y0033200000D01*
G37*
G36*
X0033092000Y0033200000D02*
X0033176000Y0033200000D01*
X0033176000Y0033100000D01*
X0033092000Y0033100000D01*
X0033092000Y0033200000D01*
G37*
G36*
X0032840000Y0033100000D02*
X0032924000Y0033100000D01*
X0032924000Y0033000000D01*
X0032840000Y0033000000D01*
X0032840000Y0033100000D01*
G37*
G36*
X0033176000Y0033100000D02*
X0033260000Y0033100000D01*
X0033260000Y0033000000D01*
X0033176000Y0033000000D01*
X0033176000Y0033100000D01*
G37*
G36*
X0032840000Y0033000000D02*
X0032924000Y0033000000D01*
X0032924000Y0032900000D01*
X0032840000Y0032900000D01*
X0032840000Y0033000000D01*
G37*
G36*
X0033176000Y0033000000D02*
X0033260000Y0033000000D01*
X0033260000Y0032900000D01*
X0033176000Y0032900000D01*
X0033176000Y0033000000D01*
G37*
G36*
X0032840000Y0032900000D02*
X0032924000Y0032900000D01*
X0032924000Y0032800000D01*
X0032840000Y0032800000D01*
X0032840000Y0032900000D01*
G37*
G36*
X0033176000Y0032900000D02*
X0033260000Y0032900000D01*
X0033260000Y0032800000D01*
X0033176000Y0032800000D01*
X0033176000Y0032900000D01*
G37*
G36*
X0032840000Y0032800000D02*
X0032924000Y0032800000D01*
X0032924000Y0032700000D01*
X0032840000Y0032700000D01*
X0032840000Y0032800000D01*
G37*
G36*
X0033176000Y0032800000D02*
X0033260000Y0032800000D01*
X0033260000Y0032700000D01*
X0033176000Y0032700000D01*
X0033176000Y0032800000D01*
G37*
G36*
X0032840000Y0032700000D02*
X0032924000Y0032700000D01*
X0032924000Y0032600000D01*
X0032840000Y0032600000D01*
X0032840000Y0032700000D01*
G37*
G36*
X0033176000Y0032700000D02*
X0033260000Y0032700000D01*
X0033260000Y0032600000D01*
X0033176000Y0032600000D01*
X0033176000Y0032700000D01*
G37*
G36*
X0032840000Y0032600000D02*
X0032924000Y0032600000D01*
X0032924000Y0032500000D01*
X0032840000Y0032500000D01*
X0032840000Y0032600000D01*
G37*
G36*
X0032924000Y0032600000D02*
X0033008000Y0032600000D01*
X0033008000Y0032500000D01*
X0032924000Y0032500000D01*
X0032924000Y0032600000D01*
G37*
G36*
X0033008000Y0032600000D02*
X0033092000Y0032600000D01*
X0033092000Y0032500000D01*
X0033008000Y0032500000D01*
X0033008000Y0032600000D01*
G37*
G36*
X0033092000Y0032600000D02*
X0033176000Y0032600000D01*
X0033176000Y0032500000D01*
X0033092000Y0032500000D01*
X0033092000Y0032600000D01*
G37*
G36*
X0033344000Y0033200000D02*
X0033428000Y0033200000D01*
X0033428000Y0033100000D01*
X0033344000Y0033100000D01*
X0033344000Y0033200000D01*
G37*
G36*
X0033428000Y0033200000D02*
X0033512000Y0033200000D01*
X0033512000Y0033100000D01*
X0033428000Y0033100000D01*
X0033428000Y0033200000D01*
G37*
G36*
X0033512000Y0033200000D02*
X0033596000Y0033200000D01*
X0033596000Y0033100000D01*
X0033512000Y0033100000D01*
X0033512000Y0033200000D01*
G37*
G36*
X0033260000Y0033100000D02*
X0033344000Y0033100000D01*
X0033344000Y0033000000D01*
X0033260000Y0033000000D01*
X0033260000Y0033100000D01*
G37*
G36*
X0033596000Y0033100000D02*
X0033680000Y0033100000D01*
X0033680000Y0033000000D01*
X0033596000Y0033000000D01*
X0033596000Y0033100000D01*
G37*
G36*
X0033260000Y0033000000D02*
X0033344000Y0033000000D01*
X0033344000Y0032900000D01*
X0033260000Y0032900000D01*
X0033260000Y0033000000D01*
G37*
G36*
X0033596000Y0033000000D02*
X0033680000Y0033000000D01*
X0033680000Y0032900000D01*
X0033596000Y0032900000D01*
X0033596000Y0033000000D01*
G37*
G36*
X0033260000Y0032900000D02*
X0033344000Y0032900000D01*
X0033344000Y0032800000D01*
X0033260000Y0032800000D01*
X0033260000Y0032900000D01*
G37*
G36*
X0033344000Y0032900000D02*
X0033428000Y0032900000D01*
X0033428000Y0032800000D01*
X0033344000Y0032800000D01*
X0033344000Y0032900000D01*
G37*
G36*
X0033428000Y0032900000D02*
X0033512000Y0032900000D01*
X0033512000Y0032800000D01*
X0033428000Y0032800000D01*
X0033428000Y0032900000D01*
G37*
G36*
X0033512000Y0032900000D02*
X0033596000Y0032900000D01*
X0033596000Y0032800000D01*
X0033512000Y0032800000D01*
X0033512000Y0032900000D01*
G37*
G36*
X0033596000Y0032900000D02*
X0033680000Y0032900000D01*
X0033680000Y0032800000D01*
X0033596000Y0032800000D01*
X0033596000Y0032900000D01*
G37*
G36*
X0033260000Y0032800000D02*
X0033344000Y0032800000D01*
X0033344000Y0032700000D01*
X0033260000Y0032700000D01*
X0033260000Y0032800000D01*
G37*
G36*
X0033596000Y0032800000D02*
X0033680000Y0032800000D01*
X0033680000Y0032700000D01*
X0033596000Y0032700000D01*
X0033596000Y0032800000D01*
G37*
G36*
X0033260000Y0032700000D02*
X0033344000Y0032700000D01*
X0033344000Y0032600000D01*
X0033260000Y0032600000D01*
X0033260000Y0032700000D01*
G37*
G36*
X0033596000Y0032700000D02*
X0033680000Y0032700000D01*
X0033680000Y0032600000D01*
X0033596000Y0032600000D01*
X0033596000Y0032700000D01*
G37*
G36*
X0033260000Y0032600000D02*
X0033344000Y0032600000D01*
X0033344000Y0032500000D01*
X0033260000Y0032500000D01*
X0033260000Y0032600000D01*
G37*
G36*
X0033596000Y0032600000D02*
X0033680000Y0032600000D01*
X0033680000Y0032500000D01*
X0033596000Y0032500000D01*
X0033596000Y0032600000D01*
G37*
G04 TEXT BOOT0*
G36*
X0061000000Y0038200000D02*
X0061084000Y0038200000D01*
X0061084000Y0038100000D01*
X0061000000Y0038100000D01*
X0061000000Y0038200000D01*
G37*
G36*
X0061084000Y0038200000D02*
X0061168000Y0038200000D01*
X0061168000Y0038100000D01*
X0061084000Y0038100000D01*
X0061084000Y0038200000D01*
G37*
G36*
X0061168000Y0038200000D02*
X0061252000Y0038200000D01*
X0061252000Y0038100000D01*
X0061168000Y0038100000D01*
X0061168000Y0038200000D01*
G37*
G36*
X0061252000Y0038200000D02*
X0061336000Y0038200000D01*
X0061336000Y0038100000D01*
X0061252000Y0038100000D01*
X0061252000Y0038200000D01*
G37*
G36*
X0061000000Y0038100000D02*
X0061084000Y0038100000D01*
X0061084000Y0038000000D01*
X0061000000Y0038000000D01*
X0061000000Y0038100000D01*
G37*
G36*
X0061336000Y0038100000D02*
X0061420000Y0038100000D01*
X0061420000Y0038000000D01*
X0061336000Y0038000000D01*
X0061336000Y0038100000D01*
G37*
G36*
X0061000000Y0038000000D02*
X0061084000Y0038000000D01*
X0061084000Y0037900000D01*
X0061000000Y0037900000D01*
X0061000000Y0038000000D01*
G37*
G36*
X0061336000Y0038000000D02*
X0061420000Y0038000000D01*
X0061420000Y0037900000D01*
X0061336000Y0037900000D01*
X0061336000Y0038000000D01*
G37*
G36*
X0061000000Y0037900000D02*
X0061084000Y0037900000D01*
X0061084000Y0037800000D01*
X0061000000Y0037800000D01*
X0061000000Y0037900000D01*
G37*
G36*
X0061084000Y0037900000D02*
X0061168000Y0037900000D01*
X0061168000Y0037800000D01*
X0061084000Y0037800000D01*
X0061084000Y0037900000D01*
G37*
G36*
X0061168000Y0037900000D02*
X0061252000Y0037900000D01*
X0061252000Y0037800000D01*
X0061168000Y0037800000D01*
X0061168000Y0037900000D01*
G37*
G36*
X0061252000Y0037900000D02*
X0061336000Y0037900000D01*
X0061336000Y0037800000D01*
X0061252000Y0037800000D01*
X0061252000Y0037900000D01*
G37*
G36*
X0061000000Y0037800000D02*
X0061084000Y0037800000D01*
X0061084000Y0037700000D01*
X0061000000Y0037700000D01*
X0061000000Y0037800000D01*
G37*
G36*
X0061336000Y0037800000D02*
X0061420000Y0037800000D01*
X0061420000Y0037700000D01*
X0061336000Y0037700000D01*
X0061336000Y0037800000D01*
G37*
G36*
X0061000000Y0037700000D02*
X0061084000Y0037700000D01*
X0061084000Y0037600000D01*
X0061000000Y0037600000D01*
X0061000000Y0037700000D01*
G37*
G36*
X0061336000Y0037700000D02*
X0061420000Y0037700000D01*
X0061420000Y0037600000D01*
X0061336000Y0037600000D01*
X0061336000Y0037700000D01*
G37*
G36*
X0061000000Y0037600000D02*
X0061084000Y0037600000D01*
X0061084000Y0037500000D01*
X0061000000Y0037500000D01*
X0061000000Y0037600000D01*
G37*
G36*
X0061084000Y0037600000D02*
X0061168000Y0037600000D01*
X0061168000Y0037500000D01*
X0061084000Y0037500000D01*
X0061084000Y0037600000D01*
G37*
G36*
X0061168000Y0037600000D02*
X0061252000Y0037600000D01*
X0061252000Y0037500000D01*
X0061168000Y0037500000D01*
X0061168000Y0037600000D01*
G37*
G36*
X0061252000Y0037600000D02*
X0061336000Y0037600000D01*
X0061336000Y0037500000D01*
X0061252000Y0037500000D01*
X0061252000Y0037600000D01*
G37*
G36*
X0061504000Y0038200000D02*
X0061588000Y0038200000D01*
X0061588000Y0038100000D01*
X0061504000Y0038100000D01*
X0061504000Y0038200000D01*
G37*
G36*
X0061588000Y0038200000D02*
X0061672000Y0038200000D01*
X0061672000Y0038100000D01*
X0061588000Y0038100000D01*
X0061588000Y0038200000D01*
G37*
G36*
X0061672000Y0038200000D02*
X0061756000Y0038200000D01*
X0061756000Y0038100000D01*
X0061672000Y0038100000D01*
X0061672000Y0038200000D01*
G37*
G36*
X0061420000Y0038100000D02*
X0061504000Y0038100000D01*
X0061504000Y0038000000D01*
X0061420000Y0038000000D01*
X0061420000Y0038100000D01*
G37*
G36*
X0061756000Y0038100000D02*
X0061840000Y0038100000D01*
X0061840000Y0038000000D01*
X0061756000Y0038000000D01*
X0061756000Y0038100000D01*
G37*
G36*
X0061420000Y0038000000D02*
X0061504000Y0038000000D01*
X0061504000Y0037900000D01*
X0061420000Y0037900000D01*
X0061420000Y0038000000D01*
G37*
G36*
X0061756000Y0038000000D02*
X0061840000Y0038000000D01*
X0061840000Y0037900000D01*
X0061756000Y0037900000D01*
X0061756000Y0038000000D01*
G37*
G36*
X0061420000Y0037900000D02*
X0061504000Y0037900000D01*
X0061504000Y0037800000D01*
X0061420000Y0037800000D01*
X0061420000Y0037900000D01*
G37*
G36*
X0061756000Y0037900000D02*
X0061840000Y0037900000D01*
X0061840000Y0037800000D01*
X0061756000Y0037800000D01*
X0061756000Y0037900000D01*
G37*
G36*
X0061420000Y0037800000D02*
X0061504000Y0037800000D01*
X0061504000Y0037700000D01*
X0061420000Y0037700000D01*
X0061420000Y0037800000D01*
G37*
G36*
X0061756000Y0037800000D02*
X0061840000Y0037800000D01*
X0061840000Y0037700000D01*
X0061756000Y0037700000D01*
X0061756000Y0037800000D01*
G37*
G36*
X0061420000Y0037700000D02*
X0061504000Y0037700000D01*
X0061504000Y0037600000D01*
X0061420000Y0037600000D01*
X0061420000Y0037700000D01*
G37*
G36*
X0061756000Y0037700000D02*
X0061840000Y0037700000D01*
X0061840000Y0037600000D01*
X0061756000Y0037600000D01*
X0061756000Y0037700000D01*
G37*
G36*
X0061504000Y0037600000D02*
X0061588000Y0037600000D01*
X0061588000Y0037500000D01*
X0061504000Y0037500000D01*
X0061504000Y0037600000D01*
G37*
G36*
X0061588000Y0037600000D02*
X0061672000Y0037600000D01*
X0061672000Y0037500000D01*
X0061588000Y0037500000D01*
X0061588000Y0037600000D01*
G37*
G36*
X0061672000Y0037600000D02*
X0061756000Y0037600000D01*
X0061756000Y0037500000D01*
X0061672000Y0037500000D01*
X0061672000Y0037600000D01*
G37*
G36*
X0061924000Y0038200000D02*
X0062008000Y0038200000D01*
X0062008000Y0038100000D01*
X0061924000Y0038100000D01*
X0061924000Y0038200000D01*
G37*
G36*
X0062008000Y0038200000D02*
X0062092000Y0038200000D01*
X0062092000Y0038100000D01*
X0062008000Y0038100000D01*
X0062008000Y0038200000D01*
G37*
G36*
X0062092000Y0038200000D02*
X0062176000Y0038200000D01*
X0062176000Y0038100000D01*
X0062092000Y0038100000D01*
X0062092000Y0038200000D01*
G37*
G36*
X0061840000Y0038100000D02*
X0061924000Y0038100000D01*
X0061924000Y0038000000D01*
X0061840000Y0038000000D01*
X0061840000Y0038100000D01*
G37*
G36*
X0062176000Y0038100000D02*
X0062260000Y0038100000D01*
X0062260000Y0038000000D01*
X0062176000Y0038000000D01*
X0062176000Y0038100000D01*
G37*
G36*
X0061840000Y0038000000D02*
X0061924000Y0038000000D01*
X0061924000Y0037900000D01*
X0061840000Y0037900000D01*
X0061840000Y0038000000D01*
G37*
G36*
X0062176000Y0038000000D02*
X0062260000Y0038000000D01*
X0062260000Y0037900000D01*
X0062176000Y0037900000D01*
X0062176000Y0038000000D01*
G37*
G36*
X0061840000Y0037900000D02*
X0061924000Y0037900000D01*
X0061924000Y0037800000D01*
X0061840000Y0037800000D01*
X0061840000Y0037900000D01*
G37*
G36*
X0062176000Y0037900000D02*
X0062260000Y0037900000D01*
X0062260000Y0037800000D01*
X0062176000Y0037800000D01*
X0062176000Y0037900000D01*
G37*
G36*
X0061840000Y0037800000D02*
X0061924000Y0037800000D01*
X0061924000Y0037700000D01*
X0061840000Y0037700000D01*
X0061840000Y0037800000D01*
G37*
G36*
X0062176000Y0037800000D02*
X0062260000Y0037800000D01*
X0062260000Y0037700000D01*
X0062176000Y0037700000D01*
X0062176000Y0037800000D01*
G37*
G36*
X0061840000Y0037700000D02*
X0061924000Y0037700000D01*
X0061924000Y0037600000D01*
X0061840000Y0037600000D01*
X0061840000Y0037700000D01*
G37*
G36*
X0062176000Y0037700000D02*
X0062260000Y0037700000D01*
X0062260000Y0037600000D01*
X0062176000Y0037600000D01*
X0062176000Y0037700000D01*
G37*
G36*
X0061924000Y0037600000D02*
X0062008000Y0037600000D01*
X0062008000Y0037500000D01*
X0061924000Y0037500000D01*
X0061924000Y0037600000D01*
G37*
G36*
X0062008000Y0037600000D02*
X0062092000Y0037600000D01*
X0062092000Y0037500000D01*
X0062008000Y0037500000D01*
X0062008000Y0037600000D01*
G37*
G36*
X0062092000Y0037600000D02*
X0062176000Y0037600000D01*
X0062176000Y0037500000D01*
X0062092000Y0037500000D01*
X0062092000Y0037600000D01*
G37*
G36*
X0062260000Y0038200000D02*
X0062344000Y0038200000D01*
X0062344000Y0038100000D01*
X0062260000Y0038100000D01*
X0062260000Y0038200000D01*
G37*
G36*
X0062344000Y0038200000D02*
X0062428000Y0038200000D01*
X0062428000Y0038100000D01*
X0062344000Y0038100000D01*
X0062344000Y0038200000D01*
G37*
G36*
X0062428000Y0038200000D02*
X0062512000Y0038200000D01*
X0062512000Y0038100000D01*
X0062428000Y0038100000D01*
X0062428000Y0038200000D01*
G37*
G36*
X0062512000Y0038200000D02*
X0062596000Y0038200000D01*
X0062596000Y0038100000D01*
X0062512000Y0038100000D01*
X0062512000Y0038200000D01*
G37*
G36*
X0062596000Y0038200000D02*
X0062680000Y0038200000D01*
X0062680000Y0038100000D01*
X0062596000Y0038100000D01*
X0062596000Y0038200000D01*
G37*
G36*
X0062428000Y0038100000D02*
X0062512000Y0038100000D01*
X0062512000Y0038000000D01*
X0062428000Y0038000000D01*
X0062428000Y0038100000D01*
G37*
G36*
X0062428000Y0038000000D02*
X0062512000Y0038000000D01*
X0062512000Y0037900000D01*
X0062428000Y0037900000D01*
X0062428000Y0038000000D01*
G37*
G36*
X0062428000Y0037900000D02*
X0062512000Y0037900000D01*
X0062512000Y0037800000D01*
X0062428000Y0037800000D01*
X0062428000Y0037900000D01*
G37*
G36*
X0062428000Y0037800000D02*
X0062512000Y0037800000D01*
X0062512000Y0037700000D01*
X0062428000Y0037700000D01*
X0062428000Y0037800000D01*
G37*
G36*
X0062428000Y0037700000D02*
X0062512000Y0037700000D01*
X0062512000Y0037600000D01*
X0062428000Y0037600000D01*
X0062428000Y0037700000D01*
G37*
G36*
X0062428000Y0037600000D02*
X0062512000Y0037600000D01*
X0062512000Y0037500000D01*
X0062428000Y0037500000D01*
X0062428000Y0037600000D01*
G37*
G36*
X0062764000Y0038200000D02*
X0062848000Y0038200000D01*
X0062848000Y0038100000D01*
X0062764000Y0038100000D01*
X0062764000Y0038200000D01*
G37*
G36*
X0062848000Y0038200000D02*
X0062932000Y0038200000D01*
X0062932000Y0038100000D01*
X0062848000Y0038100000D01*
X0062848000Y0038200000D01*
G37*
G36*
X0062932000Y0038200000D02*
X0063016000Y0038200000D01*
X0063016000Y0038100000D01*
X0062932000Y0038100000D01*
X0062932000Y0038200000D01*
G37*
G36*
X0062680000Y0038100000D02*
X0062764000Y0038100000D01*
X0062764000Y0038000000D01*
X0062680000Y0038000000D01*
X0062680000Y0038100000D01*
G37*
G36*
X0063016000Y0038100000D02*
X0063100000Y0038100000D01*
X0063100000Y0038000000D01*
X0063016000Y0038000000D01*
X0063016000Y0038100000D01*
G37*
G36*
X0062680000Y0038000000D02*
X0062764000Y0038000000D01*
X0062764000Y0037900000D01*
X0062680000Y0037900000D01*
X0062680000Y0038000000D01*
G37*
G36*
X0062932000Y0038000000D02*
X0063016000Y0038000000D01*
X0063016000Y0037900000D01*
X0062932000Y0037900000D01*
X0062932000Y0038000000D01*
G37*
G36*
X0063016000Y0038000000D02*
X0063100000Y0038000000D01*
X0063100000Y0037900000D01*
X0063016000Y0037900000D01*
X0063016000Y0038000000D01*
G37*
G36*
X0062680000Y0037900000D02*
X0062764000Y0037900000D01*
X0062764000Y0037800000D01*
X0062680000Y0037800000D01*
X0062680000Y0037900000D01*
G37*
G36*
X0062848000Y0037900000D02*
X0062932000Y0037900000D01*
X0062932000Y0037800000D01*
X0062848000Y0037800000D01*
X0062848000Y0037900000D01*
G37*
G36*
X0063016000Y0037900000D02*
X0063100000Y0037900000D01*
X0063100000Y0037800000D01*
X0063016000Y0037800000D01*
X0063016000Y0037900000D01*
G37*
G36*
X0062680000Y0037800000D02*
X0062764000Y0037800000D01*
X0062764000Y0037700000D01*
X0062680000Y0037700000D01*
X0062680000Y0037800000D01*
G37*
G36*
X0062764000Y0037800000D02*
X0062848000Y0037800000D01*
X0062848000Y0037700000D01*
X0062764000Y0037700000D01*
X0062764000Y0037800000D01*
G37*
G36*
X0063016000Y0037800000D02*
X0063100000Y0037800000D01*
X0063100000Y0037700000D01*
X0063016000Y0037700000D01*
X0063016000Y0037800000D01*
G37*
G36*
X0062680000Y0037700000D02*
X0062764000Y0037700000D01*
X0062764000Y0037600000D01*
X0062680000Y0037600000D01*
X0062680000Y0037700000D01*
G37*
G36*
X0063016000Y0037700000D02*
X0063100000Y0037700000D01*
X0063100000Y0037600000D01*
X0063016000Y0037600000D01*
X0063016000Y0037700000D01*
G37*
G36*
X0062764000Y0037600000D02*
X0062848000Y0037600000D01*
X0062848000Y0037500000D01*
X0062764000Y0037500000D01*
X0062764000Y0037600000D01*
G37*
G36*
X0062848000Y0037600000D02*
X0062932000Y0037600000D01*
X0062932000Y0037500000D01*
X0062848000Y0037500000D01*
X0062848000Y0037600000D01*
G37*
G36*
X0062932000Y0037600000D02*
X0063016000Y0037600000D01*
X0063016000Y0037500000D01*
X0062932000Y0037500000D01*
X0062932000Y0037600000D01*
G37*
G04 TEXT RESET*
G36*
X0025000000Y0029200000D02*
X0025084000Y0029200000D01*
X0025084000Y0029100000D01*
X0025000000Y0029100000D01*
X0025000000Y0029200000D01*
G37*
G36*
X0025084000Y0029200000D02*
X0025168000Y0029200000D01*
X0025168000Y0029100000D01*
X0025084000Y0029100000D01*
X0025084000Y0029200000D01*
G37*
G36*
X0025168000Y0029200000D02*
X0025252000Y0029200000D01*
X0025252000Y0029100000D01*
X0025168000Y0029100000D01*
X0025168000Y0029200000D01*
G37*
G36*
X0025252000Y0029200000D02*
X0025336000Y0029200000D01*
X0025336000Y0029100000D01*
X0025252000Y0029100000D01*
X0025252000Y0029200000D01*
G37*
G36*
X0025000000Y0029100000D02*
X0025084000Y0029100000D01*
X0025084000Y0029000000D01*
X0025000000Y0029000000D01*
X0025000000Y0029100000D01*
G37*
G36*
X0025336000Y0029100000D02*
X0025420000Y0029100000D01*
X0025420000Y0029000000D01*
X0025336000Y0029000000D01*
X0025336000Y0029100000D01*
G37*
G36*
X0025000000Y0029000000D02*
X0025084000Y0029000000D01*
X0025084000Y0028900000D01*
X0025000000Y0028900000D01*
X0025000000Y0029000000D01*
G37*
G36*
X0025336000Y0029000000D02*
X0025420000Y0029000000D01*
X0025420000Y0028900000D01*
X0025336000Y0028900000D01*
X0025336000Y0029000000D01*
G37*
G36*
X0025000000Y0028900000D02*
X0025084000Y0028900000D01*
X0025084000Y0028800000D01*
X0025000000Y0028800000D01*
X0025000000Y0028900000D01*
G37*
G36*
X0025084000Y0028900000D02*
X0025168000Y0028900000D01*
X0025168000Y0028800000D01*
X0025084000Y0028800000D01*
X0025084000Y0028900000D01*
G37*
G36*
X0025168000Y0028900000D02*
X0025252000Y0028900000D01*
X0025252000Y0028800000D01*
X0025168000Y0028800000D01*
X0025168000Y0028900000D01*
G37*
G36*
X0025252000Y0028900000D02*
X0025336000Y0028900000D01*
X0025336000Y0028800000D01*
X0025252000Y0028800000D01*
X0025252000Y0028900000D01*
G37*
G36*
X0025000000Y0028800000D02*
X0025084000Y0028800000D01*
X0025084000Y0028700000D01*
X0025000000Y0028700000D01*
X0025000000Y0028800000D01*
G37*
G36*
X0025168000Y0028800000D02*
X0025252000Y0028800000D01*
X0025252000Y0028700000D01*
X0025168000Y0028700000D01*
X0025168000Y0028800000D01*
G37*
G36*
X0025000000Y0028700000D02*
X0025084000Y0028700000D01*
X0025084000Y0028600000D01*
X0025000000Y0028600000D01*
X0025000000Y0028700000D01*
G37*
G36*
X0025252000Y0028700000D02*
X0025336000Y0028700000D01*
X0025336000Y0028600000D01*
X0025252000Y0028600000D01*
X0025252000Y0028700000D01*
G37*
G36*
X0025000000Y0028600000D02*
X0025084000Y0028600000D01*
X0025084000Y0028500000D01*
X0025000000Y0028500000D01*
X0025000000Y0028600000D01*
G37*
G36*
X0025336000Y0028600000D02*
X0025420000Y0028600000D01*
X0025420000Y0028500000D01*
X0025336000Y0028500000D01*
X0025336000Y0028600000D01*
G37*
G36*
X0025420000Y0029200000D02*
X0025504000Y0029200000D01*
X0025504000Y0029100000D01*
X0025420000Y0029100000D01*
X0025420000Y0029200000D01*
G37*
G36*
X0025504000Y0029200000D02*
X0025588000Y0029200000D01*
X0025588000Y0029100000D01*
X0025504000Y0029100000D01*
X0025504000Y0029200000D01*
G37*
G36*
X0025588000Y0029200000D02*
X0025672000Y0029200000D01*
X0025672000Y0029100000D01*
X0025588000Y0029100000D01*
X0025588000Y0029200000D01*
G37*
G36*
X0025672000Y0029200000D02*
X0025756000Y0029200000D01*
X0025756000Y0029100000D01*
X0025672000Y0029100000D01*
X0025672000Y0029200000D01*
G37*
G36*
X0025756000Y0029200000D02*
X0025840000Y0029200000D01*
X0025840000Y0029100000D01*
X0025756000Y0029100000D01*
X0025756000Y0029200000D01*
G37*
G36*
X0025420000Y0029100000D02*
X0025504000Y0029100000D01*
X0025504000Y0029000000D01*
X0025420000Y0029000000D01*
X0025420000Y0029100000D01*
G37*
G36*
X0025420000Y0029000000D02*
X0025504000Y0029000000D01*
X0025504000Y0028900000D01*
X0025420000Y0028900000D01*
X0025420000Y0029000000D01*
G37*
G36*
X0025420000Y0028900000D02*
X0025504000Y0028900000D01*
X0025504000Y0028800000D01*
X0025420000Y0028800000D01*
X0025420000Y0028900000D01*
G37*
G36*
X0025504000Y0028900000D02*
X0025588000Y0028900000D01*
X0025588000Y0028800000D01*
X0025504000Y0028800000D01*
X0025504000Y0028900000D01*
G37*
G36*
X0025588000Y0028900000D02*
X0025672000Y0028900000D01*
X0025672000Y0028800000D01*
X0025588000Y0028800000D01*
X0025588000Y0028900000D01*
G37*
G36*
X0025672000Y0028900000D02*
X0025756000Y0028900000D01*
X0025756000Y0028800000D01*
X0025672000Y0028800000D01*
X0025672000Y0028900000D01*
G37*
G36*
X0025420000Y0028800000D02*
X0025504000Y0028800000D01*
X0025504000Y0028700000D01*
X0025420000Y0028700000D01*
X0025420000Y0028800000D01*
G37*
G36*
X0025420000Y0028700000D02*
X0025504000Y0028700000D01*
X0025504000Y0028600000D01*
X0025420000Y0028600000D01*
X0025420000Y0028700000D01*
G37*
G36*
X0025420000Y0028600000D02*
X0025504000Y0028600000D01*
X0025504000Y0028500000D01*
X0025420000Y0028500000D01*
X0025420000Y0028600000D01*
G37*
G36*
X0025504000Y0028600000D02*
X0025588000Y0028600000D01*
X0025588000Y0028500000D01*
X0025504000Y0028500000D01*
X0025504000Y0028600000D01*
G37*
G36*
X0025588000Y0028600000D02*
X0025672000Y0028600000D01*
X0025672000Y0028500000D01*
X0025588000Y0028500000D01*
X0025588000Y0028600000D01*
G37*
G36*
X0025672000Y0028600000D02*
X0025756000Y0028600000D01*
X0025756000Y0028500000D01*
X0025672000Y0028500000D01*
X0025672000Y0028600000D01*
G37*
G36*
X0025756000Y0028600000D02*
X0025840000Y0028600000D01*
X0025840000Y0028500000D01*
X0025756000Y0028500000D01*
X0025756000Y0028600000D01*
G37*
G36*
X0025924000Y0029200000D02*
X0026008000Y0029200000D01*
X0026008000Y0029100000D01*
X0025924000Y0029100000D01*
X0025924000Y0029200000D01*
G37*
G36*
X0026008000Y0029200000D02*
X0026092000Y0029200000D01*
X0026092000Y0029100000D01*
X0026008000Y0029100000D01*
X0026008000Y0029200000D01*
G37*
G36*
X0026092000Y0029200000D02*
X0026176000Y0029200000D01*
X0026176000Y0029100000D01*
X0026092000Y0029100000D01*
X0026092000Y0029200000D01*
G37*
G36*
X0026176000Y0029200000D02*
X0026260000Y0029200000D01*
X0026260000Y0029100000D01*
X0026176000Y0029100000D01*
X0026176000Y0029200000D01*
G37*
G36*
X0025840000Y0029100000D02*
X0025924000Y0029100000D01*
X0025924000Y0029000000D01*
X0025840000Y0029000000D01*
X0025840000Y0029100000D01*
G37*
G36*
X0025840000Y0029000000D02*
X0025924000Y0029000000D01*
X0025924000Y0028900000D01*
X0025840000Y0028900000D01*
X0025840000Y0029000000D01*
G37*
G36*
X0025924000Y0028900000D02*
X0026008000Y0028900000D01*
X0026008000Y0028800000D01*
X0025924000Y0028800000D01*
X0025924000Y0028900000D01*
G37*
G36*
X0026008000Y0028900000D02*
X0026092000Y0028900000D01*
X0026092000Y0028800000D01*
X0026008000Y0028800000D01*
X0026008000Y0028900000D01*
G37*
G36*
X0026092000Y0028900000D02*
X0026176000Y0028900000D01*
X0026176000Y0028800000D01*
X0026092000Y0028800000D01*
X0026092000Y0028900000D01*
G37*
G36*
X0026176000Y0028800000D02*
X0026260000Y0028800000D01*
X0026260000Y0028700000D01*
X0026176000Y0028700000D01*
X0026176000Y0028800000D01*
G37*
G36*
X0026176000Y0028700000D02*
X0026260000Y0028700000D01*
X0026260000Y0028600000D01*
X0026176000Y0028600000D01*
X0026176000Y0028700000D01*
G37*
G36*
X0025840000Y0028600000D02*
X0025924000Y0028600000D01*
X0025924000Y0028500000D01*
X0025840000Y0028500000D01*
X0025840000Y0028600000D01*
G37*
G36*
X0025924000Y0028600000D02*
X0026008000Y0028600000D01*
X0026008000Y0028500000D01*
X0025924000Y0028500000D01*
X0025924000Y0028600000D01*
G37*
G36*
X0026008000Y0028600000D02*
X0026092000Y0028600000D01*
X0026092000Y0028500000D01*
X0026008000Y0028500000D01*
X0026008000Y0028600000D01*
G37*
G36*
X0026092000Y0028600000D02*
X0026176000Y0028600000D01*
X0026176000Y0028500000D01*
X0026092000Y0028500000D01*
X0026092000Y0028600000D01*
G37*
G36*
X0026260000Y0029200000D02*
X0026344000Y0029200000D01*
X0026344000Y0029100000D01*
X0026260000Y0029100000D01*
X0026260000Y0029200000D01*
G37*
G36*
X0026344000Y0029200000D02*
X0026428000Y0029200000D01*
X0026428000Y0029100000D01*
X0026344000Y0029100000D01*
X0026344000Y0029200000D01*
G37*
G36*
X0026428000Y0029200000D02*
X0026512000Y0029200000D01*
X0026512000Y0029100000D01*
X0026428000Y0029100000D01*
X0026428000Y0029200000D01*
G37*
G36*
X0026512000Y0029200000D02*
X0026596000Y0029200000D01*
X0026596000Y0029100000D01*
X0026512000Y0029100000D01*
X0026512000Y0029200000D01*
G37*
G36*
X0026596000Y0029200000D02*
X0026680000Y0029200000D01*
X0026680000Y0029100000D01*
X0026596000Y0029100000D01*
X0026596000Y0029200000D01*
G37*
G36*
X0026260000Y0029100000D02*
X0026344000Y0029100000D01*
X0026344000Y0029000000D01*
X0026260000Y0029000000D01*
X0026260000Y0029100000D01*
G37*
G36*
X0026260000Y0029000000D02*
X0026344000Y0029000000D01*
X0026344000Y0028900000D01*
X0026260000Y0028900000D01*
X0026260000Y0029000000D01*
G37*
G36*
X0026260000Y0028900000D02*
X0026344000Y0028900000D01*
X0026344000Y0028800000D01*
X0026260000Y0028800000D01*
X0026260000Y0028900000D01*
G37*
G36*
X0026344000Y0028900000D02*
X0026428000Y0028900000D01*
X0026428000Y0028800000D01*
X0026344000Y0028800000D01*
X0026344000Y0028900000D01*
G37*
G36*
X0026428000Y0028900000D02*
X0026512000Y0028900000D01*
X0026512000Y0028800000D01*
X0026428000Y0028800000D01*
X0026428000Y0028900000D01*
G37*
G36*
X0026512000Y0028900000D02*
X0026596000Y0028900000D01*
X0026596000Y0028800000D01*
X0026512000Y0028800000D01*
X0026512000Y0028900000D01*
G37*
G36*
X0026260000Y0028800000D02*
X0026344000Y0028800000D01*
X0026344000Y0028700000D01*
X0026260000Y0028700000D01*
X0026260000Y0028800000D01*
G37*
G36*
X0026260000Y0028700000D02*
X0026344000Y0028700000D01*
X0026344000Y0028600000D01*
X0026260000Y0028600000D01*
X0026260000Y0028700000D01*
G37*
G36*
X0026260000Y0028600000D02*
X0026344000Y0028600000D01*
X0026344000Y0028500000D01*
X0026260000Y0028500000D01*
X0026260000Y0028600000D01*
G37*
G36*
X0026344000Y0028600000D02*
X0026428000Y0028600000D01*
X0026428000Y0028500000D01*
X0026344000Y0028500000D01*
X0026344000Y0028600000D01*
G37*
G36*
X0026428000Y0028600000D02*
X0026512000Y0028600000D01*
X0026512000Y0028500000D01*
X0026428000Y0028500000D01*
X0026428000Y0028600000D01*
G37*
G36*
X0026512000Y0028600000D02*
X0026596000Y0028600000D01*
X0026596000Y0028500000D01*
X0026512000Y0028500000D01*
X0026512000Y0028600000D01*
G37*
G36*
X0026596000Y0028600000D02*
X0026680000Y0028600000D01*
X0026680000Y0028500000D01*
X0026596000Y0028500000D01*
X0026596000Y0028600000D01*
G37*
G36*
X0026680000Y0029200000D02*
X0026764000Y0029200000D01*
X0026764000Y0029100000D01*
X0026680000Y0029100000D01*
X0026680000Y0029200000D01*
G37*
G36*
X0026764000Y0029200000D02*
X0026848000Y0029200000D01*
X0026848000Y0029100000D01*
X0026764000Y0029100000D01*
X0026764000Y0029200000D01*
G37*
G36*
X0026848000Y0029200000D02*
X0026932000Y0029200000D01*
X0026932000Y0029100000D01*
X0026848000Y0029100000D01*
X0026848000Y0029200000D01*
G37*
G36*
X0026932000Y0029200000D02*
X0027016000Y0029200000D01*
X0027016000Y0029100000D01*
X0026932000Y0029100000D01*
X0026932000Y0029200000D01*
G37*
G36*
X0027016000Y0029200000D02*
X0027100000Y0029200000D01*
X0027100000Y0029100000D01*
X0027016000Y0029100000D01*
X0027016000Y0029200000D01*
G37*
G36*
X0026848000Y0029100000D02*
X0026932000Y0029100000D01*
X0026932000Y0029000000D01*
X0026848000Y0029000000D01*
X0026848000Y0029100000D01*
G37*
G36*
X0026848000Y0029000000D02*
X0026932000Y0029000000D01*
X0026932000Y0028900000D01*
X0026848000Y0028900000D01*
X0026848000Y0029000000D01*
G37*
G36*
X0026848000Y0028900000D02*
X0026932000Y0028900000D01*
X0026932000Y0028800000D01*
X0026848000Y0028800000D01*
X0026848000Y0028900000D01*
G37*
G36*
X0026848000Y0028800000D02*
X0026932000Y0028800000D01*
X0026932000Y0028700000D01*
X0026848000Y0028700000D01*
X0026848000Y0028800000D01*
G37*
G36*
X0026848000Y0028700000D02*
X0026932000Y0028700000D01*
X0026932000Y0028600000D01*
X0026848000Y0028600000D01*
X0026848000Y0028700000D01*
G37*
G36*
X0026848000Y0028600000D02*
X0026932000Y0028600000D01*
X0026932000Y0028500000D01*
X0026848000Y0028500000D01*
X0026848000Y0028600000D01*
G37*
G04 TEXT STATUS*
G36*
X0061084000Y0005700000D02*
X0061168000Y0005700000D01*
X0061168000Y0005600000D01*
X0061084000Y0005600000D01*
X0061084000Y0005700000D01*
G37*
G36*
X0061168000Y0005700000D02*
X0061252000Y0005700000D01*
X0061252000Y0005600000D01*
X0061168000Y0005600000D01*
X0061168000Y0005700000D01*
G37*
G36*
X0061252000Y0005700000D02*
X0061336000Y0005700000D01*
X0061336000Y0005600000D01*
X0061252000Y0005600000D01*
X0061252000Y0005700000D01*
G37*
G36*
X0061336000Y0005700000D02*
X0061420000Y0005700000D01*
X0061420000Y0005600000D01*
X0061336000Y0005600000D01*
X0061336000Y0005700000D01*
G37*
G36*
X0061000000Y0005600000D02*
X0061084000Y0005600000D01*
X0061084000Y0005500000D01*
X0061000000Y0005500000D01*
X0061000000Y0005600000D01*
G37*
G36*
X0061000000Y0005500000D02*
X0061084000Y0005500000D01*
X0061084000Y0005400000D01*
X0061000000Y0005400000D01*
X0061000000Y0005500000D01*
G37*
G36*
X0061084000Y0005400000D02*
X0061168000Y0005400000D01*
X0061168000Y0005300000D01*
X0061084000Y0005300000D01*
X0061084000Y0005400000D01*
G37*
G36*
X0061168000Y0005400000D02*
X0061252000Y0005400000D01*
X0061252000Y0005300000D01*
X0061168000Y0005300000D01*
X0061168000Y0005400000D01*
G37*
G36*
X0061252000Y0005400000D02*
X0061336000Y0005400000D01*
X0061336000Y0005300000D01*
X0061252000Y0005300000D01*
X0061252000Y0005400000D01*
G37*
G36*
X0061336000Y0005300000D02*
X0061420000Y0005300000D01*
X0061420000Y0005200000D01*
X0061336000Y0005200000D01*
X0061336000Y0005300000D01*
G37*
G36*
X0061336000Y0005200000D02*
X0061420000Y0005200000D01*
X0061420000Y0005100000D01*
X0061336000Y0005100000D01*
X0061336000Y0005200000D01*
G37*
G36*
X0061000000Y0005100000D02*
X0061084000Y0005100000D01*
X0061084000Y0005000000D01*
X0061000000Y0005000000D01*
X0061000000Y0005100000D01*
G37*
G36*
X0061084000Y0005100000D02*
X0061168000Y0005100000D01*
X0061168000Y0005000000D01*
X0061084000Y0005000000D01*
X0061084000Y0005100000D01*
G37*
G36*
X0061168000Y0005100000D02*
X0061252000Y0005100000D01*
X0061252000Y0005000000D01*
X0061168000Y0005000000D01*
X0061168000Y0005100000D01*
G37*
G36*
X0061252000Y0005100000D02*
X0061336000Y0005100000D01*
X0061336000Y0005000000D01*
X0061252000Y0005000000D01*
X0061252000Y0005100000D01*
G37*
G36*
X0061420000Y0005700000D02*
X0061504000Y0005700000D01*
X0061504000Y0005600000D01*
X0061420000Y0005600000D01*
X0061420000Y0005700000D01*
G37*
G36*
X0061504000Y0005700000D02*
X0061588000Y0005700000D01*
X0061588000Y0005600000D01*
X0061504000Y0005600000D01*
X0061504000Y0005700000D01*
G37*
G36*
X0061588000Y0005700000D02*
X0061672000Y0005700000D01*
X0061672000Y0005600000D01*
X0061588000Y0005600000D01*
X0061588000Y0005700000D01*
G37*
G36*
X0061672000Y0005700000D02*
X0061756000Y0005700000D01*
X0061756000Y0005600000D01*
X0061672000Y0005600000D01*
X0061672000Y0005700000D01*
G37*
G36*
X0061756000Y0005700000D02*
X0061840000Y0005700000D01*
X0061840000Y0005600000D01*
X0061756000Y0005600000D01*
X0061756000Y0005700000D01*
G37*
G36*
X0061588000Y0005600000D02*
X0061672000Y0005600000D01*
X0061672000Y0005500000D01*
X0061588000Y0005500000D01*
X0061588000Y0005600000D01*
G37*
G36*
X0061588000Y0005500000D02*
X0061672000Y0005500000D01*
X0061672000Y0005400000D01*
X0061588000Y0005400000D01*
X0061588000Y0005500000D01*
G37*
G36*
X0061588000Y0005400000D02*
X0061672000Y0005400000D01*
X0061672000Y0005300000D01*
X0061588000Y0005300000D01*
X0061588000Y0005400000D01*
G37*
G36*
X0061588000Y0005300000D02*
X0061672000Y0005300000D01*
X0061672000Y0005200000D01*
X0061588000Y0005200000D01*
X0061588000Y0005300000D01*
G37*
G36*
X0061588000Y0005200000D02*
X0061672000Y0005200000D01*
X0061672000Y0005100000D01*
X0061588000Y0005100000D01*
X0061588000Y0005200000D01*
G37*
G36*
X0061588000Y0005100000D02*
X0061672000Y0005100000D01*
X0061672000Y0005000000D01*
X0061588000Y0005000000D01*
X0061588000Y0005100000D01*
G37*
G36*
X0061924000Y0005700000D02*
X0062008000Y0005700000D01*
X0062008000Y0005600000D01*
X0061924000Y0005600000D01*
X0061924000Y0005700000D01*
G37*
G36*
X0062008000Y0005700000D02*
X0062092000Y0005700000D01*
X0062092000Y0005600000D01*
X0062008000Y0005600000D01*
X0062008000Y0005700000D01*
G37*
G36*
X0062092000Y0005700000D02*
X0062176000Y0005700000D01*
X0062176000Y0005600000D01*
X0062092000Y0005600000D01*
X0062092000Y0005700000D01*
G37*
G36*
X0061840000Y0005600000D02*
X0061924000Y0005600000D01*
X0061924000Y0005500000D01*
X0061840000Y0005500000D01*
X0061840000Y0005600000D01*
G37*
G36*
X0062176000Y0005600000D02*
X0062260000Y0005600000D01*
X0062260000Y0005500000D01*
X0062176000Y0005500000D01*
X0062176000Y0005600000D01*
G37*
G36*
X0061840000Y0005500000D02*
X0061924000Y0005500000D01*
X0061924000Y0005400000D01*
X0061840000Y0005400000D01*
X0061840000Y0005500000D01*
G37*
G36*
X0062176000Y0005500000D02*
X0062260000Y0005500000D01*
X0062260000Y0005400000D01*
X0062176000Y0005400000D01*
X0062176000Y0005500000D01*
G37*
G36*
X0061840000Y0005400000D02*
X0061924000Y0005400000D01*
X0061924000Y0005300000D01*
X0061840000Y0005300000D01*
X0061840000Y0005400000D01*
G37*
G36*
X0061924000Y0005400000D02*
X0062008000Y0005400000D01*
X0062008000Y0005300000D01*
X0061924000Y0005300000D01*
X0061924000Y0005400000D01*
G37*
G36*
X0062008000Y0005400000D02*
X0062092000Y0005400000D01*
X0062092000Y0005300000D01*
X0062008000Y0005300000D01*
X0062008000Y0005400000D01*
G37*
G36*
X0062092000Y0005400000D02*
X0062176000Y0005400000D01*
X0062176000Y0005300000D01*
X0062092000Y0005300000D01*
X0062092000Y0005400000D01*
G37*
G36*
X0062176000Y0005400000D02*
X0062260000Y0005400000D01*
X0062260000Y0005300000D01*
X0062176000Y0005300000D01*
X0062176000Y0005400000D01*
G37*
G36*
X0061840000Y0005300000D02*
X0061924000Y0005300000D01*
X0061924000Y0005200000D01*
X0061840000Y0005200000D01*
X0061840000Y0005300000D01*
G37*
G36*
X0062176000Y0005300000D02*
X0062260000Y0005300000D01*
X0062260000Y0005200000D01*
X0062176000Y0005200000D01*
X0062176000Y0005300000D01*
G37*
G36*
X0061840000Y0005200000D02*
X0061924000Y0005200000D01*
X0061924000Y0005100000D01*
X0061840000Y0005100000D01*
X0061840000Y0005200000D01*
G37*
G36*
X0062176000Y0005200000D02*
X0062260000Y0005200000D01*
X0062260000Y0005100000D01*
X0062176000Y0005100000D01*
X0062176000Y0005200000D01*
G37*
G36*
X0061840000Y0005100000D02*
X0061924000Y0005100000D01*
X0061924000Y0005000000D01*
X0061840000Y0005000000D01*
X0061840000Y0005100000D01*
G37*
G36*
X0062176000Y0005100000D02*
X0062260000Y0005100000D01*
X0062260000Y0005000000D01*
X0062176000Y0005000000D01*
X0062176000Y0005100000D01*
G37*
G36*
X0062260000Y0005700000D02*
X0062344000Y0005700000D01*
X0062344000Y0005600000D01*
X0062260000Y0005600000D01*
X0062260000Y0005700000D01*
G37*
G36*
X0062344000Y0005700000D02*
X0062428000Y0005700000D01*
X0062428000Y0005600000D01*
X0062344000Y0005600000D01*
X0062344000Y0005700000D01*
G37*
G36*
X0062428000Y0005700000D02*
X0062512000Y0005700000D01*
X0062512000Y0005600000D01*
X0062428000Y0005600000D01*
X0062428000Y0005700000D01*
G37*
G36*
X0062512000Y0005700000D02*
X0062596000Y0005700000D01*
X0062596000Y0005600000D01*
X0062512000Y0005600000D01*
X0062512000Y0005700000D01*
G37*
G36*
X0062596000Y0005700000D02*
X0062680000Y0005700000D01*
X0062680000Y0005600000D01*
X0062596000Y0005600000D01*
X0062596000Y0005700000D01*
G37*
G36*
X0062428000Y0005600000D02*
X0062512000Y0005600000D01*
X0062512000Y0005500000D01*
X0062428000Y0005500000D01*
X0062428000Y0005600000D01*
G37*
G36*
X0062428000Y0005500000D02*
X0062512000Y0005500000D01*
X0062512000Y0005400000D01*
X0062428000Y0005400000D01*
X0062428000Y0005500000D01*
G37*
G36*
X0062428000Y0005400000D02*
X0062512000Y0005400000D01*
X0062512000Y0005300000D01*
X0062428000Y0005300000D01*
X0062428000Y0005400000D01*
G37*
G36*
X0062428000Y0005300000D02*
X0062512000Y0005300000D01*
X0062512000Y0005200000D01*
X0062428000Y0005200000D01*
X0062428000Y0005300000D01*
G37*
G36*
X0062428000Y0005200000D02*
X0062512000Y0005200000D01*
X0062512000Y0005100000D01*
X0062428000Y0005100000D01*
X0062428000Y0005200000D01*
G37*
G36*
X0062428000Y0005100000D02*
X0062512000Y0005100000D01*
X0062512000Y0005000000D01*
X0062428000Y0005000000D01*
X0062428000Y0005100000D01*
G37*
G36*
X0062680000Y0005700000D02*
X0062764000Y0005700000D01*
X0062764000Y0005600000D01*
X0062680000Y0005600000D01*
X0062680000Y0005700000D01*
G37*
G36*
X0063016000Y0005700000D02*
X0063100000Y0005700000D01*
X0063100000Y0005600000D01*
X0063016000Y0005600000D01*
X0063016000Y0005700000D01*
G37*
G36*
X0062680000Y0005600000D02*
X0062764000Y0005600000D01*
X0062764000Y0005500000D01*
X0062680000Y0005500000D01*
X0062680000Y0005600000D01*
G37*
G36*
X0063016000Y0005600000D02*
X0063100000Y0005600000D01*
X0063100000Y0005500000D01*
X0063016000Y0005500000D01*
X0063016000Y0005600000D01*
G37*
G36*
X0062680000Y0005500000D02*
X0062764000Y0005500000D01*
X0062764000Y0005400000D01*
X0062680000Y0005400000D01*
X0062680000Y0005500000D01*
G37*
G36*
X0063016000Y0005500000D02*
X0063100000Y0005500000D01*
X0063100000Y0005400000D01*
X0063016000Y0005400000D01*
X0063016000Y0005500000D01*
G37*
G36*
X0062680000Y0005400000D02*
X0062764000Y0005400000D01*
X0062764000Y0005300000D01*
X0062680000Y0005300000D01*
X0062680000Y0005400000D01*
G37*
G36*
X0063016000Y0005400000D02*
X0063100000Y0005400000D01*
X0063100000Y0005300000D01*
X0063016000Y0005300000D01*
X0063016000Y0005400000D01*
G37*
G36*
X0062680000Y0005300000D02*
X0062764000Y0005300000D01*
X0062764000Y0005200000D01*
X0062680000Y0005200000D01*
X0062680000Y0005300000D01*
G37*
G36*
X0063016000Y0005300000D02*
X0063100000Y0005300000D01*
X0063100000Y0005200000D01*
X0063016000Y0005200000D01*
X0063016000Y0005300000D01*
G37*
G36*
X0062680000Y0005200000D02*
X0062764000Y0005200000D01*
X0062764000Y0005100000D01*
X0062680000Y0005100000D01*
X0062680000Y0005200000D01*
G37*
G36*
X0063016000Y0005200000D02*
X0063100000Y0005200000D01*
X0063100000Y0005100000D01*
X0063016000Y0005100000D01*
X0063016000Y0005200000D01*
G37*
G36*
X0062764000Y0005100000D02*
X0062848000Y0005100000D01*
X0062848000Y0005000000D01*
X0062764000Y0005000000D01*
X0062764000Y0005100000D01*
G37*
G36*
X0062848000Y0005100000D02*
X0062932000Y0005100000D01*
X0062932000Y0005000000D01*
X0062848000Y0005000000D01*
X0062848000Y0005100000D01*
G37*
G36*
X0062932000Y0005100000D02*
X0063016000Y0005100000D01*
X0063016000Y0005000000D01*
X0062932000Y0005000000D01*
X0062932000Y0005100000D01*
G37*
G36*
X0063184000Y0005700000D02*
X0063268000Y0005700000D01*
X0063268000Y0005600000D01*
X0063184000Y0005600000D01*
X0063184000Y0005700000D01*
G37*
G36*
X0063268000Y0005700000D02*
X0063352000Y0005700000D01*
X0063352000Y0005600000D01*
X0063268000Y0005600000D01*
X0063268000Y0005700000D01*
G37*
G36*
X0063352000Y0005700000D02*
X0063436000Y0005700000D01*
X0063436000Y0005600000D01*
X0063352000Y0005600000D01*
X0063352000Y0005700000D01*
G37*
G36*
X0063436000Y0005700000D02*
X0063520000Y0005700000D01*
X0063520000Y0005600000D01*
X0063436000Y0005600000D01*
X0063436000Y0005700000D01*
G37*
G36*
X0063100000Y0005600000D02*
X0063184000Y0005600000D01*
X0063184000Y0005500000D01*
X0063100000Y0005500000D01*
X0063100000Y0005600000D01*
G37*
G36*
X0063100000Y0005500000D02*
X0063184000Y0005500000D01*
X0063184000Y0005400000D01*
X0063100000Y0005400000D01*
X0063100000Y0005500000D01*
G37*
G36*
X0063184000Y0005400000D02*
X0063268000Y0005400000D01*
X0063268000Y0005300000D01*
X0063184000Y0005300000D01*
X0063184000Y0005400000D01*
G37*
G36*
X0063268000Y0005400000D02*
X0063352000Y0005400000D01*
X0063352000Y0005300000D01*
X0063268000Y0005300000D01*
X0063268000Y0005400000D01*
G37*
G36*
X0063352000Y0005400000D02*
X0063436000Y0005400000D01*
X0063436000Y0005300000D01*
X0063352000Y0005300000D01*
X0063352000Y0005400000D01*
G37*
G36*
X0063436000Y0005300000D02*
X0063520000Y0005300000D01*
X0063520000Y0005200000D01*
X0063436000Y0005200000D01*
X0063436000Y0005300000D01*
G37*
G36*
X0063436000Y0005200000D02*
X0063520000Y0005200000D01*
X0063520000Y0005100000D01*
X0063436000Y0005100000D01*
X0063436000Y0005200000D01*
G37*
G36*
X0063100000Y0005100000D02*
X0063184000Y0005100000D01*
X0063184000Y0005000000D01*
X0063100000Y0005000000D01*
X0063100000Y0005100000D01*
G37*
G36*
X0063184000Y0005100000D02*
X0063268000Y0005100000D01*
X0063268000Y0005000000D01*
X0063184000Y0005000000D01*
X0063184000Y0005100000D01*
G37*
G36*
X0063268000Y0005100000D02*
X0063352000Y0005100000D01*
X0063352000Y0005000000D01*
X0063268000Y0005000000D01*
X0063268000Y0005100000D01*
G37*
G36*
X0063352000Y0005100000D02*
X0063436000Y0005100000D01*
X0063436000Y0005000000D01*
X0063352000Y0005000000D01*
X0063352000Y0005100000D01*
G37*
G04 TEXT HSE 8MHZ*
G36*
X0019500000Y0018700000D02*
X0019584000Y0018700000D01*
X0019584000Y0018600000D01*
X0019500000Y0018600000D01*
X0019500000Y0018700000D01*
G37*
G36*
X0019836000Y0018700000D02*
X0019920000Y0018700000D01*
X0019920000Y0018600000D01*
X0019836000Y0018600000D01*
X0019836000Y0018700000D01*
G37*
G36*
X0019500000Y0018600000D02*
X0019584000Y0018600000D01*
X0019584000Y0018500000D01*
X0019500000Y0018500000D01*
X0019500000Y0018600000D01*
G37*
G36*
X0019836000Y0018600000D02*
X0019920000Y0018600000D01*
X0019920000Y0018500000D01*
X0019836000Y0018500000D01*
X0019836000Y0018600000D01*
G37*
G36*
X0019500000Y0018500000D02*
X0019584000Y0018500000D01*
X0019584000Y0018400000D01*
X0019500000Y0018400000D01*
X0019500000Y0018500000D01*
G37*
G36*
X0019836000Y0018500000D02*
X0019920000Y0018500000D01*
X0019920000Y0018400000D01*
X0019836000Y0018400000D01*
X0019836000Y0018500000D01*
G37*
G36*
X0019500000Y0018400000D02*
X0019584000Y0018400000D01*
X0019584000Y0018300000D01*
X0019500000Y0018300000D01*
X0019500000Y0018400000D01*
G37*
G36*
X0019584000Y0018400000D02*
X0019668000Y0018400000D01*
X0019668000Y0018300000D01*
X0019584000Y0018300000D01*
X0019584000Y0018400000D01*
G37*
G36*
X0019668000Y0018400000D02*
X0019752000Y0018400000D01*
X0019752000Y0018300000D01*
X0019668000Y0018300000D01*
X0019668000Y0018400000D01*
G37*
G36*
X0019752000Y0018400000D02*
X0019836000Y0018400000D01*
X0019836000Y0018300000D01*
X0019752000Y0018300000D01*
X0019752000Y0018400000D01*
G37*
G36*
X0019836000Y0018400000D02*
X0019920000Y0018400000D01*
X0019920000Y0018300000D01*
X0019836000Y0018300000D01*
X0019836000Y0018400000D01*
G37*
G36*
X0019500000Y0018300000D02*
X0019584000Y0018300000D01*
X0019584000Y0018200000D01*
X0019500000Y0018200000D01*
X0019500000Y0018300000D01*
G37*
G36*
X0019836000Y0018300000D02*
X0019920000Y0018300000D01*
X0019920000Y0018200000D01*
X0019836000Y0018200000D01*
X0019836000Y0018300000D01*
G37*
G36*
X0019500000Y0018200000D02*
X0019584000Y0018200000D01*
X0019584000Y0018100000D01*
X0019500000Y0018100000D01*
X0019500000Y0018200000D01*
G37*
G36*
X0019836000Y0018200000D02*
X0019920000Y0018200000D01*
X0019920000Y0018100000D01*
X0019836000Y0018100000D01*
X0019836000Y0018200000D01*
G37*
G36*
X0019500000Y0018100000D02*
X0019584000Y0018100000D01*
X0019584000Y0018000000D01*
X0019500000Y0018000000D01*
X0019500000Y0018100000D01*
G37*
G36*
X0019836000Y0018100000D02*
X0019920000Y0018100000D01*
X0019920000Y0018000000D01*
X0019836000Y0018000000D01*
X0019836000Y0018100000D01*
G37*
G36*
X0020004000Y0018700000D02*
X0020088000Y0018700000D01*
X0020088000Y0018600000D01*
X0020004000Y0018600000D01*
X0020004000Y0018700000D01*
G37*
G36*
X0020088000Y0018700000D02*
X0020172000Y0018700000D01*
X0020172000Y0018600000D01*
X0020088000Y0018600000D01*
X0020088000Y0018700000D01*
G37*
G36*
X0020172000Y0018700000D02*
X0020256000Y0018700000D01*
X0020256000Y0018600000D01*
X0020172000Y0018600000D01*
X0020172000Y0018700000D01*
G37*
G36*
X0020256000Y0018700000D02*
X0020340000Y0018700000D01*
X0020340000Y0018600000D01*
X0020256000Y0018600000D01*
X0020256000Y0018700000D01*
G37*
G36*
X0019920000Y0018600000D02*
X0020004000Y0018600000D01*
X0020004000Y0018500000D01*
X0019920000Y0018500000D01*
X0019920000Y0018600000D01*
G37*
G36*
X0019920000Y0018500000D02*
X0020004000Y0018500000D01*
X0020004000Y0018400000D01*
X0019920000Y0018400000D01*
X0019920000Y0018500000D01*
G37*
G36*
X0020004000Y0018400000D02*
X0020088000Y0018400000D01*
X0020088000Y0018300000D01*
X0020004000Y0018300000D01*
X0020004000Y0018400000D01*
G37*
G36*
X0020088000Y0018400000D02*
X0020172000Y0018400000D01*
X0020172000Y0018300000D01*
X0020088000Y0018300000D01*
X0020088000Y0018400000D01*
G37*
G36*
X0020172000Y0018400000D02*
X0020256000Y0018400000D01*
X0020256000Y0018300000D01*
X0020172000Y0018300000D01*
X0020172000Y0018400000D01*
G37*
G36*
X0020256000Y0018300000D02*
X0020340000Y0018300000D01*
X0020340000Y0018200000D01*
X0020256000Y0018200000D01*
X0020256000Y0018300000D01*
G37*
G36*
X0020256000Y0018200000D02*
X0020340000Y0018200000D01*
X0020340000Y0018100000D01*
X0020256000Y0018100000D01*
X0020256000Y0018200000D01*
G37*
G36*
X0019920000Y0018100000D02*
X0020004000Y0018100000D01*
X0020004000Y0018000000D01*
X0019920000Y0018000000D01*
X0019920000Y0018100000D01*
G37*
G36*
X0020004000Y0018100000D02*
X0020088000Y0018100000D01*
X0020088000Y0018000000D01*
X0020004000Y0018000000D01*
X0020004000Y0018100000D01*
G37*
G36*
X0020088000Y0018100000D02*
X0020172000Y0018100000D01*
X0020172000Y0018000000D01*
X0020088000Y0018000000D01*
X0020088000Y0018100000D01*
G37*
G36*
X0020172000Y0018100000D02*
X0020256000Y0018100000D01*
X0020256000Y0018000000D01*
X0020172000Y0018000000D01*
X0020172000Y0018100000D01*
G37*
G36*
X0020340000Y0018700000D02*
X0020424000Y0018700000D01*
X0020424000Y0018600000D01*
X0020340000Y0018600000D01*
X0020340000Y0018700000D01*
G37*
G36*
X0020424000Y0018700000D02*
X0020508000Y0018700000D01*
X0020508000Y0018600000D01*
X0020424000Y0018600000D01*
X0020424000Y0018700000D01*
G37*
G36*
X0020508000Y0018700000D02*
X0020592000Y0018700000D01*
X0020592000Y0018600000D01*
X0020508000Y0018600000D01*
X0020508000Y0018700000D01*
G37*
G36*
X0020592000Y0018700000D02*
X0020676000Y0018700000D01*
X0020676000Y0018600000D01*
X0020592000Y0018600000D01*
X0020592000Y0018700000D01*
G37*
G36*
X0020676000Y0018700000D02*
X0020760000Y0018700000D01*
X0020760000Y0018600000D01*
X0020676000Y0018600000D01*
X0020676000Y0018700000D01*
G37*
G36*
X0020340000Y0018600000D02*
X0020424000Y0018600000D01*
X0020424000Y0018500000D01*
X0020340000Y0018500000D01*
X0020340000Y0018600000D01*
G37*
G36*
X0020340000Y0018500000D02*
X0020424000Y0018500000D01*
X0020424000Y0018400000D01*
X0020340000Y0018400000D01*
X0020340000Y0018500000D01*
G37*
G36*
X0020340000Y0018400000D02*
X0020424000Y0018400000D01*
X0020424000Y0018300000D01*
X0020340000Y0018300000D01*
X0020340000Y0018400000D01*
G37*
G36*
X0020424000Y0018400000D02*
X0020508000Y0018400000D01*
X0020508000Y0018300000D01*
X0020424000Y0018300000D01*
X0020424000Y0018400000D01*
G37*
G36*
X0020508000Y0018400000D02*
X0020592000Y0018400000D01*
X0020592000Y0018300000D01*
X0020508000Y0018300000D01*
X0020508000Y0018400000D01*
G37*
G36*
X0020592000Y0018400000D02*
X0020676000Y0018400000D01*
X0020676000Y0018300000D01*
X0020592000Y0018300000D01*
X0020592000Y0018400000D01*
G37*
G36*
X0020340000Y0018300000D02*
X0020424000Y0018300000D01*
X0020424000Y0018200000D01*
X0020340000Y0018200000D01*
X0020340000Y0018300000D01*
G37*
G36*
X0020340000Y0018200000D02*
X0020424000Y0018200000D01*
X0020424000Y0018100000D01*
X0020340000Y0018100000D01*
X0020340000Y0018200000D01*
G37*
G36*
X0020340000Y0018100000D02*
X0020424000Y0018100000D01*
X0020424000Y0018000000D01*
X0020340000Y0018000000D01*
X0020340000Y0018100000D01*
G37*
G36*
X0020424000Y0018100000D02*
X0020508000Y0018100000D01*
X0020508000Y0018000000D01*
X0020424000Y0018000000D01*
X0020424000Y0018100000D01*
G37*
G36*
X0020508000Y0018100000D02*
X0020592000Y0018100000D01*
X0020592000Y0018000000D01*
X0020508000Y0018000000D01*
X0020508000Y0018100000D01*
G37*
G36*
X0020592000Y0018100000D02*
X0020676000Y0018100000D01*
X0020676000Y0018000000D01*
X0020592000Y0018000000D01*
X0020592000Y0018100000D01*
G37*
G36*
X0020676000Y0018100000D02*
X0020760000Y0018100000D01*
X0020760000Y0018000000D01*
X0020676000Y0018000000D01*
X0020676000Y0018100000D01*
G37*
G36*
X0021264000Y0018700000D02*
X0021348000Y0018700000D01*
X0021348000Y0018600000D01*
X0021264000Y0018600000D01*
X0021264000Y0018700000D01*
G37*
G36*
X0021348000Y0018700000D02*
X0021432000Y0018700000D01*
X0021432000Y0018600000D01*
X0021348000Y0018600000D01*
X0021348000Y0018700000D01*
G37*
G36*
X0021432000Y0018700000D02*
X0021516000Y0018700000D01*
X0021516000Y0018600000D01*
X0021432000Y0018600000D01*
X0021432000Y0018700000D01*
G37*
G36*
X0021180000Y0018600000D02*
X0021264000Y0018600000D01*
X0021264000Y0018500000D01*
X0021180000Y0018500000D01*
X0021180000Y0018600000D01*
G37*
G36*
X0021516000Y0018600000D02*
X0021600000Y0018600000D01*
X0021600000Y0018500000D01*
X0021516000Y0018500000D01*
X0021516000Y0018600000D01*
G37*
G36*
X0021180000Y0018500000D02*
X0021264000Y0018500000D01*
X0021264000Y0018400000D01*
X0021180000Y0018400000D01*
X0021180000Y0018500000D01*
G37*
G36*
X0021516000Y0018500000D02*
X0021600000Y0018500000D01*
X0021600000Y0018400000D01*
X0021516000Y0018400000D01*
X0021516000Y0018500000D01*
G37*
G36*
X0021264000Y0018400000D02*
X0021348000Y0018400000D01*
X0021348000Y0018300000D01*
X0021264000Y0018300000D01*
X0021264000Y0018400000D01*
G37*
G36*
X0021348000Y0018400000D02*
X0021432000Y0018400000D01*
X0021432000Y0018300000D01*
X0021348000Y0018300000D01*
X0021348000Y0018400000D01*
G37*
G36*
X0021432000Y0018400000D02*
X0021516000Y0018400000D01*
X0021516000Y0018300000D01*
X0021432000Y0018300000D01*
X0021432000Y0018400000D01*
G37*
G36*
X0021180000Y0018300000D02*
X0021264000Y0018300000D01*
X0021264000Y0018200000D01*
X0021180000Y0018200000D01*
X0021180000Y0018300000D01*
G37*
G36*
X0021516000Y0018300000D02*
X0021600000Y0018300000D01*
X0021600000Y0018200000D01*
X0021516000Y0018200000D01*
X0021516000Y0018300000D01*
G37*
G36*
X0021180000Y0018200000D02*
X0021264000Y0018200000D01*
X0021264000Y0018100000D01*
X0021180000Y0018100000D01*
X0021180000Y0018200000D01*
G37*
G36*
X0021516000Y0018200000D02*
X0021600000Y0018200000D01*
X0021600000Y0018100000D01*
X0021516000Y0018100000D01*
X0021516000Y0018200000D01*
G37*
G36*
X0021264000Y0018100000D02*
X0021348000Y0018100000D01*
X0021348000Y0018000000D01*
X0021264000Y0018000000D01*
X0021264000Y0018100000D01*
G37*
G36*
X0021348000Y0018100000D02*
X0021432000Y0018100000D01*
X0021432000Y0018000000D01*
X0021348000Y0018000000D01*
X0021348000Y0018100000D01*
G37*
G36*
X0021432000Y0018100000D02*
X0021516000Y0018100000D01*
X0021516000Y0018000000D01*
X0021432000Y0018000000D01*
X0021432000Y0018100000D01*
G37*
G36*
X0021600000Y0018700000D02*
X0021684000Y0018700000D01*
X0021684000Y0018600000D01*
X0021600000Y0018600000D01*
X0021600000Y0018700000D01*
G37*
G36*
X0021936000Y0018700000D02*
X0022020000Y0018700000D01*
X0022020000Y0018600000D01*
X0021936000Y0018600000D01*
X0021936000Y0018700000D01*
G37*
G36*
X0021600000Y0018600000D02*
X0021684000Y0018600000D01*
X0021684000Y0018500000D01*
X0021600000Y0018500000D01*
X0021600000Y0018600000D01*
G37*
G36*
X0021684000Y0018600000D02*
X0021768000Y0018600000D01*
X0021768000Y0018500000D01*
X0021684000Y0018500000D01*
X0021684000Y0018600000D01*
G37*
G36*
X0021852000Y0018600000D02*
X0021936000Y0018600000D01*
X0021936000Y0018500000D01*
X0021852000Y0018500000D01*
X0021852000Y0018600000D01*
G37*
G36*
X0021936000Y0018600000D02*
X0022020000Y0018600000D01*
X0022020000Y0018500000D01*
X0021936000Y0018500000D01*
X0021936000Y0018600000D01*
G37*
G36*
X0021600000Y0018500000D02*
X0021684000Y0018500000D01*
X0021684000Y0018400000D01*
X0021600000Y0018400000D01*
X0021600000Y0018500000D01*
G37*
G36*
X0021768000Y0018500000D02*
X0021852000Y0018500000D01*
X0021852000Y0018400000D01*
X0021768000Y0018400000D01*
X0021768000Y0018500000D01*
G37*
G36*
X0021936000Y0018500000D02*
X0022020000Y0018500000D01*
X0022020000Y0018400000D01*
X0021936000Y0018400000D01*
X0021936000Y0018500000D01*
G37*
G36*
X0021600000Y0018400000D02*
X0021684000Y0018400000D01*
X0021684000Y0018300000D01*
X0021600000Y0018300000D01*
X0021600000Y0018400000D01*
G37*
G36*
X0021768000Y0018400000D02*
X0021852000Y0018400000D01*
X0021852000Y0018300000D01*
X0021768000Y0018300000D01*
X0021768000Y0018400000D01*
G37*
G36*
X0021936000Y0018400000D02*
X0022020000Y0018400000D01*
X0022020000Y0018300000D01*
X0021936000Y0018300000D01*
X0021936000Y0018400000D01*
G37*
G36*
X0021600000Y0018300000D02*
X0021684000Y0018300000D01*
X0021684000Y0018200000D01*
X0021600000Y0018200000D01*
X0021600000Y0018300000D01*
G37*
G36*
X0021936000Y0018300000D02*
X0022020000Y0018300000D01*
X0022020000Y0018200000D01*
X0021936000Y0018200000D01*
X0021936000Y0018300000D01*
G37*
G36*
X0021600000Y0018200000D02*
X0021684000Y0018200000D01*
X0021684000Y0018100000D01*
X0021600000Y0018100000D01*
X0021600000Y0018200000D01*
G37*
G36*
X0021936000Y0018200000D02*
X0022020000Y0018200000D01*
X0022020000Y0018100000D01*
X0021936000Y0018100000D01*
X0021936000Y0018200000D01*
G37*
G36*
X0021600000Y0018100000D02*
X0021684000Y0018100000D01*
X0021684000Y0018000000D01*
X0021600000Y0018000000D01*
X0021600000Y0018100000D01*
G37*
G36*
X0021936000Y0018100000D02*
X0022020000Y0018100000D01*
X0022020000Y0018000000D01*
X0021936000Y0018000000D01*
X0021936000Y0018100000D01*
G37*
G36*
X0022020000Y0018700000D02*
X0022104000Y0018700000D01*
X0022104000Y0018600000D01*
X0022020000Y0018600000D01*
X0022020000Y0018700000D01*
G37*
G36*
X0022356000Y0018700000D02*
X0022440000Y0018700000D01*
X0022440000Y0018600000D01*
X0022356000Y0018600000D01*
X0022356000Y0018700000D01*
G37*
G36*
X0022020000Y0018600000D02*
X0022104000Y0018600000D01*
X0022104000Y0018500000D01*
X0022020000Y0018500000D01*
X0022020000Y0018600000D01*
G37*
G36*
X0022356000Y0018600000D02*
X0022440000Y0018600000D01*
X0022440000Y0018500000D01*
X0022356000Y0018500000D01*
X0022356000Y0018600000D01*
G37*
G36*
X0022020000Y0018500000D02*
X0022104000Y0018500000D01*
X0022104000Y0018400000D01*
X0022020000Y0018400000D01*
X0022020000Y0018500000D01*
G37*
G36*
X0022356000Y0018500000D02*
X0022440000Y0018500000D01*
X0022440000Y0018400000D01*
X0022356000Y0018400000D01*
X0022356000Y0018500000D01*
G37*
G36*
X0022020000Y0018400000D02*
X0022104000Y0018400000D01*
X0022104000Y0018300000D01*
X0022020000Y0018300000D01*
X0022020000Y0018400000D01*
G37*
G36*
X0022104000Y0018400000D02*
X0022188000Y0018400000D01*
X0022188000Y0018300000D01*
X0022104000Y0018300000D01*
X0022104000Y0018400000D01*
G37*
G36*
X0022188000Y0018400000D02*
X0022272000Y0018400000D01*
X0022272000Y0018300000D01*
X0022188000Y0018300000D01*
X0022188000Y0018400000D01*
G37*
G36*
X0022272000Y0018400000D02*
X0022356000Y0018400000D01*
X0022356000Y0018300000D01*
X0022272000Y0018300000D01*
X0022272000Y0018400000D01*
G37*
G36*
X0022356000Y0018400000D02*
X0022440000Y0018400000D01*
X0022440000Y0018300000D01*
X0022356000Y0018300000D01*
X0022356000Y0018400000D01*
G37*
G36*
X0022020000Y0018300000D02*
X0022104000Y0018300000D01*
X0022104000Y0018200000D01*
X0022020000Y0018200000D01*
X0022020000Y0018300000D01*
G37*
G36*
X0022356000Y0018300000D02*
X0022440000Y0018300000D01*
X0022440000Y0018200000D01*
X0022356000Y0018200000D01*
X0022356000Y0018300000D01*
G37*
G36*
X0022020000Y0018200000D02*
X0022104000Y0018200000D01*
X0022104000Y0018100000D01*
X0022020000Y0018100000D01*
X0022020000Y0018200000D01*
G37*
G36*
X0022356000Y0018200000D02*
X0022440000Y0018200000D01*
X0022440000Y0018100000D01*
X0022356000Y0018100000D01*
X0022356000Y0018200000D01*
G37*
G36*
X0022020000Y0018100000D02*
X0022104000Y0018100000D01*
X0022104000Y0018000000D01*
X0022020000Y0018000000D01*
X0022020000Y0018100000D01*
G37*
G36*
X0022356000Y0018100000D02*
X0022440000Y0018100000D01*
X0022440000Y0018000000D01*
X0022356000Y0018000000D01*
X0022356000Y0018100000D01*
G37*
G36*
X0022440000Y0018700000D02*
X0022524000Y0018700000D01*
X0022524000Y0018600000D01*
X0022440000Y0018600000D01*
X0022440000Y0018700000D01*
G37*
G36*
X0022524000Y0018700000D02*
X0022608000Y0018700000D01*
X0022608000Y0018600000D01*
X0022524000Y0018600000D01*
X0022524000Y0018700000D01*
G37*
G36*
X0022608000Y0018700000D02*
X0022692000Y0018700000D01*
X0022692000Y0018600000D01*
X0022608000Y0018600000D01*
X0022608000Y0018700000D01*
G37*
G36*
X0022692000Y0018700000D02*
X0022776000Y0018700000D01*
X0022776000Y0018600000D01*
X0022692000Y0018600000D01*
X0022692000Y0018700000D01*
G37*
G36*
X0022776000Y0018700000D02*
X0022860000Y0018700000D01*
X0022860000Y0018600000D01*
X0022776000Y0018600000D01*
X0022776000Y0018700000D01*
G37*
G36*
X0022776000Y0018600000D02*
X0022860000Y0018600000D01*
X0022860000Y0018500000D01*
X0022776000Y0018500000D01*
X0022776000Y0018600000D01*
G37*
G36*
X0022692000Y0018500000D02*
X0022776000Y0018500000D01*
X0022776000Y0018400000D01*
X0022692000Y0018400000D01*
X0022692000Y0018500000D01*
G37*
G36*
X0022608000Y0018400000D02*
X0022692000Y0018400000D01*
X0022692000Y0018300000D01*
X0022608000Y0018300000D01*
X0022608000Y0018400000D01*
G37*
G36*
X0022524000Y0018300000D02*
X0022608000Y0018300000D01*
X0022608000Y0018200000D01*
X0022524000Y0018200000D01*
X0022524000Y0018300000D01*
G37*
G36*
X0022440000Y0018200000D02*
X0022524000Y0018200000D01*
X0022524000Y0018100000D01*
X0022440000Y0018100000D01*
X0022440000Y0018200000D01*
G37*
G36*
X0022440000Y0018100000D02*
X0022524000Y0018100000D01*
X0022524000Y0018000000D01*
X0022440000Y0018000000D01*
X0022440000Y0018100000D01*
G37*
G36*
X0022524000Y0018100000D02*
X0022608000Y0018100000D01*
X0022608000Y0018000000D01*
X0022524000Y0018000000D01*
X0022524000Y0018100000D01*
G37*
G36*
X0022608000Y0018100000D02*
X0022692000Y0018100000D01*
X0022692000Y0018000000D01*
X0022608000Y0018000000D01*
X0022608000Y0018100000D01*
G37*
G36*
X0022692000Y0018100000D02*
X0022776000Y0018100000D01*
X0022776000Y0018000000D01*
X0022692000Y0018000000D01*
X0022692000Y0018100000D01*
G37*
G36*
X0022776000Y0018100000D02*
X0022860000Y0018100000D01*
X0022860000Y0018000000D01*
X0022776000Y0018000000D01*
X0022776000Y0018100000D01*
G37*
G04 TEXT GND POUR B.CU*
G36*
X0012084000Y0004200000D02*
X0012168000Y0004200000D01*
X0012168000Y0004100000D01*
X0012084000Y0004100000D01*
X0012084000Y0004200000D01*
G37*
G36*
X0012168000Y0004200000D02*
X0012252000Y0004200000D01*
X0012252000Y0004100000D01*
X0012168000Y0004100000D01*
X0012168000Y0004200000D01*
G37*
G36*
X0012252000Y0004200000D02*
X0012336000Y0004200000D01*
X0012336000Y0004100000D01*
X0012252000Y0004100000D01*
X0012252000Y0004200000D01*
G37*
G36*
X0012000000Y0004100000D02*
X0012084000Y0004100000D01*
X0012084000Y0004000000D01*
X0012000000Y0004000000D01*
X0012000000Y0004100000D01*
G37*
G36*
X0012336000Y0004100000D02*
X0012420000Y0004100000D01*
X0012420000Y0004000000D01*
X0012336000Y0004000000D01*
X0012336000Y0004100000D01*
G37*
G36*
X0012000000Y0004000000D02*
X0012084000Y0004000000D01*
X0012084000Y0003900000D01*
X0012000000Y0003900000D01*
X0012000000Y0004000000D01*
G37*
G36*
X0012000000Y0003900000D02*
X0012084000Y0003900000D01*
X0012084000Y0003800000D01*
X0012000000Y0003800000D01*
X0012000000Y0003900000D01*
G37*
G36*
X0012168000Y0003900000D02*
X0012252000Y0003900000D01*
X0012252000Y0003800000D01*
X0012168000Y0003800000D01*
X0012168000Y0003900000D01*
G37*
G36*
X0012252000Y0003900000D02*
X0012336000Y0003900000D01*
X0012336000Y0003800000D01*
X0012252000Y0003800000D01*
X0012252000Y0003900000D01*
G37*
G36*
X0012336000Y0003900000D02*
X0012420000Y0003900000D01*
X0012420000Y0003800000D01*
X0012336000Y0003800000D01*
X0012336000Y0003900000D01*
G37*
G36*
X0012000000Y0003800000D02*
X0012084000Y0003800000D01*
X0012084000Y0003700000D01*
X0012000000Y0003700000D01*
X0012000000Y0003800000D01*
G37*
G36*
X0012336000Y0003800000D02*
X0012420000Y0003800000D01*
X0012420000Y0003700000D01*
X0012336000Y0003700000D01*
X0012336000Y0003800000D01*
G37*
G36*
X0012000000Y0003700000D02*
X0012084000Y0003700000D01*
X0012084000Y0003600000D01*
X0012000000Y0003600000D01*
X0012000000Y0003700000D01*
G37*
G36*
X0012336000Y0003700000D02*
X0012420000Y0003700000D01*
X0012420000Y0003600000D01*
X0012336000Y0003600000D01*
X0012336000Y0003700000D01*
G37*
G36*
X0012084000Y0003600000D02*
X0012168000Y0003600000D01*
X0012168000Y0003500000D01*
X0012084000Y0003500000D01*
X0012084000Y0003600000D01*
G37*
G36*
X0012168000Y0003600000D02*
X0012252000Y0003600000D01*
X0012252000Y0003500000D01*
X0012168000Y0003500000D01*
X0012168000Y0003600000D01*
G37*
G36*
X0012252000Y0003600000D02*
X0012336000Y0003600000D01*
X0012336000Y0003500000D01*
X0012252000Y0003500000D01*
X0012252000Y0003600000D01*
G37*
G36*
X0012420000Y0004200000D02*
X0012504000Y0004200000D01*
X0012504000Y0004100000D01*
X0012420000Y0004100000D01*
X0012420000Y0004200000D01*
G37*
G36*
X0012756000Y0004200000D02*
X0012840000Y0004200000D01*
X0012840000Y0004100000D01*
X0012756000Y0004100000D01*
X0012756000Y0004200000D01*
G37*
G36*
X0012420000Y0004100000D02*
X0012504000Y0004100000D01*
X0012504000Y0004000000D01*
X0012420000Y0004000000D01*
X0012420000Y0004100000D01*
G37*
G36*
X0012504000Y0004100000D02*
X0012588000Y0004100000D01*
X0012588000Y0004000000D01*
X0012504000Y0004000000D01*
X0012504000Y0004100000D01*
G37*
G36*
X0012756000Y0004100000D02*
X0012840000Y0004100000D01*
X0012840000Y0004000000D01*
X0012756000Y0004000000D01*
X0012756000Y0004100000D01*
G37*
G36*
X0012420000Y0004000000D02*
X0012504000Y0004000000D01*
X0012504000Y0003900000D01*
X0012420000Y0003900000D01*
X0012420000Y0004000000D01*
G37*
G36*
X0012588000Y0004000000D02*
X0012672000Y0004000000D01*
X0012672000Y0003900000D01*
X0012588000Y0003900000D01*
X0012588000Y0004000000D01*
G37*
G36*
X0012756000Y0004000000D02*
X0012840000Y0004000000D01*
X0012840000Y0003900000D01*
X0012756000Y0003900000D01*
X0012756000Y0004000000D01*
G37*
G36*
X0012420000Y0003900000D02*
X0012504000Y0003900000D01*
X0012504000Y0003800000D01*
X0012420000Y0003800000D01*
X0012420000Y0003900000D01*
G37*
G36*
X0012672000Y0003900000D02*
X0012756000Y0003900000D01*
X0012756000Y0003800000D01*
X0012672000Y0003800000D01*
X0012672000Y0003900000D01*
G37*
G36*
X0012756000Y0003900000D02*
X0012840000Y0003900000D01*
X0012840000Y0003800000D01*
X0012756000Y0003800000D01*
X0012756000Y0003900000D01*
G37*
G36*
X0012420000Y0003800000D02*
X0012504000Y0003800000D01*
X0012504000Y0003700000D01*
X0012420000Y0003700000D01*
X0012420000Y0003800000D01*
G37*
G36*
X0012756000Y0003800000D02*
X0012840000Y0003800000D01*
X0012840000Y0003700000D01*
X0012756000Y0003700000D01*
X0012756000Y0003800000D01*
G37*
G36*
X0012420000Y0003700000D02*
X0012504000Y0003700000D01*
X0012504000Y0003600000D01*
X0012420000Y0003600000D01*
X0012420000Y0003700000D01*
G37*
G36*
X0012756000Y0003700000D02*
X0012840000Y0003700000D01*
X0012840000Y0003600000D01*
X0012756000Y0003600000D01*
X0012756000Y0003700000D01*
G37*
G36*
X0012420000Y0003600000D02*
X0012504000Y0003600000D01*
X0012504000Y0003500000D01*
X0012420000Y0003500000D01*
X0012420000Y0003600000D01*
G37*
G36*
X0012756000Y0003600000D02*
X0012840000Y0003600000D01*
X0012840000Y0003500000D01*
X0012756000Y0003500000D01*
X0012756000Y0003600000D01*
G37*
G36*
X0012840000Y0004200000D02*
X0012924000Y0004200000D01*
X0012924000Y0004100000D01*
X0012840000Y0004100000D01*
X0012840000Y0004200000D01*
G37*
G36*
X0012924000Y0004200000D02*
X0013008000Y0004200000D01*
X0013008000Y0004100000D01*
X0012924000Y0004100000D01*
X0012924000Y0004200000D01*
G37*
G36*
X0013008000Y0004200000D02*
X0013092000Y0004200000D01*
X0013092000Y0004100000D01*
X0013008000Y0004100000D01*
X0013008000Y0004200000D01*
G37*
G36*
X0013092000Y0004200000D02*
X0013176000Y0004200000D01*
X0013176000Y0004100000D01*
X0013092000Y0004100000D01*
X0013092000Y0004200000D01*
G37*
G36*
X0012840000Y0004100000D02*
X0012924000Y0004100000D01*
X0012924000Y0004000000D01*
X0012840000Y0004000000D01*
X0012840000Y0004100000D01*
G37*
G36*
X0013176000Y0004100000D02*
X0013260000Y0004100000D01*
X0013260000Y0004000000D01*
X0013176000Y0004000000D01*
X0013176000Y0004100000D01*
G37*
G36*
X0012840000Y0004000000D02*
X0012924000Y0004000000D01*
X0012924000Y0003900000D01*
X0012840000Y0003900000D01*
X0012840000Y0004000000D01*
G37*
G36*
X0013176000Y0004000000D02*
X0013260000Y0004000000D01*
X0013260000Y0003900000D01*
X0013176000Y0003900000D01*
X0013176000Y0004000000D01*
G37*
G36*
X0012840000Y0003900000D02*
X0012924000Y0003900000D01*
X0012924000Y0003800000D01*
X0012840000Y0003800000D01*
X0012840000Y0003900000D01*
G37*
G36*
X0013176000Y0003900000D02*
X0013260000Y0003900000D01*
X0013260000Y0003800000D01*
X0013176000Y0003800000D01*
X0013176000Y0003900000D01*
G37*
G36*
X0012840000Y0003800000D02*
X0012924000Y0003800000D01*
X0012924000Y0003700000D01*
X0012840000Y0003700000D01*
X0012840000Y0003800000D01*
G37*
G36*
X0013176000Y0003800000D02*
X0013260000Y0003800000D01*
X0013260000Y0003700000D01*
X0013176000Y0003700000D01*
X0013176000Y0003800000D01*
G37*
G36*
X0012840000Y0003700000D02*
X0012924000Y0003700000D01*
X0012924000Y0003600000D01*
X0012840000Y0003600000D01*
X0012840000Y0003700000D01*
G37*
G36*
X0013176000Y0003700000D02*
X0013260000Y0003700000D01*
X0013260000Y0003600000D01*
X0013176000Y0003600000D01*
X0013176000Y0003700000D01*
G37*
G36*
X0012840000Y0003600000D02*
X0012924000Y0003600000D01*
X0012924000Y0003500000D01*
X0012840000Y0003500000D01*
X0012840000Y0003600000D01*
G37*
G36*
X0012924000Y0003600000D02*
X0013008000Y0003600000D01*
X0013008000Y0003500000D01*
X0012924000Y0003500000D01*
X0012924000Y0003600000D01*
G37*
G36*
X0013008000Y0003600000D02*
X0013092000Y0003600000D01*
X0013092000Y0003500000D01*
X0013008000Y0003500000D01*
X0013008000Y0003600000D01*
G37*
G36*
X0013092000Y0003600000D02*
X0013176000Y0003600000D01*
X0013176000Y0003500000D01*
X0013092000Y0003500000D01*
X0013092000Y0003600000D01*
G37*
G36*
X0013680000Y0004200000D02*
X0013764000Y0004200000D01*
X0013764000Y0004100000D01*
X0013680000Y0004100000D01*
X0013680000Y0004200000D01*
G37*
G36*
X0013764000Y0004200000D02*
X0013848000Y0004200000D01*
X0013848000Y0004100000D01*
X0013764000Y0004100000D01*
X0013764000Y0004200000D01*
G37*
G36*
X0013848000Y0004200000D02*
X0013932000Y0004200000D01*
X0013932000Y0004100000D01*
X0013848000Y0004100000D01*
X0013848000Y0004200000D01*
G37*
G36*
X0013932000Y0004200000D02*
X0014016000Y0004200000D01*
X0014016000Y0004100000D01*
X0013932000Y0004100000D01*
X0013932000Y0004200000D01*
G37*
G36*
X0013680000Y0004100000D02*
X0013764000Y0004100000D01*
X0013764000Y0004000000D01*
X0013680000Y0004000000D01*
X0013680000Y0004100000D01*
G37*
G36*
X0014016000Y0004100000D02*
X0014100000Y0004100000D01*
X0014100000Y0004000000D01*
X0014016000Y0004000000D01*
X0014016000Y0004100000D01*
G37*
G36*
X0013680000Y0004000000D02*
X0013764000Y0004000000D01*
X0013764000Y0003900000D01*
X0013680000Y0003900000D01*
X0013680000Y0004000000D01*
G37*
G36*
X0014016000Y0004000000D02*
X0014100000Y0004000000D01*
X0014100000Y0003900000D01*
X0014016000Y0003900000D01*
X0014016000Y0004000000D01*
G37*
G36*
X0013680000Y0003900000D02*
X0013764000Y0003900000D01*
X0013764000Y0003800000D01*
X0013680000Y0003800000D01*
X0013680000Y0003900000D01*
G37*
G36*
X0013764000Y0003900000D02*
X0013848000Y0003900000D01*
X0013848000Y0003800000D01*
X0013764000Y0003800000D01*
X0013764000Y0003900000D01*
G37*
G36*
X0013848000Y0003900000D02*
X0013932000Y0003900000D01*
X0013932000Y0003800000D01*
X0013848000Y0003800000D01*
X0013848000Y0003900000D01*
G37*
G36*
X0013932000Y0003900000D02*
X0014016000Y0003900000D01*
X0014016000Y0003800000D01*
X0013932000Y0003800000D01*
X0013932000Y0003900000D01*
G37*
G36*
X0013680000Y0003800000D02*
X0013764000Y0003800000D01*
X0013764000Y0003700000D01*
X0013680000Y0003700000D01*
X0013680000Y0003800000D01*
G37*
G36*
X0013680000Y0003700000D02*
X0013764000Y0003700000D01*
X0013764000Y0003600000D01*
X0013680000Y0003600000D01*
X0013680000Y0003700000D01*
G37*
G36*
X0013680000Y0003600000D02*
X0013764000Y0003600000D01*
X0013764000Y0003500000D01*
X0013680000Y0003500000D01*
X0013680000Y0003600000D01*
G37*
G36*
X0014184000Y0004200000D02*
X0014268000Y0004200000D01*
X0014268000Y0004100000D01*
X0014184000Y0004100000D01*
X0014184000Y0004200000D01*
G37*
G36*
X0014268000Y0004200000D02*
X0014352000Y0004200000D01*
X0014352000Y0004100000D01*
X0014268000Y0004100000D01*
X0014268000Y0004200000D01*
G37*
G36*
X0014352000Y0004200000D02*
X0014436000Y0004200000D01*
X0014436000Y0004100000D01*
X0014352000Y0004100000D01*
X0014352000Y0004200000D01*
G37*
G36*
X0014100000Y0004100000D02*
X0014184000Y0004100000D01*
X0014184000Y0004000000D01*
X0014100000Y0004000000D01*
X0014100000Y0004100000D01*
G37*
G36*
X0014436000Y0004100000D02*
X0014520000Y0004100000D01*
X0014520000Y0004000000D01*
X0014436000Y0004000000D01*
X0014436000Y0004100000D01*
G37*
G36*
X0014100000Y0004000000D02*
X0014184000Y0004000000D01*
X0014184000Y0003900000D01*
X0014100000Y0003900000D01*
X0014100000Y0004000000D01*
G37*
G36*
X0014436000Y0004000000D02*
X0014520000Y0004000000D01*
X0014520000Y0003900000D01*
X0014436000Y0003900000D01*
X0014436000Y0004000000D01*
G37*
G36*
X0014100000Y0003900000D02*
X0014184000Y0003900000D01*
X0014184000Y0003800000D01*
X0014100000Y0003800000D01*
X0014100000Y0003900000D01*
G37*
G36*
X0014436000Y0003900000D02*
X0014520000Y0003900000D01*
X0014520000Y0003800000D01*
X0014436000Y0003800000D01*
X0014436000Y0003900000D01*
G37*
G36*
X0014100000Y0003800000D02*
X0014184000Y0003800000D01*
X0014184000Y0003700000D01*
X0014100000Y0003700000D01*
X0014100000Y0003800000D01*
G37*
G36*
X0014436000Y0003800000D02*
X0014520000Y0003800000D01*
X0014520000Y0003700000D01*
X0014436000Y0003700000D01*
X0014436000Y0003800000D01*
G37*
G36*
X0014100000Y0003700000D02*
X0014184000Y0003700000D01*
X0014184000Y0003600000D01*
X0014100000Y0003600000D01*
X0014100000Y0003700000D01*
G37*
G36*
X0014436000Y0003700000D02*
X0014520000Y0003700000D01*
X0014520000Y0003600000D01*
X0014436000Y0003600000D01*
X0014436000Y0003700000D01*
G37*
G36*
X0014184000Y0003600000D02*
X0014268000Y0003600000D01*
X0014268000Y0003500000D01*
X0014184000Y0003500000D01*
X0014184000Y0003600000D01*
G37*
G36*
X0014268000Y0003600000D02*
X0014352000Y0003600000D01*
X0014352000Y0003500000D01*
X0014268000Y0003500000D01*
X0014268000Y0003600000D01*
G37*
G36*
X0014352000Y0003600000D02*
X0014436000Y0003600000D01*
X0014436000Y0003500000D01*
X0014352000Y0003500000D01*
X0014352000Y0003600000D01*
G37*
G36*
X0014520000Y0004200000D02*
X0014604000Y0004200000D01*
X0014604000Y0004100000D01*
X0014520000Y0004100000D01*
X0014520000Y0004200000D01*
G37*
G36*
X0014856000Y0004200000D02*
X0014940000Y0004200000D01*
X0014940000Y0004100000D01*
X0014856000Y0004100000D01*
X0014856000Y0004200000D01*
G37*
G36*
X0014520000Y0004100000D02*
X0014604000Y0004100000D01*
X0014604000Y0004000000D01*
X0014520000Y0004000000D01*
X0014520000Y0004100000D01*
G37*
G36*
X0014856000Y0004100000D02*
X0014940000Y0004100000D01*
X0014940000Y0004000000D01*
X0014856000Y0004000000D01*
X0014856000Y0004100000D01*
G37*
G36*
X0014520000Y0004000000D02*
X0014604000Y0004000000D01*
X0014604000Y0003900000D01*
X0014520000Y0003900000D01*
X0014520000Y0004000000D01*
G37*
G36*
X0014856000Y0004000000D02*
X0014940000Y0004000000D01*
X0014940000Y0003900000D01*
X0014856000Y0003900000D01*
X0014856000Y0004000000D01*
G37*
G36*
X0014520000Y0003900000D02*
X0014604000Y0003900000D01*
X0014604000Y0003800000D01*
X0014520000Y0003800000D01*
X0014520000Y0003900000D01*
G37*
G36*
X0014856000Y0003900000D02*
X0014940000Y0003900000D01*
X0014940000Y0003800000D01*
X0014856000Y0003800000D01*
X0014856000Y0003900000D01*
G37*
G36*
X0014520000Y0003800000D02*
X0014604000Y0003800000D01*
X0014604000Y0003700000D01*
X0014520000Y0003700000D01*
X0014520000Y0003800000D01*
G37*
G36*
X0014856000Y0003800000D02*
X0014940000Y0003800000D01*
X0014940000Y0003700000D01*
X0014856000Y0003700000D01*
X0014856000Y0003800000D01*
G37*
G36*
X0014520000Y0003700000D02*
X0014604000Y0003700000D01*
X0014604000Y0003600000D01*
X0014520000Y0003600000D01*
X0014520000Y0003700000D01*
G37*
G36*
X0014856000Y0003700000D02*
X0014940000Y0003700000D01*
X0014940000Y0003600000D01*
X0014856000Y0003600000D01*
X0014856000Y0003700000D01*
G37*
G36*
X0014604000Y0003600000D02*
X0014688000Y0003600000D01*
X0014688000Y0003500000D01*
X0014604000Y0003500000D01*
X0014604000Y0003600000D01*
G37*
G36*
X0014688000Y0003600000D02*
X0014772000Y0003600000D01*
X0014772000Y0003500000D01*
X0014688000Y0003500000D01*
X0014688000Y0003600000D01*
G37*
G36*
X0014772000Y0003600000D02*
X0014856000Y0003600000D01*
X0014856000Y0003500000D01*
X0014772000Y0003500000D01*
X0014772000Y0003600000D01*
G37*
G36*
X0014940000Y0004200000D02*
X0015024000Y0004200000D01*
X0015024000Y0004100000D01*
X0014940000Y0004100000D01*
X0014940000Y0004200000D01*
G37*
G36*
X0015024000Y0004200000D02*
X0015108000Y0004200000D01*
X0015108000Y0004100000D01*
X0015024000Y0004100000D01*
X0015024000Y0004200000D01*
G37*
G36*
X0015108000Y0004200000D02*
X0015192000Y0004200000D01*
X0015192000Y0004100000D01*
X0015108000Y0004100000D01*
X0015108000Y0004200000D01*
G37*
G36*
X0015192000Y0004200000D02*
X0015276000Y0004200000D01*
X0015276000Y0004100000D01*
X0015192000Y0004100000D01*
X0015192000Y0004200000D01*
G37*
G36*
X0014940000Y0004100000D02*
X0015024000Y0004100000D01*
X0015024000Y0004000000D01*
X0014940000Y0004000000D01*
X0014940000Y0004100000D01*
G37*
G36*
X0015276000Y0004100000D02*
X0015360000Y0004100000D01*
X0015360000Y0004000000D01*
X0015276000Y0004000000D01*
X0015276000Y0004100000D01*
G37*
G36*
X0014940000Y0004000000D02*
X0015024000Y0004000000D01*
X0015024000Y0003900000D01*
X0014940000Y0003900000D01*
X0014940000Y0004000000D01*
G37*
G36*
X0015276000Y0004000000D02*
X0015360000Y0004000000D01*
X0015360000Y0003900000D01*
X0015276000Y0003900000D01*
X0015276000Y0004000000D01*
G37*
G36*
X0014940000Y0003900000D02*
X0015024000Y0003900000D01*
X0015024000Y0003800000D01*
X0014940000Y0003800000D01*
X0014940000Y0003900000D01*
G37*
G36*
X0015024000Y0003900000D02*
X0015108000Y0003900000D01*
X0015108000Y0003800000D01*
X0015024000Y0003800000D01*
X0015024000Y0003900000D01*
G37*
G36*
X0015108000Y0003900000D02*
X0015192000Y0003900000D01*
X0015192000Y0003800000D01*
X0015108000Y0003800000D01*
X0015108000Y0003900000D01*
G37*
G36*
X0015192000Y0003900000D02*
X0015276000Y0003900000D01*
X0015276000Y0003800000D01*
X0015192000Y0003800000D01*
X0015192000Y0003900000D01*
G37*
G36*
X0014940000Y0003800000D02*
X0015024000Y0003800000D01*
X0015024000Y0003700000D01*
X0014940000Y0003700000D01*
X0014940000Y0003800000D01*
G37*
G36*
X0015108000Y0003800000D02*
X0015192000Y0003800000D01*
X0015192000Y0003700000D01*
X0015108000Y0003700000D01*
X0015108000Y0003800000D01*
G37*
G36*
X0014940000Y0003700000D02*
X0015024000Y0003700000D01*
X0015024000Y0003600000D01*
X0014940000Y0003600000D01*
X0014940000Y0003700000D01*
G37*
G36*
X0015192000Y0003700000D02*
X0015276000Y0003700000D01*
X0015276000Y0003600000D01*
X0015192000Y0003600000D01*
X0015192000Y0003700000D01*
G37*
G36*
X0014940000Y0003600000D02*
X0015024000Y0003600000D01*
X0015024000Y0003500000D01*
X0014940000Y0003500000D01*
X0014940000Y0003600000D01*
G37*
G36*
X0015276000Y0003600000D02*
X0015360000Y0003600000D01*
X0015360000Y0003500000D01*
X0015276000Y0003500000D01*
X0015276000Y0003600000D01*
G37*
G36*
X0015780000Y0004200000D02*
X0015864000Y0004200000D01*
X0015864000Y0004100000D01*
X0015780000Y0004100000D01*
X0015780000Y0004200000D01*
G37*
G36*
X0015864000Y0004200000D02*
X0015948000Y0004200000D01*
X0015948000Y0004100000D01*
X0015864000Y0004100000D01*
X0015864000Y0004200000D01*
G37*
G36*
X0015948000Y0004200000D02*
X0016032000Y0004200000D01*
X0016032000Y0004100000D01*
X0015948000Y0004100000D01*
X0015948000Y0004200000D01*
G37*
G36*
X0016032000Y0004200000D02*
X0016116000Y0004200000D01*
X0016116000Y0004100000D01*
X0016032000Y0004100000D01*
X0016032000Y0004200000D01*
G37*
G36*
X0015780000Y0004100000D02*
X0015864000Y0004100000D01*
X0015864000Y0004000000D01*
X0015780000Y0004000000D01*
X0015780000Y0004100000D01*
G37*
G36*
X0016116000Y0004100000D02*
X0016200000Y0004100000D01*
X0016200000Y0004000000D01*
X0016116000Y0004000000D01*
X0016116000Y0004100000D01*
G37*
G36*
X0015780000Y0004000000D02*
X0015864000Y0004000000D01*
X0015864000Y0003900000D01*
X0015780000Y0003900000D01*
X0015780000Y0004000000D01*
G37*
G36*
X0016116000Y0004000000D02*
X0016200000Y0004000000D01*
X0016200000Y0003900000D01*
X0016116000Y0003900000D01*
X0016116000Y0004000000D01*
G37*
G36*
X0015780000Y0003900000D02*
X0015864000Y0003900000D01*
X0015864000Y0003800000D01*
X0015780000Y0003800000D01*
X0015780000Y0003900000D01*
G37*
G36*
X0015864000Y0003900000D02*
X0015948000Y0003900000D01*
X0015948000Y0003800000D01*
X0015864000Y0003800000D01*
X0015864000Y0003900000D01*
G37*
G36*
X0015948000Y0003900000D02*
X0016032000Y0003900000D01*
X0016032000Y0003800000D01*
X0015948000Y0003800000D01*
X0015948000Y0003900000D01*
G37*
G36*
X0016032000Y0003900000D02*
X0016116000Y0003900000D01*
X0016116000Y0003800000D01*
X0016032000Y0003800000D01*
X0016032000Y0003900000D01*
G37*
G36*
X0015780000Y0003800000D02*
X0015864000Y0003800000D01*
X0015864000Y0003700000D01*
X0015780000Y0003700000D01*
X0015780000Y0003800000D01*
G37*
G36*
X0016116000Y0003800000D02*
X0016200000Y0003800000D01*
X0016200000Y0003700000D01*
X0016116000Y0003700000D01*
X0016116000Y0003800000D01*
G37*
G36*
X0015780000Y0003700000D02*
X0015864000Y0003700000D01*
X0015864000Y0003600000D01*
X0015780000Y0003600000D01*
X0015780000Y0003700000D01*
G37*
G36*
X0016116000Y0003700000D02*
X0016200000Y0003700000D01*
X0016200000Y0003600000D01*
X0016116000Y0003600000D01*
X0016116000Y0003700000D01*
G37*
G36*
X0015780000Y0003600000D02*
X0015864000Y0003600000D01*
X0015864000Y0003500000D01*
X0015780000Y0003500000D01*
X0015780000Y0003600000D01*
G37*
G36*
X0015864000Y0003600000D02*
X0015948000Y0003600000D01*
X0015948000Y0003500000D01*
X0015864000Y0003500000D01*
X0015864000Y0003600000D01*
G37*
G36*
X0015948000Y0003600000D02*
X0016032000Y0003600000D01*
X0016032000Y0003500000D01*
X0015948000Y0003500000D01*
X0015948000Y0003600000D01*
G37*
G36*
X0016032000Y0003600000D02*
X0016116000Y0003600000D01*
X0016116000Y0003500000D01*
X0016032000Y0003500000D01*
X0016032000Y0003600000D01*
G37*
G36*
X0016284000Y0003700000D02*
X0016368000Y0003700000D01*
X0016368000Y0003600000D01*
X0016284000Y0003600000D01*
X0016284000Y0003700000D01*
G37*
G36*
X0016368000Y0003700000D02*
X0016452000Y0003700000D01*
X0016452000Y0003600000D01*
X0016368000Y0003600000D01*
X0016368000Y0003700000D01*
G37*
G36*
X0016284000Y0003600000D02*
X0016368000Y0003600000D01*
X0016368000Y0003500000D01*
X0016284000Y0003500000D01*
X0016284000Y0003600000D01*
G37*
G36*
X0016368000Y0003600000D02*
X0016452000Y0003600000D01*
X0016452000Y0003500000D01*
X0016368000Y0003500000D01*
X0016368000Y0003600000D01*
G37*
G36*
X0016704000Y0004200000D02*
X0016788000Y0004200000D01*
X0016788000Y0004100000D01*
X0016704000Y0004100000D01*
X0016704000Y0004200000D01*
G37*
G36*
X0016788000Y0004200000D02*
X0016872000Y0004200000D01*
X0016872000Y0004100000D01*
X0016788000Y0004100000D01*
X0016788000Y0004200000D01*
G37*
G36*
X0016872000Y0004200000D02*
X0016956000Y0004200000D01*
X0016956000Y0004100000D01*
X0016872000Y0004100000D01*
X0016872000Y0004200000D01*
G37*
G36*
X0016620000Y0004100000D02*
X0016704000Y0004100000D01*
X0016704000Y0004000000D01*
X0016620000Y0004000000D01*
X0016620000Y0004100000D01*
G37*
G36*
X0016956000Y0004100000D02*
X0017040000Y0004100000D01*
X0017040000Y0004000000D01*
X0016956000Y0004000000D01*
X0016956000Y0004100000D01*
G37*
G36*
X0016620000Y0004000000D02*
X0016704000Y0004000000D01*
X0016704000Y0003900000D01*
X0016620000Y0003900000D01*
X0016620000Y0004000000D01*
G37*
G36*
X0016620000Y0003900000D02*
X0016704000Y0003900000D01*
X0016704000Y0003800000D01*
X0016620000Y0003800000D01*
X0016620000Y0003900000D01*
G37*
G36*
X0016620000Y0003800000D02*
X0016704000Y0003800000D01*
X0016704000Y0003700000D01*
X0016620000Y0003700000D01*
X0016620000Y0003800000D01*
G37*
G36*
X0016620000Y0003700000D02*
X0016704000Y0003700000D01*
X0016704000Y0003600000D01*
X0016620000Y0003600000D01*
X0016620000Y0003700000D01*
G37*
G36*
X0016956000Y0003700000D02*
X0017040000Y0003700000D01*
X0017040000Y0003600000D01*
X0016956000Y0003600000D01*
X0016956000Y0003700000D01*
G37*
G36*
X0016704000Y0003600000D02*
X0016788000Y0003600000D01*
X0016788000Y0003500000D01*
X0016704000Y0003500000D01*
X0016704000Y0003600000D01*
G37*
G36*
X0016788000Y0003600000D02*
X0016872000Y0003600000D01*
X0016872000Y0003500000D01*
X0016788000Y0003500000D01*
X0016788000Y0003600000D01*
G37*
G36*
X0016872000Y0003600000D02*
X0016956000Y0003600000D01*
X0016956000Y0003500000D01*
X0016872000Y0003500000D01*
X0016872000Y0003600000D01*
G37*
G36*
X0017040000Y0004200000D02*
X0017124000Y0004200000D01*
X0017124000Y0004100000D01*
X0017040000Y0004100000D01*
X0017040000Y0004200000D01*
G37*
G36*
X0017376000Y0004200000D02*
X0017460000Y0004200000D01*
X0017460000Y0004100000D01*
X0017376000Y0004100000D01*
X0017376000Y0004200000D01*
G37*
G36*
X0017040000Y0004100000D02*
X0017124000Y0004100000D01*
X0017124000Y0004000000D01*
X0017040000Y0004000000D01*
X0017040000Y0004100000D01*
G37*
G36*
X0017376000Y0004100000D02*
X0017460000Y0004100000D01*
X0017460000Y0004000000D01*
X0017376000Y0004000000D01*
X0017376000Y0004100000D01*
G37*
G36*
X0017040000Y0004000000D02*
X0017124000Y0004000000D01*
X0017124000Y0003900000D01*
X0017040000Y0003900000D01*
X0017040000Y0004000000D01*
G37*
G36*
X0017376000Y0004000000D02*
X0017460000Y0004000000D01*
X0017460000Y0003900000D01*
X0017376000Y0003900000D01*
X0017376000Y0004000000D01*
G37*
G36*
X0017040000Y0003900000D02*
X0017124000Y0003900000D01*
X0017124000Y0003800000D01*
X0017040000Y0003800000D01*
X0017040000Y0003900000D01*
G37*
G36*
X0017376000Y0003900000D02*
X0017460000Y0003900000D01*
X0017460000Y0003800000D01*
X0017376000Y0003800000D01*
X0017376000Y0003900000D01*
G37*
G36*
X0017040000Y0003800000D02*
X0017124000Y0003800000D01*
X0017124000Y0003700000D01*
X0017040000Y0003700000D01*
X0017040000Y0003800000D01*
G37*
G36*
X0017376000Y0003800000D02*
X0017460000Y0003800000D01*
X0017460000Y0003700000D01*
X0017376000Y0003700000D01*
X0017376000Y0003800000D01*
G37*
G36*
X0017040000Y0003700000D02*
X0017124000Y0003700000D01*
X0017124000Y0003600000D01*
X0017040000Y0003600000D01*
X0017040000Y0003700000D01*
G37*
G36*
X0017376000Y0003700000D02*
X0017460000Y0003700000D01*
X0017460000Y0003600000D01*
X0017376000Y0003600000D01*
X0017376000Y0003700000D01*
G37*
G36*
X0017124000Y0003600000D02*
X0017208000Y0003600000D01*
X0017208000Y0003500000D01*
X0017124000Y0003500000D01*
X0017124000Y0003600000D01*
G37*
G36*
X0017208000Y0003600000D02*
X0017292000Y0003600000D01*
X0017292000Y0003500000D01*
X0017208000Y0003500000D01*
X0017208000Y0003600000D01*
G37*
G36*
X0017292000Y0003600000D02*
X0017376000Y0003600000D01*
X0017376000Y0003500000D01*
X0017292000Y0003500000D01*
X0017292000Y0003600000D01*
G37*
M02*
