G04 Volt Gerber RS-274X*
%FSLAX46Y46*%
%MOMM*%
%TF.GenerationSoftware,Volt,Volt Native Fabrication Exporter,0.1*%
%TF.FileFunction,Copper,L1,Top*%
%TF.FilePolarity,Positive*%
%LPD*%
%ADD10C,0.200000*%
D10*
X0006000000Y0029270000D02*
X0009500000Y0029270000D01*
X0006000000Y0044810000D02*
X0016250000Y0044810000D01*
X0016250000Y0044810000D02*
X0016250000Y0035000000D01*
X0016250000Y0035000000D02*
X0016250000Y0037618750D01*
X0016250000Y0037618750D02*
X0021712500Y0037618750D01*
X0021712500Y0037618750D02*
X0025300000Y0037618750D01*
X0025300000Y0037618750D02*
X0025300000Y0042500000D01*
X0023000000Y0038950000D02*
X0023000000Y0042500000D01*
X0023000000Y0042500000D02*
X0023000000Y0044187500D01*
X0023000000Y0044187500D02*
X0032250000Y0044187500D01*
X0032250000Y0044187500D02*
X0030250000Y0044187500D01*
X0030250000Y0044187500D02*
X0030250000Y0035000000D01*
X0030250000Y0035000000D02*
X0030250000Y0037493750D01*
X0030250000Y0037493750D02*
X0036212500Y0037493750D01*
X0036212500Y0037493750D02*
X0040300000Y0037493750D01*
X0040300000Y0037493750D02*
X0040300000Y0042500000D01*
X0038000000Y0038950000D02*
X0038000000Y0042500000D01*
X0038000000Y0042500000D02*
X0038000000Y0044187500D01*
X0038000000Y0044187500D02*
X0047250000Y0044187500D01*
X0047250000Y0044187500D02*
X0045250000Y0044187500D01*
X0045250000Y0044187500D02*
X0045250000Y0035000000D01*
X0033000000Y0028750000D02*
X0032200000Y0028750000D01*
X0032200000Y0028750000D02*
X0032200000Y0027250000D01*
X0032200000Y0027250000D02*
X0032200000Y0025750000D01*
X0032200000Y0025750000D02*
X0033000000Y0025750000D01*
X0006000000Y0042270000D02*
X0006000000Y0040500000D01*
X0006000000Y0039730000D02*
X0006000000Y0037500000D01*
X0006000000Y0037190000D02*
X0006000000Y0035000000D01*
X0017750000Y0035000000D02*
X0018000000Y0035000000D01*
X0018000000Y0035000000D02*
X0018000000Y0033000000D01*
X0020700000Y0042500000D02*
X0020500000Y0042500000D01*
X0020500000Y0042500000D02*
X0020500000Y0040500000D01*
X0031750000Y0035000000D02*
X0032000000Y0035000000D01*
X0032000000Y0035000000D02*
X0032000000Y0033000000D01*
X0035700000Y0042500000D02*
X0035500000Y0042500000D01*
X0035500000Y0042500000D02*
X0035500000Y0040500000D01*
X0046750000Y0035000000D02*
X0047000000Y0035000000D01*
X0047000000Y0035000000D02*
X0047000000Y0033000000D01*
X0033000000Y0027250000D02*
X0033800000Y0027250000D01*
X0033800000Y0027250000D02*
X0033800000Y0026125000D01*
X0033800000Y0026125000D02*
X0033800000Y0025000000D01*
X0033800000Y0025000000D02*
X0033000000Y0025000000D01*
X0043200000Y0023250000D02*
X0043000000Y0023250000D01*
X0043000000Y0023250000D02*
X0043000000Y0020000000D01*
X0046250000Y0032800000D02*
X0046250000Y0032103142D01*
X0046250000Y0032103142D02*
X0047445832Y0032103142D01*
X0047445832Y0032103142D02*
X0048500000Y0032103142D01*
X0048500000Y0032103142D02*
X0048500000Y0033000000D01*
X0052750000Y0032800000D02*
X0052750000Y0034489652D01*
X0052750000Y0034489652D02*
X0052056675Y0034489652D01*
X0052056675Y0034489652D02*
X0051000000Y0034489652D01*
X0051000000Y0034489652D02*
X0051000000Y0033000000D01*
X0054800000Y0023250000D02*
X0055000000Y0023250000D01*
X0055000000Y0023250000D02*
X0055000000Y0020000000D01*
X0045250000Y0021200000D02*
X0045250000Y0018000000D01*
X0045250000Y0018000000D02*
X0045500000Y0018000000D01*
X0077365000Y0043540000D02*
X0077500000Y0043540000D01*
X0077500000Y0043540000D02*
X0077500000Y0046500000D01*
X0084000000Y0024190000D02*
X0080000000Y0024190000D01*
X0080000000Y0024190000D02*
X0080000000Y0024000000D01*
X0043200000Y0029250000D02*
X0040200000Y0029250000D01*
X0006000000Y0026730000D02*
X0004520028Y0026730000D01*
X0004520028Y0026730000D02*
X0004520028Y0029502257D01*
X0004520028Y0029502257D02*
X0004520028Y0030500000D01*
X0004520028Y0030500000D02*
X0007500000Y0030500000D01*
X0045750000Y0032800000D02*
X0045750000Y0030000000D01*
X0045750000Y0030000000D02*
X0047000000Y0030000000D01*
X0045750000Y0021200000D02*
X0045750000Y0025000000D01*
X0045750000Y0025000000D02*
X0047000000Y0025000000D01*
X0043200000Y0028750000D02*
X0044500000Y0028750000D01*
X0044500000Y0028750000D02*
X0044500000Y0025500000D01*
X0077365000Y0042270000D02*
X0075500000Y0042270000D01*
X0075500000Y0042270000D02*
X0075500000Y0039500000D01*
X0077365000Y0041000000D02*
X0075500000Y0041000000D01*
X0075500000Y0041000000D02*
X0075500000Y0038000000D01*
X0077365000Y0038460000D02*
X0075500000Y0038460000D01*
X0075500000Y0038460000D02*
X0075500000Y0035500000D01*
X0084000000Y0031810000D02*
X0082000000Y0031810000D01*
X0082000000Y0031810000D02*
X0082000000Y0029000000D01*
X0005000000Y0053000000D02*
X0006500000Y0053000000D01*
X0006500000Y0053000000D02*
X0006500000Y0050000000D01*
X0085000000Y0053000000D02*
X0083000000Y0053000000D01*
X0083000000Y0053000000D02*
X0083000000Y0050000000D01*
X0005000000Y0005000000D02*
X0006500000Y0005000000D01*
X0006500000Y0005000000D02*
X0006500000Y0009000000D01*
X0085000000Y0005000000D02*
X0083000000Y0005000000D01*
X0083000000Y0005000000D02*
X0083000000Y0009000000D01*
X0085300000Y0017300000D02*
X0085300000Y0018790625D01*
X0085300000Y0018790625D02*
X0080175000Y0018790625D01*
X0080175000Y0018790625D02*
X0080175000Y0020281250D01*
X0080175000Y0020281250D02*
X0074250000Y0020281250D01*
X0074250000Y0020281250D02*
X0074250000Y0020500000D01*
X0084000000Y0017300000D02*
X0084000000Y0018425000D01*
X0084000000Y0018425000D02*
X0071750000Y0018425000D01*
X0071750000Y0018425000D02*
X0071750000Y0019550000D01*
X0084650000Y0017300000D02*
X0084650000Y0016200000D01*
X0070400000Y0016200000D01*
X0070400000Y0021450000D01*
X0071750000Y0021450000D01*
X0037250000Y0036000000D02*
X0035750000Y0036000000D01*
X0035750000Y0036000000D02*
X0035750000Y0031000000D01*
X0035750000Y0031000000D02*
X0035750000Y0037090625D01*
X0035750000Y0037090625D02*
X0049387500Y0037090625D01*
X0049387500Y0037090625D02*
X0049387500Y0043181250D01*
X0049387500Y0043181250D02*
X0064900000Y0043181250D01*
X0064900000Y0043181250D02*
X0064900000Y0033500000D01*
X0060000000Y0033750000D02*
X0063187500Y0033750000D01*
X0063187500Y0033750000D02*
X0063187500Y0032000000D01*
X0063187500Y0032000000D02*
X0066500000Y0032000000D01*
X0066500000Y0032000000D02*
X0066500000Y0033500000D01*
X0036450000Y0025750000D02*
X0035133594Y0025750000D01*
X0035133594Y0025750000D02*
X0035133594Y0024471750D01*
X0035133594Y0024471750D02*
X0033817187Y0024471750D01*
X0033817187Y0024471750D02*
X0033817187Y0023235875D01*
X0033817187Y0023235875D02*
X0032250000Y0023235875D01*
X0032250000Y0023235875D02*
X0032250000Y0022000000D01*
X0038550000Y0024250000D02*
X0040250000Y0024250000D01*
X0040250000Y0024250000D02*
X0040250000Y0019000000D01*
X0037250000Y0031000000D02*
X0040250000Y0031000000D01*
X0042000000Y0015750000D02*
X0042000000Y0018250000D01*
X0054000000Y0015750000D02*
X0054000000Y0018250000D01*
X0054800000Y0024750000D02*
X0061800000Y0024750000D01*
X0054800000Y0025250000D02*
X0061800000Y0025250000D01*
X0054800000Y0024250000D02*
X0062500000Y0024250000D01*
X0085600000Y0043540000D02*
X0078635000Y0043540000D01*
X0052750000Y0021200000D02*
X0052750000Y0018500000D01*
X0086500000Y0042270000D02*
X0078635000Y0042270000D01*
X0049750000Y0021200000D02*
X0049750000Y0016000000D01*
X0087400000Y0041000000D02*
X0078635000Y0041000000D01*
X0047250000Y0021200000D02*
X0047250000Y0013000000D01*
X0088300000Y0039730000D02*
X0078635000Y0039730000D01*
X0043200000Y0026250000D02*
X0041000000Y0026250000D01*
X0089200000Y0038460000D02*
X0078635000Y0038460000D01*
X0047250000Y0021200000D02*
X0047250000Y0010183750D01*
X0047250000Y0010183750D02*
X0067698750Y0010183750D01*
X0067698750Y0010183750D02*
X0067698750Y0026730000D01*
X0067698750Y0026730000D02*
X0084000000Y0026730000D01*
X0061250000Y0008000000D02*
X0058250000Y0008000000D01*
X0062750000Y0008000000D02*
X0069250000Y0008000000D01*
X0070750000Y0008000000D02*
X0073250000Y0008000000D01*
%ADD11C,0.700000*%
D11*
X0006000000Y0040500000D03*
X0006000000Y0037500000D03*
X0006000000Y0035000000D03*
X0018000000Y0033000000D03*
X0020500000Y0040500000D03*
X0032000000Y0033000000D03*
X0035500000Y0040500000D03*
X0047000000Y0033000000D03*
X0033000000Y0025000000D03*
X0043000000Y0020000000D03*
X0048500000Y0033000000D03*
X0051000000Y0033000000D03*
X0055000000Y0020000000D03*
X0045500000Y0018000000D03*
X0077500000Y0046500000D03*
X0080000000Y0024000000D03*
X0007500000Y0030500000D03*
X0047000000Y0030000000D03*
X0047000000Y0025000000D03*
X0044500000Y0025500000D03*
X0075500000Y0039500000D03*
X0075500000Y0038000000D03*
X0075500000Y0035500000D03*
X0082000000Y0029000000D03*
X0006500000Y0050000000D03*
X0083000000Y0050000000D03*
X0006500000Y0009000000D03*
X0083000000Y0009000000D03*
X0082700000Y0017300000D03*
X0084000000Y0020700000D03*
X0071750000Y0020500000D03*
X0038750000Y0036000000D03*
X0038550000Y0025750000D03*
X0036450000Y0024250000D03*
X0033750000Y0022000000D03*
X0041750000Y0019000000D03*
X0042000000Y0014250000D03*
X0054000000Y0014250000D03*
X0060000000Y0032250000D03*
X0068100000Y0033500000D03*
X0062500000Y0024250000D03*
X0085600000Y0043540000D03*
X0052750000Y0018500000D03*
X0086500000Y0042270000D03*
X0049750000Y0016000000D03*
X0087400000Y0041000000D03*
X0047250000Y0013000000D03*
X0088300000Y0039730000D03*
X0041000000Y0026250000D03*
X0089200000Y0038460000D03*
%ADD12C,1.700000*%
D12*
X0006000000Y0029270000D03*
X0006000000Y0026730000D03*
X0006000000Y0044810000D03*
X0006000000Y0042270000D03*
X0006000000Y0039730000D03*
X0006000000Y0037190000D03*
G36*
X0020175000Y0043400000D02*
X0021225000Y0043400000D01*
X0021225000Y0041600000D01*
X0020175000Y0041600000D01*
X0020175000Y0043400000D01*
G37*
G36*
X0022475000Y0043400000D02*
X0023525000Y0043400000D01*
X0023525000Y0041600000D01*
X0022475000Y0041600000D01*
X0022475000Y0043400000D01*
G37*
G36*
X0024775000Y0043400000D02*
X0025825000Y0043400000D01*
X0025825000Y0041600000D01*
X0024775000Y0041600000D01*
X0024775000Y0043400000D01*
G37*
G36*
X0021100000Y0040050000D02*
X0024900000Y0040050000D01*
X0024900000Y0037850000D01*
X0021100000Y0037850000D01*
X0021100000Y0040050000D01*
G37*
G36*
X0035175000Y0043400000D02*
X0036225000Y0043400000D01*
X0036225000Y0041600000D01*
X0035175000Y0041600000D01*
X0035175000Y0043400000D01*
G37*
G36*
X0037475000Y0043400000D02*
X0038525000Y0043400000D01*
X0038525000Y0041600000D01*
X0037475000Y0041600000D01*
X0037475000Y0043400000D01*
G37*
G36*
X0039775000Y0043400000D02*
X0040825000Y0043400000D01*
X0040825000Y0041600000D01*
X0039775000Y0041600000D01*
X0039775000Y0043400000D01*
G37*
G36*
X0036100000Y0040050000D02*
X0039900000Y0040050000D01*
X0039900000Y0037850000D01*
X0036100000Y0037850000D01*
X0036100000Y0040050000D01*
G37*
G36*
X0015850000Y0035475000D02*
X0016650000Y0035475000D01*
X0016650000Y0034525000D01*
X0015850000Y0034525000D01*
X0015850000Y0035475000D01*
G37*
G36*
X0017350000Y0035475000D02*
X0018150000Y0035475000D01*
X0018150000Y0034525000D01*
X0017350000Y0034525000D01*
X0017350000Y0035475000D01*
G37*
G36*
X0029850000Y0035475000D02*
X0030650000Y0035475000D01*
X0030650000Y0034525000D01*
X0029850000Y0034525000D01*
X0029850000Y0035475000D01*
G37*
G36*
X0031350000Y0035475000D02*
X0032150000Y0035475000D01*
X0032150000Y0034525000D01*
X0031350000Y0034525000D01*
X0031350000Y0035475000D01*
G37*
G36*
X0044850000Y0035475000D02*
X0045650000Y0035475000D01*
X0045650000Y0034525000D01*
X0044850000Y0034525000D01*
X0044850000Y0035475000D01*
G37*
G36*
X0046350000Y0035475000D02*
X0047150000Y0035475000D01*
X0047150000Y0034525000D01*
X0046350000Y0034525000D01*
X0046350000Y0035475000D01*
G37*
G36*
X0033475000Y0029150000D02*
X0033475000Y0028350000D01*
X0032525000Y0028350000D01*
X0032525000Y0029150000D01*
X0033475000Y0029150000D01*
G37*
G36*
X0033475000Y0027650000D02*
X0033475000Y0026850000D01*
X0032525000Y0026850000D01*
X0032525000Y0027650000D01*
X0033475000Y0027650000D01*
G37*
G36*
X0085500000Y0016625000D02*
X0085100000Y0016625000D01*
X0085100000Y0017975000D01*
X0085500000Y0017975000D01*
X0085500000Y0016625000D01*
G37*
G36*
X0084850000Y0016625000D02*
X0084450000Y0016625000D01*
X0084450000Y0017975000D01*
X0084850000Y0017975000D01*
X0084850000Y0016625000D01*
G37*
G36*
X0084200000Y0016625000D02*
X0083800000Y0016625000D01*
X0083800000Y0017975000D01*
X0084200000Y0017975000D01*
X0084200000Y0016625000D01*
G37*
G36*
X0083550000Y0016625000D02*
X0083150000Y0016625000D01*
X0083150000Y0017975000D01*
X0083550000Y0017975000D01*
X0083550000Y0016625000D01*
G37*
G36*
X0082900000Y0016625000D02*
X0082500000Y0016625000D01*
X0082500000Y0017975000D01*
X0082900000Y0017975000D01*
X0082900000Y0016625000D01*
G37*
G36*
X0085600000Y0020150000D02*
X0082400000Y0020150000D01*
X0082400000Y0021250000D01*
X0085600000Y0021250000D01*
X0085600000Y0020150000D01*
G37*
G36*
X0071350000Y0019850000D02*
X0072150000Y0019850000D01*
X0072150000Y0019250000D01*
X0071350000Y0019250000D01*
X0071350000Y0019850000D01*
G37*
G36*
X0071350000Y0020800000D02*
X0072150000Y0020800000D01*
X0072150000Y0020200000D01*
X0071350000Y0020200000D01*
X0071350000Y0020800000D01*
G37*
G36*
X0071350000Y0021750000D02*
X0072150000Y0021750000D01*
X0072150000Y0021150000D01*
X0071350000Y0021150000D01*
X0071350000Y0021750000D01*
G37*
G36*
X0073850000Y0021750000D02*
X0074650000Y0021750000D01*
X0074650000Y0021150000D01*
X0073850000Y0021150000D01*
X0073850000Y0021750000D01*
G37*
G36*
X0073850000Y0020800000D02*
X0074650000Y0020800000D01*
X0074650000Y0020200000D01*
X0073850000Y0020200000D01*
X0073850000Y0020800000D01*
G37*
G36*
X0073850000Y0019850000D02*
X0074650000Y0019850000D01*
X0074650000Y0019250000D01*
X0073850000Y0019250000D01*
X0073850000Y0019850000D01*
G37*
G36*
X0036850000Y0036475000D02*
X0037650000Y0036475000D01*
X0037650000Y0035525000D01*
X0036850000Y0035525000D01*
X0036850000Y0036475000D01*
G37*
G36*
X0038350000Y0036475000D02*
X0039150000Y0036475000D01*
X0039150000Y0035525000D01*
X0038350000Y0035525000D01*
X0038350000Y0036475000D01*
G37*
G36*
X0042475000Y0016150000D02*
X0042475000Y0015350000D01*
X0041525000Y0015350000D01*
X0041525000Y0016150000D01*
X0042475000Y0016150000D01*
G37*
G36*
X0042475000Y0014650000D02*
X0042475000Y0013850000D01*
X0041525000Y0013850000D01*
X0041525000Y0014650000D01*
X0042475000Y0014650000D01*
G37*
G36*
X0054475000Y0016150000D02*
X0054475000Y0015350000D01*
X0053525000Y0015350000D01*
X0053525000Y0016150000D01*
X0054475000Y0016150000D01*
G37*
G36*
X0054475000Y0014650000D02*
X0054475000Y0013850000D01*
X0053525000Y0013850000D01*
X0053525000Y0014650000D01*
X0054475000Y0014650000D01*
G37*
G36*
X0035350000Y0031475000D02*
X0036150000Y0031475000D01*
X0036150000Y0030525000D01*
X0035350000Y0030525000D01*
X0035350000Y0031475000D01*
G37*
G36*
X0036850000Y0031475000D02*
X0037650000Y0031475000D01*
X0037650000Y0030525000D01*
X0036850000Y0030525000D01*
X0036850000Y0031475000D01*
G37*
G36*
X0060475000Y0034150000D02*
X0060475000Y0033350000D01*
X0059525000Y0033350000D01*
X0059525000Y0034150000D01*
X0060475000Y0034150000D01*
G37*
G36*
X0060475000Y0032650000D02*
X0060475000Y0031850000D01*
X0059525000Y0031850000D01*
X0059525000Y0032650000D01*
X0060475000Y0032650000D01*
G37*
G36*
X0064450000Y0034300000D02*
X0065350000Y0034300000D01*
X0065350000Y0032700000D01*
X0064450000Y0032700000D01*
X0064450000Y0034300000D01*
G37*
G36*
X0066050000Y0034300000D02*
X0066950000Y0034300000D01*
X0066950000Y0032700000D01*
X0066050000Y0032700000D01*
X0066050000Y0034300000D01*
G37*
G36*
X0067650000Y0034300000D02*
X0068550000Y0034300000D01*
X0068550000Y0032700000D01*
X0067650000Y0032700000D01*
X0067650000Y0034300000D01*
G37*
G36*
X0036000000Y0026200000D02*
X0036900000Y0026200000D01*
X0036900000Y0025300000D01*
X0036000000Y0025300000D01*
X0036000000Y0026200000D01*
G37*
G36*
X0038100000Y0026200000D02*
X0039000000Y0026200000D01*
X0039000000Y0025300000D01*
X0038100000Y0025300000D01*
X0038100000Y0026200000D01*
G37*
G36*
X0038100000Y0024700000D02*
X0039000000Y0024700000D01*
X0039000000Y0023800000D01*
X0038100000Y0023800000D01*
X0038100000Y0024700000D01*
G37*
G36*
X0036000000Y0024700000D02*
X0036900000Y0024700000D01*
X0036900000Y0023800000D01*
X0036000000Y0023800000D01*
X0036000000Y0024700000D01*
G37*
G36*
X0031850000Y0022475000D02*
X0032650000Y0022475000D01*
X0032650000Y0021525000D01*
X0031850000Y0021525000D01*
X0031850000Y0022475000D01*
G37*
G36*
X0033350000Y0022475000D02*
X0034150000Y0022475000D01*
X0034150000Y0021525000D01*
X0033350000Y0021525000D01*
X0033350000Y0022475000D01*
G37*
G36*
X0039850000Y0019475000D02*
X0040650000Y0019475000D01*
X0040650000Y0018525000D01*
X0039850000Y0018525000D01*
X0039850000Y0019475000D01*
G37*
G36*
X0041350000Y0019475000D02*
X0042150000Y0019475000D01*
X0042150000Y0018525000D01*
X0041350000Y0018525000D01*
X0041350000Y0019475000D01*
G37*
G36*
X0060850000Y0008475000D02*
X0061650000Y0008475000D01*
X0061650000Y0007525000D01*
X0060850000Y0007525000D01*
X0060850000Y0008475000D01*
G37*
G36*
X0062350000Y0008475000D02*
X0063150000Y0008475000D01*
X0063150000Y0007525000D01*
X0062350000Y0007525000D01*
X0062350000Y0008475000D01*
G37*
G36*
X0068850000Y0008475000D02*
X0069650000Y0008475000D01*
X0069650000Y0007525000D01*
X0068850000Y0007525000D01*
X0068850000Y0008475000D01*
G37*
G36*
X0070350000Y0008475000D02*
X0071150000Y0008475000D01*
X0071150000Y0007525000D01*
X0070350000Y0007525000D01*
X0070350000Y0008475000D01*
G37*
G36*
X0042525000Y0023400000D02*
X0043875000Y0023400000D01*
X0043875000Y0023100000D01*
X0042525000Y0023100000D01*
X0042525000Y0023400000D01*
G37*
G36*
X0042525000Y0023900000D02*
X0043875000Y0023900000D01*
X0043875000Y0023600000D01*
X0042525000Y0023600000D01*
X0042525000Y0023900000D01*
G37*
G36*
X0042525000Y0024400000D02*
X0043875000Y0024400000D01*
X0043875000Y0024100000D01*
X0042525000Y0024100000D01*
X0042525000Y0024400000D01*
G37*
G36*
X0042525000Y0024900000D02*
X0043875000Y0024900000D01*
X0043875000Y0024600000D01*
X0042525000Y0024600000D01*
X0042525000Y0024900000D01*
G37*
G36*
X0042525000Y0025400000D02*
X0043875000Y0025400000D01*
X0043875000Y0025100000D01*
X0042525000Y0025100000D01*
X0042525000Y0025400000D01*
G37*
G36*
X0042525000Y0025900000D02*
X0043875000Y0025900000D01*
X0043875000Y0025600000D01*
X0042525000Y0025600000D01*
X0042525000Y0025900000D01*
G37*
G36*
X0042525000Y0026400000D02*
X0043875000Y0026400000D01*
X0043875000Y0026100000D01*
X0042525000Y0026100000D01*
X0042525000Y0026400000D01*
G37*
G36*
X0042525000Y0026900000D02*
X0043875000Y0026900000D01*
X0043875000Y0026600000D01*
X0042525000Y0026600000D01*
X0042525000Y0026900000D01*
G37*
G36*
X0042525000Y0027400000D02*
X0043875000Y0027400000D01*
X0043875000Y0027100000D01*
X0042525000Y0027100000D01*
X0042525000Y0027400000D01*
G37*
G36*
X0042525000Y0027900000D02*
X0043875000Y0027900000D01*
X0043875000Y0027600000D01*
X0042525000Y0027600000D01*
X0042525000Y0027900000D01*
G37*
G36*
X0042525000Y0028400000D02*
X0043875000Y0028400000D01*
X0043875000Y0028100000D01*
X0042525000Y0028100000D01*
X0042525000Y0028400000D01*
G37*
G36*
X0042525000Y0028900000D02*
X0043875000Y0028900000D01*
X0043875000Y0028600000D01*
X0042525000Y0028600000D01*
X0042525000Y0028900000D01*
G37*
G36*
X0042525000Y0029400000D02*
X0043875000Y0029400000D01*
X0043875000Y0029100000D01*
X0042525000Y0029100000D01*
X0042525000Y0029400000D01*
G37*
G36*
X0042525000Y0029900000D02*
X0043875000Y0029900000D01*
X0043875000Y0029600000D01*
X0042525000Y0029600000D01*
X0042525000Y0029900000D01*
G37*
G36*
X0042525000Y0030400000D02*
X0043875000Y0030400000D01*
X0043875000Y0030100000D01*
X0042525000Y0030100000D01*
X0042525000Y0030400000D01*
G37*
G36*
X0042525000Y0030900000D02*
X0043875000Y0030900000D01*
X0043875000Y0030600000D01*
X0042525000Y0030600000D01*
X0042525000Y0030900000D01*
G37*
G36*
X0045100000Y0033475000D02*
X0045400000Y0033475000D01*
X0045400000Y0032125000D01*
X0045100000Y0032125000D01*
X0045100000Y0033475000D01*
G37*
G36*
X0045600000Y0033475000D02*
X0045900000Y0033475000D01*
X0045900000Y0032125000D01*
X0045600000Y0032125000D01*
X0045600000Y0033475000D01*
G37*
G36*
X0046100000Y0033475000D02*
X0046400000Y0033475000D01*
X0046400000Y0032125000D01*
X0046100000Y0032125000D01*
X0046100000Y0033475000D01*
G37*
G36*
X0046600000Y0033475000D02*
X0046900000Y0033475000D01*
X0046900000Y0032125000D01*
X0046600000Y0032125000D01*
X0046600000Y0033475000D01*
G37*
G36*
X0047100000Y0033475000D02*
X0047400000Y0033475000D01*
X0047400000Y0032125000D01*
X0047100000Y0032125000D01*
X0047100000Y0033475000D01*
G37*
G36*
X0047600000Y0033475000D02*
X0047900000Y0033475000D01*
X0047900000Y0032125000D01*
X0047600000Y0032125000D01*
X0047600000Y0033475000D01*
G37*
G36*
X0048100000Y0033475000D02*
X0048400000Y0033475000D01*
X0048400000Y0032125000D01*
X0048100000Y0032125000D01*
X0048100000Y0033475000D01*
G37*
G36*
X0048600000Y0033475000D02*
X0048900000Y0033475000D01*
X0048900000Y0032125000D01*
X0048600000Y0032125000D01*
X0048600000Y0033475000D01*
G37*
G36*
X0049100000Y0033475000D02*
X0049400000Y0033475000D01*
X0049400000Y0032125000D01*
X0049100000Y0032125000D01*
X0049100000Y0033475000D01*
G37*
G36*
X0049600000Y0033475000D02*
X0049900000Y0033475000D01*
X0049900000Y0032125000D01*
X0049600000Y0032125000D01*
X0049600000Y0033475000D01*
G37*
G36*
X0050100000Y0033475000D02*
X0050400000Y0033475000D01*
X0050400000Y0032125000D01*
X0050100000Y0032125000D01*
X0050100000Y0033475000D01*
G37*
G36*
X0050600000Y0033475000D02*
X0050900000Y0033475000D01*
X0050900000Y0032125000D01*
X0050600000Y0032125000D01*
X0050600000Y0033475000D01*
G37*
G36*
X0051100000Y0033475000D02*
X0051400000Y0033475000D01*
X0051400000Y0032125000D01*
X0051100000Y0032125000D01*
X0051100000Y0033475000D01*
G37*
G36*
X0051600000Y0033475000D02*
X0051900000Y0033475000D01*
X0051900000Y0032125000D01*
X0051600000Y0032125000D01*
X0051600000Y0033475000D01*
G37*
G36*
X0052100000Y0033475000D02*
X0052400000Y0033475000D01*
X0052400000Y0032125000D01*
X0052100000Y0032125000D01*
X0052100000Y0033475000D01*
G37*
G36*
X0052600000Y0033475000D02*
X0052900000Y0033475000D01*
X0052900000Y0032125000D01*
X0052600000Y0032125000D01*
X0052600000Y0033475000D01*
G37*
G36*
X0054125000Y0030900000D02*
X0055475000Y0030900000D01*
X0055475000Y0030600000D01*
X0054125000Y0030600000D01*
X0054125000Y0030900000D01*
G37*
G36*
X0054125000Y0030400000D02*
X0055475000Y0030400000D01*
X0055475000Y0030100000D01*
X0054125000Y0030100000D01*
X0054125000Y0030400000D01*
G37*
G36*
X0054125000Y0029900000D02*
X0055475000Y0029900000D01*
X0055475000Y0029600000D01*
X0054125000Y0029600000D01*
X0054125000Y0029900000D01*
G37*
G36*
X0054125000Y0029400000D02*
X0055475000Y0029400000D01*
X0055475000Y0029100000D01*
X0054125000Y0029100000D01*
X0054125000Y0029400000D01*
G37*
G36*
X0054125000Y0028900000D02*
X0055475000Y0028900000D01*
X0055475000Y0028600000D01*
X0054125000Y0028600000D01*
X0054125000Y0028900000D01*
G37*
G36*
X0054125000Y0028400000D02*
X0055475000Y0028400000D01*
X0055475000Y0028100000D01*
X0054125000Y0028100000D01*
X0054125000Y0028400000D01*
G37*
G36*
X0054125000Y0027900000D02*
X0055475000Y0027900000D01*
X0055475000Y0027600000D01*
X0054125000Y0027600000D01*
X0054125000Y0027900000D01*
G37*
G36*
X0054125000Y0027400000D02*
X0055475000Y0027400000D01*
X0055475000Y0027100000D01*
X0054125000Y0027100000D01*
X0054125000Y0027400000D01*
G37*
G36*
X0054125000Y0026900000D02*
X0055475000Y0026900000D01*
X0055475000Y0026600000D01*
X0054125000Y0026600000D01*
X0054125000Y0026900000D01*
G37*
G36*
X0054125000Y0026400000D02*
X0055475000Y0026400000D01*
X0055475000Y0026100000D01*
X0054125000Y0026100000D01*
X0054125000Y0026400000D01*
G37*
G36*
X0054125000Y0025900000D02*
X0055475000Y0025900000D01*
X0055475000Y0025600000D01*
X0054125000Y0025600000D01*
X0054125000Y0025900000D01*
G37*
G36*
X0054125000Y0025400000D02*
X0055475000Y0025400000D01*
X0055475000Y0025100000D01*
X0054125000Y0025100000D01*
X0054125000Y0025400000D01*
G37*
G36*
X0054125000Y0024900000D02*
X0055475000Y0024900000D01*
X0055475000Y0024600000D01*
X0054125000Y0024600000D01*
X0054125000Y0024900000D01*
G37*
G36*
X0054125000Y0024400000D02*
X0055475000Y0024400000D01*
X0055475000Y0024100000D01*
X0054125000Y0024100000D01*
X0054125000Y0024400000D01*
G37*
G36*
X0054125000Y0023900000D02*
X0055475000Y0023900000D01*
X0055475000Y0023600000D01*
X0054125000Y0023600000D01*
X0054125000Y0023900000D01*
G37*
G36*
X0054125000Y0023400000D02*
X0055475000Y0023400000D01*
X0055475000Y0023100000D01*
X0054125000Y0023100000D01*
X0054125000Y0023400000D01*
G37*
G36*
X0052600000Y0021875000D02*
X0052900000Y0021875000D01*
X0052900000Y0020525000D01*
X0052600000Y0020525000D01*
X0052600000Y0021875000D01*
G37*
G36*
X0052100000Y0021875000D02*
X0052400000Y0021875000D01*
X0052400000Y0020525000D01*
X0052100000Y0020525000D01*
X0052100000Y0021875000D01*
G37*
G36*
X0051600000Y0021875000D02*
X0051900000Y0021875000D01*
X0051900000Y0020525000D01*
X0051600000Y0020525000D01*
X0051600000Y0021875000D01*
G37*
G36*
X0051100000Y0021875000D02*
X0051400000Y0021875000D01*
X0051400000Y0020525000D01*
X0051100000Y0020525000D01*
X0051100000Y0021875000D01*
G37*
G36*
X0050600000Y0021875000D02*
X0050900000Y0021875000D01*
X0050900000Y0020525000D01*
X0050600000Y0020525000D01*
X0050600000Y0021875000D01*
G37*
G36*
X0050100000Y0021875000D02*
X0050400000Y0021875000D01*
X0050400000Y0020525000D01*
X0050100000Y0020525000D01*
X0050100000Y0021875000D01*
G37*
G36*
X0049600000Y0021875000D02*
X0049900000Y0021875000D01*
X0049900000Y0020525000D01*
X0049600000Y0020525000D01*
X0049600000Y0021875000D01*
G37*
G36*
X0049100000Y0021875000D02*
X0049400000Y0021875000D01*
X0049400000Y0020525000D01*
X0049100000Y0020525000D01*
X0049100000Y0021875000D01*
G37*
G36*
X0048600000Y0021875000D02*
X0048900000Y0021875000D01*
X0048900000Y0020525000D01*
X0048600000Y0020525000D01*
X0048600000Y0021875000D01*
G37*
G36*
X0048100000Y0021875000D02*
X0048400000Y0021875000D01*
X0048400000Y0020525000D01*
X0048100000Y0020525000D01*
X0048100000Y0021875000D01*
G37*
G36*
X0047600000Y0021875000D02*
X0047900000Y0021875000D01*
X0047900000Y0020525000D01*
X0047600000Y0020525000D01*
X0047600000Y0021875000D01*
G37*
G36*
X0047100000Y0021875000D02*
X0047400000Y0021875000D01*
X0047400000Y0020525000D01*
X0047100000Y0020525000D01*
X0047100000Y0021875000D01*
G37*
G36*
X0046600000Y0021875000D02*
X0046900000Y0021875000D01*
X0046900000Y0020525000D01*
X0046600000Y0020525000D01*
X0046600000Y0021875000D01*
G37*
G36*
X0046100000Y0021875000D02*
X0046400000Y0021875000D01*
X0046400000Y0020525000D01*
X0046100000Y0020525000D01*
X0046100000Y0021875000D01*
G37*
G36*
X0045600000Y0021875000D02*
X0045900000Y0021875000D01*
X0045900000Y0020525000D01*
X0045600000Y0020525000D01*
X0045600000Y0021875000D01*
G37*
G36*
X0045100000Y0021875000D02*
X0045400000Y0021875000D01*
X0045400000Y0020525000D01*
X0045100000Y0020525000D01*
X0045100000Y0021875000D01*
G37*
%ADD13C,0.850000*%
D13*
X0077365000Y0043540000D03*
X0078635000Y0043540000D03*
X0077365000Y0042270000D03*
X0078635000Y0042270000D03*
X0077365000Y0041000000D03*
X0078635000Y0041000000D03*
X0077365000Y0039730000D03*
X0078635000Y0039730000D03*
X0077365000Y0038460000D03*
X0078635000Y0038460000D03*
D12*
X0084000000Y0024190000D03*
X0084000000Y0026730000D03*
X0084000000Y0029270000D03*
X0084000000Y0031810000D03*
%ADD14C,6.000000*%
D14*
X0005000000Y0053000000D03*
X0085000000Y0053000000D03*
X0005000000Y0005000000D03*
X0085000000Y0005000000D03*
M02*
