G04 Volt Gerber RS-274X*
%FSLAX46Y46*%
%MOMM*%
%TF.GenerationSoftware,Volt,Volt Native Fabrication Exporter,0.1*%
%TF.FileFunction,Legend,Top*%
%TF.FilePolarity,Positive*%
%LPD*%
%ADD10C,0.120000*%
D10*
X0011900000Y0046800000D02*
X0015100000Y0046800000D01*
X0015100000Y0045200000D01*
X0011900000Y0045200000D01*
X0011900000Y0046800000D01*
X0018200000Y0046400000D02*
X0019800000Y0046400000D01*
X0019800000Y0045600000D01*
X0018200000Y0045600000D01*
X0018200000Y0046400000D01*
X0034000000Y0043500000D02*
X0038000000Y0043500000D01*
X0038000000Y0039500000D01*
X0034000000Y0039500000D01*
X0034000000Y0043500000D01*
X0025650000Y0035800000D02*
X0029350000Y0035800000D01*
X0029350000Y0034200000D01*
X0025650000Y0034200000D01*
X0025650000Y0035800000D01*
X0023300000Y0041600000D02*
X0023300000Y0038400000D01*
X0021700000Y0038400000D01*
X0021700000Y0041600000D01*
X0023300000Y0041600000D01*
X0030700000Y0047900000D02*
X0032300000Y0047900000D01*
X0032300000Y0047100000D01*
X0030700000Y0047100000D01*
X0030700000Y0047900000D01*
X0042800000Y0042600000D02*
X0042800000Y0039400000D01*
X0041200000Y0039400000D01*
X0041200000Y0042600000D01*
X0042800000Y0042600000D01*
X0022700000Y0050400000D02*
X0024300000Y0050400000D01*
X0024300000Y0049600000D01*
X0022700000Y0049600000D01*
X0022700000Y0050400000D01*
X0022700000Y0047900000D02*
X0024300000Y0047900000D01*
X0024300000Y0047100000D01*
X0022700000Y0047100000D01*
X0022700000Y0047900000D01*
X0039200000Y0047900000D02*
X0040800000Y0047900000D01*
X0040800000Y0047100000D01*
X0039200000Y0047100000D01*
X0039200000Y0047900000D01*
X0039200000Y0045400000D02*
X0040800000Y0045400000D01*
X0040800000Y0044600000D01*
X0039200000Y0044600000D01*
X0039200000Y0045400000D01*
X0063400000Y0042800000D02*
X0063400000Y0041200000D01*
X0062600000Y0041200000D01*
X0062600000Y0042800000D01*
X0063400000Y0042800000D01*
X0039700000Y0029900000D02*
X0041300000Y0029900000D01*
X0041300000Y0029100000D01*
X0039700000Y0029100000D01*
X0039700000Y0029900000D01*
X0037900000Y0029800000D02*
X0037900000Y0028200000D01*
X0037100000Y0028200000D01*
X0037100000Y0029800000D01*
X0037900000Y0029800000D01*
X0038200000Y0036400000D02*
X0039800000Y0036400000D01*
X0039800000Y0035600000D01*
X0038200000Y0035600000D01*
X0038200000Y0036400000D01*
X0042400000Y0015800000D02*
X0042400000Y0014200000D01*
X0041600000Y0014200000D01*
X0041600000Y0015800000D01*
X0042400000Y0015800000D01*
X0054400000Y0015800000D02*
X0054400000Y0014200000D01*
X0053600000Y0014200000D01*
X0053600000Y0015800000D01*
X0054400000Y0015800000D01*
X0035200000Y0031900000D02*
X0036800000Y0031900000D01*
X0036800000Y0031100000D01*
X0035200000Y0031100000D01*
X0035200000Y0031900000D01*
X0060400000Y0033800000D02*
X0060400000Y0032200000D01*
X0059600000Y0032200000D01*
X0059600000Y0033800000D01*
X0060400000Y0033800000D01*
X0064250000Y0034800000D02*
X0068750000Y0034800000D01*
X0068750000Y0032200000D01*
X0064250000Y0032200000D01*
X0064250000Y0034800000D01*
X0034900000Y0025250000D02*
X0038100000Y0025250000D01*
X0038100000Y0022750000D01*
X0034900000Y0022750000D01*
X0034900000Y0025250000D01*
X0031700000Y0021900000D02*
X0033300000Y0021900000D01*
X0033300000Y0021100000D01*
X0031700000Y0021100000D01*
X0031700000Y0021900000D01*
X0039700000Y0018900000D02*
X0041300000Y0018900000D01*
X0041300000Y0018100000D01*
X0039700000Y0018100000D01*
X0039700000Y0018900000D01*
X0061200000Y0008400000D02*
X0062800000Y0008400000D01*
X0062800000Y0007600000D01*
X0061200000Y0007600000D01*
X0061200000Y0008400000D01*
X0069200000Y0008400000D02*
X0070800000Y0008400000D01*
X0070800000Y0007600000D01*
X0069200000Y0007600000D01*
X0069200000Y0008400000D01*
G04 TEXT STM32 USB BUCK*
G36*
X0030132000Y0004100000D02*
X0030264000Y0004100000D01*
X0030264000Y0003942857D01*
X0030132000Y0003942857D01*
X0030132000Y0004100000D01*
G37*
G36*
X0030264000Y0004100000D02*
X0030396000Y0004100000D01*
X0030396000Y0003942857D01*
X0030264000Y0003942857D01*
X0030264000Y0004100000D01*
G37*
G36*
X0030396000Y0004100000D02*
X0030528000Y0004100000D01*
X0030528000Y0003942857D01*
X0030396000Y0003942857D01*
X0030396000Y0004100000D01*
G37*
G36*
X0030528000Y0004100000D02*
X0030660000Y0004100000D01*
X0030660000Y0003942857D01*
X0030528000Y0003942857D01*
X0030528000Y0004100000D01*
G37*
G36*
X0030000000Y0003942857D02*
X0030132000Y0003942857D01*
X0030132000Y0003785714D01*
X0030000000Y0003785714D01*
X0030000000Y0003942857D01*
G37*
G36*
X0030000000Y0003785714D02*
X0030132000Y0003785714D01*
X0030132000Y0003628571D01*
X0030000000Y0003628571D01*
X0030000000Y0003785714D01*
G37*
G36*
X0030132000Y0003628571D02*
X0030264000Y0003628571D01*
X0030264000Y0003471429D01*
X0030132000Y0003471429D01*
X0030132000Y0003628571D01*
G37*
G36*
X0030264000Y0003628571D02*
X0030396000Y0003628571D01*
X0030396000Y0003471429D01*
X0030264000Y0003471429D01*
X0030264000Y0003628571D01*
G37*
G36*
X0030396000Y0003628571D02*
X0030528000Y0003628571D01*
X0030528000Y0003471429D01*
X0030396000Y0003471429D01*
X0030396000Y0003628571D01*
G37*
G36*
X0030528000Y0003471429D02*
X0030660000Y0003471429D01*
X0030660000Y0003314286D01*
X0030528000Y0003314286D01*
X0030528000Y0003471429D01*
G37*
G36*
X0030528000Y0003314286D02*
X0030660000Y0003314286D01*
X0030660000Y0003157143D01*
X0030528000Y0003157143D01*
X0030528000Y0003314286D01*
G37*
G36*
X0030000000Y0003157143D02*
X0030132000Y0003157143D01*
X0030132000Y0003000000D01*
X0030000000Y0003000000D01*
X0030000000Y0003157143D01*
G37*
G36*
X0030132000Y0003157143D02*
X0030264000Y0003157143D01*
X0030264000Y0003000000D01*
X0030132000Y0003000000D01*
X0030132000Y0003157143D01*
G37*
G36*
X0030264000Y0003157143D02*
X0030396000Y0003157143D01*
X0030396000Y0003000000D01*
X0030264000Y0003000000D01*
X0030264000Y0003157143D01*
G37*
G36*
X0030396000Y0003157143D02*
X0030528000Y0003157143D01*
X0030528000Y0003000000D01*
X0030396000Y0003000000D01*
X0030396000Y0003157143D01*
G37*
G36*
X0030660000Y0004100000D02*
X0030792000Y0004100000D01*
X0030792000Y0003942857D01*
X0030660000Y0003942857D01*
X0030660000Y0004100000D01*
G37*
G36*
X0030792000Y0004100000D02*
X0030924000Y0004100000D01*
X0030924000Y0003942857D01*
X0030792000Y0003942857D01*
X0030792000Y0004100000D01*
G37*
G36*
X0030924000Y0004100000D02*
X0031056000Y0004100000D01*
X0031056000Y0003942857D01*
X0030924000Y0003942857D01*
X0030924000Y0004100000D01*
G37*
G36*
X0031056000Y0004100000D02*
X0031188000Y0004100000D01*
X0031188000Y0003942857D01*
X0031056000Y0003942857D01*
X0031056000Y0004100000D01*
G37*
G36*
X0031188000Y0004100000D02*
X0031320000Y0004100000D01*
X0031320000Y0003942857D01*
X0031188000Y0003942857D01*
X0031188000Y0004100000D01*
G37*
G36*
X0030924000Y0003942857D02*
X0031056000Y0003942857D01*
X0031056000Y0003785714D01*
X0030924000Y0003785714D01*
X0030924000Y0003942857D01*
G37*
G36*
X0030924000Y0003785714D02*
X0031056000Y0003785714D01*
X0031056000Y0003628571D01*
X0030924000Y0003628571D01*
X0030924000Y0003785714D01*
G37*
G36*
X0030924000Y0003628571D02*
X0031056000Y0003628571D01*
X0031056000Y0003471429D01*
X0030924000Y0003471429D01*
X0030924000Y0003628571D01*
G37*
G36*
X0030924000Y0003471429D02*
X0031056000Y0003471429D01*
X0031056000Y0003314286D01*
X0030924000Y0003314286D01*
X0030924000Y0003471429D01*
G37*
G36*
X0030924000Y0003314286D02*
X0031056000Y0003314286D01*
X0031056000Y0003157143D01*
X0030924000Y0003157143D01*
X0030924000Y0003314286D01*
G37*
G36*
X0030924000Y0003157143D02*
X0031056000Y0003157143D01*
X0031056000Y0003000000D01*
X0030924000Y0003000000D01*
X0030924000Y0003157143D01*
G37*
G36*
X0031320000Y0004100000D02*
X0031452000Y0004100000D01*
X0031452000Y0003942857D01*
X0031320000Y0003942857D01*
X0031320000Y0004100000D01*
G37*
G36*
X0031848000Y0004100000D02*
X0031980000Y0004100000D01*
X0031980000Y0003942857D01*
X0031848000Y0003942857D01*
X0031848000Y0004100000D01*
G37*
G36*
X0031320000Y0003942857D02*
X0031452000Y0003942857D01*
X0031452000Y0003785714D01*
X0031320000Y0003785714D01*
X0031320000Y0003942857D01*
G37*
G36*
X0031452000Y0003942857D02*
X0031584000Y0003942857D01*
X0031584000Y0003785714D01*
X0031452000Y0003785714D01*
X0031452000Y0003942857D01*
G37*
G36*
X0031716000Y0003942857D02*
X0031848000Y0003942857D01*
X0031848000Y0003785714D01*
X0031716000Y0003785714D01*
X0031716000Y0003942857D01*
G37*
G36*
X0031848000Y0003942857D02*
X0031980000Y0003942857D01*
X0031980000Y0003785714D01*
X0031848000Y0003785714D01*
X0031848000Y0003942857D01*
G37*
G36*
X0031320000Y0003785714D02*
X0031452000Y0003785714D01*
X0031452000Y0003628571D01*
X0031320000Y0003628571D01*
X0031320000Y0003785714D01*
G37*
G36*
X0031584000Y0003785714D02*
X0031716000Y0003785714D01*
X0031716000Y0003628571D01*
X0031584000Y0003628571D01*
X0031584000Y0003785714D01*
G37*
G36*
X0031848000Y0003785714D02*
X0031980000Y0003785714D01*
X0031980000Y0003628571D01*
X0031848000Y0003628571D01*
X0031848000Y0003785714D01*
G37*
G36*
X0031320000Y0003628571D02*
X0031452000Y0003628571D01*
X0031452000Y0003471429D01*
X0031320000Y0003471429D01*
X0031320000Y0003628571D01*
G37*
G36*
X0031584000Y0003628571D02*
X0031716000Y0003628571D01*
X0031716000Y0003471429D01*
X0031584000Y0003471429D01*
X0031584000Y0003628571D01*
G37*
G36*
X0031848000Y0003628571D02*
X0031980000Y0003628571D01*
X0031980000Y0003471429D01*
X0031848000Y0003471429D01*
X0031848000Y0003628571D01*
G37*
G36*
X0031320000Y0003471429D02*
X0031452000Y0003471429D01*
X0031452000Y0003314286D01*
X0031320000Y0003314286D01*
X0031320000Y0003471429D01*
G37*
G36*
X0031848000Y0003471429D02*
X0031980000Y0003471429D01*
X0031980000Y0003314286D01*
X0031848000Y0003314286D01*
X0031848000Y0003471429D01*
G37*
G36*
X0031320000Y0003314286D02*
X0031452000Y0003314286D01*
X0031452000Y0003157143D01*
X0031320000Y0003157143D01*
X0031320000Y0003314286D01*
G37*
G36*
X0031848000Y0003314286D02*
X0031980000Y0003314286D01*
X0031980000Y0003157143D01*
X0031848000Y0003157143D01*
X0031848000Y0003314286D01*
G37*
G36*
X0031320000Y0003157143D02*
X0031452000Y0003157143D01*
X0031452000Y0003000000D01*
X0031320000Y0003000000D01*
X0031320000Y0003157143D01*
G37*
G36*
X0031848000Y0003157143D02*
X0031980000Y0003157143D01*
X0031980000Y0003000000D01*
X0031848000Y0003000000D01*
X0031848000Y0003157143D01*
G37*
G36*
X0031980000Y0004100000D02*
X0032112000Y0004100000D01*
X0032112000Y0003942857D01*
X0031980000Y0003942857D01*
X0031980000Y0004100000D01*
G37*
G36*
X0032112000Y0004100000D02*
X0032244000Y0004100000D01*
X0032244000Y0003942857D01*
X0032112000Y0003942857D01*
X0032112000Y0004100000D01*
G37*
G36*
X0032244000Y0004100000D02*
X0032376000Y0004100000D01*
X0032376000Y0003942857D01*
X0032244000Y0003942857D01*
X0032244000Y0004100000D01*
G37*
G36*
X0032376000Y0004100000D02*
X0032508000Y0004100000D01*
X0032508000Y0003942857D01*
X0032376000Y0003942857D01*
X0032376000Y0004100000D01*
G37*
G36*
X0032508000Y0003942857D02*
X0032640000Y0003942857D01*
X0032640000Y0003785714D01*
X0032508000Y0003785714D01*
X0032508000Y0003942857D01*
G37*
G36*
X0032508000Y0003785714D02*
X0032640000Y0003785714D01*
X0032640000Y0003628571D01*
X0032508000Y0003628571D01*
X0032508000Y0003785714D01*
G37*
G36*
X0032112000Y0003628571D02*
X0032244000Y0003628571D01*
X0032244000Y0003471429D01*
X0032112000Y0003471429D01*
X0032112000Y0003628571D01*
G37*
G36*
X0032244000Y0003628571D02*
X0032376000Y0003628571D01*
X0032376000Y0003471429D01*
X0032244000Y0003471429D01*
X0032244000Y0003628571D01*
G37*
G36*
X0032376000Y0003628571D02*
X0032508000Y0003628571D01*
X0032508000Y0003471429D01*
X0032376000Y0003471429D01*
X0032376000Y0003628571D01*
G37*
G36*
X0032508000Y0003471429D02*
X0032640000Y0003471429D01*
X0032640000Y0003314286D01*
X0032508000Y0003314286D01*
X0032508000Y0003471429D01*
G37*
G36*
X0032508000Y0003314286D02*
X0032640000Y0003314286D01*
X0032640000Y0003157143D01*
X0032508000Y0003157143D01*
X0032508000Y0003314286D01*
G37*
G36*
X0031980000Y0003157143D02*
X0032112000Y0003157143D01*
X0032112000Y0003000000D01*
X0031980000Y0003000000D01*
X0031980000Y0003157143D01*
G37*
G36*
X0032112000Y0003157143D02*
X0032244000Y0003157143D01*
X0032244000Y0003000000D01*
X0032112000Y0003000000D01*
X0032112000Y0003157143D01*
G37*
G36*
X0032244000Y0003157143D02*
X0032376000Y0003157143D01*
X0032376000Y0003000000D01*
X0032244000Y0003000000D01*
X0032244000Y0003157143D01*
G37*
G36*
X0032376000Y0003157143D02*
X0032508000Y0003157143D01*
X0032508000Y0003000000D01*
X0032376000Y0003000000D01*
X0032376000Y0003157143D01*
G37*
G36*
X0032772000Y0004100000D02*
X0032904000Y0004100000D01*
X0032904000Y0003942857D01*
X0032772000Y0003942857D01*
X0032772000Y0004100000D01*
G37*
G36*
X0032904000Y0004100000D02*
X0033036000Y0004100000D01*
X0033036000Y0003942857D01*
X0032904000Y0003942857D01*
X0032904000Y0004100000D01*
G37*
G36*
X0033036000Y0004100000D02*
X0033168000Y0004100000D01*
X0033168000Y0003942857D01*
X0033036000Y0003942857D01*
X0033036000Y0004100000D01*
G37*
G36*
X0032640000Y0003942857D02*
X0032772000Y0003942857D01*
X0032772000Y0003785714D01*
X0032640000Y0003785714D01*
X0032640000Y0003942857D01*
G37*
G36*
X0033168000Y0003942857D02*
X0033300000Y0003942857D01*
X0033300000Y0003785714D01*
X0033168000Y0003785714D01*
X0033168000Y0003942857D01*
G37*
G36*
X0033168000Y0003785714D02*
X0033300000Y0003785714D01*
X0033300000Y0003628571D01*
X0033168000Y0003628571D01*
X0033168000Y0003785714D01*
G37*
G36*
X0033036000Y0003628571D02*
X0033168000Y0003628571D01*
X0033168000Y0003471429D01*
X0033036000Y0003471429D01*
X0033036000Y0003628571D01*
G37*
G36*
X0032904000Y0003471429D02*
X0033036000Y0003471429D01*
X0033036000Y0003314286D01*
X0032904000Y0003314286D01*
X0032904000Y0003471429D01*
G37*
G36*
X0032772000Y0003314286D02*
X0032904000Y0003314286D01*
X0032904000Y0003157143D01*
X0032772000Y0003157143D01*
X0032772000Y0003314286D01*
G37*
G36*
X0032640000Y0003157143D02*
X0032772000Y0003157143D01*
X0032772000Y0003000000D01*
X0032640000Y0003000000D01*
X0032640000Y0003157143D01*
G37*
G36*
X0032772000Y0003157143D02*
X0032904000Y0003157143D01*
X0032904000Y0003000000D01*
X0032772000Y0003000000D01*
X0032772000Y0003157143D01*
G37*
G36*
X0032904000Y0003157143D02*
X0033036000Y0003157143D01*
X0033036000Y0003000000D01*
X0032904000Y0003000000D01*
X0032904000Y0003157143D01*
G37*
G36*
X0033036000Y0003157143D02*
X0033168000Y0003157143D01*
X0033168000Y0003000000D01*
X0033036000Y0003000000D01*
X0033036000Y0003157143D01*
G37*
G36*
X0033168000Y0003157143D02*
X0033300000Y0003157143D01*
X0033300000Y0003000000D01*
X0033168000Y0003000000D01*
X0033168000Y0003157143D01*
G37*
G36*
X0033960000Y0004100000D02*
X0034092000Y0004100000D01*
X0034092000Y0003942857D01*
X0033960000Y0003942857D01*
X0033960000Y0004100000D01*
G37*
G36*
X0034488000Y0004100000D02*
X0034620000Y0004100000D01*
X0034620000Y0003942857D01*
X0034488000Y0003942857D01*
X0034488000Y0004100000D01*
G37*
G36*
X0033960000Y0003942857D02*
X0034092000Y0003942857D01*
X0034092000Y0003785714D01*
X0033960000Y0003785714D01*
X0033960000Y0003942857D01*
G37*
G36*
X0034488000Y0003942857D02*
X0034620000Y0003942857D01*
X0034620000Y0003785714D01*
X0034488000Y0003785714D01*
X0034488000Y0003942857D01*
G37*
G36*
X0033960000Y0003785714D02*
X0034092000Y0003785714D01*
X0034092000Y0003628571D01*
X0033960000Y0003628571D01*
X0033960000Y0003785714D01*
G37*
G36*
X0034488000Y0003785714D02*
X0034620000Y0003785714D01*
X0034620000Y0003628571D01*
X0034488000Y0003628571D01*
X0034488000Y0003785714D01*
G37*
G36*
X0033960000Y0003628571D02*
X0034092000Y0003628571D01*
X0034092000Y0003471429D01*
X0033960000Y0003471429D01*
X0033960000Y0003628571D01*
G37*
G36*
X0034488000Y0003628571D02*
X0034620000Y0003628571D01*
X0034620000Y0003471429D01*
X0034488000Y0003471429D01*
X0034488000Y0003628571D01*
G37*
G36*
X0033960000Y0003471429D02*
X0034092000Y0003471429D01*
X0034092000Y0003314286D01*
X0033960000Y0003314286D01*
X0033960000Y0003471429D01*
G37*
G36*
X0034488000Y0003471429D02*
X0034620000Y0003471429D01*
X0034620000Y0003314286D01*
X0034488000Y0003314286D01*
X0034488000Y0003471429D01*
G37*
G36*
X0033960000Y0003314286D02*
X0034092000Y0003314286D01*
X0034092000Y0003157143D01*
X0033960000Y0003157143D01*
X0033960000Y0003314286D01*
G37*
G36*
X0034488000Y0003314286D02*
X0034620000Y0003314286D01*
X0034620000Y0003157143D01*
X0034488000Y0003157143D01*
X0034488000Y0003314286D01*
G37*
G36*
X0034092000Y0003157143D02*
X0034224000Y0003157143D01*
X0034224000Y0003000000D01*
X0034092000Y0003000000D01*
X0034092000Y0003157143D01*
G37*
G36*
X0034224000Y0003157143D02*
X0034356000Y0003157143D01*
X0034356000Y0003000000D01*
X0034224000Y0003000000D01*
X0034224000Y0003157143D01*
G37*
G36*
X0034356000Y0003157143D02*
X0034488000Y0003157143D01*
X0034488000Y0003000000D01*
X0034356000Y0003000000D01*
X0034356000Y0003157143D01*
G37*
G36*
X0034752000Y0004100000D02*
X0034884000Y0004100000D01*
X0034884000Y0003942857D01*
X0034752000Y0003942857D01*
X0034752000Y0004100000D01*
G37*
G36*
X0034884000Y0004100000D02*
X0035016000Y0004100000D01*
X0035016000Y0003942857D01*
X0034884000Y0003942857D01*
X0034884000Y0004100000D01*
G37*
G36*
X0035016000Y0004100000D02*
X0035148000Y0004100000D01*
X0035148000Y0003942857D01*
X0035016000Y0003942857D01*
X0035016000Y0004100000D01*
G37*
G36*
X0035148000Y0004100000D02*
X0035280000Y0004100000D01*
X0035280000Y0003942857D01*
X0035148000Y0003942857D01*
X0035148000Y0004100000D01*
G37*
G36*
X0034620000Y0003942857D02*
X0034752000Y0003942857D01*
X0034752000Y0003785714D01*
X0034620000Y0003785714D01*
X0034620000Y0003942857D01*
G37*
G36*
X0034620000Y0003785714D02*
X0034752000Y0003785714D01*
X0034752000Y0003628571D01*
X0034620000Y0003628571D01*
X0034620000Y0003785714D01*
G37*
G36*
X0034752000Y0003628571D02*
X0034884000Y0003628571D01*
X0034884000Y0003471429D01*
X0034752000Y0003471429D01*
X0034752000Y0003628571D01*
G37*
G36*
X0034884000Y0003628571D02*
X0035016000Y0003628571D01*
X0035016000Y0003471429D01*
X0034884000Y0003471429D01*
X0034884000Y0003628571D01*
G37*
G36*
X0035016000Y0003628571D02*
X0035148000Y0003628571D01*
X0035148000Y0003471429D01*
X0035016000Y0003471429D01*
X0035016000Y0003628571D01*
G37*
G36*
X0035148000Y0003471429D02*
X0035280000Y0003471429D01*
X0035280000Y0003314286D01*
X0035148000Y0003314286D01*
X0035148000Y0003471429D01*
G37*
G36*
X0035148000Y0003314286D02*
X0035280000Y0003314286D01*
X0035280000Y0003157143D01*
X0035148000Y0003157143D01*
X0035148000Y0003314286D01*
G37*
G36*
X0034620000Y0003157143D02*
X0034752000Y0003157143D01*
X0034752000Y0003000000D01*
X0034620000Y0003000000D01*
X0034620000Y0003157143D01*
G37*
G36*
X0034752000Y0003157143D02*
X0034884000Y0003157143D01*
X0034884000Y0003000000D01*
X0034752000Y0003000000D01*
X0034752000Y0003157143D01*
G37*
G36*
X0034884000Y0003157143D02*
X0035016000Y0003157143D01*
X0035016000Y0003000000D01*
X0034884000Y0003000000D01*
X0034884000Y0003157143D01*
G37*
G36*
X0035016000Y0003157143D02*
X0035148000Y0003157143D01*
X0035148000Y0003000000D01*
X0035016000Y0003000000D01*
X0035016000Y0003157143D01*
G37*
G36*
X0035280000Y0004100000D02*
X0035412000Y0004100000D01*
X0035412000Y0003942857D01*
X0035280000Y0003942857D01*
X0035280000Y0004100000D01*
G37*
G36*
X0035412000Y0004100000D02*
X0035544000Y0004100000D01*
X0035544000Y0003942857D01*
X0035412000Y0003942857D01*
X0035412000Y0004100000D01*
G37*
G36*
X0035544000Y0004100000D02*
X0035676000Y0004100000D01*
X0035676000Y0003942857D01*
X0035544000Y0003942857D01*
X0035544000Y0004100000D01*
G37*
G36*
X0035676000Y0004100000D02*
X0035808000Y0004100000D01*
X0035808000Y0003942857D01*
X0035676000Y0003942857D01*
X0035676000Y0004100000D01*
G37*
G36*
X0035280000Y0003942857D02*
X0035412000Y0003942857D01*
X0035412000Y0003785714D01*
X0035280000Y0003785714D01*
X0035280000Y0003942857D01*
G37*
G36*
X0035808000Y0003942857D02*
X0035940000Y0003942857D01*
X0035940000Y0003785714D01*
X0035808000Y0003785714D01*
X0035808000Y0003942857D01*
G37*
G36*
X0035280000Y0003785714D02*
X0035412000Y0003785714D01*
X0035412000Y0003628571D01*
X0035280000Y0003628571D01*
X0035280000Y0003785714D01*
G37*
G36*
X0035808000Y0003785714D02*
X0035940000Y0003785714D01*
X0035940000Y0003628571D01*
X0035808000Y0003628571D01*
X0035808000Y0003785714D01*
G37*
G36*
X0035280000Y0003628571D02*
X0035412000Y0003628571D01*
X0035412000Y0003471429D01*
X0035280000Y0003471429D01*
X0035280000Y0003628571D01*
G37*
G36*
X0035412000Y0003628571D02*
X0035544000Y0003628571D01*
X0035544000Y0003471429D01*
X0035412000Y0003471429D01*
X0035412000Y0003628571D01*
G37*
G36*
X0035544000Y0003628571D02*
X0035676000Y0003628571D01*
X0035676000Y0003471429D01*
X0035544000Y0003471429D01*
X0035544000Y0003628571D01*
G37*
G36*
X0035676000Y0003628571D02*
X0035808000Y0003628571D01*
X0035808000Y0003471429D01*
X0035676000Y0003471429D01*
X0035676000Y0003628571D01*
G37*
G36*
X0035280000Y0003471429D02*
X0035412000Y0003471429D01*
X0035412000Y0003314286D01*
X0035280000Y0003314286D01*
X0035280000Y0003471429D01*
G37*
G36*
X0035808000Y0003471429D02*
X0035940000Y0003471429D01*
X0035940000Y0003314286D01*
X0035808000Y0003314286D01*
X0035808000Y0003471429D01*
G37*
G36*
X0035280000Y0003314286D02*
X0035412000Y0003314286D01*
X0035412000Y0003157143D01*
X0035280000Y0003157143D01*
X0035280000Y0003314286D01*
G37*
G36*
X0035808000Y0003314286D02*
X0035940000Y0003314286D01*
X0035940000Y0003157143D01*
X0035808000Y0003157143D01*
X0035808000Y0003314286D01*
G37*
G36*
X0035280000Y0003157143D02*
X0035412000Y0003157143D01*
X0035412000Y0003000000D01*
X0035280000Y0003000000D01*
X0035280000Y0003157143D01*
G37*
G36*
X0035412000Y0003157143D02*
X0035544000Y0003157143D01*
X0035544000Y0003000000D01*
X0035412000Y0003000000D01*
X0035412000Y0003157143D01*
G37*
G36*
X0035544000Y0003157143D02*
X0035676000Y0003157143D01*
X0035676000Y0003000000D01*
X0035544000Y0003000000D01*
X0035544000Y0003157143D01*
G37*
G36*
X0035676000Y0003157143D02*
X0035808000Y0003157143D01*
X0035808000Y0003000000D01*
X0035676000Y0003000000D01*
X0035676000Y0003157143D01*
G37*
G36*
X0036600000Y0004100000D02*
X0036732000Y0004100000D01*
X0036732000Y0003942857D01*
X0036600000Y0003942857D01*
X0036600000Y0004100000D01*
G37*
G36*
X0036732000Y0004100000D02*
X0036864000Y0004100000D01*
X0036864000Y0003942857D01*
X0036732000Y0003942857D01*
X0036732000Y0004100000D01*
G37*
G36*
X0036864000Y0004100000D02*
X0036996000Y0004100000D01*
X0036996000Y0003942857D01*
X0036864000Y0003942857D01*
X0036864000Y0004100000D01*
G37*
G36*
X0036996000Y0004100000D02*
X0037128000Y0004100000D01*
X0037128000Y0003942857D01*
X0036996000Y0003942857D01*
X0036996000Y0004100000D01*
G37*
G36*
X0036600000Y0003942857D02*
X0036732000Y0003942857D01*
X0036732000Y0003785714D01*
X0036600000Y0003785714D01*
X0036600000Y0003942857D01*
G37*
G36*
X0037128000Y0003942857D02*
X0037260000Y0003942857D01*
X0037260000Y0003785714D01*
X0037128000Y0003785714D01*
X0037128000Y0003942857D01*
G37*
G36*
X0036600000Y0003785714D02*
X0036732000Y0003785714D01*
X0036732000Y0003628571D01*
X0036600000Y0003628571D01*
X0036600000Y0003785714D01*
G37*
G36*
X0037128000Y0003785714D02*
X0037260000Y0003785714D01*
X0037260000Y0003628571D01*
X0037128000Y0003628571D01*
X0037128000Y0003785714D01*
G37*
G36*
X0036600000Y0003628571D02*
X0036732000Y0003628571D01*
X0036732000Y0003471429D01*
X0036600000Y0003471429D01*
X0036600000Y0003628571D01*
G37*
G36*
X0036732000Y0003628571D02*
X0036864000Y0003628571D01*
X0036864000Y0003471429D01*
X0036732000Y0003471429D01*
X0036732000Y0003628571D01*
G37*
G36*
X0036864000Y0003628571D02*
X0036996000Y0003628571D01*
X0036996000Y0003471429D01*
X0036864000Y0003471429D01*
X0036864000Y0003628571D01*
G37*
G36*
X0036996000Y0003628571D02*
X0037128000Y0003628571D01*
X0037128000Y0003471429D01*
X0036996000Y0003471429D01*
X0036996000Y0003628571D01*
G37*
G36*
X0036600000Y0003471429D02*
X0036732000Y0003471429D01*
X0036732000Y0003314286D01*
X0036600000Y0003314286D01*
X0036600000Y0003471429D01*
G37*
G36*
X0037128000Y0003471429D02*
X0037260000Y0003471429D01*
X0037260000Y0003314286D01*
X0037128000Y0003314286D01*
X0037128000Y0003471429D01*
G37*
G36*
X0036600000Y0003314286D02*
X0036732000Y0003314286D01*
X0036732000Y0003157143D01*
X0036600000Y0003157143D01*
X0036600000Y0003314286D01*
G37*
G36*
X0037128000Y0003314286D02*
X0037260000Y0003314286D01*
X0037260000Y0003157143D01*
X0037128000Y0003157143D01*
X0037128000Y0003314286D01*
G37*
G36*
X0036600000Y0003157143D02*
X0036732000Y0003157143D01*
X0036732000Y0003000000D01*
X0036600000Y0003000000D01*
X0036600000Y0003157143D01*
G37*
G36*
X0036732000Y0003157143D02*
X0036864000Y0003157143D01*
X0036864000Y0003000000D01*
X0036732000Y0003000000D01*
X0036732000Y0003157143D01*
G37*
G36*
X0036864000Y0003157143D02*
X0036996000Y0003157143D01*
X0036996000Y0003000000D01*
X0036864000Y0003000000D01*
X0036864000Y0003157143D01*
G37*
G36*
X0036996000Y0003157143D02*
X0037128000Y0003157143D01*
X0037128000Y0003000000D01*
X0036996000Y0003000000D01*
X0036996000Y0003157143D01*
G37*
G36*
X0037260000Y0004100000D02*
X0037392000Y0004100000D01*
X0037392000Y0003942857D01*
X0037260000Y0003942857D01*
X0037260000Y0004100000D01*
G37*
G36*
X0037788000Y0004100000D02*
X0037920000Y0004100000D01*
X0037920000Y0003942857D01*
X0037788000Y0003942857D01*
X0037788000Y0004100000D01*
G37*
G36*
X0037260000Y0003942857D02*
X0037392000Y0003942857D01*
X0037392000Y0003785714D01*
X0037260000Y0003785714D01*
X0037260000Y0003942857D01*
G37*
G36*
X0037788000Y0003942857D02*
X0037920000Y0003942857D01*
X0037920000Y0003785714D01*
X0037788000Y0003785714D01*
X0037788000Y0003942857D01*
G37*
G36*
X0037260000Y0003785714D02*
X0037392000Y0003785714D01*
X0037392000Y0003628571D01*
X0037260000Y0003628571D01*
X0037260000Y0003785714D01*
G37*
G36*
X0037788000Y0003785714D02*
X0037920000Y0003785714D01*
X0037920000Y0003628571D01*
X0037788000Y0003628571D01*
X0037788000Y0003785714D01*
G37*
G36*
X0037260000Y0003628571D02*
X0037392000Y0003628571D01*
X0037392000Y0003471429D01*
X0037260000Y0003471429D01*
X0037260000Y0003628571D01*
G37*
G36*
X0037788000Y0003628571D02*
X0037920000Y0003628571D01*
X0037920000Y0003471429D01*
X0037788000Y0003471429D01*
X0037788000Y0003628571D01*
G37*
G36*
X0037260000Y0003471429D02*
X0037392000Y0003471429D01*
X0037392000Y0003314286D01*
X0037260000Y0003314286D01*
X0037260000Y0003471429D01*
G37*
G36*
X0037788000Y0003471429D02*
X0037920000Y0003471429D01*
X0037920000Y0003314286D01*
X0037788000Y0003314286D01*
X0037788000Y0003471429D01*
G37*
G36*
X0037260000Y0003314286D02*
X0037392000Y0003314286D01*
X0037392000Y0003157143D01*
X0037260000Y0003157143D01*
X0037260000Y0003314286D01*
G37*
G36*
X0037788000Y0003314286D02*
X0037920000Y0003314286D01*
X0037920000Y0003157143D01*
X0037788000Y0003157143D01*
X0037788000Y0003314286D01*
G37*
G36*
X0037392000Y0003157143D02*
X0037524000Y0003157143D01*
X0037524000Y0003000000D01*
X0037392000Y0003000000D01*
X0037392000Y0003157143D01*
G37*
G36*
X0037524000Y0003157143D02*
X0037656000Y0003157143D01*
X0037656000Y0003000000D01*
X0037524000Y0003000000D01*
X0037524000Y0003157143D01*
G37*
G36*
X0037656000Y0003157143D02*
X0037788000Y0003157143D01*
X0037788000Y0003000000D01*
X0037656000Y0003000000D01*
X0037656000Y0003157143D01*
G37*
G36*
X0038052000Y0004100000D02*
X0038184000Y0004100000D01*
X0038184000Y0003942857D01*
X0038052000Y0003942857D01*
X0038052000Y0004100000D01*
G37*
G36*
X0038184000Y0004100000D02*
X0038316000Y0004100000D01*
X0038316000Y0003942857D01*
X0038184000Y0003942857D01*
X0038184000Y0004100000D01*
G37*
G36*
X0038316000Y0004100000D02*
X0038448000Y0004100000D01*
X0038448000Y0003942857D01*
X0038316000Y0003942857D01*
X0038316000Y0004100000D01*
G37*
G36*
X0037920000Y0003942857D02*
X0038052000Y0003942857D01*
X0038052000Y0003785714D01*
X0037920000Y0003785714D01*
X0037920000Y0003942857D01*
G37*
G36*
X0038448000Y0003942857D02*
X0038580000Y0003942857D01*
X0038580000Y0003785714D01*
X0038448000Y0003785714D01*
X0038448000Y0003942857D01*
G37*
G36*
X0037920000Y0003785714D02*
X0038052000Y0003785714D01*
X0038052000Y0003628571D01*
X0037920000Y0003628571D01*
X0037920000Y0003785714D01*
G37*
G36*
X0037920000Y0003628571D02*
X0038052000Y0003628571D01*
X0038052000Y0003471429D01*
X0037920000Y0003471429D01*
X0037920000Y0003628571D01*
G37*
G36*
X0037920000Y0003471429D02*
X0038052000Y0003471429D01*
X0038052000Y0003314286D01*
X0037920000Y0003314286D01*
X0037920000Y0003471429D01*
G37*
G36*
X0037920000Y0003314286D02*
X0038052000Y0003314286D01*
X0038052000Y0003157143D01*
X0037920000Y0003157143D01*
X0037920000Y0003314286D01*
G37*
G36*
X0038448000Y0003314286D02*
X0038580000Y0003314286D01*
X0038580000Y0003157143D01*
X0038448000Y0003157143D01*
X0038448000Y0003314286D01*
G37*
G36*
X0038052000Y0003157143D02*
X0038184000Y0003157143D01*
X0038184000Y0003000000D01*
X0038052000Y0003000000D01*
X0038052000Y0003157143D01*
G37*
G36*
X0038184000Y0003157143D02*
X0038316000Y0003157143D01*
X0038316000Y0003000000D01*
X0038184000Y0003000000D01*
X0038184000Y0003157143D01*
G37*
G36*
X0038316000Y0003157143D02*
X0038448000Y0003157143D01*
X0038448000Y0003000000D01*
X0038316000Y0003000000D01*
X0038316000Y0003157143D01*
G37*
G36*
X0038580000Y0004100000D02*
X0038712000Y0004100000D01*
X0038712000Y0003942857D01*
X0038580000Y0003942857D01*
X0038580000Y0004100000D01*
G37*
G36*
X0039108000Y0004100000D02*
X0039240000Y0004100000D01*
X0039240000Y0003942857D01*
X0039108000Y0003942857D01*
X0039108000Y0004100000D01*
G37*
G36*
X0038580000Y0003942857D02*
X0038712000Y0003942857D01*
X0038712000Y0003785714D01*
X0038580000Y0003785714D01*
X0038580000Y0003942857D01*
G37*
G36*
X0038976000Y0003942857D02*
X0039108000Y0003942857D01*
X0039108000Y0003785714D01*
X0038976000Y0003785714D01*
X0038976000Y0003942857D01*
G37*
G36*
X0038580000Y0003785714D02*
X0038712000Y0003785714D01*
X0038712000Y0003628571D01*
X0038580000Y0003628571D01*
X0038580000Y0003785714D01*
G37*
G36*
X0038844000Y0003785714D02*
X0038976000Y0003785714D01*
X0038976000Y0003628571D01*
X0038844000Y0003628571D01*
X0038844000Y0003785714D01*
G37*
G36*
X0038580000Y0003628571D02*
X0038712000Y0003628571D01*
X0038712000Y0003471429D01*
X0038580000Y0003471429D01*
X0038580000Y0003628571D01*
G37*
G36*
X0038712000Y0003628571D02*
X0038844000Y0003628571D01*
X0038844000Y0003471429D01*
X0038712000Y0003471429D01*
X0038712000Y0003628571D01*
G37*
G36*
X0038580000Y0003471429D02*
X0038712000Y0003471429D01*
X0038712000Y0003314286D01*
X0038580000Y0003314286D01*
X0038580000Y0003471429D01*
G37*
G36*
X0038844000Y0003471429D02*
X0038976000Y0003471429D01*
X0038976000Y0003314286D01*
X0038844000Y0003314286D01*
X0038844000Y0003471429D01*
G37*
G36*
X0038580000Y0003314286D02*
X0038712000Y0003314286D01*
X0038712000Y0003157143D01*
X0038580000Y0003157143D01*
X0038580000Y0003314286D01*
G37*
G36*
X0038976000Y0003314286D02*
X0039108000Y0003314286D01*
X0039108000Y0003157143D01*
X0038976000Y0003157143D01*
X0038976000Y0003314286D01*
G37*
G36*
X0038580000Y0003157143D02*
X0038712000Y0003157143D01*
X0038712000Y0003000000D01*
X0038580000Y0003000000D01*
X0038580000Y0003157143D01*
G37*
G36*
X0039108000Y0003157143D02*
X0039240000Y0003157143D01*
X0039240000Y0003000000D01*
X0039108000Y0003000000D01*
X0039108000Y0003157143D01*
G37*
G04 TEXT 12V IN*
G36*
X0003250000Y0040820000D02*
X0003250000Y0040730000D01*
X0003142857Y0040730000D01*
X0003142857Y0040820000D01*
X0003250000Y0040820000D01*
G37*
G36*
X0003142857Y0040910000D02*
X0003142857Y0040820000D01*
X0003035714Y0040820000D01*
X0003035714Y0040910000D01*
X0003142857Y0040910000D01*
G37*
G36*
X0003142857Y0040820000D02*
X0003142857Y0040730000D01*
X0003035714Y0040730000D01*
X0003035714Y0040820000D01*
X0003142857Y0040820000D01*
G37*
G36*
X0003035714Y0040820000D02*
X0003035714Y0040730000D01*
X0002928571Y0040730000D01*
X0002928571Y0040820000D01*
X0003035714Y0040820000D01*
G37*
G36*
X0002928571Y0040820000D02*
X0002928571Y0040730000D01*
X0002821429Y0040730000D01*
X0002821429Y0040820000D01*
X0002928571Y0040820000D01*
G37*
G36*
X0002821429Y0040820000D02*
X0002821429Y0040730000D01*
X0002714286Y0040730000D01*
X0002714286Y0040820000D01*
X0002821429Y0040820000D01*
G37*
G36*
X0002714286Y0040820000D02*
X0002714286Y0040730000D01*
X0002607143Y0040730000D01*
X0002607143Y0040820000D01*
X0002714286Y0040820000D01*
G37*
G36*
X0002607143Y0040910000D02*
X0002607143Y0040820000D01*
X0002500000Y0040820000D01*
X0002500000Y0040910000D01*
X0002607143Y0040910000D01*
G37*
G36*
X0002607143Y0040820000D02*
X0002607143Y0040730000D01*
X0002500000Y0040730000D01*
X0002500000Y0040820000D01*
X0002607143Y0040820000D01*
G37*
G36*
X0002607143Y0040730000D02*
X0002607143Y0040640000D01*
X0002500000Y0040640000D01*
X0002500000Y0040730000D01*
X0002607143Y0040730000D01*
G37*
G36*
X0003250000Y0040460000D02*
X0003250000Y0040370000D01*
X0003142857Y0040370000D01*
X0003142857Y0040460000D01*
X0003250000Y0040460000D01*
G37*
G36*
X0003250000Y0040370000D02*
X0003250000Y0040280000D01*
X0003142857Y0040280000D01*
X0003142857Y0040370000D01*
X0003250000Y0040370000D01*
G37*
G36*
X0003250000Y0040280000D02*
X0003250000Y0040190000D01*
X0003142857Y0040190000D01*
X0003142857Y0040280000D01*
X0003250000Y0040280000D01*
G37*
G36*
X0003142857Y0040550000D02*
X0003142857Y0040460000D01*
X0003035714Y0040460000D01*
X0003035714Y0040550000D01*
X0003142857Y0040550000D01*
G37*
G36*
X0003142857Y0040190000D02*
X0003142857Y0040100000D01*
X0003035714Y0040100000D01*
X0003035714Y0040190000D01*
X0003142857Y0040190000D01*
G37*
G36*
X0003035714Y0040190000D02*
X0003035714Y0040100000D01*
X0002928571Y0040100000D01*
X0002928571Y0040190000D01*
X0003035714Y0040190000D01*
G37*
G36*
X0002928571Y0040280000D02*
X0002928571Y0040190000D01*
X0002821429Y0040190000D01*
X0002821429Y0040280000D01*
X0002928571Y0040280000D01*
G37*
G36*
X0002821429Y0040370000D02*
X0002821429Y0040280000D01*
X0002714286Y0040280000D01*
X0002714286Y0040370000D01*
X0002821429Y0040370000D01*
G37*
G36*
X0002714286Y0040460000D02*
X0002714286Y0040370000D01*
X0002607143Y0040370000D01*
X0002607143Y0040460000D01*
X0002714286Y0040460000D01*
G37*
G36*
X0002607143Y0040550000D02*
X0002607143Y0040460000D01*
X0002500000Y0040460000D01*
X0002500000Y0040550000D01*
X0002607143Y0040550000D01*
G37*
G36*
X0002607143Y0040460000D02*
X0002607143Y0040370000D01*
X0002500000Y0040370000D01*
X0002500000Y0040460000D01*
X0002607143Y0040460000D01*
G37*
G36*
X0002607143Y0040370000D02*
X0002607143Y0040280000D01*
X0002500000Y0040280000D01*
X0002500000Y0040370000D01*
X0002607143Y0040370000D01*
G37*
G36*
X0002607143Y0040280000D02*
X0002607143Y0040190000D01*
X0002500000Y0040190000D01*
X0002500000Y0040280000D01*
X0002607143Y0040280000D01*
G37*
G36*
X0002607143Y0040190000D02*
X0002607143Y0040100000D01*
X0002500000Y0040100000D01*
X0002500000Y0040190000D01*
X0002607143Y0040190000D01*
G37*
G36*
X0003250000Y0040100000D02*
X0003250000Y0040010000D01*
X0003142857Y0040010000D01*
X0003142857Y0040100000D01*
X0003250000Y0040100000D01*
G37*
G36*
X0003250000Y0039740000D02*
X0003250000Y0039650000D01*
X0003142857Y0039650000D01*
X0003142857Y0039740000D01*
X0003250000Y0039740000D01*
G37*
G36*
X0003142857Y0040100000D02*
X0003142857Y0040010000D01*
X0003035714Y0040010000D01*
X0003035714Y0040100000D01*
X0003142857Y0040100000D01*
G37*
G36*
X0003142857Y0039740000D02*
X0003142857Y0039650000D01*
X0003035714Y0039650000D01*
X0003035714Y0039740000D01*
X0003142857Y0039740000D01*
G37*
G36*
X0003035714Y0040100000D02*
X0003035714Y0040010000D01*
X0002928571Y0040010000D01*
X0002928571Y0040100000D01*
X0003035714Y0040100000D01*
G37*
G36*
X0003035714Y0039740000D02*
X0003035714Y0039650000D01*
X0002928571Y0039650000D01*
X0002928571Y0039740000D01*
X0003035714Y0039740000D01*
G37*
G36*
X0002928571Y0040100000D02*
X0002928571Y0040010000D01*
X0002821429Y0040010000D01*
X0002821429Y0040100000D01*
X0002928571Y0040100000D01*
G37*
G36*
X0002928571Y0039740000D02*
X0002928571Y0039650000D01*
X0002821429Y0039650000D01*
X0002821429Y0039740000D01*
X0002928571Y0039740000D01*
G37*
G36*
X0002821429Y0040100000D02*
X0002821429Y0040010000D01*
X0002714286Y0040010000D01*
X0002714286Y0040100000D01*
X0002821429Y0040100000D01*
G37*
G36*
X0002821429Y0039740000D02*
X0002821429Y0039650000D01*
X0002714286Y0039650000D01*
X0002714286Y0039740000D01*
X0002821429Y0039740000D01*
G37*
G36*
X0002714286Y0040010000D02*
X0002714286Y0039920000D01*
X0002607143Y0039920000D01*
X0002607143Y0040010000D01*
X0002714286Y0040010000D01*
G37*
G36*
X0002714286Y0039830000D02*
X0002714286Y0039740000D01*
X0002607143Y0039740000D01*
X0002607143Y0039830000D01*
X0002714286Y0039830000D01*
G37*
G36*
X0002607143Y0039920000D02*
X0002607143Y0039830000D01*
X0002500000Y0039830000D01*
X0002500000Y0039920000D01*
X0002607143Y0039920000D01*
G37*
G36*
X0003250000Y0039110000D02*
X0003250000Y0039020000D01*
X0003142857Y0039020000D01*
X0003142857Y0039110000D01*
X0003250000Y0039110000D01*
G37*
G36*
X0003250000Y0039020000D02*
X0003250000Y0038930000D01*
X0003142857Y0038930000D01*
X0003142857Y0039020000D01*
X0003250000Y0039020000D01*
G37*
G36*
X0003250000Y0038930000D02*
X0003250000Y0038840000D01*
X0003142857Y0038840000D01*
X0003142857Y0038930000D01*
X0003250000Y0038930000D01*
G37*
G36*
X0003142857Y0039020000D02*
X0003142857Y0038930000D01*
X0003035714Y0038930000D01*
X0003035714Y0039020000D01*
X0003142857Y0039020000D01*
G37*
G36*
X0003035714Y0039020000D02*
X0003035714Y0038930000D01*
X0002928571Y0038930000D01*
X0002928571Y0039020000D01*
X0003035714Y0039020000D01*
G37*
G36*
X0002928571Y0039020000D02*
X0002928571Y0038930000D01*
X0002821429Y0038930000D01*
X0002821429Y0039020000D01*
X0002928571Y0039020000D01*
G37*
G36*
X0002821429Y0039020000D02*
X0002821429Y0038930000D01*
X0002714286Y0038930000D01*
X0002714286Y0039020000D01*
X0002821429Y0039020000D01*
G37*
G36*
X0002714286Y0039020000D02*
X0002714286Y0038930000D01*
X0002607143Y0038930000D01*
X0002607143Y0039020000D01*
X0002714286Y0039020000D01*
G37*
G36*
X0002607143Y0039110000D02*
X0002607143Y0039020000D01*
X0002500000Y0039020000D01*
X0002500000Y0039110000D01*
X0002607143Y0039110000D01*
G37*
G36*
X0002607143Y0039020000D02*
X0002607143Y0038930000D01*
X0002500000Y0038930000D01*
X0002500000Y0039020000D01*
X0002607143Y0039020000D01*
G37*
G36*
X0002607143Y0038930000D02*
X0002607143Y0038840000D01*
X0002500000Y0038840000D01*
X0002500000Y0038930000D01*
X0002607143Y0038930000D01*
G37*
G36*
X0003250000Y0038750000D02*
X0003250000Y0038660000D01*
X0003142857Y0038660000D01*
X0003142857Y0038750000D01*
X0003250000Y0038750000D01*
G37*
G36*
X0003250000Y0038390000D02*
X0003250000Y0038300000D01*
X0003142857Y0038300000D01*
X0003142857Y0038390000D01*
X0003250000Y0038390000D01*
G37*
G36*
X0003142857Y0038750000D02*
X0003142857Y0038660000D01*
X0003035714Y0038660000D01*
X0003035714Y0038750000D01*
X0003142857Y0038750000D01*
G37*
G36*
X0003142857Y0038660000D02*
X0003142857Y0038570000D01*
X0003035714Y0038570000D01*
X0003035714Y0038660000D01*
X0003142857Y0038660000D01*
G37*
G36*
X0003142857Y0038390000D02*
X0003142857Y0038300000D01*
X0003035714Y0038300000D01*
X0003035714Y0038390000D01*
X0003142857Y0038390000D01*
G37*
G36*
X0003035714Y0038750000D02*
X0003035714Y0038660000D01*
X0002928571Y0038660000D01*
X0002928571Y0038750000D01*
X0003035714Y0038750000D01*
G37*
G36*
X0003035714Y0038570000D02*
X0003035714Y0038480000D01*
X0002928571Y0038480000D01*
X0002928571Y0038570000D01*
X0003035714Y0038570000D01*
G37*
G36*
X0003035714Y0038390000D02*
X0003035714Y0038300000D01*
X0002928571Y0038300000D01*
X0002928571Y0038390000D01*
X0003035714Y0038390000D01*
G37*
G36*
X0002928571Y0038750000D02*
X0002928571Y0038660000D01*
X0002821429Y0038660000D01*
X0002821429Y0038750000D01*
X0002928571Y0038750000D01*
G37*
G36*
X0002928571Y0038480000D02*
X0002928571Y0038390000D01*
X0002821429Y0038390000D01*
X0002821429Y0038480000D01*
X0002928571Y0038480000D01*
G37*
G36*
X0002928571Y0038390000D02*
X0002928571Y0038300000D01*
X0002821429Y0038300000D01*
X0002821429Y0038390000D01*
X0002928571Y0038390000D01*
G37*
G36*
X0002821429Y0038750000D02*
X0002821429Y0038660000D01*
X0002714286Y0038660000D01*
X0002714286Y0038750000D01*
X0002821429Y0038750000D01*
G37*
G36*
X0002821429Y0038390000D02*
X0002821429Y0038300000D01*
X0002714286Y0038300000D01*
X0002714286Y0038390000D01*
X0002821429Y0038390000D01*
G37*
G36*
X0002714286Y0038750000D02*
X0002714286Y0038660000D01*
X0002607143Y0038660000D01*
X0002607143Y0038750000D01*
X0002714286Y0038750000D01*
G37*
G36*
X0002714286Y0038390000D02*
X0002714286Y0038300000D01*
X0002607143Y0038300000D01*
X0002607143Y0038390000D01*
X0002714286Y0038390000D01*
G37*
G36*
X0002607143Y0038750000D02*
X0002607143Y0038660000D01*
X0002500000Y0038660000D01*
X0002500000Y0038750000D01*
X0002607143Y0038750000D01*
G37*
G36*
X0002607143Y0038390000D02*
X0002607143Y0038300000D01*
X0002500000Y0038300000D01*
X0002500000Y0038390000D01*
X0002607143Y0038390000D01*
G37*
G04 TEXT BUCK 5V*
G36*
X0031000000Y0052700000D02*
X0031084000Y0052700000D01*
X0031084000Y0052600000D01*
X0031000000Y0052600000D01*
X0031000000Y0052700000D01*
G37*
G36*
X0031084000Y0052700000D02*
X0031168000Y0052700000D01*
X0031168000Y0052600000D01*
X0031084000Y0052600000D01*
X0031084000Y0052700000D01*
G37*
G36*
X0031168000Y0052700000D02*
X0031252000Y0052700000D01*
X0031252000Y0052600000D01*
X0031168000Y0052600000D01*
X0031168000Y0052700000D01*
G37*
G36*
X0031252000Y0052700000D02*
X0031336000Y0052700000D01*
X0031336000Y0052600000D01*
X0031252000Y0052600000D01*
X0031252000Y0052700000D01*
G37*
G36*
X0031000000Y0052600000D02*
X0031084000Y0052600000D01*
X0031084000Y0052500000D01*
X0031000000Y0052500000D01*
X0031000000Y0052600000D01*
G37*
G36*
X0031336000Y0052600000D02*
X0031420000Y0052600000D01*
X0031420000Y0052500000D01*
X0031336000Y0052500000D01*
X0031336000Y0052600000D01*
G37*
G36*
X0031000000Y0052500000D02*
X0031084000Y0052500000D01*
X0031084000Y0052400000D01*
X0031000000Y0052400000D01*
X0031000000Y0052500000D01*
G37*
G36*
X0031336000Y0052500000D02*
X0031420000Y0052500000D01*
X0031420000Y0052400000D01*
X0031336000Y0052400000D01*
X0031336000Y0052500000D01*
G37*
G36*
X0031000000Y0052400000D02*
X0031084000Y0052400000D01*
X0031084000Y0052300000D01*
X0031000000Y0052300000D01*
X0031000000Y0052400000D01*
G37*
G36*
X0031084000Y0052400000D02*
X0031168000Y0052400000D01*
X0031168000Y0052300000D01*
X0031084000Y0052300000D01*
X0031084000Y0052400000D01*
G37*
G36*
X0031168000Y0052400000D02*
X0031252000Y0052400000D01*
X0031252000Y0052300000D01*
X0031168000Y0052300000D01*
X0031168000Y0052400000D01*
G37*
G36*
X0031252000Y0052400000D02*
X0031336000Y0052400000D01*
X0031336000Y0052300000D01*
X0031252000Y0052300000D01*
X0031252000Y0052400000D01*
G37*
G36*
X0031000000Y0052300000D02*
X0031084000Y0052300000D01*
X0031084000Y0052200000D01*
X0031000000Y0052200000D01*
X0031000000Y0052300000D01*
G37*
G36*
X0031336000Y0052300000D02*
X0031420000Y0052300000D01*
X0031420000Y0052200000D01*
X0031336000Y0052200000D01*
X0031336000Y0052300000D01*
G37*
G36*
X0031000000Y0052200000D02*
X0031084000Y0052200000D01*
X0031084000Y0052100000D01*
X0031000000Y0052100000D01*
X0031000000Y0052200000D01*
G37*
G36*
X0031336000Y0052200000D02*
X0031420000Y0052200000D01*
X0031420000Y0052100000D01*
X0031336000Y0052100000D01*
X0031336000Y0052200000D01*
G37*
G36*
X0031000000Y0052100000D02*
X0031084000Y0052100000D01*
X0031084000Y0052000000D01*
X0031000000Y0052000000D01*
X0031000000Y0052100000D01*
G37*
G36*
X0031084000Y0052100000D02*
X0031168000Y0052100000D01*
X0031168000Y0052000000D01*
X0031084000Y0052000000D01*
X0031084000Y0052100000D01*
G37*
G36*
X0031168000Y0052100000D02*
X0031252000Y0052100000D01*
X0031252000Y0052000000D01*
X0031168000Y0052000000D01*
X0031168000Y0052100000D01*
G37*
G36*
X0031252000Y0052100000D02*
X0031336000Y0052100000D01*
X0031336000Y0052000000D01*
X0031252000Y0052000000D01*
X0031252000Y0052100000D01*
G37*
G36*
X0031420000Y0052700000D02*
X0031504000Y0052700000D01*
X0031504000Y0052600000D01*
X0031420000Y0052600000D01*
X0031420000Y0052700000D01*
G37*
G36*
X0031756000Y0052700000D02*
X0031840000Y0052700000D01*
X0031840000Y0052600000D01*
X0031756000Y0052600000D01*
X0031756000Y0052700000D01*
G37*
G36*
X0031420000Y0052600000D02*
X0031504000Y0052600000D01*
X0031504000Y0052500000D01*
X0031420000Y0052500000D01*
X0031420000Y0052600000D01*
G37*
G36*
X0031756000Y0052600000D02*
X0031840000Y0052600000D01*
X0031840000Y0052500000D01*
X0031756000Y0052500000D01*
X0031756000Y0052600000D01*
G37*
G36*
X0031420000Y0052500000D02*
X0031504000Y0052500000D01*
X0031504000Y0052400000D01*
X0031420000Y0052400000D01*
X0031420000Y0052500000D01*
G37*
G36*
X0031756000Y0052500000D02*
X0031840000Y0052500000D01*
X0031840000Y0052400000D01*
X0031756000Y0052400000D01*
X0031756000Y0052500000D01*
G37*
G36*
X0031420000Y0052400000D02*
X0031504000Y0052400000D01*
X0031504000Y0052300000D01*
X0031420000Y0052300000D01*
X0031420000Y0052400000D01*
G37*
G36*
X0031756000Y0052400000D02*
X0031840000Y0052400000D01*
X0031840000Y0052300000D01*
X0031756000Y0052300000D01*
X0031756000Y0052400000D01*
G37*
G36*
X0031420000Y0052300000D02*
X0031504000Y0052300000D01*
X0031504000Y0052200000D01*
X0031420000Y0052200000D01*
X0031420000Y0052300000D01*
G37*
G36*
X0031756000Y0052300000D02*
X0031840000Y0052300000D01*
X0031840000Y0052200000D01*
X0031756000Y0052200000D01*
X0031756000Y0052300000D01*
G37*
G36*
X0031420000Y0052200000D02*
X0031504000Y0052200000D01*
X0031504000Y0052100000D01*
X0031420000Y0052100000D01*
X0031420000Y0052200000D01*
G37*
G36*
X0031756000Y0052200000D02*
X0031840000Y0052200000D01*
X0031840000Y0052100000D01*
X0031756000Y0052100000D01*
X0031756000Y0052200000D01*
G37*
G36*
X0031504000Y0052100000D02*
X0031588000Y0052100000D01*
X0031588000Y0052000000D01*
X0031504000Y0052000000D01*
X0031504000Y0052100000D01*
G37*
G36*
X0031588000Y0052100000D02*
X0031672000Y0052100000D01*
X0031672000Y0052000000D01*
X0031588000Y0052000000D01*
X0031588000Y0052100000D01*
G37*
G36*
X0031672000Y0052100000D02*
X0031756000Y0052100000D01*
X0031756000Y0052000000D01*
X0031672000Y0052000000D01*
X0031672000Y0052100000D01*
G37*
G36*
X0031924000Y0052700000D02*
X0032008000Y0052700000D01*
X0032008000Y0052600000D01*
X0031924000Y0052600000D01*
X0031924000Y0052700000D01*
G37*
G36*
X0032008000Y0052700000D02*
X0032092000Y0052700000D01*
X0032092000Y0052600000D01*
X0032008000Y0052600000D01*
X0032008000Y0052700000D01*
G37*
G36*
X0032092000Y0052700000D02*
X0032176000Y0052700000D01*
X0032176000Y0052600000D01*
X0032092000Y0052600000D01*
X0032092000Y0052700000D01*
G37*
G36*
X0031840000Y0052600000D02*
X0031924000Y0052600000D01*
X0031924000Y0052500000D01*
X0031840000Y0052500000D01*
X0031840000Y0052600000D01*
G37*
G36*
X0032176000Y0052600000D02*
X0032260000Y0052600000D01*
X0032260000Y0052500000D01*
X0032176000Y0052500000D01*
X0032176000Y0052600000D01*
G37*
G36*
X0031840000Y0052500000D02*
X0031924000Y0052500000D01*
X0031924000Y0052400000D01*
X0031840000Y0052400000D01*
X0031840000Y0052500000D01*
G37*
G36*
X0031840000Y0052400000D02*
X0031924000Y0052400000D01*
X0031924000Y0052300000D01*
X0031840000Y0052300000D01*
X0031840000Y0052400000D01*
G37*
G36*
X0031840000Y0052300000D02*
X0031924000Y0052300000D01*
X0031924000Y0052200000D01*
X0031840000Y0052200000D01*
X0031840000Y0052300000D01*
G37*
G36*
X0031840000Y0052200000D02*
X0031924000Y0052200000D01*
X0031924000Y0052100000D01*
X0031840000Y0052100000D01*
X0031840000Y0052200000D01*
G37*
G36*
X0032176000Y0052200000D02*
X0032260000Y0052200000D01*
X0032260000Y0052100000D01*
X0032176000Y0052100000D01*
X0032176000Y0052200000D01*
G37*
G36*
X0031924000Y0052100000D02*
X0032008000Y0052100000D01*
X0032008000Y0052000000D01*
X0031924000Y0052000000D01*
X0031924000Y0052100000D01*
G37*
G36*
X0032008000Y0052100000D02*
X0032092000Y0052100000D01*
X0032092000Y0052000000D01*
X0032008000Y0052000000D01*
X0032008000Y0052100000D01*
G37*
G36*
X0032092000Y0052100000D02*
X0032176000Y0052100000D01*
X0032176000Y0052000000D01*
X0032092000Y0052000000D01*
X0032092000Y0052100000D01*
G37*
G36*
X0032260000Y0052700000D02*
X0032344000Y0052700000D01*
X0032344000Y0052600000D01*
X0032260000Y0052600000D01*
X0032260000Y0052700000D01*
G37*
G36*
X0032596000Y0052700000D02*
X0032680000Y0052700000D01*
X0032680000Y0052600000D01*
X0032596000Y0052600000D01*
X0032596000Y0052700000D01*
G37*
G36*
X0032260000Y0052600000D02*
X0032344000Y0052600000D01*
X0032344000Y0052500000D01*
X0032260000Y0052500000D01*
X0032260000Y0052600000D01*
G37*
G36*
X0032512000Y0052600000D02*
X0032596000Y0052600000D01*
X0032596000Y0052500000D01*
X0032512000Y0052500000D01*
X0032512000Y0052600000D01*
G37*
G36*
X0032260000Y0052500000D02*
X0032344000Y0052500000D01*
X0032344000Y0052400000D01*
X0032260000Y0052400000D01*
X0032260000Y0052500000D01*
G37*
G36*
X0032428000Y0052500000D02*
X0032512000Y0052500000D01*
X0032512000Y0052400000D01*
X0032428000Y0052400000D01*
X0032428000Y0052500000D01*
G37*
G36*
X0032260000Y0052400000D02*
X0032344000Y0052400000D01*
X0032344000Y0052300000D01*
X0032260000Y0052300000D01*
X0032260000Y0052400000D01*
G37*
G36*
X0032344000Y0052400000D02*
X0032428000Y0052400000D01*
X0032428000Y0052300000D01*
X0032344000Y0052300000D01*
X0032344000Y0052400000D01*
G37*
G36*
X0032260000Y0052300000D02*
X0032344000Y0052300000D01*
X0032344000Y0052200000D01*
X0032260000Y0052200000D01*
X0032260000Y0052300000D01*
G37*
G36*
X0032428000Y0052300000D02*
X0032512000Y0052300000D01*
X0032512000Y0052200000D01*
X0032428000Y0052200000D01*
X0032428000Y0052300000D01*
G37*
G36*
X0032260000Y0052200000D02*
X0032344000Y0052200000D01*
X0032344000Y0052100000D01*
X0032260000Y0052100000D01*
X0032260000Y0052200000D01*
G37*
G36*
X0032512000Y0052200000D02*
X0032596000Y0052200000D01*
X0032596000Y0052100000D01*
X0032512000Y0052100000D01*
X0032512000Y0052200000D01*
G37*
G36*
X0032260000Y0052100000D02*
X0032344000Y0052100000D01*
X0032344000Y0052000000D01*
X0032260000Y0052000000D01*
X0032260000Y0052100000D01*
G37*
G36*
X0032596000Y0052100000D02*
X0032680000Y0052100000D01*
X0032680000Y0052000000D01*
X0032596000Y0052000000D01*
X0032596000Y0052100000D01*
G37*
G36*
X0033100000Y0052700000D02*
X0033184000Y0052700000D01*
X0033184000Y0052600000D01*
X0033100000Y0052600000D01*
X0033100000Y0052700000D01*
G37*
G36*
X0033184000Y0052700000D02*
X0033268000Y0052700000D01*
X0033268000Y0052600000D01*
X0033184000Y0052600000D01*
X0033184000Y0052700000D01*
G37*
G36*
X0033268000Y0052700000D02*
X0033352000Y0052700000D01*
X0033352000Y0052600000D01*
X0033268000Y0052600000D01*
X0033268000Y0052700000D01*
G37*
G36*
X0033352000Y0052700000D02*
X0033436000Y0052700000D01*
X0033436000Y0052600000D01*
X0033352000Y0052600000D01*
X0033352000Y0052700000D01*
G37*
G36*
X0033436000Y0052700000D02*
X0033520000Y0052700000D01*
X0033520000Y0052600000D01*
X0033436000Y0052600000D01*
X0033436000Y0052700000D01*
G37*
G36*
X0033100000Y0052600000D02*
X0033184000Y0052600000D01*
X0033184000Y0052500000D01*
X0033100000Y0052500000D01*
X0033100000Y0052600000D01*
G37*
G36*
X0033100000Y0052500000D02*
X0033184000Y0052500000D01*
X0033184000Y0052400000D01*
X0033100000Y0052400000D01*
X0033100000Y0052500000D01*
G37*
G36*
X0033100000Y0052400000D02*
X0033184000Y0052400000D01*
X0033184000Y0052300000D01*
X0033100000Y0052300000D01*
X0033100000Y0052400000D01*
G37*
G36*
X0033184000Y0052400000D02*
X0033268000Y0052400000D01*
X0033268000Y0052300000D01*
X0033184000Y0052300000D01*
X0033184000Y0052400000D01*
G37*
G36*
X0033268000Y0052400000D02*
X0033352000Y0052400000D01*
X0033352000Y0052300000D01*
X0033268000Y0052300000D01*
X0033268000Y0052400000D01*
G37*
G36*
X0033352000Y0052400000D02*
X0033436000Y0052400000D01*
X0033436000Y0052300000D01*
X0033352000Y0052300000D01*
X0033352000Y0052400000D01*
G37*
G36*
X0033436000Y0052300000D02*
X0033520000Y0052300000D01*
X0033520000Y0052200000D01*
X0033436000Y0052200000D01*
X0033436000Y0052300000D01*
G37*
G36*
X0033436000Y0052200000D02*
X0033520000Y0052200000D01*
X0033520000Y0052100000D01*
X0033436000Y0052100000D01*
X0033436000Y0052200000D01*
G37*
G36*
X0033100000Y0052100000D02*
X0033184000Y0052100000D01*
X0033184000Y0052000000D01*
X0033100000Y0052000000D01*
X0033100000Y0052100000D01*
G37*
G36*
X0033184000Y0052100000D02*
X0033268000Y0052100000D01*
X0033268000Y0052000000D01*
X0033184000Y0052000000D01*
X0033184000Y0052100000D01*
G37*
G36*
X0033268000Y0052100000D02*
X0033352000Y0052100000D01*
X0033352000Y0052000000D01*
X0033268000Y0052000000D01*
X0033268000Y0052100000D01*
G37*
G36*
X0033352000Y0052100000D02*
X0033436000Y0052100000D01*
X0033436000Y0052000000D01*
X0033352000Y0052000000D01*
X0033352000Y0052100000D01*
G37*
G36*
X0033520000Y0052700000D02*
X0033604000Y0052700000D01*
X0033604000Y0052600000D01*
X0033520000Y0052600000D01*
X0033520000Y0052700000D01*
G37*
G36*
X0033856000Y0052700000D02*
X0033940000Y0052700000D01*
X0033940000Y0052600000D01*
X0033856000Y0052600000D01*
X0033856000Y0052700000D01*
G37*
G36*
X0033520000Y0052600000D02*
X0033604000Y0052600000D01*
X0033604000Y0052500000D01*
X0033520000Y0052500000D01*
X0033520000Y0052600000D01*
G37*
G36*
X0033856000Y0052600000D02*
X0033940000Y0052600000D01*
X0033940000Y0052500000D01*
X0033856000Y0052500000D01*
X0033856000Y0052600000D01*
G37*
G36*
X0033520000Y0052500000D02*
X0033604000Y0052500000D01*
X0033604000Y0052400000D01*
X0033520000Y0052400000D01*
X0033520000Y0052500000D01*
G37*
G36*
X0033856000Y0052500000D02*
X0033940000Y0052500000D01*
X0033940000Y0052400000D01*
X0033856000Y0052400000D01*
X0033856000Y0052500000D01*
G37*
G36*
X0033520000Y0052400000D02*
X0033604000Y0052400000D01*
X0033604000Y0052300000D01*
X0033520000Y0052300000D01*
X0033520000Y0052400000D01*
G37*
G36*
X0033856000Y0052400000D02*
X0033940000Y0052400000D01*
X0033940000Y0052300000D01*
X0033856000Y0052300000D01*
X0033856000Y0052400000D01*
G37*
G36*
X0033520000Y0052300000D02*
X0033604000Y0052300000D01*
X0033604000Y0052200000D01*
X0033520000Y0052200000D01*
X0033520000Y0052300000D01*
G37*
G36*
X0033856000Y0052300000D02*
X0033940000Y0052300000D01*
X0033940000Y0052200000D01*
X0033856000Y0052200000D01*
X0033856000Y0052300000D01*
G37*
G36*
X0033604000Y0052200000D02*
X0033688000Y0052200000D01*
X0033688000Y0052100000D01*
X0033604000Y0052100000D01*
X0033604000Y0052200000D01*
G37*
G36*
X0033772000Y0052200000D02*
X0033856000Y0052200000D01*
X0033856000Y0052100000D01*
X0033772000Y0052100000D01*
X0033772000Y0052200000D01*
G37*
G36*
X0033688000Y0052100000D02*
X0033772000Y0052100000D01*
X0033772000Y0052000000D01*
X0033688000Y0052000000D01*
X0033688000Y0052100000D01*
G37*
G04 TEXT USB*
G36*
X0081000000Y0013300000D02*
X0081096000Y0013300000D01*
X0081096000Y0013185714D01*
X0081000000Y0013185714D01*
X0081000000Y0013300000D01*
G37*
G36*
X0081384000Y0013300000D02*
X0081480000Y0013300000D01*
X0081480000Y0013185714D01*
X0081384000Y0013185714D01*
X0081384000Y0013300000D01*
G37*
G36*
X0081000000Y0013185714D02*
X0081096000Y0013185714D01*
X0081096000Y0013071429D01*
X0081000000Y0013071429D01*
X0081000000Y0013185714D01*
G37*
G36*
X0081384000Y0013185714D02*
X0081480000Y0013185714D01*
X0081480000Y0013071429D01*
X0081384000Y0013071429D01*
X0081384000Y0013185714D01*
G37*
G36*
X0081000000Y0013071429D02*
X0081096000Y0013071429D01*
X0081096000Y0012957143D01*
X0081000000Y0012957143D01*
X0081000000Y0013071429D01*
G37*
G36*
X0081384000Y0013071429D02*
X0081480000Y0013071429D01*
X0081480000Y0012957143D01*
X0081384000Y0012957143D01*
X0081384000Y0013071429D01*
G37*
G36*
X0081000000Y0012957143D02*
X0081096000Y0012957143D01*
X0081096000Y0012842857D01*
X0081000000Y0012842857D01*
X0081000000Y0012957143D01*
G37*
G36*
X0081384000Y0012957143D02*
X0081480000Y0012957143D01*
X0081480000Y0012842857D01*
X0081384000Y0012842857D01*
X0081384000Y0012957143D01*
G37*
G36*
X0081000000Y0012842857D02*
X0081096000Y0012842857D01*
X0081096000Y0012728571D01*
X0081000000Y0012728571D01*
X0081000000Y0012842857D01*
G37*
G36*
X0081384000Y0012842857D02*
X0081480000Y0012842857D01*
X0081480000Y0012728571D01*
X0081384000Y0012728571D01*
X0081384000Y0012842857D01*
G37*
G36*
X0081000000Y0012728571D02*
X0081096000Y0012728571D01*
X0081096000Y0012614286D01*
X0081000000Y0012614286D01*
X0081000000Y0012728571D01*
G37*
G36*
X0081384000Y0012728571D02*
X0081480000Y0012728571D01*
X0081480000Y0012614286D01*
X0081384000Y0012614286D01*
X0081384000Y0012728571D01*
G37*
G36*
X0081096000Y0012614286D02*
X0081192000Y0012614286D01*
X0081192000Y0012500000D01*
X0081096000Y0012500000D01*
X0081096000Y0012614286D01*
G37*
G36*
X0081192000Y0012614286D02*
X0081288000Y0012614286D01*
X0081288000Y0012500000D01*
X0081192000Y0012500000D01*
X0081192000Y0012614286D01*
G37*
G36*
X0081288000Y0012614286D02*
X0081384000Y0012614286D01*
X0081384000Y0012500000D01*
X0081288000Y0012500000D01*
X0081288000Y0012614286D01*
G37*
G36*
X0081576000Y0013300000D02*
X0081672000Y0013300000D01*
X0081672000Y0013185714D01*
X0081576000Y0013185714D01*
X0081576000Y0013300000D01*
G37*
G36*
X0081672000Y0013300000D02*
X0081768000Y0013300000D01*
X0081768000Y0013185714D01*
X0081672000Y0013185714D01*
X0081672000Y0013300000D01*
G37*
G36*
X0081768000Y0013300000D02*
X0081864000Y0013300000D01*
X0081864000Y0013185714D01*
X0081768000Y0013185714D01*
X0081768000Y0013300000D01*
G37*
G36*
X0081864000Y0013300000D02*
X0081960000Y0013300000D01*
X0081960000Y0013185714D01*
X0081864000Y0013185714D01*
X0081864000Y0013300000D01*
G37*
G36*
X0081480000Y0013185714D02*
X0081576000Y0013185714D01*
X0081576000Y0013071429D01*
X0081480000Y0013071429D01*
X0081480000Y0013185714D01*
G37*
G36*
X0081480000Y0013071429D02*
X0081576000Y0013071429D01*
X0081576000Y0012957143D01*
X0081480000Y0012957143D01*
X0081480000Y0013071429D01*
G37*
G36*
X0081576000Y0012957143D02*
X0081672000Y0012957143D01*
X0081672000Y0012842857D01*
X0081576000Y0012842857D01*
X0081576000Y0012957143D01*
G37*
G36*
X0081672000Y0012957143D02*
X0081768000Y0012957143D01*
X0081768000Y0012842857D01*
X0081672000Y0012842857D01*
X0081672000Y0012957143D01*
G37*
G36*
X0081768000Y0012957143D02*
X0081864000Y0012957143D01*
X0081864000Y0012842857D01*
X0081768000Y0012842857D01*
X0081768000Y0012957143D01*
G37*
G36*
X0081864000Y0012842857D02*
X0081960000Y0012842857D01*
X0081960000Y0012728571D01*
X0081864000Y0012728571D01*
X0081864000Y0012842857D01*
G37*
G36*
X0081864000Y0012728571D02*
X0081960000Y0012728571D01*
X0081960000Y0012614286D01*
X0081864000Y0012614286D01*
X0081864000Y0012728571D01*
G37*
G36*
X0081480000Y0012614286D02*
X0081576000Y0012614286D01*
X0081576000Y0012500000D01*
X0081480000Y0012500000D01*
X0081480000Y0012614286D01*
G37*
G36*
X0081576000Y0012614286D02*
X0081672000Y0012614286D01*
X0081672000Y0012500000D01*
X0081576000Y0012500000D01*
X0081576000Y0012614286D01*
G37*
G36*
X0081672000Y0012614286D02*
X0081768000Y0012614286D01*
X0081768000Y0012500000D01*
X0081672000Y0012500000D01*
X0081672000Y0012614286D01*
G37*
G36*
X0081768000Y0012614286D02*
X0081864000Y0012614286D01*
X0081864000Y0012500000D01*
X0081768000Y0012500000D01*
X0081768000Y0012614286D01*
G37*
G36*
X0081960000Y0013300000D02*
X0082056000Y0013300000D01*
X0082056000Y0013185714D01*
X0081960000Y0013185714D01*
X0081960000Y0013300000D01*
G37*
G36*
X0082056000Y0013300000D02*
X0082152000Y0013300000D01*
X0082152000Y0013185714D01*
X0082056000Y0013185714D01*
X0082056000Y0013300000D01*
G37*
G36*
X0082152000Y0013300000D02*
X0082248000Y0013300000D01*
X0082248000Y0013185714D01*
X0082152000Y0013185714D01*
X0082152000Y0013300000D01*
G37*
G36*
X0082248000Y0013300000D02*
X0082344000Y0013300000D01*
X0082344000Y0013185714D01*
X0082248000Y0013185714D01*
X0082248000Y0013300000D01*
G37*
G36*
X0081960000Y0013185714D02*
X0082056000Y0013185714D01*
X0082056000Y0013071429D01*
X0081960000Y0013071429D01*
X0081960000Y0013185714D01*
G37*
G36*
X0082344000Y0013185714D02*
X0082440000Y0013185714D01*
X0082440000Y0013071429D01*
X0082344000Y0013071429D01*
X0082344000Y0013185714D01*
G37*
G36*
X0081960000Y0013071429D02*
X0082056000Y0013071429D01*
X0082056000Y0012957143D01*
X0081960000Y0012957143D01*
X0081960000Y0013071429D01*
G37*
G36*
X0082344000Y0013071429D02*
X0082440000Y0013071429D01*
X0082440000Y0012957143D01*
X0082344000Y0012957143D01*
X0082344000Y0013071429D01*
G37*
G36*
X0081960000Y0012957143D02*
X0082056000Y0012957143D01*
X0082056000Y0012842857D01*
X0081960000Y0012842857D01*
X0081960000Y0012957143D01*
G37*
G36*
X0082056000Y0012957143D02*
X0082152000Y0012957143D01*
X0082152000Y0012842857D01*
X0082056000Y0012842857D01*
X0082056000Y0012957143D01*
G37*
G36*
X0082152000Y0012957143D02*
X0082248000Y0012957143D01*
X0082248000Y0012842857D01*
X0082152000Y0012842857D01*
X0082152000Y0012957143D01*
G37*
G36*
X0082248000Y0012957143D02*
X0082344000Y0012957143D01*
X0082344000Y0012842857D01*
X0082248000Y0012842857D01*
X0082248000Y0012957143D01*
G37*
G36*
X0081960000Y0012842857D02*
X0082056000Y0012842857D01*
X0082056000Y0012728571D01*
X0081960000Y0012728571D01*
X0081960000Y0012842857D01*
G37*
G36*
X0082344000Y0012842857D02*
X0082440000Y0012842857D01*
X0082440000Y0012728571D01*
X0082344000Y0012728571D01*
X0082344000Y0012842857D01*
G37*
G36*
X0081960000Y0012728571D02*
X0082056000Y0012728571D01*
X0082056000Y0012614286D01*
X0081960000Y0012614286D01*
X0081960000Y0012728571D01*
G37*
G36*
X0082344000Y0012728571D02*
X0082440000Y0012728571D01*
X0082440000Y0012614286D01*
X0082344000Y0012614286D01*
X0082344000Y0012728571D01*
G37*
G36*
X0081960000Y0012614286D02*
X0082056000Y0012614286D01*
X0082056000Y0012500000D01*
X0081960000Y0012500000D01*
X0081960000Y0012614286D01*
G37*
G36*
X0082056000Y0012614286D02*
X0082152000Y0012614286D01*
X0082152000Y0012500000D01*
X0082056000Y0012500000D01*
X0082056000Y0012614286D01*
G37*
G36*
X0082152000Y0012614286D02*
X0082248000Y0012614286D01*
X0082248000Y0012500000D01*
X0082152000Y0012500000D01*
X0082152000Y0012614286D01*
G37*
G36*
X0082248000Y0012614286D02*
X0082344000Y0012614286D01*
X0082344000Y0012500000D01*
X0082248000Y0012500000D01*
X0082248000Y0012614286D01*
G37*
G04 TEXT SWD*
G36*
X0071096000Y0049300000D02*
X0071192000Y0049300000D01*
X0071192000Y0049185714D01*
X0071096000Y0049185714D01*
X0071096000Y0049300000D01*
G37*
G36*
X0071192000Y0049300000D02*
X0071288000Y0049300000D01*
X0071288000Y0049185714D01*
X0071192000Y0049185714D01*
X0071192000Y0049300000D01*
G37*
G36*
X0071288000Y0049300000D02*
X0071384000Y0049300000D01*
X0071384000Y0049185714D01*
X0071288000Y0049185714D01*
X0071288000Y0049300000D01*
G37*
G36*
X0071384000Y0049300000D02*
X0071480000Y0049300000D01*
X0071480000Y0049185714D01*
X0071384000Y0049185714D01*
X0071384000Y0049300000D01*
G37*
G36*
X0071000000Y0049185714D02*
X0071096000Y0049185714D01*
X0071096000Y0049071429D01*
X0071000000Y0049071429D01*
X0071000000Y0049185714D01*
G37*
G36*
X0071000000Y0049071429D02*
X0071096000Y0049071429D01*
X0071096000Y0048957143D01*
X0071000000Y0048957143D01*
X0071000000Y0049071429D01*
G37*
G36*
X0071096000Y0048957143D02*
X0071192000Y0048957143D01*
X0071192000Y0048842857D01*
X0071096000Y0048842857D01*
X0071096000Y0048957143D01*
G37*
G36*
X0071192000Y0048957143D02*
X0071288000Y0048957143D01*
X0071288000Y0048842857D01*
X0071192000Y0048842857D01*
X0071192000Y0048957143D01*
G37*
G36*
X0071288000Y0048957143D02*
X0071384000Y0048957143D01*
X0071384000Y0048842857D01*
X0071288000Y0048842857D01*
X0071288000Y0048957143D01*
G37*
G36*
X0071384000Y0048842857D02*
X0071480000Y0048842857D01*
X0071480000Y0048728571D01*
X0071384000Y0048728571D01*
X0071384000Y0048842857D01*
G37*
G36*
X0071384000Y0048728571D02*
X0071480000Y0048728571D01*
X0071480000Y0048614286D01*
X0071384000Y0048614286D01*
X0071384000Y0048728571D01*
G37*
G36*
X0071000000Y0048614286D02*
X0071096000Y0048614286D01*
X0071096000Y0048500000D01*
X0071000000Y0048500000D01*
X0071000000Y0048614286D01*
G37*
G36*
X0071096000Y0048614286D02*
X0071192000Y0048614286D01*
X0071192000Y0048500000D01*
X0071096000Y0048500000D01*
X0071096000Y0048614286D01*
G37*
G36*
X0071192000Y0048614286D02*
X0071288000Y0048614286D01*
X0071288000Y0048500000D01*
X0071192000Y0048500000D01*
X0071192000Y0048614286D01*
G37*
G36*
X0071288000Y0048614286D02*
X0071384000Y0048614286D01*
X0071384000Y0048500000D01*
X0071288000Y0048500000D01*
X0071288000Y0048614286D01*
G37*
G36*
X0071480000Y0049300000D02*
X0071576000Y0049300000D01*
X0071576000Y0049185714D01*
X0071480000Y0049185714D01*
X0071480000Y0049300000D01*
G37*
G36*
X0071864000Y0049300000D02*
X0071960000Y0049300000D01*
X0071960000Y0049185714D01*
X0071864000Y0049185714D01*
X0071864000Y0049300000D01*
G37*
G36*
X0071480000Y0049185714D02*
X0071576000Y0049185714D01*
X0071576000Y0049071429D01*
X0071480000Y0049071429D01*
X0071480000Y0049185714D01*
G37*
G36*
X0071864000Y0049185714D02*
X0071960000Y0049185714D01*
X0071960000Y0049071429D01*
X0071864000Y0049071429D01*
X0071864000Y0049185714D01*
G37*
G36*
X0071480000Y0049071429D02*
X0071576000Y0049071429D01*
X0071576000Y0048957143D01*
X0071480000Y0048957143D01*
X0071480000Y0049071429D01*
G37*
G36*
X0071864000Y0049071429D02*
X0071960000Y0049071429D01*
X0071960000Y0048957143D01*
X0071864000Y0048957143D01*
X0071864000Y0049071429D01*
G37*
G36*
X0071480000Y0048957143D02*
X0071576000Y0048957143D01*
X0071576000Y0048842857D01*
X0071480000Y0048842857D01*
X0071480000Y0048957143D01*
G37*
G36*
X0071672000Y0048957143D02*
X0071768000Y0048957143D01*
X0071768000Y0048842857D01*
X0071672000Y0048842857D01*
X0071672000Y0048957143D01*
G37*
G36*
X0071864000Y0048957143D02*
X0071960000Y0048957143D01*
X0071960000Y0048842857D01*
X0071864000Y0048842857D01*
X0071864000Y0048957143D01*
G37*
G36*
X0071480000Y0048842857D02*
X0071576000Y0048842857D01*
X0071576000Y0048728571D01*
X0071480000Y0048728571D01*
X0071480000Y0048842857D01*
G37*
G36*
X0071672000Y0048842857D02*
X0071768000Y0048842857D01*
X0071768000Y0048728571D01*
X0071672000Y0048728571D01*
X0071672000Y0048842857D01*
G37*
G36*
X0071864000Y0048842857D02*
X0071960000Y0048842857D01*
X0071960000Y0048728571D01*
X0071864000Y0048728571D01*
X0071864000Y0048842857D01*
G37*
G36*
X0071480000Y0048728571D02*
X0071576000Y0048728571D01*
X0071576000Y0048614286D01*
X0071480000Y0048614286D01*
X0071480000Y0048728571D01*
G37*
G36*
X0071672000Y0048728571D02*
X0071768000Y0048728571D01*
X0071768000Y0048614286D01*
X0071672000Y0048614286D01*
X0071672000Y0048728571D01*
G37*
G36*
X0071864000Y0048728571D02*
X0071960000Y0048728571D01*
X0071960000Y0048614286D01*
X0071864000Y0048614286D01*
X0071864000Y0048728571D01*
G37*
G36*
X0071576000Y0048614286D02*
X0071672000Y0048614286D01*
X0071672000Y0048500000D01*
X0071576000Y0048500000D01*
X0071576000Y0048614286D01*
G37*
G36*
X0071768000Y0048614286D02*
X0071864000Y0048614286D01*
X0071864000Y0048500000D01*
X0071768000Y0048500000D01*
X0071768000Y0048614286D01*
G37*
G36*
X0071960000Y0049300000D02*
X0072056000Y0049300000D01*
X0072056000Y0049185714D01*
X0071960000Y0049185714D01*
X0071960000Y0049300000D01*
G37*
G36*
X0072056000Y0049300000D02*
X0072152000Y0049300000D01*
X0072152000Y0049185714D01*
X0072056000Y0049185714D01*
X0072056000Y0049300000D01*
G37*
G36*
X0072152000Y0049300000D02*
X0072248000Y0049300000D01*
X0072248000Y0049185714D01*
X0072152000Y0049185714D01*
X0072152000Y0049300000D01*
G37*
G36*
X0072248000Y0049300000D02*
X0072344000Y0049300000D01*
X0072344000Y0049185714D01*
X0072248000Y0049185714D01*
X0072248000Y0049300000D01*
G37*
G36*
X0071960000Y0049185714D02*
X0072056000Y0049185714D01*
X0072056000Y0049071429D01*
X0071960000Y0049071429D01*
X0071960000Y0049185714D01*
G37*
G36*
X0072344000Y0049185714D02*
X0072440000Y0049185714D01*
X0072440000Y0049071429D01*
X0072344000Y0049071429D01*
X0072344000Y0049185714D01*
G37*
G36*
X0071960000Y0049071429D02*
X0072056000Y0049071429D01*
X0072056000Y0048957143D01*
X0071960000Y0048957143D01*
X0071960000Y0049071429D01*
G37*
G36*
X0072344000Y0049071429D02*
X0072440000Y0049071429D01*
X0072440000Y0048957143D01*
X0072344000Y0048957143D01*
X0072344000Y0049071429D01*
G37*
G36*
X0071960000Y0048957143D02*
X0072056000Y0048957143D01*
X0072056000Y0048842857D01*
X0071960000Y0048842857D01*
X0071960000Y0048957143D01*
G37*
G36*
X0072344000Y0048957143D02*
X0072440000Y0048957143D01*
X0072440000Y0048842857D01*
X0072344000Y0048842857D01*
X0072344000Y0048957143D01*
G37*
G36*
X0071960000Y0048842857D02*
X0072056000Y0048842857D01*
X0072056000Y0048728571D01*
X0071960000Y0048728571D01*
X0071960000Y0048842857D01*
G37*
G36*
X0072344000Y0048842857D02*
X0072440000Y0048842857D01*
X0072440000Y0048728571D01*
X0072344000Y0048728571D01*
X0072344000Y0048842857D01*
G37*
G36*
X0071960000Y0048728571D02*
X0072056000Y0048728571D01*
X0072056000Y0048614286D01*
X0071960000Y0048614286D01*
X0071960000Y0048728571D01*
G37*
G36*
X0072344000Y0048728571D02*
X0072440000Y0048728571D01*
X0072440000Y0048614286D01*
X0072344000Y0048614286D01*
X0072344000Y0048728571D01*
G37*
G36*
X0071960000Y0048614286D02*
X0072056000Y0048614286D01*
X0072056000Y0048500000D01*
X0071960000Y0048500000D01*
X0071960000Y0048614286D01*
G37*
G36*
X0072056000Y0048614286D02*
X0072152000Y0048614286D01*
X0072152000Y0048500000D01*
X0072056000Y0048500000D01*
X0072056000Y0048614286D01*
G37*
G36*
X0072152000Y0048614286D02*
X0072248000Y0048614286D01*
X0072248000Y0048500000D01*
X0072152000Y0048500000D01*
X0072152000Y0048614286D01*
G37*
G36*
X0072248000Y0048614286D02*
X0072344000Y0048614286D01*
X0072344000Y0048500000D01*
X0072248000Y0048500000D01*
X0072248000Y0048614286D01*
G37*
G04 TEXT GPIO*
G36*
X0080096000Y0029800000D02*
X0080192000Y0029800000D01*
X0080192000Y0029685714D01*
X0080096000Y0029685714D01*
X0080096000Y0029800000D01*
G37*
G36*
X0080192000Y0029800000D02*
X0080288000Y0029800000D01*
X0080288000Y0029685714D01*
X0080192000Y0029685714D01*
X0080192000Y0029800000D01*
G37*
G36*
X0080288000Y0029800000D02*
X0080384000Y0029800000D01*
X0080384000Y0029685714D01*
X0080288000Y0029685714D01*
X0080288000Y0029800000D01*
G37*
G36*
X0080000000Y0029685714D02*
X0080096000Y0029685714D01*
X0080096000Y0029571429D01*
X0080000000Y0029571429D01*
X0080000000Y0029685714D01*
G37*
G36*
X0080384000Y0029685714D02*
X0080480000Y0029685714D01*
X0080480000Y0029571429D01*
X0080384000Y0029571429D01*
X0080384000Y0029685714D01*
G37*
G36*
X0080000000Y0029571429D02*
X0080096000Y0029571429D01*
X0080096000Y0029457143D01*
X0080000000Y0029457143D01*
X0080000000Y0029571429D01*
G37*
G36*
X0080000000Y0029457143D02*
X0080096000Y0029457143D01*
X0080096000Y0029342857D01*
X0080000000Y0029342857D01*
X0080000000Y0029457143D01*
G37*
G36*
X0080192000Y0029457143D02*
X0080288000Y0029457143D01*
X0080288000Y0029342857D01*
X0080192000Y0029342857D01*
X0080192000Y0029457143D01*
G37*
G36*
X0080288000Y0029457143D02*
X0080384000Y0029457143D01*
X0080384000Y0029342857D01*
X0080288000Y0029342857D01*
X0080288000Y0029457143D01*
G37*
G36*
X0080384000Y0029457143D02*
X0080480000Y0029457143D01*
X0080480000Y0029342857D01*
X0080384000Y0029342857D01*
X0080384000Y0029457143D01*
G37*
G36*
X0080000000Y0029342857D02*
X0080096000Y0029342857D01*
X0080096000Y0029228571D01*
X0080000000Y0029228571D01*
X0080000000Y0029342857D01*
G37*
G36*
X0080384000Y0029342857D02*
X0080480000Y0029342857D01*
X0080480000Y0029228571D01*
X0080384000Y0029228571D01*
X0080384000Y0029342857D01*
G37*
G36*
X0080000000Y0029228571D02*
X0080096000Y0029228571D01*
X0080096000Y0029114286D01*
X0080000000Y0029114286D01*
X0080000000Y0029228571D01*
G37*
G36*
X0080384000Y0029228571D02*
X0080480000Y0029228571D01*
X0080480000Y0029114286D01*
X0080384000Y0029114286D01*
X0080384000Y0029228571D01*
G37*
G36*
X0080096000Y0029114286D02*
X0080192000Y0029114286D01*
X0080192000Y0029000000D01*
X0080096000Y0029000000D01*
X0080096000Y0029114286D01*
G37*
G36*
X0080192000Y0029114286D02*
X0080288000Y0029114286D01*
X0080288000Y0029000000D01*
X0080192000Y0029000000D01*
X0080192000Y0029114286D01*
G37*
G36*
X0080288000Y0029114286D02*
X0080384000Y0029114286D01*
X0080384000Y0029000000D01*
X0080288000Y0029000000D01*
X0080288000Y0029114286D01*
G37*
G36*
X0080480000Y0029800000D02*
X0080576000Y0029800000D01*
X0080576000Y0029685714D01*
X0080480000Y0029685714D01*
X0080480000Y0029800000D01*
G37*
G36*
X0080576000Y0029800000D02*
X0080672000Y0029800000D01*
X0080672000Y0029685714D01*
X0080576000Y0029685714D01*
X0080576000Y0029800000D01*
G37*
G36*
X0080672000Y0029800000D02*
X0080768000Y0029800000D01*
X0080768000Y0029685714D01*
X0080672000Y0029685714D01*
X0080672000Y0029800000D01*
G37*
G36*
X0080768000Y0029800000D02*
X0080864000Y0029800000D01*
X0080864000Y0029685714D01*
X0080768000Y0029685714D01*
X0080768000Y0029800000D01*
G37*
G36*
X0080480000Y0029685714D02*
X0080576000Y0029685714D01*
X0080576000Y0029571429D01*
X0080480000Y0029571429D01*
X0080480000Y0029685714D01*
G37*
G36*
X0080864000Y0029685714D02*
X0080960000Y0029685714D01*
X0080960000Y0029571429D01*
X0080864000Y0029571429D01*
X0080864000Y0029685714D01*
G37*
G36*
X0080480000Y0029571429D02*
X0080576000Y0029571429D01*
X0080576000Y0029457143D01*
X0080480000Y0029457143D01*
X0080480000Y0029571429D01*
G37*
G36*
X0080864000Y0029571429D02*
X0080960000Y0029571429D01*
X0080960000Y0029457143D01*
X0080864000Y0029457143D01*
X0080864000Y0029571429D01*
G37*
G36*
X0080480000Y0029457143D02*
X0080576000Y0029457143D01*
X0080576000Y0029342857D01*
X0080480000Y0029342857D01*
X0080480000Y0029457143D01*
G37*
G36*
X0080576000Y0029457143D02*
X0080672000Y0029457143D01*
X0080672000Y0029342857D01*
X0080576000Y0029342857D01*
X0080576000Y0029457143D01*
G37*
G36*
X0080672000Y0029457143D02*
X0080768000Y0029457143D01*
X0080768000Y0029342857D01*
X0080672000Y0029342857D01*
X0080672000Y0029457143D01*
G37*
G36*
X0080768000Y0029457143D02*
X0080864000Y0029457143D01*
X0080864000Y0029342857D01*
X0080768000Y0029342857D01*
X0080768000Y0029457143D01*
G37*
G36*
X0080480000Y0029342857D02*
X0080576000Y0029342857D01*
X0080576000Y0029228571D01*
X0080480000Y0029228571D01*
X0080480000Y0029342857D01*
G37*
G36*
X0080480000Y0029228571D02*
X0080576000Y0029228571D01*
X0080576000Y0029114286D01*
X0080480000Y0029114286D01*
X0080480000Y0029228571D01*
G37*
G36*
X0080480000Y0029114286D02*
X0080576000Y0029114286D01*
X0080576000Y0029000000D01*
X0080480000Y0029000000D01*
X0080480000Y0029114286D01*
G37*
G36*
X0081056000Y0029800000D02*
X0081152000Y0029800000D01*
X0081152000Y0029685714D01*
X0081056000Y0029685714D01*
X0081056000Y0029800000D01*
G37*
G36*
X0081152000Y0029800000D02*
X0081248000Y0029800000D01*
X0081248000Y0029685714D01*
X0081152000Y0029685714D01*
X0081152000Y0029800000D01*
G37*
G36*
X0081248000Y0029800000D02*
X0081344000Y0029800000D01*
X0081344000Y0029685714D01*
X0081248000Y0029685714D01*
X0081248000Y0029800000D01*
G37*
G36*
X0081152000Y0029685714D02*
X0081248000Y0029685714D01*
X0081248000Y0029571429D01*
X0081152000Y0029571429D01*
X0081152000Y0029685714D01*
G37*
G36*
X0081152000Y0029571429D02*
X0081248000Y0029571429D01*
X0081248000Y0029457143D01*
X0081152000Y0029457143D01*
X0081152000Y0029571429D01*
G37*
G36*
X0081152000Y0029457143D02*
X0081248000Y0029457143D01*
X0081248000Y0029342857D01*
X0081152000Y0029342857D01*
X0081152000Y0029457143D01*
G37*
G36*
X0081152000Y0029342857D02*
X0081248000Y0029342857D01*
X0081248000Y0029228571D01*
X0081152000Y0029228571D01*
X0081152000Y0029342857D01*
G37*
G36*
X0081152000Y0029228571D02*
X0081248000Y0029228571D01*
X0081248000Y0029114286D01*
X0081152000Y0029114286D01*
X0081152000Y0029228571D01*
G37*
G36*
X0081056000Y0029114286D02*
X0081152000Y0029114286D01*
X0081152000Y0029000000D01*
X0081056000Y0029000000D01*
X0081056000Y0029114286D01*
G37*
G36*
X0081152000Y0029114286D02*
X0081248000Y0029114286D01*
X0081248000Y0029000000D01*
X0081152000Y0029000000D01*
X0081152000Y0029114286D01*
G37*
G36*
X0081248000Y0029114286D02*
X0081344000Y0029114286D01*
X0081344000Y0029000000D01*
X0081248000Y0029000000D01*
X0081248000Y0029114286D01*
G37*
G36*
X0081536000Y0029800000D02*
X0081632000Y0029800000D01*
X0081632000Y0029685714D01*
X0081536000Y0029685714D01*
X0081536000Y0029800000D01*
G37*
G36*
X0081632000Y0029800000D02*
X0081728000Y0029800000D01*
X0081728000Y0029685714D01*
X0081632000Y0029685714D01*
X0081632000Y0029800000D01*
G37*
G36*
X0081728000Y0029800000D02*
X0081824000Y0029800000D01*
X0081824000Y0029685714D01*
X0081728000Y0029685714D01*
X0081728000Y0029800000D01*
G37*
G36*
X0081440000Y0029685714D02*
X0081536000Y0029685714D01*
X0081536000Y0029571429D01*
X0081440000Y0029571429D01*
X0081440000Y0029685714D01*
G37*
G36*
X0081824000Y0029685714D02*
X0081920000Y0029685714D01*
X0081920000Y0029571429D01*
X0081824000Y0029571429D01*
X0081824000Y0029685714D01*
G37*
G36*
X0081440000Y0029571429D02*
X0081536000Y0029571429D01*
X0081536000Y0029457143D01*
X0081440000Y0029457143D01*
X0081440000Y0029571429D01*
G37*
G36*
X0081824000Y0029571429D02*
X0081920000Y0029571429D01*
X0081920000Y0029457143D01*
X0081824000Y0029457143D01*
X0081824000Y0029571429D01*
G37*
G36*
X0081440000Y0029457143D02*
X0081536000Y0029457143D01*
X0081536000Y0029342857D01*
X0081440000Y0029342857D01*
X0081440000Y0029457143D01*
G37*
G36*
X0081824000Y0029457143D02*
X0081920000Y0029457143D01*
X0081920000Y0029342857D01*
X0081824000Y0029342857D01*
X0081824000Y0029457143D01*
G37*
G36*
X0081440000Y0029342857D02*
X0081536000Y0029342857D01*
X0081536000Y0029228571D01*
X0081440000Y0029228571D01*
X0081440000Y0029342857D01*
G37*
G36*
X0081824000Y0029342857D02*
X0081920000Y0029342857D01*
X0081920000Y0029228571D01*
X0081824000Y0029228571D01*
X0081824000Y0029342857D01*
G37*
G36*
X0081440000Y0029228571D02*
X0081536000Y0029228571D01*
X0081536000Y0029114286D01*
X0081440000Y0029114286D01*
X0081440000Y0029228571D01*
G37*
G36*
X0081824000Y0029228571D02*
X0081920000Y0029228571D01*
X0081920000Y0029114286D01*
X0081824000Y0029114286D01*
X0081824000Y0029228571D01*
G37*
G36*
X0081536000Y0029114286D02*
X0081632000Y0029114286D01*
X0081632000Y0029000000D01*
X0081536000Y0029000000D01*
X0081536000Y0029114286D01*
G37*
G36*
X0081632000Y0029114286D02*
X0081728000Y0029114286D01*
X0081728000Y0029000000D01*
X0081632000Y0029000000D01*
X0081632000Y0029114286D01*
G37*
G36*
X0081728000Y0029114286D02*
X0081824000Y0029114286D01*
X0081824000Y0029000000D01*
X0081728000Y0029000000D01*
X0081728000Y0029114286D01*
G37*
G04 TEXT +3V3*
G36*
X0062168000Y0039600000D02*
X0062252000Y0039600000D01*
X0062252000Y0039500000D01*
X0062168000Y0039500000D01*
X0062168000Y0039600000D01*
G37*
G36*
X0062168000Y0039500000D02*
X0062252000Y0039500000D01*
X0062252000Y0039400000D01*
X0062168000Y0039400000D01*
X0062168000Y0039500000D01*
G37*
G36*
X0062000000Y0039400000D02*
X0062084000Y0039400000D01*
X0062084000Y0039300000D01*
X0062000000Y0039300000D01*
X0062000000Y0039400000D01*
G37*
G36*
X0062084000Y0039400000D02*
X0062168000Y0039400000D01*
X0062168000Y0039300000D01*
X0062084000Y0039300000D01*
X0062084000Y0039400000D01*
G37*
G36*
X0062168000Y0039400000D02*
X0062252000Y0039400000D01*
X0062252000Y0039300000D01*
X0062168000Y0039300000D01*
X0062168000Y0039400000D01*
G37*
G36*
X0062252000Y0039400000D02*
X0062336000Y0039400000D01*
X0062336000Y0039300000D01*
X0062252000Y0039300000D01*
X0062252000Y0039400000D01*
G37*
G36*
X0062336000Y0039400000D02*
X0062420000Y0039400000D01*
X0062420000Y0039300000D01*
X0062336000Y0039300000D01*
X0062336000Y0039400000D01*
G37*
G36*
X0062168000Y0039300000D02*
X0062252000Y0039300000D01*
X0062252000Y0039200000D01*
X0062168000Y0039200000D01*
X0062168000Y0039300000D01*
G37*
G36*
X0062168000Y0039200000D02*
X0062252000Y0039200000D01*
X0062252000Y0039100000D01*
X0062168000Y0039100000D01*
X0062168000Y0039200000D01*
G37*
G36*
X0062420000Y0039700000D02*
X0062504000Y0039700000D01*
X0062504000Y0039600000D01*
X0062420000Y0039600000D01*
X0062420000Y0039700000D01*
G37*
G36*
X0062504000Y0039700000D02*
X0062588000Y0039700000D01*
X0062588000Y0039600000D01*
X0062504000Y0039600000D01*
X0062504000Y0039700000D01*
G37*
G36*
X0062588000Y0039700000D02*
X0062672000Y0039700000D01*
X0062672000Y0039600000D01*
X0062588000Y0039600000D01*
X0062588000Y0039700000D01*
G37*
G36*
X0062672000Y0039700000D02*
X0062756000Y0039700000D01*
X0062756000Y0039600000D01*
X0062672000Y0039600000D01*
X0062672000Y0039700000D01*
G37*
G36*
X0062756000Y0039600000D02*
X0062840000Y0039600000D01*
X0062840000Y0039500000D01*
X0062756000Y0039500000D01*
X0062756000Y0039600000D01*
G37*
G36*
X0062756000Y0039500000D02*
X0062840000Y0039500000D01*
X0062840000Y0039400000D01*
X0062756000Y0039400000D01*
X0062756000Y0039500000D01*
G37*
G36*
X0062504000Y0039400000D02*
X0062588000Y0039400000D01*
X0062588000Y0039300000D01*
X0062504000Y0039300000D01*
X0062504000Y0039400000D01*
G37*
G36*
X0062588000Y0039400000D02*
X0062672000Y0039400000D01*
X0062672000Y0039300000D01*
X0062588000Y0039300000D01*
X0062588000Y0039400000D01*
G37*
G36*
X0062672000Y0039400000D02*
X0062756000Y0039400000D01*
X0062756000Y0039300000D01*
X0062672000Y0039300000D01*
X0062672000Y0039400000D01*
G37*
G36*
X0062756000Y0039300000D02*
X0062840000Y0039300000D01*
X0062840000Y0039200000D01*
X0062756000Y0039200000D01*
X0062756000Y0039300000D01*
G37*
G36*
X0062756000Y0039200000D02*
X0062840000Y0039200000D01*
X0062840000Y0039100000D01*
X0062756000Y0039100000D01*
X0062756000Y0039200000D01*
G37*
G36*
X0062420000Y0039100000D02*
X0062504000Y0039100000D01*
X0062504000Y0039000000D01*
X0062420000Y0039000000D01*
X0062420000Y0039100000D01*
G37*
G36*
X0062504000Y0039100000D02*
X0062588000Y0039100000D01*
X0062588000Y0039000000D01*
X0062504000Y0039000000D01*
X0062504000Y0039100000D01*
G37*
G36*
X0062588000Y0039100000D02*
X0062672000Y0039100000D01*
X0062672000Y0039000000D01*
X0062588000Y0039000000D01*
X0062588000Y0039100000D01*
G37*
G36*
X0062672000Y0039100000D02*
X0062756000Y0039100000D01*
X0062756000Y0039000000D01*
X0062672000Y0039000000D01*
X0062672000Y0039100000D01*
G37*
G36*
X0062840000Y0039700000D02*
X0062924000Y0039700000D01*
X0062924000Y0039600000D01*
X0062840000Y0039600000D01*
X0062840000Y0039700000D01*
G37*
G36*
X0063176000Y0039700000D02*
X0063260000Y0039700000D01*
X0063260000Y0039600000D01*
X0063176000Y0039600000D01*
X0063176000Y0039700000D01*
G37*
G36*
X0062840000Y0039600000D02*
X0062924000Y0039600000D01*
X0062924000Y0039500000D01*
X0062840000Y0039500000D01*
X0062840000Y0039600000D01*
G37*
G36*
X0063176000Y0039600000D02*
X0063260000Y0039600000D01*
X0063260000Y0039500000D01*
X0063176000Y0039500000D01*
X0063176000Y0039600000D01*
G37*
G36*
X0062840000Y0039500000D02*
X0062924000Y0039500000D01*
X0062924000Y0039400000D01*
X0062840000Y0039400000D01*
X0062840000Y0039500000D01*
G37*
G36*
X0063176000Y0039500000D02*
X0063260000Y0039500000D01*
X0063260000Y0039400000D01*
X0063176000Y0039400000D01*
X0063176000Y0039500000D01*
G37*
G36*
X0062840000Y0039400000D02*
X0062924000Y0039400000D01*
X0062924000Y0039300000D01*
X0062840000Y0039300000D01*
X0062840000Y0039400000D01*
G37*
G36*
X0063176000Y0039400000D02*
X0063260000Y0039400000D01*
X0063260000Y0039300000D01*
X0063176000Y0039300000D01*
X0063176000Y0039400000D01*
G37*
G36*
X0062840000Y0039300000D02*
X0062924000Y0039300000D01*
X0062924000Y0039200000D01*
X0062840000Y0039200000D01*
X0062840000Y0039300000D01*
G37*
G36*
X0063176000Y0039300000D02*
X0063260000Y0039300000D01*
X0063260000Y0039200000D01*
X0063176000Y0039200000D01*
X0063176000Y0039300000D01*
G37*
G36*
X0062924000Y0039200000D02*
X0063008000Y0039200000D01*
X0063008000Y0039100000D01*
X0062924000Y0039100000D01*
X0062924000Y0039200000D01*
G37*
G36*
X0063092000Y0039200000D02*
X0063176000Y0039200000D01*
X0063176000Y0039100000D01*
X0063092000Y0039100000D01*
X0063092000Y0039200000D01*
G37*
G36*
X0063008000Y0039100000D02*
X0063092000Y0039100000D01*
X0063092000Y0039000000D01*
X0063008000Y0039000000D01*
X0063008000Y0039100000D01*
G37*
G36*
X0063260000Y0039700000D02*
X0063344000Y0039700000D01*
X0063344000Y0039600000D01*
X0063260000Y0039600000D01*
X0063260000Y0039700000D01*
G37*
G36*
X0063344000Y0039700000D02*
X0063428000Y0039700000D01*
X0063428000Y0039600000D01*
X0063344000Y0039600000D01*
X0063344000Y0039700000D01*
G37*
G36*
X0063428000Y0039700000D02*
X0063512000Y0039700000D01*
X0063512000Y0039600000D01*
X0063428000Y0039600000D01*
X0063428000Y0039700000D01*
G37*
G36*
X0063512000Y0039700000D02*
X0063596000Y0039700000D01*
X0063596000Y0039600000D01*
X0063512000Y0039600000D01*
X0063512000Y0039700000D01*
G37*
G36*
X0063596000Y0039600000D02*
X0063680000Y0039600000D01*
X0063680000Y0039500000D01*
X0063596000Y0039500000D01*
X0063596000Y0039600000D01*
G37*
G36*
X0063596000Y0039500000D02*
X0063680000Y0039500000D01*
X0063680000Y0039400000D01*
X0063596000Y0039400000D01*
X0063596000Y0039500000D01*
G37*
G36*
X0063344000Y0039400000D02*
X0063428000Y0039400000D01*
X0063428000Y0039300000D01*
X0063344000Y0039300000D01*
X0063344000Y0039400000D01*
G37*
G36*
X0063428000Y0039400000D02*
X0063512000Y0039400000D01*
X0063512000Y0039300000D01*
X0063428000Y0039300000D01*
X0063428000Y0039400000D01*
G37*
G36*
X0063512000Y0039400000D02*
X0063596000Y0039400000D01*
X0063596000Y0039300000D01*
X0063512000Y0039300000D01*
X0063512000Y0039400000D01*
G37*
G36*
X0063596000Y0039300000D02*
X0063680000Y0039300000D01*
X0063680000Y0039200000D01*
X0063596000Y0039200000D01*
X0063596000Y0039300000D01*
G37*
G36*
X0063596000Y0039200000D02*
X0063680000Y0039200000D01*
X0063680000Y0039100000D01*
X0063596000Y0039100000D01*
X0063596000Y0039200000D01*
G37*
G36*
X0063260000Y0039100000D02*
X0063344000Y0039100000D01*
X0063344000Y0039000000D01*
X0063260000Y0039000000D01*
X0063260000Y0039100000D01*
G37*
G36*
X0063344000Y0039100000D02*
X0063428000Y0039100000D01*
X0063428000Y0039000000D01*
X0063344000Y0039000000D01*
X0063344000Y0039100000D01*
G37*
G36*
X0063428000Y0039100000D02*
X0063512000Y0039100000D01*
X0063512000Y0039000000D01*
X0063428000Y0039000000D01*
X0063428000Y0039100000D01*
G37*
G36*
X0063512000Y0039100000D02*
X0063596000Y0039100000D01*
X0063596000Y0039000000D01*
X0063512000Y0039000000D01*
X0063512000Y0039100000D01*
G37*
G04 TEXT VDDA*
G36*
X0034000000Y0029200000D02*
X0034084000Y0029200000D01*
X0034084000Y0029100000D01*
X0034000000Y0029100000D01*
X0034000000Y0029200000D01*
G37*
G36*
X0034336000Y0029200000D02*
X0034420000Y0029200000D01*
X0034420000Y0029100000D01*
X0034336000Y0029100000D01*
X0034336000Y0029200000D01*
G37*
G36*
X0034000000Y0029100000D02*
X0034084000Y0029100000D01*
X0034084000Y0029000000D01*
X0034000000Y0029000000D01*
X0034000000Y0029100000D01*
G37*
G36*
X0034336000Y0029100000D02*
X0034420000Y0029100000D01*
X0034420000Y0029000000D01*
X0034336000Y0029000000D01*
X0034336000Y0029100000D01*
G37*
G36*
X0034000000Y0029000000D02*
X0034084000Y0029000000D01*
X0034084000Y0028900000D01*
X0034000000Y0028900000D01*
X0034000000Y0029000000D01*
G37*
G36*
X0034336000Y0029000000D02*
X0034420000Y0029000000D01*
X0034420000Y0028900000D01*
X0034336000Y0028900000D01*
X0034336000Y0029000000D01*
G37*
G36*
X0034000000Y0028900000D02*
X0034084000Y0028900000D01*
X0034084000Y0028800000D01*
X0034000000Y0028800000D01*
X0034000000Y0028900000D01*
G37*
G36*
X0034336000Y0028900000D02*
X0034420000Y0028900000D01*
X0034420000Y0028800000D01*
X0034336000Y0028800000D01*
X0034336000Y0028900000D01*
G37*
G36*
X0034000000Y0028800000D02*
X0034084000Y0028800000D01*
X0034084000Y0028700000D01*
X0034000000Y0028700000D01*
X0034000000Y0028800000D01*
G37*
G36*
X0034336000Y0028800000D02*
X0034420000Y0028800000D01*
X0034420000Y0028700000D01*
X0034336000Y0028700000D01*
X0034336000Y0028800000D01*
G37*
G36*
X0034084000Y0028700000D02*
X0034168000Y0028700000D01*
X0034168000Y0028600000D01*
X0034084000Y0028600000D01*
X0034084000Y0028700000D01*
G37*
G36*
X0034252000Y0028700000D02*
X0034336000Y0028700000D01*
X0034336000Y0028600000D01*
X0034252000Y0028600000D01*
X0034252000Y0028700000D01*
G37*
G36*
X0034168000Y0028600000D02*
X0034252000Y0028600000D01*
X0034252000Y0028500000D01*
X0034168000Y0028500000D01*
X0034168000Y0028600000D01*
G37*
G36*
X0034420000Y0029200000D02*
X0034504000Y0029200000D01*
X0034504000Y0029100000D01*
X0034420000Y0029100000D01*
X0034420000Y0029200000D01*
G37*
G36*
X0034504000Y0029200000D02*
X0034588000Y0029200000D01*
X0034588000Y0029100000D01*
X0034504000Y0029100000D01*
X0034504000Y0029200000D01*
G37*
G36*
X0034588000Y0029200000D02*
X0034672000Y0029200000D01*
X0034672000Y0029100000D01*
X0034588000Y0029100000D01*
X0034588000Y0029200000D01*
G37*
G36*
X0034672000Y0029200000D02*
X0034756000Y0029200000D01*
X0034756000Y0029100000D01*
X0034672000Y0029100000D01*
X0034672000Y0029200000D01*
G37*
G36*
X0034420000Y0029100000D02*
X0034504000Y0029100000D01*
X0034504000Y0029000000D01*
X0034420000Y0029000000D01*
X0034420000Y0029100000D01*
G37*
G36*
X0034756000Y0029100000D02*
X0034840000Y0029100000D01*
X0034840000Y0029000000D01*
X0034756000Y0029000000D01*
X0034756000Y0029100000D01*
G37*
G36*
X0034420000Y0029000000D02*
X0034504000Y0029000000D01*
X0034504000Y0028900000D01*
X0034420000Y0028900000D01*
X0034420000Y0029000000D01*
G37*
G36*
X0034756000Y0029000000D02*
X0034840000Y0029000000D01*
X0034840000Y0028900000D01*
X0034756000Y0028900000D01*
X0034756000Y0029000000D01*
G37*
G36*
X0034420000Y0028900000D02*
X0034504000Y0028900000D01*
X0034504000Y0028800000D01*
X0034420000Y0028800000D01*
X0034420000Y0028900000D01*
G37*
G36*
X0034756000Y0028900000D02*
X0034840000Y0028900000D01*
X0034840000Y0028800000D01*
X0034756000Y0028800000D01*
X0034756000Y0028900000D01*
G37*
G36*
X0034420000Y0028800000D02*
X0034504000Y0028800000D01*
X0034504000Y0028700000D01*
X0034420000Y0028700000D01*
X0034420000Y0028800000D01*
G37*
G36*
X0034756000Y0028800000D02*
X0034840000Y0028800000D01*
X0034840000Y0028700000D01*
X0034756000Y0028700000D01*
X0034756000Y0028800000D01*
G37*
G36*
X0034420000Y0028700000D02*
X0034504000Y0028700000D01*
X0034504000Y0028600000D01*
X0034420000Y0028600000D01*
X0034420000Y0028700000D01*
G37*
G36*
X0034756000Y0028700000D02*
X0034840000Y0028700000D01*
X0034840000Y0028600000D01*
X0034756000Y0028600000D01*
X0034756000Y0028700000D01*
G37*
G36*
X0034420000Y0028600000D02*
X0034504000Y0028600000D01*
X0034504000Y0028500000D01*
X0034420000Y0028500000D01*
X0034420000Y0028600000D01*
G37*
G36*
X0034504000Y0028600000D02*
X0034588000Y0028600000D01*
X0034588000Y0028500000D01*
X0034504000Y0028500000D01*
X0034504000Y0028600000D01*
G37*
G36*
X0034588000Y0028600000D02*
X0034672000Y0028600000D01*
X0034672000Y0028500000D01*
X0034588000Y0028500000D01*
X0034588000Y0028600000D01*
G37*
G36*
X0034672000Y0028600000D02*
X0034756000Y0028600000D01*
X0034756000Y0028500000D01*
X0034672000Y0028500000D01*
X0034672000Y0028600000D01*
G37*
G36*
X0034840000Y0029200000D02*
X0034924000Y0029200000D01*
X0034924000Y0029100000D01*
X0034840000Y0029100000D01*
X0034840000Y0029200000D01*
G37*
G36*
X0034924000Y0029200000D02*
X0035008000Y0029200000D01*
X0035008000Y0029100000D01*
X0034924000Y0029100000D01*
X0034924000Y0029200000D01*
G37*
G36*
X0035008000Y0029200000D02*
X0035092000Y0029200000D01*
X0035092000Y0029100000D01*
X0035008000Y0029100000D01*
X0035008000Y0029200000D01*
G37*
G36*
X0035092000Y0029200000D02*
X0035176000Y0029200000D01*
X0035176000Y0029100000D01*
X0035092000Y0029100000D01*
X0035092000Y0029200000D01*
G37*
G36*
X0034840000Y0029100000D02*
X0034924000Y0029100000D01*
X0034924000Y0029000000D01*
X0034840000Y0029000000D01*
X0034840000Y0029100000D01*
G37*
G36*
X0035176000Y0029100000D02*
X0035260000Y0029100000D01*
X0035260000Y0029000000D01*
X0035176000Y0029000000D01*
X0035176000Y0029100000D01*
G37*
G36*
X0034840000Y0029000000D02*
X0034924000Y0029000000D01*
X0034924000Y0028900000D01*
X0034840000Y0028900000D01*
X0034840000Y0029000000D01*
G37*
G36*
X0035176000Y0029000000D02*
X0035260000Y0029000000D01*
X0035260000Y0028900000D01*
X0035176000Y0028900000D01*
X0035176000Y0029000000D01*
G37*
G36*
X0034840000Y0028900000D02*
X0034924000Y0028900000D01*
X0034924000Y0028800000D01*
X0034840000Y0028800000D01*
X0034840000Y0028900000D01*
G37*
G36*
X0035176000Y0028900000D02*
X0035260000Y0028900000D01*
X0035260000Y0028800000D01*
X0035176000Y0028800000D01*
X0035176000Y0028900000D01*
G37*
G36*
X0034840000Y0028800000D02*
X0034924000Y0028800000D01*
X0034924000Y0028700000D01*
X0034840000Y0028700000D01*
X0034840000Y0028800000D01*
G37*
G36*
X0035176000Y0028800000D02*
X0035260000Y0028800000D01*
X0035260000Y0028700000D01*
X0035176000Y0028700000D01*
X0035176000Y0028800000D01*
G37*
G36*
X0034840000Y0028700000D02*
X0034924000Y0028700000D01*
X0034924000Y0028600000D01*
X0034840000Y0028600000D01*
X0034840000Y0028700000D01*
G37*
G36*
X0035176000Y0028700000D02*
X0035260000Y0028700000D01*
X0035260000Y0028600000D01*
X0035176000Y0028600000D01*
X0035176000Y0028700000D01*
G37*
G36*
X0034840000Y0028600000D02*
X0034924000Y0028600000D01*
X0034924000Y0028500000D01*
X0034840000Y0028500000D01*
X0034840000Y0028600000D01*
G37*
G36*
X0034924000Y0028600000D02*
X0035008000Y0028600000D01*
X0035008000Y0028500000D01*
X0034924000Y0028500000D01*
X0034924000Y0028600000D01*
G37*
G36*
X0035008000Y0028600000D02*
X0035092000Y0028600000D01*
X0035092000Y0028500000D01*
X0035008000Y0028500000D01*
X0035008000Y0028600000D01*
G37*
G36*
X0035092000Y0028600000D02*
X0035176000Y0028600000D01*
X0035176000Y0028500000D01*
X0035092000Y0028500000D01*
X0035092000Y0028600000D01*
G37*
G36*
X0035344000Y0029200000D02*
X0035428000Y0029200000D01*
X0035428000Y0029100000D01*
X0035344000Y0029100000D01*
X0035344000Y0029200000D01*
G37*
G36*
X0035428000Y0029200000D02*
X0035512000Y0029200000D01*
X0035512000Y0029100000D01*
X0035428000Y0029100000D01*
X0035428000Y0029200000D01*
G37*
G36*
X0035512000Y0029200000D02*
X0035596000Y0029200000D01*
X0035596000Y0029100000D01*
X0035512000Y0029100000D01*
X0035512000Y0029200000D01*
G37*
G36*
X0035260000Y0029100000D02*
X0035344000Y0029100000D01*
X0035344000Y0029000000D01*
X0035260000Y0029000000D01*
X0035260000Y0029100000D01*
G37*
G36*
X0035596000Y0029100000D02*
X0035680000Y0029100000D01*
X0035680000Y0029000000D01*
X0035596000Y0029000000D01*
X0035596000Y0029100000D01*
G37*
G36*
X0035260000Y0029000000D02*
X0035344000Y0029000000D01*
X0035344000Y0028900000D01*
X0035260000Y0028900000D01*
X0035260000Y0029000000D01*
G37*
G36*
X0035596000Y0029000000D02*
X0035680000Y0029000000D01*
X0035680000Y0028900000D01*
X0035596000Y0028900000D01*
X0035596000Y0029000000D01*
G37*
G36*
X0035260000Y0028900000D02*
X0035344000Y0028900000D01*
X0035344000Y0028800000D01*
X0035260000Y0028800000D01*
X0035260000Y0028900000D01*
G37*
G36*
X0035344000Y0028900000D02*
X0035428000Y0028900000D01*
X0035428000Y0028800000D01*
X0035344000Y0028800000D01*
X0035344000Y0028900000D01*
G37*
G36*
X0035428000Y0028900000D02*
X0035512000Y0028900000D01*
X0035512000Y0028800000D01*
X0035428000Y0028800000D01*
X0035428000Y0028900000D01*
G37*
G36*
X0035512000Y0028900000D02*
X0035596000Y0028900000D01*
X0035596000Y0028800000D01*
X0035512000Y0028800000D01*
X0035512000Y0028900000D01*
G37*
G36*
X0035596000Y0028900000D02*
X0035680000Y0028900000D01*
X0035680000Y0028800000D01*
X0035596000Y0028800000D01*
X0035596000Y0028900000D01*
G37*
G36*
X0035260000Y0028800000D02*
X0035344000Y0028800000D01*
X0035344000Y0028700000D01*
X0035260000Y0028700000D01*
X0035260000Y0028800000D01*
G37*
G36*
X0035596000Y0028800000D02*
X0035680000Y0028800000D01*
X0035680000Y0028700000D01*
X0035596000Y0028700000D01*
X0035596000Y0028800000D01*
G37*
G36*
X0035260000Y0028700000D02*
X0035344000Y0028700000D01*
X0035344000Y0028600000D01*
X0035260000Y0028600000D01*
X0035260000Y0028700000D01*
G37*
G36*
X0035596000Y0028700000D02*
X0035680000Y0028700000D01*
X0035680000Y0028600000D01*
X0035596000Y0028600000D01*
X0035596000Y0028700000D01*
G37*
G36*
X0035260000Y0028600000D02*
X0035344000Y0028600000D01*
X0035344000Y0028500000D01*
X0035260000Y0028500000D01*
X0035260000Y0028600000D01*
G37*
G36*
X0035596000Y0028600000D02*
X0035680000Y0028600000D01*
X0035680000Y0028500000D01*
X0035596000Y0028500000D01*
X0035596000Y0028600000D01*
G37*
G04 TEXT BOOT0*
G36*
X0072000000Y0034700000D02*
X0072084000Y0034700000D01*
X0072084000Y0034600000D01*
X0072000000Y0034600000D01*
X0072000000Y0034700000D01*
G37*
G36*
X0072084000Y0034700000D02*
X0072168000Y0034700000D01*
X0072168000Y0034600000D01*
X0072084000Y0034600000D01*
X0072084000Y0034700000D01*
G37*
G36*
X0072168000Y0034700000D02*
X0072252000Y0034700000D01*
X0072252000Y0034600000D01*
X0072168000Y0034600000D01*
X0072168000Y0034700000D01*
G37*
G36*
X0072252000Y0034700000D02*
X0072336000Y0034700000D01*
X0072336000Y0034600000D01*
X0072252000Y0034600000D01*
X0072252000Y0034700000D01*
G37*
G36*
X0072000000Y0034600000D02*
X0072084000Y0034600000D01*
X0072084000Y0034500000D01*
X0072000000Y0034500000D01*
X0072000000Y0034600000D01*
G37*
G36*
X0072336000Y0034600000D02*
X0072420000Y0034600000D01*
X0072420000Y0034500000D01*
X0072336000Y0034500000D01*
X0072336000Y0034600000D01*
G37*
G36*
X0072000000Y0034500000D02*
X0072084000Y0034500000D01*
X0072084000Y0034400000D01*
X0072000000Y0034400000D01*
X0072000000Y0034500000D01*
G37*
G36*
X0072336000Y0034500000D02*
X0072420000Y0034500000D01*
X0072420000Y0034400000D01*
X0072336000Y0034400000D01*
X0072336000Y0034500000D01*
G37*
G36*
X0072000000Y0034400000D02*
X0072084000Y0034400000D01*
X0072084000Y0034300000D01*
X0072000000Y0034300000D01*
X0072000000Y0034400000D01*
G37*
G36*
X0072084000Y0034400000D02*
X0072168000Y0034400000D01*
X0072168000Y0034300000D01*
X0072084000Y0034300000D01*
X0072084000Y0034400000D01*
G37*
G36*
X0072168000Y0034400000D02*
X0072252000Y0034400000D01*
X0072252000Y0034300000D01*
X0072168000Y0034300000D01*
X0072168000Y0034400000D01*
G37*
G36*
X0072252000Y0034400000D02*
X0072336000Y0034400000D01*
X0072336000Y0034300000D01*
X0072252000Y0034300000D01*
X0072252000Y0034400000D01*
G37*
G36*
X0072000000Y0034300000D02*
X0072084000Y0034300000D01*
X0072084000Y0034200000D01*
X0072000000Y0034200000D01*
X0072000000Y0034300000D01*
G37*
G36*
X0072336000Y0034300000D02*
X0072420000Y0034300000D01*
X0072420000Y0034200000D01*
X0072336000Y0034200000D01*
X0072336000Y0034300000D01*
G37*
G36*
X0072000000Y0034200000D02*
X0072084000Y0034200000D01*
X0072084000Y0034100000D01*
X0072000000Y0034100000D01*
X0072000000Y0034200000D01*
G37*
G36*
X0072336000Y0034200000D02*
X0072420000Y0034200000D01*
X0072420000Y0034100000D01*
X0072336000Y0034100000D01*
X0072336000Y0034200000D01*
G37*
G36*
X0072000000Y0034100000D02*
X0072084000Y0034100000D01*
X0072084000Y0034000000D01*
X0072000000Y0034000000D01*
X0072000000Y0034100000D01*
G37*
G36*
X0072084000Y0034100000D02*
X0072168000Y0034100000D01*
X0072168000Y0034000000D01*
X0072084000Y0034000000D01*
X0072084000Y0034100000D01*
G37*
G36*
X0072168000Y0034100000D02*
X0072252000Y0034100000D01*
X0072252000Y0034000000D01*
X0072168000Y0034000000D01*
X0072168000Y0034100000D01*
G37*
G36*
X0072252000Y0034100000D02*
X0072336000Y0034100000D01*
X0072336000Y0034000000D01*
X0072252000Y0034000000D01*
X0072252000Y0034100000D01*
G37*
G36*
X0072504000Y0034700000D02*
X0072588000Y0034700000D01*
X0072588000Y0034600000D01*
X0072504000Y0034600000D01*
X0072504000Y0034700000D01*
G37*
G36*
X0072588000Y0034700000D02*
X0072672000Y0034700000D01*
X0072672000Y0034600000D01*
X0072588000Y0034600000D01*
X0072588000Y0034700000D01*
G37*
G36*
X0072672000Y0034700000D02*
X0072756000Y0034700000D01*
X0072756000Y0034600000D01*
X0072672000Y0034600000D01*
X0072672000Y0034700000D01*
G37*
G36*
X0072420000Y0034600000D02*
X0072504000Y0034600000D01*
X0072504000Y0034500000D01*
X0072420000Y0034500000D01*
X0072420000Y0034600000D01*
G37*
G36*
X0072756000Y0034600000D02*
X0072840000Y0034600000D01*
X0072840000Y0034500000D01*
X0072756000Y0034500000D01*
X0072756000Y0034600000D01*
G37*
G36*
X0072420000Y0034500000D02*
X0072504000Y0034500000D01*
X0072504000Y0034400000D01*
X0072420000Y0034400000D01*
X0072420000Y0034500000D01*
G37*
G36*
X0072756000Y0034500000D02*
X0072840000Y0034500000D01*
X0072840000Y0034400000D01*
X0072756000Y0034400000D01*
X0072756000Y0034500000D01*
G37*
G36*
X0072420000Y0034400000D02*
X0072504000Y0034400000D01*
X0072504000Y0034300000D01*
X0072420000Y0034300000D01*
X0072420000Y0034400000D01*
G37*
G36*
X0072756000Y0034400000D02*
X0072840000Y0034400000D01*
X0072840000Y0034300000D01*
X0072756000Y0034300000D01*
X0072756000Y0034400000D01*
G37*
G36*
X0072420000Y0034300000D02*
X0072504000Y0034300000D01*
X0072504000Y0034200000D01*
X0072420000Y0034200000D01*
X0072420000Y0034300000D01*
G37*
G36*
X0072756000Y0034300000D02*
X0072840000Y0034300000D01*
X0072840000Y0034200000D01*
X0072756000Y0034200000D01*
X0072756000Y0034300000D01*
G37*
G36*
X0072420000Y0034200000D02*
X0072504000Y0034200000D01*
X0072504000Y0034100000D01*
X0072420000Y0034100000D01*
X0072420000Y0034200000D01*
G37*
G36*
X0072756000Y0034200000D02*
X0072840000Y0034200000D01*
X0072840000Y0034100000D01*
X0072756000Y0034100000D01*
X0072756000Y0034200000D01*
G37*
G36*
X0072504000Y0034100000D02*
X0072588000Y0034100000D01*
X0072588000Y0034000000D01*
X0072504000Y0034000000D01*
X0072504000Y0034100000D01*
G37*
G36*
X0072588000Y0034100000D02*
X0072672000Y0034100000D01*
X0072672000Y0034000000D01*
X0072588000Y0034000000D01*
X0072588000Y0034100000D01*
G37*
G36*
X0072672000Y0034100000D02*
X0072756000Y0034100000D01*
X0072756000Y0034000000D01*
X0072672000Y0034000000D01*
X0072672000Y0034100000D01*
G37*
G36*
X0072924000Y0034700000D02*
X0073008000Y0034700000D01*
X0073008000Y0034600000D01*
X0072924000Y0034600000D01*
X0072924000Y0034700000D01*
G37*
G36*
X0073008000Y0034700000D02*
X0073092000Y0034700000D01*
X0073092000Y0034600000D01*
X0073008000Y0034600000D01*
X0073008000Y0034700000D01*
G37*
G36*
X0073092000Y0034700000D02*
X0073176000Y0034700000D01*
X0073176000Y0034600000D01*
X0073092000Y0034600000D01*
X0073092000Y0034700000D01*
G37*
G36*
X0072840000Y0034600000D02*
X0072924000Y0034600000D01*
X0072924000Y0034500000D01*
X0072840000Y0034500000D01*
X0072840000Y0034600000D01*
G37*
G36*
X0073176000Y0034600000D02*
X0073260000Y0034600000D01*
X0073260000Y0034500000D01*
X0073176000Y0034500000D01*
X0073176000Y0034600000D01*
G37*
G36*
X0072840000Y0034500000D02*
X0072924000Y0034500000D01*
X0072924000Y0034400000D01*
X0072840000Y0034400000D01*
X0072840000Y0034500000D01*
G37*
G36*
X0073176000Y0034500000D02*
X0073260000Y0034500000D01*
X0073260000Y0034400000D01*
X0073176000Y0034400000D01*
X0073176000Y0034500000D01*
G37*
G36*
X0072840000Y0034400000D02*
X0072924000Y0034400000D01*
X0072924000Y0034300000D01*
X0072840000Y0034300000D01*
X0072840000Y0034400000D01*
G37*
G36*
X0073176000Y0034400000D02*
X0073260000Y0034400000D01*
X0073260000Y0034300000D01*
X0073176000Y0034300000D01*
X0073176000Y0034400000D01*
G37*
G36*
X0072840000Y0034300000D02*
X0072924000Y0034300000D01*
X0072924000Y0034200000D01*
X0072840000Y0034200000D01*
X0072840000Y0034300000D01*
G37*
G36*
X0073176000Y0034300000D02*
X0073260000Y0034300000D01*
X0073260000Y0034200000D01*
X0073176000Y0034200000D01*
X0073176000Y0034300000D01*
G37*
G36*
X0072840000Y0034200000D02*
X0072924000Y0034200000D01*
X0072924000Y0034100000D01*
X0072840000Y0034100000D01*
X0072840000Y0034200000D01*
G37*
G36*
X0073176000Y0034200000D02*
X0073260000Y0034200000D01*
X0073260000Y0034100000D01*
X0073176000Y0034100000D01*
X0073176000Y0034200000D01*
G37*
G36*
X0072924000Y0034100000D02*
X0073008000Y0034100000D01*
X0073008000Y0034000000D01*
X0072924000Y0034000000D01*
X0072924000Y0034100000D01*
G37*
G36*
X0073008000Y0034100000D02*
X0073092000Y0034100000D01*
X0073092000Y0034000000D01*
X0073008000Y0034000000D01*
X0073008000Y0034100000D01*
G37*
G36*
X0073092000Y0034100000D02*
X0073176000Y0034100000D01*
X0073176000Y0034000000D01*
X0073092000Y0034000000D01*
X0073092000Y0034100000D01*
G37*
G36*
X0073260000Y0034700000D02*
X0073344000Y0034700000D01*
X0073344000Y0034600000D01*
X0073260000Y0034600000D01*
X0073260000Y0034700000D01*
G37*
G36*
X0073344000Y0034700000D02*
X0073428000Y0034700000D01*
X0073428000Y0034600000D01*
X0073344000Y0034600000D01*
X0073344000Y0034700000D01*
G37*
G36*
X0073428000Y0034700000D02*
X0073512000Y0034700000D01*
X0073512000Y0034600000D01*
X0073428000Y0034600000D01*
X0073428000Y0034700000D01*
G37*
G36*
X0073512000Y0034700000D02*
X0073596000Y0034700000D01*
X0073596000Y0034600000D01*
X0073512000Y0034600000D01*
X0073512000Y0034700000D01*
G37*
G36*
X0073596000Y0034700000D02*
X0073680000Y0034700000D01*
X0073680000Y0034600000D01*
X0073596000Y0034600000D01*
X0073596000Y0034700000D01*
G37*
G36*
X0073428000Y0034600000D02*
X0073512000Y0034600000D01*
X0073512000Y0034500000D01*
X0073428000Y0034500000D01*
X0073428000Y0034600000D01*
G37*
G36*
X0073428000Y0034500000D02*
X0073512000Y0034500000D01*
X0073512000Y0034400000D01*
X0073428000Y0034400000D01*
X0073428000Y0034500000D01*
G37*
G36*
X0073428000Y0034400000D02*
X0073512000Y0034400000D01*
X0073512000Y0034300000D01*
X0073428000Y0034300000D01*
X0073428000Y0034400000D01*
G37*
G36*
X0073428000Y0034300000D02*
X0073512000Y0034300000D01*
X0073512000Y0034200000D01*
X0073428000Y0034200000D01*
X0073428000Y0034300000D01*
G37*
G36*
X0073428000Y0034200000D02*
X0073512000Y0034200000D01*
X0073512000Y0034100000D01*
X0073428000Y0034100000D01*
X0073428000Y0034200000D01*
G37*
G36*
X0073428000Y0034100000D02*
X0073512000Y0034100000D01*
X0073512000Y0034000000D01*
X0073428000Y0034000000D01*
X0073428000Y0034100000D01*
G37*
G36*
X0073764000Y0034700000D02*
X0073848000Y0034700000D01*
X0073848000Y0034600000D01*
X0073764000Y0034600000D01*
X0073764000Y0034700000D01*
G37*
G36*
X0073848000Y0034700000D02*
X0073932000Y0034700000D01*
X0073932000Y0034600000D01*
X0073848000Y0034600000D01*
X0073848000Y0034700000D01*
G37*
G36*
X0073932000Y0034700000D02*
X0074016000Y0034700000D01*
X0074016000Y0034600000D01*
X0073932000Y0034600000D01*
X0073932000Y0034700000D01*
G37*
G36*
X0073680000Y0034600000D02*
X0073764000Y0034600000D01*
X0073764000Y0034500000D01*
X0073680000Y0034500000D01*
X0073680000Y0034600000D01*
G37*
G36*
X0074016000Y0034600000D02*
X0074100000Y0034600000D01*
X0074100000Y0034500000D01*
X0074016000Y0034500000D01*
X0074016000Y0034600000D01*
G37*
G36*
X0073680000Y0034500000D02*
X0073764000Y0034500000D01*
X0073764000Y0034400000D01*
X0073680000Y0034400000D01*
X0073680000Y0034500000D01*
G37*
G36*
X0073932000Y0034500000D02*
X0074016000Y0034500000D01*
X0074016000Y0034400000D01*
X0073932000Y0034400000D01*
X0073932000Y0034500000D01*
G37*
G36*
X0074016000Y0034500000D02*
X0074100000Y0034500000D01*
X0074100000Y0034400000D01*
X0074016000Y0034400000D01*
X0074016000Y0034500000D01*
G37*
G36*
X0073680000Y0034400000D02*
X0073764000Y0034400000D01*
X0073764000Y0034300000D01*
X0073680000Y0034300000D01*
X0073680000Y0034400000D01*
G37*
G36*
X0073848000Y0034400000D02*
X0073932000Y0034400000D01*
X0073932000Y0034300000D01*
X0073848000Y0034300000D01*
X0073848000Y0034400000D01*
G37*
G36*
X0074016000Y0034400000D02*
X0074100000Y0034400000D01*
X0074100000Y0034300000D01*
X0074016000Y0034300000D01*
X0074016000Y0034400000D01*
G37*
G36*
X0073680000Y0034300000D02*
X0073764000Y0034300000D01*
X0073764000Y0034200000D01*
X0073680000Y0034200000D01*
X0073680000Y0034300000D01*
G37*
G36*
X0073764000Y0034300000D02*
X0073848000Y0034300000D01*
X0073848000Y0034200000D01*
X0073764000Y0034200000D01*
X0073764000Y0034300000D01*
G37*
G36*
X0074016000Y0034300000D02*
X0074100000Y0034300000D01*
X0074100000Y0034200000D01*
X0074016000Y0034200000D01*
X0074016000Y0034300000D01*
G37*
G36*
X0073680000Y0034200000D02*
X0073764000Y0034200000D01*
X0073764000Y0034100000D01*
X0073680000Y0034100000D01*
X0073680000Y0034200000D01*
G37*
G36*
X0074016000Y0034200000D02*
X0074100000Y0034200000D01*
X0074100000Y0034100000D01*
X0074016000Y0034100000D01*
X0074016000Y0034200000D01*
G37*
G36*
X0073764000Y0034100000D02*
X0073848000Y0034100000D01*
X0073848000Y0034000000D01*
X0073764000Y0034000000D01*
X0073764000Y0034100000D01*
G37*
G36*
X0073848000Y0034100000D02*
X0073932000Y0034100000D01*
X0073932000Y0034000000D01*
X0073848000Y0034000000D01*
X0073848000Y0034100000D01*
G37*
G36*
X0073932000Y0034100000D02*
X0074016000Y0034100000D01*
X0074016000Y0034000000D01*
X0073932000Y0034000000D01*
X0073932000Y0034100000D01*
G37*
G04 TEXT RESET*
G36*
X0027000000Y0030200000D02*
X0027084000Y0030200000D01*
X0027084000Y0030100000D01*
X0027000000Y0030100000D01*
X0027000000Y0030200000D01*
G37*
G36*
X0027084000Y0030200000D02*
X0027168000Y0030200000D01*
X0027168000Y0030100000D01*
X0027084000Y0030100000D01*
X0027084000Y0030200000D01*
G37*
G36*
X0027168000Y0030200000D02*
X0027252000Y0030200000D01*
X0027252000Y0030100000D01*
X0027168000Y0030100000D01*
X0027168000Y0030200000D01*
G37*
G36*
X0027252000Y0030200000D02*
X0027336000Y0030200000D01*
X0027336000Y0030100000D01*
X0027252000Y0030100000D01*
X0027252000Y0030200000D01*
G37*
G36*
X0027000000Y0030100000D02*
X0027084000Y0030100000D01*
X0027084000Y0030000000D01*
X0027000000Y0030000000D01*
X0027000000Y0030100000D01*
G37*
G36*
X0027336000Y0030100000D02*
X0027420000Y0030100000D01*
X0027420000Y0030000000D01*
X0027336000Y0030000000D01*
X0027336000Y0030100000D01*
G37*
G36*
X0027000000Y0030000000D02*
X0027084000Y0030000000D01*
X0027084000Y0029900000D01*
X0027000000Y0029900000D01*
X0027000000Y0030000000D01*
G37*
G36*
X0027336000Y0030000000D02*
X0027420000Y0030000000D01*
X0027420000Y0029900000D01*
X0027336000Y0029900000D01*
X0027336000Y0030000000D01*
G37*
G36*
X0027000000Y0029900000D02*
X0027084000Y0029900000D01*
X0027084000Y0029800000D01*
X0027000000Y0029800000D01*
X0027000000Y0029900000D01*
G37*
G36*
X0027084000Y0029900000D02*
X0027168000Y0029900000D01*
X0027168000Y0029800000D01*
X0027084000Y0029800000D01*
X0027084000Y0029900000D01*
G37*
G36*
X0027168000Y0029900000D02*
X0027252000Y0029900000D01*
X0027252000Y0029800000D01*
X0027168000Y0029800000D01*
X0027168000Y0029900000D01*
G37*
G36*
X0027252000Y0029900000D02*
X0027336000Y0029900000D01*
X0027336000Y0029800000D01*
X0027252000Y0029800000D01*
X0027252000Y0029900000D01*
G37*
G36*
X0027000000Y0029800000D02*
X0027084000Y0029800000D01*
X0027084000Y0029700000D01*
X0027000000Y0029700000D01*
X0027000000Y0029800000D01*
G37*
G36*
X0027168000Y0029800000D02*
X0027252000Y0029800000D01*
X0027252000Y0029700000D01*
X0027168000Y0029700000D01*
X0027168000Y0029800000D01*
G37*
G36*
X0027000000Y0029700000D02*
X0027084000Y0029700000D01*
X0027084000Y0029600000D01*
X0027000000Y0029600000D01*
X0027000000Y0029700000D01*
G37*
G36*
X0027252000Y0029700000D02*
X0027336000Y0029700000D01*
X0027336000Y0029600000D01*
X0027252000Y0029600000D01*
X0027252000Y0029700000D01*
G37*
G36*
X0027000000Y0029600000D02*
X0027084000Y0029600000D01*
X0027084000Y0029500000D01*
X0027000000Y0029500000D01*
X0027000000Y0029600000D01*
G37*
G36*
X0027336000Y0029600000D02*
X0027420000Y0029600000D01*
X0027420000Y0029500000D01*
X0027336000Y0029500000D01*
X0027336000Y0029600000D01*
G37*
G36*
X0027420000Y0030200000D02*
X0027504000Y0030200000D01*
X0027504000Y0030100000D01*
X0027420000Y0030100000D01*
X0027420000Y0030200000D01*
G37*
G36*
X0027504000Y0030200000D02*
X0027588000Y0030200000D01*
X0027588000Y0030100000D01*
X0027504000Y0030100000D01*
X0027504000Y0030200000D01*
G37*
G36*
X0027588000Y0030200000D02*
X0027672000Y0030200000D01*
X0027672000Y0030100000D01*
X0027588000Y0030100000D01*
X0027588000Y0030200000D01*
G37*
G36*
X0027672000Y0030200000D02*
X0027756000Y0030200000D01*
X0027756000Y0030100000D01*
X0027672000Y0030100000D01*
X0027672000Y0030200000D01*
G37*
G36*
X0027756000Y0030200000D02*
X0027840000Y0030200000D01*
X0027840000Y0030100000D01*
X0027756000Y0030100000D01*
X0027756000Y0030200000D01*
G37*
G36*
X0027420000Y0030100000D02*
X0027504000Y0030100000D01*
X0027504000Y0030000000D01*
X0027420000Y0030000000D01*
X0027420000Y0030100000D01*
G37*
G36*
X0027420000Y0030000000D02*
X0027504000Y0030000000D01*
X0027504000Y0029900000D01*
X0027420000Y0029900000D01*
X0027420000Y0030000000D01*
G37*
G36*
X0027420000Y0029900000D02*
X0027504000Y0029900000D01*
X0027504000Y0029800000D01*
X0027420000Y0029800000D01*
X0027420000Y0029900000D01*
G37*
G36*
X0027504000Y0029900000D02*
X0027588000Y0029900000D01*
X0027588000Y0029800000D01*
X0027504000Y0029800000D01*
X0027504000Y0029900000D01*
G37*
G36*
X0027588000Y0029900000D02*
X0027672000Y0029900000D01*
X0027672000Y0029800000D01*
X0027588000Y0029800000D01*
X0027588000Y0029900000D01*
G37*
G36*
X0027672000Y0029900000D02*
X0027756000Y0029900000D01*
X0027756000Y0029800000D01*
X0027672000Y0029800000D01*
X0027672000Y0029900000D01*
G37*
G36*
X0027420000Y0029800000D02*
X0027504000Y0029800000D01*
X0027504000Y0029700000D01*
X0027420000Y0029700000D01*
X0027420000Y0029800000D01*
G37*
G36*
X0027420000Y0029700000D02*
X0027504000Y0029700000D01*
X0027504000Y0029600000D01*
X0027420000Y0029600000D01*
X0027420000Y0029700000D01*
G37*
G36*
X0027420000Y0029600000D02*
X0027504000Y0029600000D01*
X0027504000Y0029500000D01*
X0027420000Y0029500000D01*
X0027420000Y0029600000D01*
G37*
G36*
X0027504000Y0029600000D02*
X0027588000Y0029600000D01*
X0027588000Y0029500000D01*
X0027504000Y0029500000D01*
X0027504000Y0029600000D01*
G37*
G36*
X0027588000Y0029600000D02*
X0027672000Y0029600000D01*
X0027672000Y0029500000D01*
X0027588000Y0029500000D01*
X0027588000Y0029600000D01*
G37*
G36*
X0027672000Y0029600000D02*
X0027756000Y0029600000D01*
X0027756000Y0029500000D01*
X0027672000Y0029500000D01*
X0027672000Y0029600000D01*
G37*
G36*
X0027756000Y0029600000D02*
X0027840000Y0029600000D01*
X0027840000Y0029500000D01*
X0027756000Y0029500000D01*
X0027756000Y0029600000D01*
G37*
G36*
X0027924000Y0030200000D02*
X0028008000Y0030200000D01*
X0028008000Y0030100000D01*
X0027924000Y0030100000D01*
X0027924000Y0030200000D01*
G37*
G36*
X0028008000Y0030200000D02*
X0028092000Y0030200000D01*
X0028092000Y0030100000D01*
X0028008000Y0030100000D01*
X0028008000Y0030200000D01*
G37*
G36*
X0028092000Y0030200000D02*
X0028176000Y0030200000D01*
X0028176000Y0030100000D01*
X0028092000Y0030100000D01*
X0028092000Y0030200000D01*
G37*
G36*
X0028176000Y0030200000D02*
X0028260000Y0030200000D01*
X0028260000Y0030100000D01*
X0028176000Y0030100000D01*
X0028176000Y0030200000D01*
G37*
G36*
X0027840000Y0030100000D02*
X0027924000Y0030100000D01*
X0027924000Y0030000000D01*
X0027840000Y0030000000D01*
X0027840000Y0030100000D01*
G37*
G36*
X0027840000Y0030000000D02*
X0027924000Y0030000000D01*
X0027924000Y0029900000D01*
X0027840000Y0029900000D01*
X0027840000Y0030000000D01*
G37*
G36*
X0027924000Y0029900000D02*
X0028008000Y0029900000D01*
X0028008000Y0029800000D01*
X0027924000Y0029800000D01*
X0027924000Y0029900000D01*
G37*
G36*
X0028008000Y0029900000D02*
X0028092000Y0029900000D01*
X0028092000Y0029800000D01*
X0028008000Y0029800000D01*
X0028008000Y0029900000D01*
G37*
G36*
X0028092000Y0029900000D02*
X0028176000Y0029900000D01*
X0028176000Y0029800000D01*
X0028092000Y0029800000D01*
X0028092000Y0029900000D01*
G37*
G36*
X0028176000Y0029800000D02*
X0028260000Y0029800000D01*
X0028260000Y0029700000D01*
X0028176000Y0029700000D01*
X0028176000Y0029800000D01*
G37*
G36*
X0028176000Y0029700000D02*
X0028260000Y0029700000D01*
X0028260000Y0029600000D01*
X0028176000Y0029600000D01*
X0028176000Y0029700000D01*
G37*
G36*
X0027840000Y0029600000D02*
X0027924000Y0029600000D01*
X0027924000Y0029500000D01*
X0027840000Y0029500000D01*
X0027840000Y0029600000D01*
G37*
G36*
X0027924000Y0029600000D02*
X0028008000Y0029600000D01*
X0028008000Y0029500000D01*
X0027924000Y0029500000D01*
X0027924000Y0029600000D01*
G37*
G36*
X0028008000Y0029600000D02*
X0028092000Y0029600000D01*
X0028092000Y0029500000D01*
X0028008000Y0029500000D01*
X0028008000Y0029600000D01*
G37*
G36*
X0028092000Y0029600000D02*
X0028176000Y0029600000D01*
X0028176000Y0029500000D01*
X0028092000Y0029500000D01*
X0028092000Y0029600000D01*
G37*
G36*
X0028260000Y0030200000D02*
X0028344000Y0030200000D01*
X0028344000Y0030100000D01*
X0028260000Y0030100000D01*
X0028260000Y0030200000D01*
G37*
G36*
X0028344000Y0030200000D02*
X0028428000Y0030200000D01*
X0028428000Y0030100000D01*
X0028344000Y0030100000D01*
X0028344000Y0030200000D01*
G37*
G36*
X0028428000Y0030200000D02*
X0028512000Y0030200000D01*
X0028512000Y0030100000D01*
X0028428000Y0030100000D01*
X0028428000Y0030200000D01*
G37*
G36*
X0028512000Y0030200000D02*
X0028596000Y0030200000D01*
X0028596000Y0030100000D01*
X0028512000Y0030100000D01*
X0028512000Y0030200000D01*
G37*
G36*
X0028596000Y0030200000D02*
X0028680000Y0030200000D01*
X0028680000Y0030100000D01*
X0028596000Y0030100000D01*
X0028596000Y0030200000D01*
G37*
G36*
X0028260000Y0030100000D02*
X0028344000Y0030100000D01*
X0028344000Y0030000000D01*
X0028260000Y0030000000D01*
X0028260000Y0030100000D01*
G37*
G36*
X0028260000Y0030000000D02*
X0028344000Y0030000000D01*
X0028344000Y0029900000D01*
X0028260000Y0029900000D01*
X0028260000Y0030000000D01*
G37*
G36*
X0028260000Y0029900000D02*
X0028344000Y0029900000D01*
X0028344000Y0029800000D01*
X0028260000Y0029800000D01*
X0028260000Y0029900000D01*
G37*
G36*
X0028344000Y0029900000D02*
X0028428000Y0029900000D01*
X0028428000Y0029800000D01*
X0028344000Y0029800000D01*
X0028344000Y0029900000D01*
G37*
G36*
X0028428000Y0029900000D02*
X0028512000Y0029900000D01*
X0028512000Y0029800000D01*
X0028428000Y0029800000D01*
X0028428000Y0029900000D01*
G37*
G36*
X0028512000Y0029900000D02*
X0028596000Y0029900000D01*
X0028596000Y0029800000D01*
X0028512000Y0029800000D01*
X0028512000Y0029900000D01*
G37*
G36*
X0028260000Y0029800000D02*
X0028344000Y0029800000D01*
X0028344000Y0029700000D01*
X0028260000Y0029700000D01*
X0028260000Y0029800000D01*
G37*
G36*
X0028260000Y0029700000D02*
X0028344000Y0029700000D01*
X0028344000Y0029600000D01*
X0028260000Y0029600000D01*
X0028260000Y0029700000D01*
G37*
G36*
X0028260000Y0029600000D02*
X0028344000Y0029600000D01*
X0028344000Y0029500000D01*
X0028260000Y0029500000D01*
X0028260000Y0029600000D01*
G37*
G36*
X0028344000Y0029600000D02*
X0028428000Y0029600000D01*
X0028428000Y0029500000D01*
X0028344000Y0029500000D01*
X0028344000Y0029600000D01*
G37*
G36*
X0028428000Y0029600000D02*
X0028512000Y0029600000D01*
X0028512000Y0029500000D01*
X0028428000Y0029500000D01*
X0028428000Y0029600000D01*
G37*
G36*
X0028512000Y0029600000D02*
X0028596000Y0029600000D01*
X0028596000Y0029500000D01*
X0028512000Y0029500000D01*
X0028512000Y0029600000D01*
G37*
G36*
X0028596000Y0029600000D02*
X0028680000Y0029600000D01*
X0028680000Y0029500000D01*
X0028596000Y0029500000D01*
X0028596000Y0029600000D01*
G37*
G36*
X0028680000Y0030200000D02*
X0028764000Y0030200000D01*
X0028764000Y0030100000D01*
X0028680000Y0030100000D01*
X0028680000Y0030200000D01*
G37*
G36*
X0028764000Y0030200000D02*
X0028848000Y0030200000D01*
X0028848000Y0030100000D01*
X0028764000Y0030100000D01*
X0028764000Y0030200000D01*
G37*
G36*
X0028848000Y0030200000D02*
X0028932000Y0030200000D01*
X0028932000Y0030100000D01*
X0028848000Y0030100000D01*
X0028848000Y0030200000D01*
G37*
G36*
X0028932000Y0030200000D02*
X0029016000Y0030200000D01*
X0029016000Y0030100000D01*
X0028932000Y0030100000D01*
X0028932000Y0030200000D01*
G37*
G36*
X0029016000Y0030200000D02*
X0029100000Y0030200000D01*
X0029100000Y0030100000D01*
X0029016000Y0030100000D01*
X0029016000Y0030200000D01*
G37*
G36*
X0028848000Y0030100000D02*
X0028932000Y0030100000D01*
X0028932000Y0030000000D01*
X0028848000Y0030000000D01*
X0028848000Y0030100000D01*
G37*
G36*
X0028848000Y0030000000D02*
X0028932000Y0030000000D01*
X0028932000Y0029900000D01*
X0028848000Y0029900000D01*
X0028848000Y0030000000D01*
G37*
G36*
X0028848000Y0029900000D02*
X0028932000Y0029900000D01*
X0028932000Y0029800000D01*
X0028848000Y0029800000D01*
X0028848000Y0029900000D01*
G37*
G36*
X0028848000Y0029800000D02*
X0028932000Y0029800000D01*
X0028932000Y0029700000D01*
X0028848000Y0029700000D01*
X0028848000Y0029800000D01*
G37*
G36*
X0028848000Y0029700000D02*
X0028932000Y0029700000D01*
X0028932000Y0029600000D01*
X0028848000Y0029600000D01*
X0028848000Y0029700000D01*
G37*
G36*
X0028848000Y0029600000D02*
X0028932000Y0029600000D01*
X0028932000Y0029500000D01*
X0028848000Y0029500000D01*
X0028848000Y0029600000D01*
G37*
G04 TEXT STATUS*
G36*
X0061084000Y0005700000D02*
X0061168000Y0005700000D01*
X0061168000Y0005600000D01*
X0061084000Y0005600000D01*
X0061084000Y0005700000D01*
G37*
G36*
X0061168000Y0005700000D02*
X0061252000Y0005700000D01*
X0061252000Y0005600000D01*
X0061168000Y0005600000D01*
X0061168000Y0005700000D01*
G37*
G36*
X0061252000Y0005700000D02*
X0061336000Y0005700000D01*
X0061336000Y0005600000D01*
X0061252000Y0005600000D01*
X0061252000Y0005700000D01*
G37*
G36*
X0061336000Y0005700000D02*
X0061420000Y0005700000D01*
X0061420000Y0005600000D01*
X0061336000Y0005600000D01*
X0061336000Y0005700000D01*
G37*
G36*
X0061000000Y0005600000D02*
X0061084000Y0005600000D01*
X0061084000Y0005500000D01*
X0061000000Y0005500000D01*
X0061000000Y0005600000D01*
G37*
G36*
X0061000000Y0005500000D02*
X0061084000Y0005500000D01*
X0061084000Y0005400000D01*
X0061000000Y0005400000D01*
X0061000000Y0005500000D01*
G37*
G36*
X0061084000Y0005400000D02*
X0061168000Y0005400000D01*
X0061168000Y0005300000D01*
X0061084000Y0005300000D01*
X0061084000Y0005400000D01*
G37*
G36*
X0061168000Y0005400000D02*
X0061252000Y0005400000D01*
X0061252000Y0005300000D01*
X0061168000Y0005300000D01*
X0061168000Y0005400000D01*
G37*
G36*
X0061252000Y0005400000D02*
X0061336000Y0005400000D01*
X0061336000Y0005300000D01*
X0061252000Y0005300000D01*
X0061252000Y0005400000D01*
G37*
G36*
X0061336000Y0005300000D02*
X0061420000Y0005300000D01*
X0061420000Y0005200000D01*
X0061336000Y0005200000D01*
X0061336000Y0005300000D01*
G37*
G36*
X0061336000Y0005200000D02*
X0061420000Y0005200000D01*
X0061420000Y0005100000D01*
X0061336000Y0005100000D01*
X0061336000Y0005200000D01*
G37*
G36*
X0061000000Y0005100000D02*
X0061084000Y0005100000D01*
X0061084000Y0005000000D01*
X0061000000Y0005000000D01*
X0061000000Y0005100000D01*
G37*
G36*
X0061084000Y0005100000D02*
X0061168000Y0005100000D01*
X0061168000Y0005000000D01*
X0061084000Y0005000000D01*
X0061084000Y0005100000D01*
G37*
G36*
X0061168000Y0005100000D02*
X0061252000Y0005100000D01*
X0061252000Y0005000000D01*
X0061168000Y0005000000D01*
X0061168000Y0005100000D01*
G37*
G36*
X0061252000Y0005100000D02*
X0061336000Y0005100000D01*
X0061336000Y0005000000D01*
X0061252000Y0005000000D01*
X0061252000Y0005100000D01*
G37*
G36*
X0061420000Y0005700000D02*
X0061504000Y0005700000D01*
X0061504000Y0005600000D01*
X0061420000Y0005600000D01*
X0061420000Y0005700000D01*
G37*
G36*
X0061504000Y0005700000D02*
X0061588000Y0005700000D01*
X0061588000Y0005600000D01*
X0061504000Y0005600000D01*
X0061504000Y0005700000D01*
G37*
G36*
X0061588000Y0005700000D02*
X0061672000Y0005700000D01*
X0061672000Y0005600000D01*
X0061588000Y0005600000D01*
X0061588000Y0005700000D01*
G37*
G36*
X0061672000Y0005700000D02*
X0061756000Y0005700000D01*
X0061756000Y0005600000D01*
X0061672000Y0005600000D01*
X0061672000Y0005700000D01*
G37*
G36*
X0061756000Y0005700000D02*
X0061840000Y0005700000D01*
X0061840000Y0005600000D01*
X0061756000Y0005600000D01*
X0061756000Y0005700000D01*
G37*
G36*
X0061588000Y0005600000D02*
X0061672000Y0005600000D01*
X0061672000Y0005500000D01*
X0061588000Y0005500000D01*
X0061588000Y0005600000D01*
G37*
G36*
X0061588000Y0005500000D02*
X0061672000Y0005500000D01*
X0061672000Y0005400000D01*
X0061588000Y0005400000D01*
X0061588000Y0005500000D01*
G37*
G36*
X0061588000Y0005400000D02*
X0061672000Y0005400000D01*
X0061672000Y0005300000D01*
X0061588000Y0005300000D01*
X0061588000Y0005400000D01*
G37*
G36*
X0061588000Y0005300000D02*
X0061672000Y0005300000D01*
X0061672000Y0005200000D01*
X0061588000Y0005200000D01*
X0061588000Y0005300000D01*
G37*
G36*
X0061588000Y0005200000D02*
X0061672000Y0005200000D01*
X0061672000Y0005100000D01*
X0061588000Y0005100000D01*
X0061588000Y0005200000D01*
G37*
G36*
X0061588000Y0005100000D02*
X0061672000Y0005100000D01*
X0061672000Y0005000000D01*
X0061588000Y0005000000D01*
X0061588000Y0005100000D01*
G37*
G36*
X0061924000Y0005700000D02*
X0062008000Y0005700000D01*
X0062008000Y0005600000D01*
X0061924000Y0005600000D01*
X0061924000Y0005700000D01*
G37*
G36*
X0062008000Y0005700000D02*
X0062092000Y0005700000D01*
X0062092000Y0005600000D01*
X0062008000Y0005600000D01*
X0062008000Y0005700000D01*
G37*
G36*
X0062092000Y0005700000D02*
X0062176000Y0005700000D01*
X0062176000Y0005600000D01*
X0062092000Y0005600000D01*
X0062092000Y0005700000D01*
G37*
G36*
X0061840000Y0005600000D02*
X0061924000Y0005600000D01*
X0061924000Y0005500000D01*
X0061840000Y0005500000D01*
X0061840000Y0005600000D01*
G37*
G36*
X0062176000Y0005600000D02*
X0062260000Y0005600000D01*
X0062260000Y0005500000D01*
X0062176000Y0005500000D01*
X0062176000Y0005600000D01*
G37*
G36*
X0061840000Y0005500000D02*
X0061924000Y0005500000D01*
X0061924000Y0005400000D01*
X0061840000Y0005400000D01*
X0061840000Y0005500000D01*
G37*
G36*
X0062176000Y0005500000D02*
X0062260000Y0005500000D01*
X0062260000Y0005400000D01*
X0062176000Y0005400000D01*
X0062176000Y0005500000D01*
G37*
G36*
X0061840000Y0005400000D02*
X0061924000Y0005400000D01*
X0061924000Y0005300000D01*
X0061840000Y0005300000D01*
X0061840000Y0005400000D01*
G37*
G36*
X0061924000Y0005400000D02*
X0062008000Y0005400000D01*
X0062008000Y0005300000D01*
X0061924000Y0005300000D01*
X0061924000Y0005400000D01*
G37*
G36*
X0062008000Y0005400000D02*
X0062092000Y0005400000D01*
X0062092000Y0005300000D01*
X0062008000Y0005300000D01*
X0062008000Y0005400000D01*
G37*
G36*
X0062092000Y0005400000D02*
X0062176000Y0005400000D01*
X0062176000Y0005300000D01*
X0062092000Y0005300000D01*
X0062092000Y0005400000D01*
G37*
G36*
X0062176000Y0005400000D02*
X0062260000Y0005400000D01*
X0062260000Y0005300000D01*
X0062176000Y0005300000D01*
X0062176000Y0005400000D01*
G37*
G36*
X0061840000Y0005300000D02*
X0061924000Y0005300000D01*
X0061924000Y0005200000D01*
X0061840000Y0005200000D01*
X0061840000Y0005300000D01*
G37*
G36*
X0062176000Y0005300000D02*
X0062260000Y0005300000D01*
X0062260000Y0005200000D01*
X0062176000Y0005200000D01*
X0062176000Y0005300000D01*
G37*
G36*
X0061840000Y0005200000D02*
X0061924000Y0005200000D01*
X0061924000Y0005100000D01*
X0061840000Y0005100000D01*
X0061840000Y0005200000D01*
G37*
G36*
X0062176000Y0005200000D02*
X0062260000Y0005200000D01*
X0062260000Y0005100000D01*
X0062176000Y0005100000D01*
X0062176000Y0005200000D01*
G37*
G36*
X0061840000Y0005100000D02*
X0061924000Y0005100000D01*
X0061924000Y0005000000D01*
X0061840000Y0005000000D01*
X0061840000Y0005100000D01*
G37*
G36*
X0062176000Y0005100000D02*
X0062260000Y0005100000D01*
X0062260000Y0005000000D01*
X0062176000Y0005000000D01*
X0062176000Y0005100000D01*
G37*
G36*
X0062260000Y0005700000D02*
X0062344000Y0005700000D01*
X0062344000Y0005600000D01*
X0062260000Y0005600000D01*
X0062260000Y0005700000D01*
G37*
G36*
X0062344000Y0005700000D02*
X0062428000Y0005700000D01*
X0062428000Y0005600000D01*
X0062344000Y0005600000D01*
X0062344000Y0005700000D01*
G37*
G36*
X0062428000Y0005700000D02*
X0062512000Y0005700000D01*
X0062512000Y0005600000D01*
X0062428000Y0005600000D01*
X0062428000Y0005700000D01*
G37*
G36*
X0062512000Y0005700000D02*
X0062596000Y0005700000D01*
X0062596000Y0005600000D01*
X0062512000Y0005600000D01*
X0062512000Y0005700000D01*
G37*
G36*
X0062596000Y0005700000D02*
X0062680000Y0005700000D01*
X0062680000Y0005600000D01*
X0062596000Y0005600000D01*
X0062596000Y0005700000D01*
G37*
G36*
X0062428000Y0005600000D02*
X0062512000Y0005600000D01*
X0062512000Y0005500000D01*
X0062428000Y0005500000D01*
X0062428000Y0005600000D01*
G37*
G36*
X0062428000Y0005500000D02*
X0062512000Y0005500000D01*
X0062512000Y0005400000D01*
X0062428000Y0005400000D01*
X0062428000Y0005500000D01*
G37*
G36*
X0062428000Y0005400000D02*
X0062512000Y0005400000D01*
X0062512000Y0005300000D01*
X0062428000Y0005300000D01*
X0062428000Y0005400000D01*
G37*
G36*
X0062428000Y0005300000D02*
X0062512000Y0005300000D01*
X0062512000Y0005200000D01*
X0062428000Y0005200000D01*
X0062428000Y0005300000D01*
G37*
G36*
X0062428000Y0005200000D02*
X0062512000Y0005200000D01*
X0062512000Y0005100000D01*
X0062428000Y0005100000D01*
X0062428000Y0005200000D01*
G37*
G36*
X0062428000Y0005100000D02*
X0062512000Y0005100000D01*
X0062512000Y0005000000D01*
X0062428000Y0005000000D01*
X0062428000Y0005100000D01*
G37*
G36*
X0062680000Y0005700000D02*
X0062764000Y0005700000D01*
X0062764000Y0005600000D01*
X0062680000Y0005600000D01*
X0062680000Y0005700000D01*
G37*
G36*
X0063016000Y0005700000D02*
X0063100000Y0005700000D01*
X0063100000Y0005600000D01*
X0063016000Y0005600000D01*
X0063016000Y0005700000D01*
G37*
G36*
X0062680000Y0005600000D02*
X0062764000Y0005600000D01*
X0062764000Y0005500000D01*
X0062680000Y0005500000D01*
X0062680000Y0005600000D01*
G37*
G36*
X0063016000Y0005600000D02*
X0063100000Y0005600000D01*
X0063100000Y0005500000D01*
X0063016000Y0005500000D01*
X0063016000Y0005600000D01*
G37*
G36*
X0062680000Y0005500000D02*
X0062764000Y0005500000D01*
X0062764000Y0005400000D01*
X0062680000Y0005400000D01*
X0062680000Y0005500000D01*
G37*
G36*
X0063016000Y0005500000D02*
X0063100000Y0005500000D01*
X0063100000Y0005400000D01*
X0063016000Y0005400000D01*
X0063016000Y0005500000D01*
G37*
G36*
X0062680000Y0005400000D02*
X0062764000Y0005400000D01*
X0062764000Y0005300000D01*
X0062680000Y0005300000D01*
X0062680000Y0005400000D01*
G37*
G36*
X0063016000Y0005400000D02*
X0063100000Y0005400000D01*
X0063100000Y0005300000D01*
X0063016000Y0005300000D01*
X0063016000Y0005400000D01*
G37*
G36*
X0062680000Y0005300000D02*
X0062764000Y0005300000D01*
X0062764000Y0005200000D01*
X0062680000Y0005200000D01*
X0062680000Y0005300000D01*
G37*
G36*
X0063016000Y0005300000D02*
X0063100000Y0005300000D01*
X0063100000Y0005200000D01*
X0063016000Y0005200000D01*
X0063016000Y0005300000D01*
G37*
G36*
X0062680000Y0005200000D02*
X0062764000Y0005200000D01*
X0062764000Y0005100000D01*
X0062680000Y0005100000D01*
X0062680000Y0005200000D01*
G37*
G36*
X0063016000Y0005200000D02*
X0063100000Y0005200000D01*
X0063100000Y0005100000D01*
X0063016000Y0005100000D01*
X0063016000Y0005200000D01*
G37*
G36*
X0062764000Y0005100000D02*
X0062848000Y0005100000D01*
X0062848000Y0005000000D01*
X0062764000Y0005000000D01*
X0062764000Y0005100000D01*
G37*
G36*
X0062848000Y0005100000D02*
X0062932000Y0005100000D01*
X0062932000Y0005000000D01*
X0062848000Y0005000000D01*
X0062848000Y0005100000D01*
G37*
G36*
X0062932000Y0005100000D02*
X0063016000Y0005100000D01*
X0063016000Y0005000000D01*
X0062932000Y0005000000D01*
X0062932000Y0005100000D01*
G37*
G36*
X0063184000Y0005700000D02*
X0063268000Y0005700000D01*
X0063268000Y0005600000D01*
X0063184000Y0005600000D01*
X0063184000Y0005700000D01*
G37*
G36*
X0063268000Y0005700000D02*
X0063352000Y0005700000D01*
X0063352000Y0005600000D01*
X0063268000Y0005600000D01*
X0063268000Y0005700000D01*
G37*
G36*
X0063352000Y0005700000D02*
X0063436000Y0005700000D01*
X0063436000Y0005600000D01*
X0063352000Y0005600000D01*
X0063352000Y0005700000D01*
G37*
G36*
X0063436000Y0005700000D02*
X0063520000Y0005700000D01*
X0063520000Y0005600000D01*
X0063436000Y0005600000D01*
X0063436000Y0005700000D01*
G37*
G36*
X0063100000Y0005600000D02*
X0063184000Y0005600000D01*
X0063184000Y0005500000D01*
X0063100000Y0005500000D01*
X0063100000Y0005600000D01*
G37*
G36*
X0063100000Y0005500000D02*
X0063184000Y0005500000D01*
X0063184000Y0005400000D01*
X0063100000Y0005400000D01*
X0063100000Y0005500000D01*
G37*
G36*
X0063184000Y0005400000D02*
X0063268000Y0005400000D01*
X0063268000Y0005300000D01*
X0063184000Y0005300000D01*
X0063184000Y0005400000D01*
G37*
G36*
X0063268000Y0005400000D02*
X0063352000Y0005400000D01*
X0063352000Y0005300000D01*
X0063268000Y0005300000D01*
X0063268000Y0005400000D01*
G37*
G36*
X0063352000Y0005400000D02*
X0063436000Y0005400000D01*
X0063436000Y0005300000D01*
X0063352000Y0005300000D01*
X0063352000Y0005400000D01*
G37*
G36*
X0063436000Y0005300000D02*
X0063520000Y0005300000D01*
X0063520000Y0005200000D01*
X0063436000Y0005200000D01*
X0063436000Y0005300000D01*
G37*
G36*
X0063436000Y0005200000D02*
X0063520000Y0005200000D01*
X0063520000Y0005100000D01*
X0063436000Y0005100000D01*
X0063436000Y0005200000D01*
G37*
G36*
X0063100000Y0005100000D02*
X0063184000Y0005100000D01*
X0063184000Y0005000000D01*
X0063100000Y0005000000D01*
X0063100000Y0005100000D01*
G37*
G36*
X0063184000Y0005100000D02*
X0063268000Y0005100000D01*
X0063268000Y0005000000D01*
X0063184000Y0005000000D01*
X0063184000Y0005100000D01*
G37*
G36*
X0063268000Y0005100000D02*
X0063352000Y0005100000D01*
X0063352000Y0005000000D01*
X0063268000Y0005000000D01*
X0063268000Y0005100000D01*
G37*
G36*
X0063352000Y0005100000D02*
X0063436000Y0005100000D01*
X0063436000Y0005000000D01*
X0063352000Y0005000000D01*
X0063352000Y0005100000D01*
G37*
G04 TEXT HSE 8MHZ*
G36*
X0019500000Y0018700000D02*
X0019584000Y0018700000D01*
X0019584000Y0018600000D01*
X0019500000Y0018600000D01*
X0019500000Y0018700000D01*
G37*
G36*
X0019836000Y0018700000D02*
X0019920000Y0018700000D01*
X0019920000Y0018600000D01*
X0019836000Y0018600000D01*
X0019836000Y0018700000D01*
G37*
G36*
X0019500000Y0018600000D02*
X0019584000Y0018600000D01*
X0019584000Y0018500000D01*
X0019500000Y0018500000D01*
X0019500000Y0018600000D01*
G37*
G36*
X0019836000Y0018600000D02*
X0019920000Y0018600000D01*
X0019920000Y0018500000D01*
X0019836000Y0018500000D01*
X0019836000Y0018600000D01*
G37*
G36*
X0019500000Y0018500000D02*
X0019584000Y0018500000D01*
X0019584000Y0018400000D01*
X0019500000Y0018400000D01*
X0019500000Y0018500000D01*
G37*
G36*
X0019836000Y0018500000D02*
X0019920000Y0018500000D01*
X0019920000Y0018400000D01*
X0019836000Y0018400000D01*
X0019836000Y0018500000D01*
G37*
G36*
X0019500000Y0018400000D02*
X0019584000Y0018400000D01*
X0019584000Y0018300000D01*
X0019500000Y0018300000D01*
X0019500000Y0018400000D01*
G37*
G36*
X0019584000Y0018400000D02*
X0019668000Y0018400000D01*
X0019668000Y0018300000D01*
X0019584000Y0018300000D01*
X0019584000Y0018400000D01*
G37*
G36*
X0019668000Y0018400000D02*
X0019752000Y0018400000D01*
X0019752000Y0018300000D01*
X0019668000Y0018300000D01*
X0019668000Y0018400000D01*
G37*
G36*
X0019752000Y0018400000D02*
X0019836000Y0018400000D01*
X0019836000Y0018300000D01*
X0019752000Y0018300000D01*
X0019752000Y0018400000D01*
G37*
G36*
X0019836000Y0018400000D02*
X0019920000Y0018400000D01*
X0019920000Y0018300000D01*
X0019836000Y0018300000D01*
X0019836000Y0018400000D01*
G37*
G36*
X0019500000Y0018300000D02*
X0019584000Y0018300000D01*
X0019584000Y0018200000D01*
X0019500000Y0018200000D01*
X0019500000Y0018300000D01*
G37*
G36*
X0019836000Y0018300000D02*
X0019920000Y0018300000D01*
X0019920000Y0018200000D01*
X0019836000Y0018200000D01*
X0019836000Y0018300000D01*
G37*
G36*
X0019500000Y0018200000D02*
X0019584000Y0018200000D01*
X0019584000Y0018100000D01*
X0019500000Y0018100000D01*
X0019500000Y0018200000D01*
G37*
G36*
X0019836000Y0018200000D02*
X0019920000Y0018200000D01*
X0019920000Y0018100000D01*
X0019836000Y0018100000D01*
X0019836000Y0018200000D01*
G37*
G36*
X0019500000Y0018100000D02*
X0019584000Y0018100000D01*
X0019584000Y0018000000D01*
X0019500000Y0018000000D01*
X0019500000Y0018100000D01*
G37*
G36*
X0019836000Y0018100000D02*
X0019920000Y0018100000D01*
X0019920000Y0018000000D01*
X0019836000Y0018000000D01*
X0019836000Y0018100000D01*
G37*
G36*
X0020004000Y0018700000D02*
X0020088000Y0018700000D01*
X0020088000Y0018600000D01*
X0020004000Y0018600000D01*
X0020004000Y0018700000D01*
G37*
G36*
X0020088000Y0018700000D02*
X0020172000Y0018700000D01*
X0020172000Y0018600000D01*
X0020088000Y0018600000D01*
X0020088000Y0018700000D01*
G37*
G36*
X0020172000Y0018700000D02*
X0020256000Y0018700000D01*
X0020256000Y0018600000D01*
X0020172000Y0018600000D01*
X0020172000Y0018700000D01*
G37*
G36*
X0020256000Y0018700000D02*
X0020340000Y0018700000D01*
X0020340000Y0018600000D01*
X0020256000Y0018600000D01*
X0020256000Y0018700000D01*
G37*
G36*
X0019920000Y0018600000D02*
X0020004000Y0018600000D01*
X0020004000Y0018500000D01*
X0019920000Y0018500000D01*
X0019920000Y0018600000D01*
G37*
G36*
X0019920000Y0018500000D02*
X0020004000Y0018500000D01*
X0020004000Y0018400000D01*
X0019920000Y0018400000D01*
X0019920000Y0018500000D01*
G37*
G36*
X0020004000Y0018400000D02*
X0020088000Y0018400000D01*
X0020088000Y0018300000D01*
X0020004000Y0018300000D01*
X0020004000Y0018400000D01*
G37*
G36*
X0020088000Y0018400000D02*
X0020172000Y0018400000D01*
X0020172000Y0018300000D01*
X0020088000Y0018300000D01*
X0020088000Y0018400000D01*
G37*
G36*
X0020172000Y0018400000D02*
X0020256000Y0018400000D01*
X0020256000Y0018300000D01*
X0020172000Y0018300000D01*
X0020172000Y0018400000D01*
G37*
G36*
X0020256000Y0018300000D02*
X0020340000Y0018300000D01*
X0020340000Y0018200000D01*
X0020256000Y0018200000D01*
X0020256000Y0018300000D01*
G37*
G36*
X0020256000Y0018200000D02*
X0020340000Y0018200000D01*
X0020340000Y0018100000D01*
X0020256000Y0018100000D01*
X0020256000Y0018200000D01*
G37*
G36*
X0019920000Y0018100000D02*
X0020004000Y0018100000D01*
X0020004000Y0018000000D01*
X0019920000Y0018000000D01*
X0019920000Y0018100000D01*
G37*
G36*
X0020004000Y0018100000D02*
X0020088000Y0018100000D01*
X0020088000Y0018000000D01*
X0020004000Y0018000000D01*
X0020004000Y0018100000D01*
G37*
G36*
X0020088000Y0018100000D02*
X0020172000Y0018100000D01*
X0020172000Y0018000000D01*
X0020088000Y0018000000D01*
X0020088000Y0018100000D01*
G37*
G36*
X0020172000Y0018100000D02*
X0020256000Y0018100000D01*
X0020256000Y0018000000D01*
X0020172000Y0018000000D01*
X0020172000Y0018100000D01*
G37*
G36*
X0020340000Y0018700000D02*
X0020424000Y0018700000D01*
X0020424000Y0018600000D01*
X0020340000Y0018600000D01*
X0020340000Y0018700000D01*
G37*
G36*
X0020424000Y0018700000D02*
X0020508000Y0018700000D01*
X0020508000Y0018600000D01*
X0020424000Y0018600000D01*
X0020424000Y0018700000D01*
G37*
G36*
X0020508000Y0018700000D02*
X0020592000Y0018700000D01*
X0020592000Y0018600000D01*
X0020508000Y0018600000D01*
X0020508000Y0018700000D01*
G37*
G36*
X0020592000Y0018700000D02*
X0020676000Y0018700000D01*
X0020676000Y0018600000D01*
X0020592000Y0018600000D01*
X0020592000Y0018700000D01*
G37*
G36*
X0020676000Y0018700000D02*
X0020760000Y0018700000D01*
X0020760000Y0018600000D01*
X0020676000Y0018600000D01*
X0020676000Y0018700000D01*
G37*
G36*
X0020340000Y0018600000D02*
X0020424000Y0018600000D01*
X0020424000Y0018500000D01*
X0020340000Y0018500000D01*
X0020340000Y0018600000D01*
G37*
G36*
X0020340000Y0018500000D02*
X0020424000Y0018500000D01*
X0020424000Y0018400000D01*
X0020340000Y0018400000D01*
X0020340000Y0018500000D01*
G37*
G36*
X0020340000Y0018400000D02*
X0020424000Y0018400000D01*
X0020424000Y0018300000D01*
X0020340000Y0018300000D01*
X0020340000Y0018400000D01*
G37*
G36*
X0020424000Y0018400000D02*
X0020508000Y0018400000D01*
X0020508000Y0018300000D01*
X0020424000Y0018300000D01*
X0020424000Y0018400000D01*
G37*
G36*
X0020508000Y0018400000D02*
X0020592000Y0018400000D01*
X0020592000Y0018300000D01*
X0020508000Y0018300000D01*
X0020508000Y0018400000D01*
G37*
G36*
X0020592000Y0018400000D02*
X0020676000Y0018400000D01*
X0020676000Y0018300000D01*
X0020592000Y0018300000D01*
X0020592000Y0018400000D01*
G37*
G36*
X0020340000Y0018300000D02*
X0020424000Y0018300000D01*
X0020424000Y0018200000D01*
X0020340000Y0018200000D01*
X0020340000Y0018300000D01*
G37*
G36*
X0020340000Y0018200000D02*
X0020424000Y0018200000D01*
X0020424000Y0018100000D01*
X0020340000Y0018100000D01*
X0020340000Y0018200000D01*
G37*
G36*
X0020340000Y0018100000D02*
X0020424000Y0018100000D01*
X0020424000Y0018000000D01*
X0020340000Y0018000000D01*
X0020340000Y0018100000D01*
G37*
G36*
X0020424000Y0018100000D02*
X0020508000Y0018100000D01*
X0020508000Y0018000000D01*
X0020424000Y0018000000D01*
X0020424000Y0018100000D01*
G37*
G36*
X0020508000Y0018100000D02*
X0020592000Y0018100000D01*
X0020592000Y0018000000D01*
X0020508000Y0018000000D01*
X0020508000Y0018100000D01*
G37*
G36*
X0020592000Y0018100000D02*
X0020676000Y0018100000D01*
X0020676000Y0018000000D01*
X0020592000Y0018000000D01*
X0020592000Y0018100000D01*
G37*
G36*
X0020676000Y0018100000D02*
X0020760000Y0018100000D01*
X0020760000Y0018000000D01*
X0020676000Y0018000000D01*
X0020676000Y0018100000D01*
G37*
G36*
X0021264000Y0018700000D02*
X0021348000Y0018700000D01*
X0021348000Y0018600000D01*
X0021264000Y0018600000D01*
X0021264000Y0018700000D01*
G37*
G36*
X0021348000Y0018700000D02*
X0021432000Y0018700000D01*
X0021432000Y0018600000D01*
X0021348000Y0018600000D01*
X0021348000Y0018700000D01*
G37*
G36*
X0021432000Y0018700000D02*
X0021516000Y0018700000D01*
X0021516000Y0018600000D01*
X0021432000Y0018600000D01*
X0021432000Y0018700000D01*
G37*
G36*
X0021180000Y0018600000D02*
X0021264000Y0018600000D01*
X0021264000Y0018500000D01*
X0021180000Y0018500000D01*
X0021180000Y0018600000D01*
G37*
G36*
X0021516000Y0018600000D02*
X0021600000Y0018600000D01*
X0021600000Y0018500000D01*
X0021516000Y0018500000D01*
X0021516000Y0018600000D01*
G37*
G36*
X0021180000Y0018500000D02*
X0021264000Y0018500000D01*
X0021264000Y0018400000D01*
X0021180000Y0018400000D01*
X0021180000Y0018500000D01*
G37*
G36*
X0021516000Y0018500000D02*
X0021600000Y0018500000D01*
X0021600000Y0018400000D01*
X0021516000Y0018400000D01*
X0021516000Y0018500000D01*
G37*
G36*
X0021264000Y0018400000D02*
X0021348000Y0018400000D01*
X0021348000Y0018300000D01*
X0021264000Y0018300000D01*
X0021264000Y0018400000D01*
G37*
G36*
X0021348000Y0018400000D02*
X0021432000Y0018400000D01*
X0021432000Y0018300000D01*
X0021348000Y0018300000D01*
X0021348000Y0018400000D01*
G37*
G36*
X0021432000Y0018400000D02*
X0021516000Y0018400000D01*
X0021516000Y0018300000D01*
X0021432000Y0018300000D01*
X0021432000Y0018400000D01*
G37*
G36*
X0021180000Y0018300000D02*
X0021264000Y0018300000D01*
X0021264000Y0018200000D01*
X0021180000Y0018200000D01*
X0021180000Y0018300000D01*
G37*
G36*
X0021516000Y0018300000D02*
X0021600000Y0018300000D01*
X0021600000Y0018200000D01*
X0021516000Y0018200000D01*
X0021516000Y0018300000D01*
G37*
G36*
X0021180000Y0018200000D02*
X0021264000Y0018200000D01*
X0021264000Y0018100000D01*
X0021180000Y0018100000D01*
X0021180000Y0018200000D01*
G37*
G36*
X0021516000Y0018200000D02*
X0021600000Y0018200000D01*
X0021600000Y0018100000D01*
X0021516000Y0018100000D01*
X0021516000Y0018200000D01*
G37*
G36*
X0021264000Y0018100000D02*
X0021348000Y0018100000D01*
X0021348000Y0018000000D01*
X0021264000Y0018000000D01*
X0021264000Y0018100000D01*
G37*
G36*
X0021348000Y0018100000D02*
X0021432000Y0018100000D01*
X0021432000Y0018000000D01*
X0021348000Y0018000000D01*
X0021348000Y0018100000D01*
G37*
G36*
X0021432000Y0018100000D02*
X0021516000Y0018100000D01*
X0021516000Y0018000000D01*
X0021432000Y0018000000D01*
X0021432000Y0018100000D01*
G37*
G36*
X0021600000Y0018700000D02*
X0021684000Y0018700000D01*
X0021684000Y0018600000D01*
X0021600000Y0018600000D01*
X0021600000Y0018700000D01*
G37*
G36*
X0021936000Y0018700000D02*
X0022020000Y0018700000D01*
X0022020000Y0018600000D01*
X0021936000Y0018600000D01*
X0021936000Y0018700000D01*
G37*
G36*
X0021600000Y0018600000D02*
X0021684000Y0018600000D01*
X0021684000Y0018500000D01*
X0021600000Y0018500000D01*
X0021600000Y0018600000D01*
G37*
G36*
X0021684000Y0018600000D02*
X0021768000Y0018600000D01*
X0021768000Y0018500000D01*
X0021684000Y0018500000D01*
X0021684000Y0018600000D01*
G37*
G36*
X0021852000Y0018600000D02*
X0021936000Y0018600000D01*
X0021936000Y0018500000D01*
X0021852000Y0018500000D01*
X0021852000Y0018600000D01*
G37*
G36*
X0021936000Y0018600000D02*
X0022020000Y0018600000D01*
X0022020000Y0018500000D01*
X0021936000Y0018500000D01*
X0021936000Y0018600000D01*
G37*
G36*
X0021600000Y0018500000D02*
X0021684000Y0018500000D01*
X0021684000Y0018400000D01*
X0021600000Y0018400000D01*
X0021600000Y0018500000D01*
G37*
G36*
X0021768000Y0018500000D02*
X0021852000Y0018500000D01*
X0021852000Y0018400000D01*
X0021768000Y0018400000D01*
X0021768000Y0018500000D01*
G37*
G36*
X0021936000Y0018500000D02*
X0022020000Y0018500000D01*
X0022020000Y0018400000D01*
X0021936000Y0018400000D01*
X0021936000Y0018500000D01*
G37*
G36*
X0021600000Y0018400000D02*
X0021684000Y0018400000D01*
X0021684000Y0018300000D01*
X0021600000Y0018300000D01*
X0021600000Y0018400000D01*
G37*
G36*
X0021768000Y0018400000D02*
X0021852000Y0018400000D01*
X0021852000Y0018300000D01*
X0021768000Y0018300000D01*
X0021768000Y0018400000D01*
G37*
G36*
X0021936000Y0018400000D02*
X0022020000Y0018400000D01*
X0022020000Y0018300000D01*
X0021936000Y0018300000D01*
X0021936000Y0018400000D01*
G37*
G36*
X0021600000Y0018300000D02*
X0021684000Y0018300000D01*
X0021684000Y0018200000D01*
X0021600000Y0018200000D01*
X0021600000Y0018300000D01*
G37*
G36*
X0021936000Y0018300000D02*
X0022020000Y0018300000D01*
X0022020000Y0018200000D01*
X0021936000Y0018200000D01*
X0021936000Y0018300000D01*
G37*
G36*
X0021600000Y0018200000D02*
X0021684000Y0018200000D01*
X0021684000Y0018100000D01*
X0021600000Y0018100000D01*
X0021600000Y0018200000D01*
G37*
G36*
X0021936000Y0018200000D02*
X0022020000Y0018200000D01*
X0022020000Y0018100000D01*
X0021936000Y0018100000D01*
X0021936000Y0018200000D01*
G37*
G36*
X0021600000Y0018100000D02*
X0021684000Y0018100000D01*
X0021684000Y0018000000D01*
X0021600000Y0018000000D01*
X0021600000Y0018100000D01*
G37*
G36*
X0021936000Y0018100000D02*
X0022020000Y0018100000D01*
X0022020000Y0018000000D01*
X0021936000Y0018000000D01*
X0021936000Y0018100000D01*
G37*
G36*
X0022020000Y0018700000D02*
X0022104000Y0018700000D01*
X0022104000Y0018600000D01*
X0022020000Y0018600000D01*
X0022020000Y0018700000D01*
G37*
G36*
X0022356000Y0018700000D02*
X0022440000Y0018700000D01*
X0022440000Y0018600000D01*
X0022356000Y0018600000D01*
X0022356000Y0018700000D01*
G37*
G36*
X0022020000Y0018600000D02*
X0022104000Y0018600000D01*
X0022104000Y0018500000D01*
X0022020000Y0018500000D01*
X0022020000Y0018600000D01*
G37*
G36*
X0022356000Y0018600000D02*
X0022440000Y0018600000D01*
X0022440000Y0018500000D01*
X0022356000Y0018500000D01*
X0022356000Y0018600000D01*
G37*
G36*
X0022020000Y0018500000D02*
X0022104000Y0018500000D01*
X0022104000Y0018400000D01*
X0022020000Y0018400000D01*
X0022020000Y0018500000D01*
G37*
G36*
X0022356000Y0018500000D02*
X0022440000Y0018500000D01*
X0022440000Y0018400000D01*
X0022356000Y0018400000D01*
X0022356000Y0018500000D01*
G37*
G36*
X0022020000Y0018400000D02*
X0022104000Y0018400000D01*
X0022104000Y0018300000D01*
X0022020000Y0018300000D01*
X0022020000Y0018400000D01*
G37*
G36*
X0022104000Y0018400000D02*
X0022188000Y0018400000D01*
X0022188000Y0018300000D01*
X0022104000Y0018300000D01*
X0022104000Y0018400000D01*
G37*
G36*
X0022188000Y0018400000D02*
X0022272000Y0018400000D01*
X0022272000Y0018300000D01*
X0022188000Y0018300000D01*
X0022188000Y0018400000D01*
G37*
G36*
X0022272000Y0018400000D02*
X0022356000Y0018400000D01*
X0022356000Y0018300000D01*
X0022272000Y0018300000D01*
X0022272000Y0018400000D01*
G37*
G36*
X0022356000Y0018400000D02*
X0022440000Y0018400000D01*
X0022440000Y0018300000D01*
X0022356000Y0018300000D01*
X0022356000Y0018400000D01*
G37*
G36*
X0022020000Y0018300000D02*
X0022104000Y0018300000D01*
X0022104000Y0018200000D01*
X0022020000Y0018200000D01*
X0022020000Y0018300000D01*
G37*
G36*
X0022356000Y0018300000D02*
X0022440000Y0018300000D01*
X0022440000Y0018200000D01*
X0022356000Y0018200000D01*
X0022356000Y0018300000D01*
G37*
G36*
X0022020000Y0018200000D02*
X0022104000Y0018200000D01*
X0022104000Y0018100000D01*
X0022020000Y0018100000D01*
X0022020000Y0018200000D01*
G37*
G36*
X0022356000Y0018200000D02*
X0022440000Y0018200000D01*
X0022440000Y0018100000D01*
X0022356000Y0018100000D01*
X0022356000Y0018200000D01*
G37*
G36*
X0022020000Y0018100000D02*
X0022104000Y0018100000D01*
X0022104000Y0018000000D01*
X0022020000Y0018000000D01*
X0022020000Y0018100000D01*
G37*
G36*
X0022356000Y0018100000D02*
X0022440000Y0018100000D01*
X0022440000Y0018000000D01*
X0022356000Y0018000000D01*
X0022356000Y0018100000D01*
G37*
G36*
X0022440000Y0018700000D02*
X0022524000Y0018700000D01*
X0022524000Y0018600000D01*
X0022440000Y0018600000D01*
X0022440000Y0018700000D01*
G37*
G36*
X0022524000Y0018700000D02*
X0022608000Y0018700000D01*
X0022608000Y0018600000D01*
X0022524000Y0018600000D01*
X0022524000Y0018700000D01*
G37*
G36*
X0022608000Y0018700000D02*
X0022692000Y0018700000D01*
X0022692000Y0018600000D01*
X0022608000Y0018600000D01*
X0022608000Y0018700000D01*
G37*
G36*
X0022692000Y0018700000D02*
X0022776000Y0018700000D01*
X0022776000Y0018600000D01*
X0022692000Y0018600000D01*
X0022692000Y0018700000D01*
G37*
G36*
X0022776000Y0018700000D02*
X0022860000Y0018700000D01*
X0022860000Y0018600000D01*
X0022776000Y0018600000D01*
X0022776000Y0018700000D01*
G37*
G36*
X0022776000Y0018600000D02*
X0022860000Y0018600000D01*
X0022860000Y0018500000D01*
X0022776000Y0018500000D01*
X0022776000Y0018600000D01*
G37*
G36*
X0022692000Y0018500000D02*
X0022776000Y0018500000D01*
X0022776000Y0018400000D01*
X0022692000Y0018400000D01*
X0022692000Y0018500000D01*
G37*
G36*
X0022608000Y0018400000D02*
X0022692000Y0018400000D01*
X0022692000Y0018300000D01*
X0022608000Y0018300000D01*
X0022608000Y0018400000D01*
G37*
G36*
X0022524000Y0018300000D02*
X0022608000Y0018300000D01*
X0022608000Y0018200000D01*
X0022524000Y0018200000D01*
X0022524000Y0018300000D01*
G37*
G36*
X0022440000Y0018200000D02*
X0022524000Y0018200000D01*
X0022524000Y0018100000D01*
X0022440000Y0018100000D01*
X0022440000Y0018200000D01*
G37*
G36*
X0022440000Y0018100000D02*
X0022524000Y0018100000D01*
X0022524000Y0018000000D01*
X0022440000Y0018000000D01*
X0022440000Y0018100000D01*
G37*
G36*
X0022524000Y0018100000D02*
X0022608000Y0018100000D01*
X0022608000Y0018000000D01*
X0022524000Y0018000000D01*
X0022524000Y0018100000D01*
G37*
G36*
X0022608000Y0018100000D02*
X0022692000Y0018100000D01*
X0022692000Y0018000000D01*
X0022608000Y0018000000D01*
X0022608000Y0018100000D01*
G37*
G36*
X0022692000Y0018100000D02*
X0022776000Y0018100000D01*
X0022776000Y0018000000D01*
X0022692000Y0018000000D01*
X0022692000Y0018100000D01*
G37*
G36*
X0022776000Y0018100000D02*
X0022860000Y0018100000D01*
X0022860000Y0018000000D01*
X0022776000Y0018000000D01*
X0022776000Y0018100000D01*
G37*
G04 TEXT GND POUR B.CU*
G36*
X0012078000Y0003650000D02*
X0012156000Y0003650000D01*
X0012156000Y0003557143D01*
X0012078000Y0003557143D01*
X0012078000Y0003650000D01*
G37*
G36*
X0012156000Y0003650000D02*
X0012234000Y0003650000D01*
X0012234000Y0003557143D01*
X0012156000Y0003557143D01*
X0012156000Y0003650000D01*
G37*
G36*
X0012234000Y0003650000D02*
X0012312000Y0003650000D01*
X0012312000Y0003557143D01*
X0012234000Y0003557143D01*
X0012234000Y0003650000D01*
G37*
G36*
X0012000000Y0003557143D02*
X0012078000Y0003557143D01*
X0012078000Y0003464286D01*
X0012000000Y0003464286D01*
X0012000000Y0003557143D01*
G37*
G36*
X0012312000Y0003557143D02*
X0012390000Y0003557143D01*
X0012390000Y0003464286D01*
X0012312000Y0003464286D01*
X0012312000Y0003557143D01*
G37*
G36*
X0012000000Y0003464286D02*
X0012078000Y0003464286D01*
X0012078000Y0003371429D01*
X0012000000Y0003371429D01*
X0012000000Y0003464286D01*
G37*
G36*
X0012000000Y0003371429D02*
X0012078000Y0003371429D01*
X0012078000Y0003278571D01*
X0012000000Y0003278571D01*
X0012000000Y0003371429D01*
G37*
G36*
X0012156000Y0003371429D02*
X0012234000Y0003371429D01*
X0012234000Y0003278571D01*
X0012156000Y0003278571D01*
X0012156000Y0003371429D01*
G37*
G36*
X0012234000Y0003371429D02*
X0012312000Y0003371429D01*
X0012312000Y0003278571D01*
X0012234000Y0003278571D01*
X0012234000Y0003371429D01*
G37*
G36*
X0012312000Y0003371429D02*
X0012390000Y0003371429D01*
X0012390000Y0003278571D01*
X0012312000Y0003278571D01*
X0012312000Y0003371429D01*
G37*
G36*
X0012000000Y0003278571D02*
X0012078000Y0003278571D01*
X0012078000Y0003185714D01*
X0012000000Y0003185714D01*
X0012000000Y0003278571D01*
G37*
G36*
X0012312000Y0003278571D02*
X0012390000Y0003278571D01*
X0012390000Y0003185714D01*
X0012312000Y0003185714D01*
X0012312000Y0003278571D01*
G37*
G36*
X0012000000Y0003185714D02*
X0012078000Y0003185714D01*
X0012078000Y0003092857D01*
X0012000000Y0003092857D01*
X0012000000Y0003185714D01*
G37*
G36*
X0012312000Y0003185714D02*
X0012390000Y0003185714D01*
X0012390000Y0003092857D01*
X0012312000Y0003092857D01*
X0012312000Y0003185714D01*
G37*
G36*
X0012078000Y0003092857D02*
X0012156000Y0003092857D01*
X0012156000Y0003000000D01*
X0012078000Y0003000000D01*
X0012078000Y0003092857D01*
G37*
G36*
X0012156000Y0003092857D02*
X0012234000Y0003092857D01*
X0012234000Y0003000000D01*
X0012156000Y0003000000D01*
X0012156000Y0003092857D01*
G37*
G36*
X0012234000Y0003092857D02*
X0012312000Y0003092857D01*
X0012312000Y0003000000D01*
X0012234000Y0003000000D01*
X0012234000Y0003092857D01*
G37*
G36*
X0012390000Y0003650000D02*
X0012468000Y0003650000D01*
X0012468000Y0003557143D01*
X0012390000Y0003557143D01*
X0012390000Y0003650000D01*
G37*
G36*
X0012702000Y0003650000D02*
X0012780000Y0003650000D01*
X0012780000Y0003557143D01*
X0012702000Y0003557143D01*
X0012702000Y0003650000D01*
G37*
G36*
X0012390000Y0003557143D02*
X0012468000Y0003557143D01*
X0012468000Y0003464286D01*
X0012390000Y0003464286D01*
X0012390000Y0003557143D01*
G37*
G36*
X0012468000Y0003557143D02*
X0012546000Y0003557143D01*
X0012546000Y0003464286D01*
X0012468000Y0003464286D01*
X0012468000Y0003557143D01*
G37*
G36*
X0012702000Y0003557143D02*
X0012780000Y0003557143D01*
X0012780000Y0003464286D01*
X0012702000Y0003464286D01*
X0012702000Y0003557143D01*
G37*
G36*
X0012390000Y0003464286D02*
X0012468000Y0003464286D01*
X0012468000Y0003371429D01*
X0012390000Y0003371429D01*
X0012390000Y0003464286D01*
G37*
G36*
X0012546000Y0003464286D02*
X0012624000Y0003464286D01*
X0012624000Y0003371429D01*
X0012546000Y0003371429D01*
X0012546000Y0003464286D01*
G37*
G36*
X0012702000Y0003464286D02*
X0012780000Y0003464286D01*
X0012780000Y0003371429D01*
X0012702000Y0003371429D01*
X0012702000Y0003464286D01*
G37*
G36*
X0012390000Y0003371429D02*
X0012468000Y0003371429D01*
X0012468000Y0003278571D01*
X0012390000Y0003278571D01*
X0012390000Y0003371429D01*
G37*
G36*
X0012624000Y0003371429D02*
X0012702000Y0003371429D01*
X0012702000Y0003278571D01*
X0012624000Y0003278571D01*
X0012624000Y0003371429D01*
G37*
G36*
X0012702000Y0003371429D02*
X0012780000Y0003371429D01*
X0012780000Y0003278571D01*
X0012702000Y0003278571D01*
X0012702000Y0003371429D01*
G37*
G36*
X0012390000Y0003278571D02*
X0012468000Y0003278571D01*
X0012468000Y0003185714D01*
X0012390000Y0003185714D01*
X0012390000Y0003278571D01*
G37*
G36*
X0012702000Y0003278571D02*
X0012780000Y0003278571D01*
X0012780000Y0003185714D01*
X0012702000Y0003185714D01*
X0012702000Y0003278571D01*
G37*
G36*
X0012390000Y0003185714D02*
X0012468000Y0003185714D01*
X0012468000Y0003092857D01*
X0012390000Y0003092857D01*
X0012390000Y0003185714D01*
G37*
G36*
X0012702000Y0003185714D02*
X0012780000Y0003185714D01*
X0012780000Y0003092857D01*
X0012702000Y0003092857D01*
X0012702000Y0003185714D01*
G37*
G36*
X0012390000Y0003092857D02*
X0012468000Y0003092857D01*
X0012468000Y0003000000D01*
X0012390000Y0003000000D01*
X0012390000Y0003092857D01*
G37*
G36*
X0012702000Y0003092857D02*
X0012780000Y0003092857D01*
X0012780000Y0003000000D01*
X0012702000Y0003000000D01*
X0012702000Y0003092857D01*
G37*
G36*
X0012780000Y0003650000D02*
X0012858000Y0003650000D01*
X0012858000Y0003557143D01*
X0012780000Y0003557143D01*
X0012780000Y0003650000D01*
G37*
G36*
X0012858000Y0003650000D02*
X0012936000Y0003650000D01*
X0012936000Y0003557143D01*
X0012858000Y0003557143D01*
X0012858000Y0003650000D01*
G37*
G36*
X0012936000Y0003650000D02*
X0013014000Y0003650000D01*
X0013014000Y0003557143D01*
X0012936000Y0003557143D01*
X0012936000Y0003650000D01*
G37*
G36*
X0013014000Y0003650000D02*
X0013092000Y0003650000D01*
X0013092000Y0003557143D01*
X0013014000Y0003557143D01*
X0013014000Y0003650000D01*
G37*
G36*
X0012780000Y0003557143D02*
X0012858000Y0003557143D01*
X0012858000Y0003464286D01*
X0012780000Y0003464286D01*
X0012780000Y0003557143D01*
G37*
G36*
X0013092000Y0003557143D02*
X0013170000Y0003557143D01*
X0013170000Y0003464286D01*
X0013092000Y0003464286D01*
X0013092000Y0003557143D01*
G37*
G36*
X0012780000Y0003464286D02*
X0012858000Y0003464286D01*
X0012858000Y0003371429D01*
X0012780000Y0003371429D01*
X0012780000Y0003464286D01*
G37*
G36*
X0013092000Y0003464286D02*
X0013170000Y0003464286D01*
X0013170000Y0003371429D01*
X0013092000Y0003371429D01*
X0013092000Y0003464286D01*
G37*
G36*
X0012780000Y0003371429D02*
X0012858000Y0003371429D01*
X0012858000Y0003278571D01*
X0012780000Y0003278571D01*
X0012780000Y0003371429D01*
G37*
G36*
X0013092000Y0003371429D02*
X0013170000Y0003371429D01*
X0013170000Y0003278571D01*
X0013092000Y0003278571D01*
X0013092000Y0003371429D01*
G37*
G36*
X0012780000Y0003278571D02*
X0012858000Y0003278571D01*
X0012858000Y0003185714D01*
X0012780000Y0003185714D01*
X0012780000Y0003278571D01*
G37*
G36*
X0013092000Y0003278571D02*
X0013170000Y0003278571D01*
X0013170000Y0003185714D01*
X0013092000Y0003185714D01*
X0013092000Y0003278571D01*
G37*
G36*
X0012780000Y0003185714D02*
X0012858000Y0003185714D01*
X0012858000Y0003092857D01*
X0012780000Y0003092857D01*
X0012780000Y0003185714D01*
G37*
G36*
X0013092000Y0003185714D02*
X0013170000Y0003185714D01*
X0013170000Y0003092857D01*
X0013092000Y0003092857D01*
X0013092000Y0003185714D01*
G37*
G36*
X0012780000Y0003092857D02*
X0012858000Y0003092857D01*
X0012858000Y0003000000D01*
X0012780000Y0003000000D01*
X0012780000Y0003092857D01*
G37*
G36*
X0012858000Y0003092857D02*
X0012936000Y0003092857D01*
X0012936000Y0003000000D01*
X0012858000Y0003000000D01*
X0012858000Y0003092857D01*
G37*
G36*
X0012936000Y0003092857D02*
X0013014000Y0003092857D01*
X0013014000Y0003000000D01*
X0012936000Y0003000000D01*
X0012936000Y0003092857D01*
G37*
G36*
X0013014000Y0003092857D02*
X0013092000Y0003092857D01*
X0013092000Y0003000000D01*
X0013014000Y0003000000D01*
X0013014000Y0003092857D01*
G37*
G36*
X0013560000Y0003650000D02*
X0013638000Y0003650000D01*
X0013638000Y0003557143D01*
X0013560000Y0003557143D01*
X0013560000Y0003650000D01*
G37*
G36*
X0013638000Y0003650000D02*
X0013716000Y0003650000D01*
X0013716000Y0003557143D01*
X0013638000Y0003557143D01*
X0013638000Y0003650000D01*
G37*
G36*
X0013716000Y0003650000D02*
X0013794000Y0003650000D01*
X0013794000Y0003557143D01*
X0013716000Y0003557143D01*
X0013716000Y0003650000D01*
G37*
G36*
X0013794000Y0003650000D02*
X0013872000Y0003650000D01*
X0013872000Y0003557143D01*
X0013794000Y0003557143D01*
X0013794000Y0003650000D01*
G37*
G36*
X0013560000Y0003557143D02*
X0013638000Y0003557143D01*
X0013638000Y0003464286D01*
X0013560000Y0003464286D01*
X0013560000Y0003557143D01*
G37*
G36*
X0013872000Y0003557143D02*
X0013950000Y0003557143D01*
X0013950000Y0003464286D01*
X0013872000Y0003464286D01*
X0013872000Y0003557143D01*
G37*
G36*
X0013560000Y0003464286D02*
X0013638000Y0003464286D01*
X0013638000Y0003371429D01*
X0013560000Y0003371429D01*
X0013560000Y0003464286D01*
G37*
G36*
X0013872000Y0003464286D02*
X0013950000Y0003464286D01*
X0013950000Y0003371429D01*
X0013872000Y0003371429D01*
X0013872000Y0003464286D01*
G37*
G36*
X0013560000Y0003371429D02*
X0013638000Y0003371429D01*
X0013638000Y0003278571D01*
X0013560000Y0003278571D01*
X0013560000Y0003371429D01*
G37*
G36*
X0013638000Y0003371429D02*
X0013716000Y0003371429D01*
X0013716000Y0003278571D01*
X0013638000Y0003278571D01*
X0013638000Y0003371429D01*
G37*
G36*
X0013716000Y0003371429D02*
X0013794000Y0003371429D01*
X0013794000Y0003278571D01*
X0013716000Y0003278571D01*
X0013716000Y0003371429D01*
G37*
G36*
X0013794000Y0003371429D02*
X0013872000Y0003371429D01*
X0013872000Y0003278571D01*
X0013794000Y0003278571D01*
X0013794000Y0003371429D01*
G37*
G36*
X0013560000Y0003278571D02*
X0013638000Y0003278571D01*
X0013638000Y0003185714D01*
X0013560000Y0003185714D01*
X0013560000Y0003278571D01*
G37*
G36*
X0013560000Y0003185714D02*
X0013638000Y0003185714D01*
X0013638000Y0003092857D01*
X0013560000Y0003092857D01*
X0013560000Y0003185714D01*
G37*
G36*
X0013560000Y0003092857D02*
X0013638000Y0003092857D01*
X0013638000Y0003000000D01*
X0013560000Y0003000000D01*
X0013560000Y0003092857D01*
G37*
G36*
X0014028000Y0003650000D02*
X0014106000Y0003650000D01*
X0014106000Y0003557143D01*
X0014028000Y0003557143D01*
X0014028000Y0003650000D01*
G37*
G36*
X0014106000Y0003650000D02*
X0014184000Y0003650000D01*
X0014184000Y0003557143D01*
X0014106000Y0003557143D01*
X0014106000Y0003650000D01*
G37*
G36*
X0014184000Y0003650000D02*
X0014262000Y0003650000D01*
X0014262000Y0003557143D01*
X0014184000Y0003557143D01*
X0014184000Y0003650000D01*
G37*
G36*
X0013950000Y0003557143D02*
X0014028000Y0003557143D01*
X0014028000Y0003464286D01*
X0013950000Y0003464286D01*
X0013950000Y0003557143D01*
G37*
G36*
X0014262000Y0003557143D02*
X0014340000Y0003557143D01*
X0014340000Y0003464286D01*
X0014262000Y0003464286D01*
X0014262000Y0003557143D01*
G37*
G36*
X0013950000Y0003464286D02*
X0014028000Y0003464286D01*
X0014028000Y0003371429D01*
X0013950000Y0003371429D01*
X0013950000Y0003464286D01*
G37*
G36*
X0014262000Y0003464286D02*
X0014340000Y0003464286D01*
X0014340000Y0003371429D01*
X0014262000Y0003371429D01*
X0014262000Y0003464286D01*
G37*
G36*
X0013950000Y0003371429D02*
X0014028000Y0003371429D01*
X0014028000Y0003278571D01*
X0013950000Y0003278571D01*
X0013950000Y0003371429D01*
G37*
G36*
X0014262000Y0003371429D02*
X0014340000Y0003371429D01*
X0014340000Y0003278571D01*
X0014262000Y0003278571D01*
X0014262000Y0003371429D01*
G37*
G36*
X0013950000Y0003278571D02*
X0014028000Y0003278571D01*
X0014028000Y0003185714D01*
X0013950000Y0003185714D01*
X0013950000Y0003278571D01*
G37*
G36*
X0014262000Y0003278571D02*
X0014340000Y0003278571D01*
X0014340000Y0003185714D01*
X0014262000Y0003185714D01*
X0014262000Y0003278571D01*
G37*
G36*
X0013950000Y0003185714D02*
X0014028000Y0003185714D01*
X0014028000Y0003092857D01*
X0013950000Y0003092857D01*
X0013950000Y0003185714D01*
G37*
G36*
X0014262000Y0003185714D02*
X0014340000Y0003185714D01*
X0014340000Y0003092857D01*
X0014262000Y0003092857D01*
X0014262000Y0003185714D01*
G37*
G36*
X0014028000Y0003092857D02*
X0014106000Y0003092857D01*
X0014106000Y0003000000D01*
X0014028000Y0003000000D01*
X0014028000Y0003092857D01*
G37*
G36*
X0014106000Y0003092857D02*
X0014184000Y0003092857D01*
X0014184000Y0003000000D01*
X0014106000Y0003000000D01*
X0014106000Y0003092857D01*
G37*
G36*
X0014184000Y0003092857D02*
X0014262000Y0003092857D01*
X0014262000Y0003000000D01*
X0014184000Y0003000000D01*
X0014184000Y0003092857D01*
G37*
G36*
X0014340000Y0003650000D02*
X0014418000Y0003650000D01*
X0014418000Y0003557143D01*
X0014340000Y0003557143D01*
X0014340000Y0003650000D01*
G37*
G36*
X0014652000Y0003650000D02*
X0014730000Y0003650000D01*
X0014730000Y0003557143D01*
X0014652000Y0003557143D01*
X0014652000Y0003650000D01*
G37*
G36*
X0014340000Y0003557143D02*
X0014418000Y0003557143D01*
X0014418000Y0003464286D01*
X0014340000Y0003464286D01*
X0014340000Y0003557143D01*
G37*
G36*
X0014652000Y0003557143D02*
X0014730000Y0003557143D01*
X0014730000Y0003464286D01*
X0014652000Y0003464286D01*
X0014652000Y0003557143D01*
G37*
G36*
X0014340000Y0003464286D02*
X0014418000Y0003464286D01*
X0014418000Y0003371429D01*
X0014340000Y0003371429D01*
X0014340000Y0003464286D01*
G37*
G36*
X0014652000Y0003464286D02*
X0014730000Y0003464286D01*
X0014730000Y0003371429D01*
X0014652000Y0003371429D01*
X0014652000Y0003464286D01*
G37*
G36*
X0014340000Y0003371429D02*
X0014418000Y0003371429D01*
X0014418000Y0003278571D01*
X0014340000Y0003278571D01*
X0014340000Y0003371429D01*
G37*
G36*
X0014652000Y0003371429D02*
X0014730000Y0003371429D01*
X0014730000Y0003278571D01*
X0014652000Y0003278571D01*
X0014652000Y0003371429D01*
G37*
G36*
X0014340000Y0003278571D02*
X0014418000Y0003278571D01*
X0014418000Y0003185714D01*
X0014340000Y0003185714D01*
X0014340000Y0003278571D01*
G37*
G36*
X0014652000Y0003278571D02*
X0014730000Y0003278571D01*
X0014730000Y0003185714D01*
X0014652000Y0003185714D01*
X0014652000Y0003278571D01*
G37*
G36*
X0014340000Y0003185714D02*
X0014418000Y0003185714D01*
X0014418000Y0003092857D01*
X0014340000Y0003092857D01*
X0014340000Y0003185714D01*
G37*
G36*
X0014652000Y0003185714D02*
X0014730000Y0003185714D01*
X0014730000Y0003092857D01*
X0014652000Y0003092857D01*
X0014652000Y0003185714D01*
G37*
G36*
X0014418000Y0003092857D02*
X0014496000Y0003092857D01*
X0014496000Y0003000000D01*
X0014418000Y0003000000D01*
X0014418000Y0003092857D01*
G37*
G36*
X0014496000Y0003092857D02*
X0014574000Y0003092857D01*
X0014574000Y0003000000D01*
X0014496000Y0003000000D01*
X0014496000Y0003092857D01*
G37*
G36*
X0014574000Y0003092857D02*
X0014652000Y0003092857D01*
X0014652000Y0003000000D01*
X0014574000Y0003000000D01*
X0014574000Y0003092857D01*
G37*
G36*
X0014730000Y0003650000D02*
X0014808000Y0003650000D01*
X0014808000Y0003557143D01*
X0014730000Y0003557143D01*
X0014730000Y0003650000D01*
G37*
G36*
X0014808000Y0003650000D02*
X0014886000Y0003650000D01*
X0014886000Y0003557143D01*
X0014808000Y0003557143D01*
X0014808000Y0003650000D01*
G37*
G36*
X0014886000Y0003650000D02*
X0014964000Y0003650000D01*
X0014964000Y0003557143D01*
X0014886000Y0003557143D01*
X0014886000Y0003650000D01*
G37*
G36*
X0014964000Y0003650000D02*
X0015042000Y0003650000D01*
X0015042000Y0003557143D01*
X0014964000Y0003557143D01*
X0014964000Y0003650000D01*
G37*
G36*
X0014730000Y0003557143D02*
X0014808000Y0003557143D01*
X0014808000Y0003464286D01*
X0014730000Y0003464286D01*
X0014730000Y0003557143D01*
G37*
G36*
X0015042000Y0003557143D02*
X0015120000Y0003557143D01*
X0015120000Y0003464286D01*
X0015042000Y0003464286D01*
X0015042000Y0003557143D01*
G37*
G36*
X0014730000Y0003464286D02*
X0014808000Y0003464286D01*
X0014808000Y0003371429D01*
X0014730000Y0003371429D01*
X0014730000Y0003464286D01*
G37*
G36*
X0015042000Y0003464286D02*
X0015120000Y0003464286D01*
X0015120000Y0003371429D01*
X0015042000Y0003371429D01*
X0015042000Y0003464286D01*
G37*
G36*
X0014730000Y0003371429D02*
X0014808000Y0003371429D01*
X0014808000Y0003278571D01*
X0014730000Y0003278571D01*
X0014730000Y0003371429D01*
G37*
G36*
X0014808000Y0003371429D02*
X0014886000Y0003371429D01*
X0014886000Y0003278571D01*
X0014808000Y0003278571D01*
X0014808000Y0003371429D01*
G37*
G36*
X0014886000Y0003371429D02*
X0014964000Y0003371429D01*
X0014964000Y0003278571D01*
X0014886000Y0003278571D01*
X0014886000Y0003371429D01*
G37*
G36*
X0014964000Y0003371429D02*
X0015042000Y0003371429D01*
X0015042000Y0003278571D01*
X0014964000Y0003278571D01*
X0014964000Y0003371429D01*
G37*
G36*
X0014730000Y0003278571D02*
X0014808000Y0003278571D01*
X0014808000Y0003185714D01*
X0014730000Y0003185714D01*
X0014730000Y0003278571D01*
G37*
G36*
X0014886000Y0003278571D02*
X0014964000Y0003278571D01*
X0014964000Y0003185714D01*
X0014886000Y0003185714D01*
X0014886000Y0003278571D01*
G37*
G36*
X0014730000Y0003185714D02*
X0014808000Y0003185714D01*
X0014808000Y0003092857D01*
X0014730000Y0003092857D01*
X0014730000Y0003185714D01*
G37*
G36*
X0014964000Y0003185714D02*
X0015042000Y0003185714D01*
X0015042000Y0003092857D01*
X0014964000Y0003092857D01*
X0014964000Y0003185714D01*
G37*
G36*
X0014730000Y0003092857D02*
X0014808000Y0003092857D01*
X0014808000Y0003000000D01*
X0014730000Y0003000000D01*
X0014730000Y0003092857D01*
G37*
G36*
X0015042000Y0003092857D02*
X0015120000Y0003092857D01*
X0015120000Y0003000000D01*
X0015042000Y0003000000D01*
X0015042000Y0003092857D01*
G37*
G36*
X0015510000Y0003650000D02*
X0015588000Y0003650000D01*
X0015588000Y0003557143D01*
X0015510000Y0003557143D01*
X0015510000Y0003650000D01*
G37*
G36*
X0015588000Y0003650000D02*
X0015666000Y0003650000D01*
X0015666000Y0003557143D01*
X0015588000Y0003557143D01*
X0015588000Y0003650000D01*
G37*
G36*
X0015666000Y0003650000D02*
X0015744000Y0003650000D01*
X0015744000Y0003557143D01*
X0015666000Y0003557143D01*
X0015666000Y0003650000D01*
G37*
G36*
X0015744000Y0003650000D02*
X0015822000Y0003650000D01*
X0015822000Y0003557143D01*
X0015744000Y0003557143D01*
X0015744000Y0003650000D01*
G37*
G36*
X0015510000Y0003557143D02*
X0015588000Y0003557143D01*
X0015588000Y0003464286D01*
X0015510000Y0003464286D01*
X0015510000Y0003557143D01*
G37*
G36*
X0015822000Y0003557143D02*
X0015900000Y0003557143D01*
X0015900000Y0003464286D01*
X0015822000Y0003464286D01*
X0015822000Y0003557143D01*
G37*
G36*
X0015510000Y0003464286D02*
X0015588000Y0003464286D01*
X0015588000Y0003371429D01*
X0015510000Y0003371429D01*
X0015510000Y0003464286D01*
G37*
G36*
X0015822000Y0003464286D02*
X0015900000Y0003464286D01*
X0015900000Y0003371429D01*
X0015822000Y0003371429D01*
X0015822000Y0003464286D01*
G37*
G36*
X0015510000Y0003371429D02*
X0015588000Y0003371429D01*
X0015588000Y0003278571D01*
X0015510000Y0003278571D01*
X0015510000Y0003371429D01*
G37*
G36*
X0015588000Y0003371429D02*
X0015666000Y0003371429D01*
X0015666000Y0003278571D01*
X0015588000Y0003278571D01*
X0015588000Y0003371429D01*
G37*
G36*
X0015666000Y0003371429D02*
X0015744000Y0003371429D01*
X0015744000Y0003278571D01*
X0015666000Y0003278571D01*
X0015666000Y0003371429D01*
G37*
G36*
X0015744000Y0003371429D02*
X0015822000Y0003371429D01*
X0015822000Y0003278571D01*
X0015744000Y0003278571D01*
X0015744000Y0003371429D01*
G37*
G36*
X0015510000Y0003278571D02*
X0015588000Y0003278571D01*
X0015588000Y0003185714D01*
X0015510000Y0003185714D01*
X0015510000Y0003278571D01*
G37*
G36*
X0015822000Y0003278571D02*
X0015900000Y0003278571D01*
X0015900000Y0003185714D01*
X0015822000Y0003185714D01*
X0015822000Y0003278571D01*
G37*
G36*
X0015510000Y0003185714D02*
X0015588000Y0003185714D01*
X0015588000Y0003092857D01*
X0015510000Y0003092857D01*
X0015510000Y0003185714D01*
G37*
G36*
X0015822000Y0003185714D02*
X0015900000Y0003185714D01*
X0015900000Y0003092857D01*
X0015822000Y0003092857D01*
X0015822000Y0003185714D01*
G37*
G36*
X0015510000Y0003092857D02*
X0015588000Y0003092857D01*
X0015588000Y0003000000D01*
X0015510000Y0003000000D01*
X0015510000Y0003092857D01*
G37*
G36*
X0015588000Y0003092857D02*
X0015666000Y0003092857D01*
X0015666000Y0003000000D01*
X0015588000Y0003000000D01*
X0015588000Y0003092857D01*
G37*
G36*
X0015666000Y0003092857D02*
X0015744000Y0003092857D01*
X0015744000Y0003000000D01*
X0015666000Y0003000000D01*
X0015666000Y0003092857D01*
G37*
G36*
X0015744000Y0003092857D02*
X0015822000Y0003092857D01*
X0015822000Y0003000000D01*
X0015744000Y0003000000D01*
X0015744000Y0003092857D01*
G37*
G36*
X0015978000Y0003185714D02*
X0016056000Y0003185714D01*
X0016056000Y0003092857D01*
X0015978000Y0003092857D01*
X0015978000Y0003185714D01*
G37*
G36*
X0016056000Y0003185714D02*
X0016134000Y0003185714D01*
X0016134000Y0003092857D01*
X0016056000Y0003092857D01*
X0016056000Y0003185714D01*
G37*
G36*
X0015978000Y0003092857D02*
X0016056000Y0003092857D01*
X0016056000Y0003000000D01*
X0015978000Y0003000000D01*
X0015978000Y0003092857D01*
G37*
G36*
X0016056000Y0003092857D02*
X0016134000Y0003092857D01*
X0016134000Y0003000000D01*
X0016056000Y0003000000D01*
X0016056000Y0003092857D01*
G37*
G36*
X0016368000Y0003650000D02*
X0016446000Y0003650000D01*
X0016446000Y0003557143D01*
X0016368000Y0003557143D01*
X0016368000Y0003650000D01*
G37*
G36*
X0016446000Y0003650000D02*
X0016524000Y0003650000D01*
X0016524000Y0003557143D01*
X0016446000Y0003557143D01*
X0016446000Y0003650000D01*
G37*
G36*
X0016524000Y0003650000D02*
X0016602000Y0003650000D01*
X0016602000Y0003557143D01*
X0016524000Y0003557143D01*
X0016524000Y0003650000D01*
G37*
G36*
X0016290000Y0003557143D02*
X0016368000Y0003557143D01*
X0016368000Y0003464286D01*
X0016290000Y0003464286D01*
X0016290000Y0003557143D01*
G37*
G36*
X0016602000Y0003557143D02*
X0016680000Y0003557143D01*
X0016680000Y0003464286D01*
X0016602000Y0003464286D01*
X0016602000Y0003557143D01*
G37*
G36*
X0016290000Y0003464286D02*
X0016368000Y0003464286D01*
X0016368000Y0003371429D01*
X0016290000Y0003371429D01*
X0016290000Y0003464286D01*
G37*
G36*
X0016290000Y0003371429D02*
X0016368000Y0003371429D01*
X0016368000Y0003278571D01*
X0016290000Y0003278571D01*
X0016290000Y0003371429D01*
G37*
G36*
X0016290000Y0003278571D02*
X0016368000Y0003278571D01*
X0016368000Y0003185714D01*
X0016290000Y0003185714D01*
X0016290000Y0003278571D01*
G37*
G36*
X0016290000Y0003185714D02*
X0016368000Y0003185714D01*
X0016368000Y0003092857D01*
X0016290000Y0003092857D01*
X0016290000Y0003185714D01*
G37*
G36*
X0016602000Y0003185714D02*
X0016680000Y0003185714D01*
X0016680000Y0003092857D01*
X0016602000Y0003092857D01*
X0016602000Y0003185714D01*
G37*
G36*
X0016368000Y0003092857D02*
X0016446000Y0003092857D01*
X0016446000Y0003000000D01*
X0016368000Y0003000000D01*
X0016368000Y0003092857D01*
G37*
G36*
X0016446000Y0003092857D02*
X0016524000Y0003092857D01*
X0016524000Y0003000000D01*
X0016446000Y0003000000D01*
X0016446000Y0003092857D01*
G37*
G36*
X0016524000Y0003092857D02*
X0016602000Y0003092857D01*
X0016602000Y0003000000D01*
X0016524000Y0003000000D01*
X0016524000Y0003092857D01*
G37*
G36*
X0016680000Y0003650000D02*
X0016758000Y0003650000D01*
X0016758000Y0003557143D01*
X0016680000Y0003557143D01*
X0016680000Y0003650000D01*
G37*
G36*
X0016992000Y0003650000D02*
X0017070000Y0003650000D01*
X0017070000Y0003557143D01*
X0016992000Y0003557143D01*
X0016992000Y0003650000D01*
G37*
G36*
X0016680000Y0003557143D02*
X0016758000Y0003557143D01*
X0016758000Y0003464286D01*
X0016680000Y0003464286D01*
X0016680000Y0003557143D01*
G37*
G36*
X0016992000Y0003557143D02*
X0017070000Y0003557143D01*
X0017070000Y0003464286D01*
X0016992000Y0003464286D01*
X0016992000Y0003557143D01*
G37*
G36*
X0016680000Y0003464286D02*
X0016758000Y0003464286D01*
X0016758000Y0003371429D01*
X0016680000Y0003371429D01*
X0016680000Y0003464286D01*
G37*
G36*
X0016992000Y0003464286D02*
X0017070000Y0003464286D01*
X0017070000Y0003371429D01*
X0016992000Y0003371429D01*
X0016992000Y0003464286D01*
G37*
G36*
X0016680000Y0003371429D02*
X0016758000Y0003371429D01*
X0016758000Y0003278571D01*
X0016680000Y0003278571D01*
X0016680000Y0003371429D01*
G37*
G36*
X0016992000Y0003371429D02*
X0017070000Y0003371429D01*
X0017070000Y0003278571D01*
X0016992000Y0003278571D01*
X0016992000Y0003371429D01*
G37*
G36*
X0016680000Y0003278571D02*
X0016758000Y0003278571D01*
X0016758000Y0003185714D01*
X0016680000Y0003185714D01*
X0016680000Y0003278571D01*
G37*
G36*
X0016992000Y0003278571D02*
X0017070000Y0003278571D01*
X0017070000Y0003185714D01*
X0016992000Y0003185714D01*
X0016992000Y0003278571D01*
G37*
G36*
X0016680000Y0003185714D02*
X0016758000Y0003185714D01*
X0016758000Y0003092857D01*
X0016680000Y0003092857D01*
X0016680000Y0003185714D01*
G37*
G36*
X0016992000Y0003185714D02*
X0017070000Y0003185714D01*
X0017070000Y0003092857D01*
X0016992000Y0003092857D01*
X0016992000Y0003185714D01*
G37*
G36*
X0016758000Y0003092857D02*
X0016836000Y0003092857D01*
X0016836000Y0003000000D01*
X0016758000Y0003000000D01*
X0016758000Y0003092857D01*
G37*
G36*
X0016836000Y0003092857D02*
X0016914000Y0003092857D01*
X0016914000Y0003000000D01*
X0016836000Y0003000000D01*
X0016836000Y0003092857D01*
G37*
G36*
X0016914000Y0003092857D02*
X0016992000Y0003092857D01*
X0016992000Y0003000000D01*
X0016914000Y0003000000D01*
X0016914000Y0003092857D01*
G37*
M02*
