G04 Volt Gerber RS-274X*
%FSLAX46Y46*%
%MOMM*%
%TF.GenerationSoftware,Volt,Volt Native Fabrication Exporter,0.1*%
%TF.FileFunction,Copper,L2,Inr*%
%TF.FilePolarity,Positive*%
%LPD*%
%ADD10C,0.200000*%
D10*
X0030250000Y0042450000D02*
X0030250000Y0047500000D01*
X0021500000Y0047500000D01*
X0026500000Y0042450000D02*
X0026500000Y0039000000D01*
X0037000000Y0039000000D01*
X0037000000Y0045000000D01*
X0062500000Y0024250000D02*
X0062500000Y0022500000D01*
X0085600000Y0022500000D01*
X0085600000Y0043540000D01*
X0052750000Y0018500000D02*
X0086500000Y0018500000D01*
X0086500000Y0042270000D01*
X0049750000Y0016000000D02*
X0087400000Y0016000000D01*
X0087400000Y0041000000D01*
X0047250000Y0013000000D02*
X0088300000Y0013000000D01*
X0088300000Y0039730000D01*
X0039000000Y0026250000D02*
X0039000000Y0011000000D01*
X0089200000Y0011000000D01*
X0089200000Y0038460000D01*
%ADD11C,0.700000*%
D11*
X0030250000Y0042450000D03*
X0021500000Y0047500000D03*
X0024000000Y0040550000D03*
X0032250000Y0049250000D03*
X0026500000Y0042450000D03*
X0037000000Y0045000000D03*
X0008000000Y0042500000D03*
X0008000000Y0039500000D03*
X0008000000Y0037000000D03*
X0020500000Y0038500000D03*
X0025000000Y0041500000D03*
X0026500000Y0045500000D03*
X0025500000Y0032000000D03*
X0042000000Y0036500000D03*
X0043000000Y0045000000D03*
X0052500000Y0048000000D03*
X0063000000Y0038000000D03*
X0035500000Y0028000000D03*
X0043000000Y0020000000D03*
X0048500000Y0033000000D03*
X0051000000Y0033000000D03*
X0055000000Y0020000000D03*
X0045500000Y0018000000D03*
X0077500000Y0046500000D03*
X0080000000Y0024000000D03*
X0007500000Y0030500000D03*
X0047000000Y0030000000D03*
X0047000000Y0025000000D03*
X0044500000Y0025500000D03*
X0075500000Y0039500000D03*
X0075500000Y0038000000D03*
X0075500000Y0035500000D03*
X0082000000Y0029000000D03*
X0007500000Y0049000000D03*
X0082000000Y0049000000D03*
X0007500000Y0010000000D03*
X0082000000Y0010000000D03*
X0082700000Y0017300000D03*
X0084000000Y0020700000D03*
X0071750000Y0020500000D03*
X0039750000Y0036000000D03*
X0037550000Y0024750000D03*
X0035450000Y0023250000D03*
X0033250000Y0021500000D03*
X0041250000Y0018500000D03*
X0042000000Y0014250000D03*
X0054000000Y0014250000D03*
X0060000000Y0032250000D03*
X0068100000Y0033500000D03*
X0062500000Y0024250000D03*
X0085600000Y0043540000D03*
X0052750000Y0018500000D03*
X0086500000Y0042270000D03*
X0049750000Y0016000000D03*
X0087400000Y0041000000D03*
X0047250000Y0013000000D03*
X0088300000Y0039730000D03*
X0039000000Y0026250000D03*
X0089200000Y0038460000D03*
%ADD12C,1.700000*%
D12*
X0006000000Y0029270000D03*
X0006000000Y0026730000D03*
X0006000000Y0044810000D03*
X0006000000Y0042270000D03*
X0006000000Y0039730000D03*
X0006000000Y0037190000D03*
%ADD13C,0.850000*%
D13*
X0077365000Y0043540000D03*
X0078635000Y0043540000D03*
X0077365000Y0042270000D03*
X0078635000Y0042270000D03*
X0077365000Y0041000000D03*
X0078635000Y0041000000D03*
X0077365000Y0039730000D03*
X0078635000Y0039730000D03*
X0077365000Y0038460000D03*
X0078635000Y0038460000D03*
D12*
X0084000000Y0024190000D03*
X0084000000Y0026730000D03*
X0084000000Y0029270000D03*
X0084000000Y0031810000D03*
%ADD14C,6.000000*%
D14*
X0006000000Y0052000000D03*
X0084000000Y0052000000D03*
X0006000000Y0006000000D03*
X0084000000Y0006000000D03*
M02*
