<svg xmlns="http://www.w3.org/2000/svg" viewBox="24.6 54.5 279.7 85.3125" width="279.7" height="85.3125">
  <style>.document-background,.sheet{fill:#fff;stroke:none}.sheet-border{fill:none;stroke:#111;stroke-width:0.45}.drawing-frame{fill:none;stroke:#111;stroke-width:0.35}.sheet-grid{stroke:none}.sheet-grid-dot{fill:#d7d7d7;stroke:none}.coordinate-zone-label{font:3px sans-serif;fill:#444;text-anchor:middle;dominant-baseline:middle}.sheet-title{font-weight:600}.title-block-outline,.title-block-rule{fill:none;stroke:#111;stroke-width:0.3}.title-block-label{font:2.5px sans-serif;fill:#444;text-anchor:start}.title-block-value{font:2.5px sans-serif;fill:#111;text-anchor:start}.sheet-region-frame{fill:#fff;fill-opacity:0;stroke:#78716c;stroke-width:0.35}.sheet-region-frame.dashed{stroke-dasharray:3 2}.sheet-region-title{font:3.2px sans-serif;fill:#57534e;text-anchor:start;font-weight:600}.wire-run{fill:none;stroke:#111;stroke-width:0.6;stroke-linecap:round;stroke-linejoin:round}.net-label{font:2.8px sans-serif;fill:#111}.junction{fill:#111;stroke:none}.power-port-line,.ground-bar{stroke:#111;stroke-width:0.5;stroke-linecap:round;stroke-linejoin:round}.no-connect-line{stroke:#111;stroke-width:0.55;stroke-linecap:round}.power-port-shape,.sheet-port-shape{fill:#fff;stroke:#111;stroke-width:0.5;stroke-linejoin:round}.power-port-label,.sheet-port-label{font:2.45px sans-serif;fill:#111;text-anchor:middle}.symbol-field{font:2.5px sans-serif;fill:#111}.symbol-line,.symbol-rectangle,.symbol-circle,.symbol-arc{fill:none;stroke:#111;stroke-width:0.6;stroke-linecap:round;stroke-linejoin:round}.symbol-text{font:3px sans-serif;fill:#111}</style>
  <g class="schematic-body" data-sheet="sheet:0">
    <g class="layer layer-symbols">
    <g class="symbol-instance" data-component="component:0" data-symbol-definition="symbol_def:0" transform="translate(40 80) rotate(0)">
      <rect class="symbol-rectangle" x="8" y="-6" width="22" height="32"/>
      <line class="symbol-line" x1="0" y1="0" x2="8" y2="0"/>
      <line class="symbol-line" x1="0" y1="20" x2="8" y2="20"/>
    </g>
    <g class="symbol-instance" data-component="component:1" data-symbol-definition="symbol_def:1" transform="translate(125 65) rotate(0)">
      <rect class="symbol-rectangle" x="10" y="0" width="30" height="25"/>
      <line class="symbol-line" x1="0" y1="10" x2="10" y2="10"/>
      <line class="symbol-line" x1="40" y1="10" x2="50" y2="10"/>
      <line class="symbol-line" x1="25" y1="25" x2="25" y2="30"/>
    </g>
    <g class="symbol-instance" data-component="component:2" data-symbol-definition="symbol_def:2" transform="translate(85 80) rotate(90)">
      <line class="symbol-line" x1="0" y1="0" x2="8" y2="0"/>
      <line class="symbol-line" x1="8" y1="-5" x2="8" y2="5"/>
      <line class="symbol-line" x1="12" y1="-5" x2="12" y2="5"/>
      <line class="symbol-line" x1="12" y1="0" x2="20" y2="0"/>
    </g>
    <g class="symbol-instance" data-component="component:3" data-symbol-definition="symbol_def:2" transform="translate(210 75) rotate(90)">
      <line class="symbol-line" x1="0" y1="0" x2="8" y2="0"/>
      <line class="symbol-line" x1="8" y1="-5" x2="8" y2="5"/>
      <line class="symbol-line" x1="12" y1="-5" x2="12" y2="5"/>
      <line class="symbol-line" x1="12" y1="0" x2="20" y2="0"/>
    </g>
    <g class="symbol-instance" data-component="component:4" data-symbol-definition="symbol_def:3" transform="translate(240 75) rotate(0)">
      <line class="symbol-line" x1="0" y1="0" x2="5" y2="0"/>
      <line class="symbol-line" x1="5" y1="0" x2="6.5" y2="-3"/>
      <line class="symbol-line" x1="6.5" y1="-3" x2="8" y2="3"/>
      <line class="symbol-line" x1="8" y1="3" x2="9.5" y2="-3"/>
      <line class="symbol-line" x1="9.5" y1="-3" x2="11" y2="3"/>
      <line class="symbol-line" x1="11" y1="3" x2="12.5" y2="-3"/>
      <line class="symbol-line" x1="12.5" y1="-3" x2="14" y2="3"/>
      <line class="symbol-line" x1="14" y1="3" x2="15" y2="0"/>
      <line class="symbol-line" x1="15" y1="0" x2="20" y2="0"/>
    </g>
    <g class="symbol-instance" data-component="component:5" data-symbol-definition="symbol_def:4" transform="translate(280 75) rotate(0)">
      <line class="symbol-line" x1="20" y1="0" x2="13" y2="0"/>
      <line class="symbol-line" x1="13" y1="-5" x2="13" y2="5"/>
      <line class="symbol-line" x1="13" y1="-5" x2="7" y2="0"/>
      <line class="symbol-line" x1="13" y1="5" x2="7" y2="0"/>
      <line class="symbol-line" x1="7" y1="0" x2="0" y2="0"/>
      <line class="symbol-line" x1="7" y1="-6" x2="3" y2="-10"/>
      <line class="symbol-line" x1="5" y1="-4" x2="1" y2="-8"/>
    </g>
    </g>
    <g class="layer layer-wires">
    <polyline class="wire-run" data-net="net:0" points="40,80 85,80"/>
    <polyline class="wire-run" data-net="net:0" points="85,80 125,75"/>
    <polyline class="wire-run" data-net="net:1" points="175,75 210,75"/>
    <polyline class="wire-run" data-net="net:1" points="210,75 240,75"/>
    <polyline class="wire-run" data-net="net:2" points="260,75 280,75"/>
    <polyline class="wire-run" data-net="net:3" points="150,95 150,123"/>
    <polyline class="wire-run" data-net="net:3" points="40,100 150,123"/>
    <polyline class="wire-run" data-net="net:3" points="85,100 150,123"/>
    <polyline class="wire-run" data-net="net:3" points="210,95 150,123"/>
    <polyline class="wire-run" data-net="net:3" points="300,75 150,123"/>
    </g>
    <g class="layer layer-junctions">
    <circle class="junction" data-net="net:0" cx="85" cy="80" r="0.85"/>
    <circle class="junction" data-net="net:1" cx="210" cy="75" r="0.85"/>
    </g>
    <g class="layer layer-ports">
    <g class="power-port ground" data-net="net:3" transform="translate(150 123)">
      <line class="power-port-line" x1="0" y1="0" x2="0" y2="3"/>
      <line class="ground-bar" x1="-3.6" y1="3" x2="3.6" y2="3"/>
      <line class="ground-bar" x1="-2.2" y1="4.6" x2="2.2" y2="4.6"/>
      <line class="ground-bar" x1="-0.9" y1="6" x2="0.9" y2="6"/>
    </g>
    <text class="power-port-label" data-net="net:3" x="150" y="135.2">GND</text>
    </g>
    <g class="layer layer-labels">
    </g>
    <g class="layer layer-symbol-text">
    <g class="symbol-text-instance" data-component="component:0" data-symbol-definition="symbol_def:0" transform="translate(40 80) rotate(0)">
      <text class="symbol-text" x="19" y="-12" text-anchor="middle" dominant-baseline="alphabetic" transform="rotate(0 19 -12)">PWR</text>
    </g>
    <g class="symbol-text-instance" data-component="component:1" data-symbol-definition="symbol_def:1" transform="translate(125 65) rotate(0)">
      <text class="symbol-text" x="25" y="14" text-anchor="middle" dominant-baseline="alphabetic" transform="rotate(0 25 14)">REG</text>
    </g>
    </g>
    <g class="layer layer-fields">
    <text class="symbol-field" data-symbol-instance="symbol_instance:0" data-field="reference" x="30" y="90" text-anchor="middle" dominant-baseline="alphabetic" transform="rotate(0 30 90)">J1</text>
    <text class="symbol-field" data-symbol-instance="symbol_instance:1" data-field="reference" x="150" y="61" text-anchor="middle" dominant-baseline="alphabetic" transform="rotate(0 150 61)">U1</text>
    <text class="symbol-field" data-symbol-instance="symbol_instance:2" data-field="reference" x="77" y="90" text-anchor="middle" dominant-baseline="alphabetic" transform="rotate(0 77 90)">C1</text>
    <text class="symbol-field" data-symbol-instance="symbol_instance:2" data-field="value" x="75" y="102" text-anchor="middle" dominant-baseline="alphabetic" transform="rotate(0 75 102)">1 uF</text>
    <text class="symbol-field" data-symbol-instance="symbol_instance:3" data-field="reference" x="218" y="85" text-anchor="middle" dominant-baseline="alphabetic" transform="rotate(0 218 85)">C2</text>
    <text class="symbol-field" data-symbol-instance="symbol_instance:3" data-field="value" x="232" y="85" text-anchor="middle" dominant-baseline="alphabetic" transform="rotate(0 232 85)">1 uF</text>
    <text class="symbol-field" data-symbol-instance="symbol_instance:4" data-field="reference" x="250" y="67" text-anchor="middle" dominant-baseline="alphabetic" transform="rotate(0 250 67)">R1</text>
    <text class="symbol-field" data-symbol-instance="symbol_instance:4" data-field="value" x="250" y="83" text-anchor="middle" dominant-baseline="alphabetic" transform="rotate(0 250 83)">330 ohm</text>
    <text class="symbol-field" data-symbol-instance="symbol_instance:5" data-field="reference" x="290" y="61" text-anchor="middle" dominant-baseline="alphabetic" transform="rotate(0 290 61)">D1</text>
    </g>
  </g>
</svg>
